<?xml version="1.0" encoding="UTF-8" standalone="yes"?><svg xmlns="http://www.w3.org/2000/svg" xmlns:xlink="http://www.w3.org/1999/xlink" height="413pt" style="width:1064px;height:413px;" version="1.1" viewBox="0 0 1064 413" width="1064pt"><defs><filter height="300%" id="f1" width="300%" x="-1" y="-1"><feGaussianBlur result="blurOut" stdDeviation="2.0"/><feColorMatrix in="blurOut" result="blurOut2" type="matrix" values="0 0 0 0 0 0 0 0 0 0 0 0 0 0 0 0 0 0 .4 0"/><feOffset dx="4.0" dy="4.0" in="blurOut2" result="blurOut3"/><feBlend in="SourceGraphic" in2="blurOut3" mode="normal"/></filter></defs><g><text fill="#000000" font-size="13" font-weight="bold" lengthAdjust="spacingAndGlyphs" textLength="379" x="342.5" y="20">Bridge: PC_app &lt;--&gt; AVR - get metadata (success)</text><rect fill="#FFFFFF" filter="url(#f1)" height="243.0625" style="stroke: #383838; stroke-width: 1.0;" width="10" x="33" y="114.3984"/><rect fill="#FFFFFF" filter="url(#f1)" height="243.0625" style="stroke: #383838; stroke-width: 1.0;" width="10" x="329" y="114.3984"/><rect fill="#FFFFFF" filter="url(#f1)" height="184.7969" style="stroke: #383838; stroke-width: 1.0;" width="10" x="625" y="143.5313"/><rect fill="#FFFFFF" filter="url(#f1)" height="126.5313" style="stroke: #383838; stroke-width: 1.0;" width="10" x="840" y="172.6641"/><rect fill="#FFFFFF" filter="url(#f1)" height="29.1328" style="stroke: #383838; stroke-width: 1.0;" width="10" x="1003" y="240.9297"/><rect fill="#DDDDDD" height="382" style="stroke: #383838; stroke-width: 1.0;" width="766" x="297.5" y="30.1328"/><text fill="#000000" font-size="13" font-weight="bold" lengthAdjust="spacingAndGlyphs" textLength="30" x="665.5" y="43.1328">AVR</text><line style="stroke: #383838; stroke-width: 1.0; stroke-dasharray: 5.0,5.0;" x1="38" x2="38" y1="83.3984" y2="375.5938"/><line style="stroke: #383838; stroke-width: 1.0; stroke-dasharray: 5.0,5.0;" x1="333.5" x2="333.5" y1="83.3984" y2="375.5938"/><line style="stroke: #383838; stroke-width: 1.0; stroke-dasharray: 5.0,5.0;" x1="629.5" x2="629.5" y1="83.3984" y2="375.5938"/><line style="stroke: #383838; stroke-width: 1.0; stroke-dasharray: 5.0,5.0;" x1="844.5" x2="844.5" y1="83.3984" y2="375.5938"/><line style="stroke: #383838; stroke-width: 1.0; stroke-dasharray: 5.0,5.0;" x1="1007.5" x2="1007.5" y1="83.3984" y2="375.5938"/><rect fill="#F8F8F8" filter="url(#f1)" height="29.1328" style="stroke: #383838; stroke-width: 1.5;" width="62" x="5" y="49.2656"/><text fill="#000000" font-size="13" lengthAdjust="spacingAndGlyphs" textLength="48" x="12" y="69.2656">PC_app</text><rect fill="#F8F8F8" filter="url(#f1)" height="29.1328" style="stroke: #383838; stroke-width: 1.5;" width="62" x="5" y="374"/><text fill="#000000" font-size="13" lengthAdjust="spacingAndGlyphs" textLength="48" x="12" y="394">PC_app</text><rect fill="#F8F8F8" filter="url(#f1)" height="29.1328" style="stroke: #383838; stroke-width: 1.5;" width="61" x="301.5" y="49.2656"/><text fill="#000000" font-size="13" lengthAdjust="spacingAndGlyphs" textLength="47" x="308.5" y="69.2656">Uniprot</text><rect fill="#F8F8F8" filter="url(#f1)" height="29.1328" style="stroke: #383838; stroke-width: 1.5;" width="61" x="301.5" y="374"/><text fill="#000000" font-size="13" lengthAdjust="spacingAndGlyphs" textLength="47" x="308.5" y="394">Uniprot</text><rect fill="#F8F8F8" filter="url(#f1)" height="29.1328" style="stroke: #383838; stroke-width: 1.5;" width="55" x="600.5" y="49.2656"/><text fill="#000000" font-size="13" lengthAdjust="spacingAndGlyphs" textLength="41" x="607.5" y="69.2656">Bridge</text><rect fill="#F8F8F8" filter="url(#f1)" height="29.1328" style="stroke: #383838; stroke-width: 1.5;" width="55" x="600.5" y="374"/><text fill="#000000" font-size="13" lengthAdjust="spacingAndGlyphs" textLength="41" x="607.5" y="394">Bridge</text><rect fill="#F8F8F8" filter="url(#f1)" height="29.1328" style="stroke: #383838; stroke-width: 1.5;" width="35" x="825.5" y="49.2656"/><text fill="#000000" font-size="13" lengthAdjust="spacingAndGlyphs" textLength="21" x="832.5" y="69.2656">HW</text><rect fill="#F8F8F8" filter="url(#f1)" height="29.1328" style="stroke: #383838; stroke-width: 1.5;" width="35" x="825.5" y="374"/><text fill="#000000" font-size="13" lengthAdjust="spacingAndGlyphs" textLength="21" x="832.5" y="394">HW</text><rect fill="#F8F8F8" filter="url(#f1)" height="29.1328" style="stroke: #383838; stroke-width: 1.5;" width="99" x="956.5" y="49.2656"/><text fill="#000000" font-size="13" lengthAdjust="spacingAndGlyphs" textLength="85" x="963.5" y="69.2656">DEV_X_driver</text><rect fill="#F8F8F8" filter="url(#f1)" height="29.1328" style="stroke: #383838; stroke-width: 1.5;" width="99" x="956.5" y="374"/><text fill="#000000" font-size="13" lengthAdjust="spacingAndGlyphs" textLength="85" x="963.5" y="394">DEV_X_driver</text><rect fill="#FFFFFF" filter="url(#f1)" height="243.0625" style="stroke: #383838; stroke-width: 1.0;" width="10" x="33" y="114.3984"/><rect fill="#FFFFFF" filter="url(#f1)" height="243.0625" style="stroke: #383838; stroke-width: 1.0;" width="10" x="329" y="114.3984"/><rect fill="#FFFFFF" filter="url(#f1)" height="184.7969" style="stroke: #383838; stroke-width: 1.0;" width="10" x="625" y="143.5313"/><rect fill="#FFFFFF" filter="url(#f1)" height="126.5313" style="stroke: #383838; stroke-width: 1.0;" width="10" x="840" y="172.6641"/><rect fill="#FFFFFF" filter="url(#f1)" height="29.1328" style="stroke: #383838; stroke-width: 1.0;" width="10" x="1003" y="240.9297"/><polygon fill="#383838" points="317,110.3984,327,114.3984,317,118.3984,321,114.3984" style="stroke: #383838; stroke-width: 1.0;"/><line style="stroke: #383838; stroke-width: 1.0;" x1="43" x2="323" y1="114.3984" y2="114.3984"/><text fill="#000000" font-size="13" lengthAdjust="spacingAndGlyphs" textLength="262" x="50" y="110.3984">Command "Get metadata from device X"</text><polygon fill="#383838" points="613,139.5313,623,143.5313,613,147.5313,617,143.5313" style="stroke: #383838; stroke-width: 1.0;"/><line style="stroke: #383838; stroke-width: 1.0;" x1="339" x2="619" y1="143.5313" y2="143.5313"/><text fill="#000000" font-size="13" lengthAdjust="spacingAndGlyphs" textLength="262" x="346" y="139.5313">Command "Get metadata from device X"</text><polygon fill="#383838" points="828,168.6641,838,172.6641,828,176.6641,832,172.6641" style="stroke: #383838; stroke-width: 1.0;"/><line style="stroke: #383838; stroke-width: 1.0;" x1="635" x2="834" y1="172.6641" y2="172.6641"/><text fill="#000000" font-size="13" lengthAdjust="spacingAndGlyphs" textLength="181" x="642" y="168.6641">Get metadata from device X</text><polygon fill="#ECECEC" filter="url(#f1)" points="779,185.7969,779,210.7969,906,210.7969,906,195.7969,896,185.7969,779,185.7969" style="stroke: #383838; stroke-width: 1.0;"/><line style="stroke: #383838; stroke-width: 1.0;" x1="896" x2="896" y1="185.7969" y2="195.7969"/><line style="stroke: #383838; stroke-width: 1.0;" x1="906" x2="896" y1="195.7969" y2="195.7969"/><text fill="#000000" font-size="13" lengthAdjust="spacingAndGlyphs" textLength="106" x="785" y="203.7969">Device ID X exist</text><polygon fill="#383838" points="991,236.9297,1001,240.9297,991,244.9297,995,240.9297" style="stroke: #383838; stroke-width: 1.0;"/><line style="stroke: #383838; stroke-width: 1.0;" x1="850" x2="997" y1="240.9297" y2="240.9297"/><text fill="#000000" font-size="13" lengthAdjust="spacingAndGlyphs" textLength="90" x="857" y="236.9297">Get metadata</text><polygon fill="#383838" points="861,266.0625,851,270.0625,861,274.0625,857,270.0625" style="stroke: #383838; stroke-width: 1.0;"/><line style="stroke: #383838; stroke-width: 1.0;" x1="855" x2="1007" y1="270.0625" y2="270.0625"/><text fill="#000000" font-size="13" lengthAdjust="spacingAndGlyphs" textLength="129" x="867" y="266.0625">Pointer to metadata</text><polygon fill="#383838" points="646,295.1953,636,299.1953,646,303.1953,642,299.1953" style="stroke: #383838; stroke-width: 1.0;"/><line style="stroke: #383838; stroke-width: 1.0;" x1="640" x2="844" y1="299.1953" y2="299.1953"/><text fill="#000000" font-size="13" lengthAdjust="spacingAndGlyphs" textLength="98" x="652" y="295.1953">Load metadata</text><polygon fill="#383838" points="350,324.3281,340,328.3281,350,332.3281,346,328.3281" style="stroke: #383838; stroke-width: 1.0;"/><line style="stroke: #383838; stroke-width: 1.0;" x1="344" x2="629" y1="328.3281" y2="328.3281"/><text fill="#000000" font-size="13" lengthAdjust="spacingAndGlyphs" textLength="156" x="356" y="324.3281">Result code + metadata</text><polygon fill="#383838" points="49,353.4609,39,357.4609,49,361.4609,45,357.4609" style="stroke: #383838; stroke-width: 1.0;"/><line style="stroke: #383838; stroke-width: 1.0;" x1="43" x2="333" y1="357.4609" y2="357.4609"/><text fill="#000000" font-size="13" lengthAdjust="spacingAndGlyphs" textLength="156" x="55" y="353.4609">Result code + metadata</text></g></svg>