<?xml version="1.0" encoding="UTF-8" standalone="yes"?><svg xmlns="http://www.w3.org/2000/svg" xmlns:xlink="http://www.w3.org/1999/xlink" height="528pt" style="width:938px;height:528px;" version="1.1" viewBox="0 0 938 528" width="938pt"><defs><filter height="300%" id="f1" width="300%" x="-1" y="-1"><feGaussianBlur result="blurOut" stdDeviation="2.0"/><feColorMatrix in="blurOut" result="blurOut2" type="matrix" values="0 0 0 0 0 0 0 0 0 0 0 0 0 0 0 0 0 0 .4 0"/><feOffset dx="4.0" dy="4.0" in="blurOut2" result="blurOut3"/><feBlend in="SourceGraphic" in2="blurOut3" mode="normal"/></filter></defs><g><text fill="#000000" font-size="13" font-weight="bold" lengthAdjust="spacingAndGlyphs" textLength="427" x="255.5" y="20">Bridge: PC_app &lt;--&gt; AVR - get setting (invalid command)</text><rect fill="#FFFFFF" filter="url(#f1)" height="327.8594" style="stroke: #383838; stroke-width: 1.0;" width="10" x="33" y="144.3984"/><rect fill="#FFFFFF" filter="url(#f1)" height="327.8594" style="stroke: #383838; stroke-width: 1.0;" width="10" x="239" y="144.3984"/><rect fill="#FFFFFF" filter="url(#f1)" height="239.3281" style="stroke: #383838; stroke-width: 1.0;" width="10" x="445" y="203.7969"/><rect fill="#FFFFFF" filter="url(#f1)" height="165.7969" style="stroke: #383838; stroke-width: 1.0;" width="10" x="646" y="248.1953"/><rect fill="#FFFFFF" filter="url(#f1)" height="68.2656" style="stroke: #383838; stroke-width: 1.0;" width="10" x="847" y="316.5938"/><rect fill="#DDDDDD" height="497" style="stroke: #383838; stroke-width: 1.0;" width="700" x="207.5" y="30.1328"/><text fill="#000000" font-size="13" font-weight="bold" lengthAdjust="spacingAndGlyphs" textLength="30" x="542.5" y="43.1328">AVR</text><line style="stroke: #383838; stroke-width: 1.0; stroke-dasharray: 5.0,5.0;" x1="38" x2="38" y1="83.3984" y2="490.3906"/><line style="stroke: #383838; stroke-width: 1.0; stroke-dasharray: 5.0,5.0;" x1="243.5" x2="243.5" y1="83.3984" y2="490.3906"/><line style="stroke: #383838; stroke-width: 1.0; stroke-dasharray: 5.0,5.0;" x1="449.5" x2="449.5" y1="83.3984" y2="490.3906"/><line style="stroke: #383838; stroke-width: 1.0; stroke-dasharray: 5.0,5.0;" x1="650.5" x2="650.5" y1="83.3984" y2="490.3906"/><line style="stroke: #383838; stroke-width: 1.0; stroke-dasharray: 5.0,5.0;" x1="851.5" x2="851.5" y1="83.3984" y2="490.3906"/><rect fill="#F8F8F8" filter="url(#f1)" height="29.1328" style="stroke: #383838; stroke-width: 1.5;" width="62" x="5" y="49.2656"/><text fill="#000000" font-size="13" lengthAdjust="spacingAndGlyphs" textLength="48" x="12" y="69.2656">PC_app</text><rect fill="#F8F8F8" filter="url(#f1)" height="29.1328" style="stroke: #383838; stroke-width: 1.5;" width="62" x="5" y="489"/><text fill="#000000" font-size="13" lengthAdjust="spacingAndGlyphs" textLength="48" x="12" y="509">PC_app</text><rect fill="#F8F8F8" filter="url(#f1)" height="29.1328" style="stroke: #383838; stroke-width: 1.5;" width="61" x="211.5" y="49.2656"/><text fill="#000000" font-size="13" lengthAdjust="spacingAndGlyphs" textLength="47" x="218.5" y="69.2656">Uniprot</text><rect fill="#F8F8F8" filter="url(#f1)" height="29.1328" style="stroke: #383838; stroke-width: 1.5;" width="61" x="211.5" y="489"/><text fill="#000000" font-size="13" lengthAdjust="spacingAndGlyphs" textLength="47" x="218.5" y="509">Uniprot</text><rect fill="#F8F8F8" filter="url(#f1)" height="29.1328" style="stroke: #383838; stroke-width: 1.5;" width="55" x="420.5" y="49.2656"/><text fill="#000000" font-size="13" lengthAdjust="spacingAndGlyphs" textLength="41" x="427.5" y="69.2656">Bridge</text><rect fill="#F8F8F8" filter="url(#f1)" height="29.1328" style="stroke: #383838; stroke-width: 1.5;" width="55" x="420.5" y="489"/><text fill="#000000" font-size="13" lengthAdjust="spacingAndGlyphs" textLength="41" x="427.5" y="509">Bridge</text><rect fill="#F8F8F8" filter="url(#f1)" height="29.1328" style="stroke: #383838; stroke-width: 1.5;" width="35" x="631.5" y="49.2656"/><text fill="#000000" font-size="13" lengthAdjust="spacingAndGlyphs" textLength="21" x="638.5" y="69.2656">HW</text><rect fill="#F8F8F8" filter="url(#f1)" height="29.1328" style="stroke: #383838; stroke-width: 1.5;" width="35" x="631.5" y="489"/><text fill="#000000" font-size="13" lengthAdjust="spacingAndGlyphs" textLength="21" x="638.5" y="509">HW</text><rect fill="#F8F8F8" filter="url(#f1)" height="29.1328" style="stroke: #383838; stroke-width: 1.5;" width="99" x="800.5" y="49.2656"/><text fill="#000000" font-size="13" lengthAdjust="spacingAndGlyphs" textLength="85" x="807.5" y="69.2656">DEV_X_driver</text><rect fill="#F8F8F8" filter="url(#f1)" height="29.1328" style="stroke: #383838; stroke-width: 1.5;" width="99" x="800.5" y="489"/><text fill="#000000" font-size="13" lengthAdjust="spacingAndGlyphs" textLength="85" x="807.5" y="509">DEV_X_driver</text><rect fill="#FFFFFF" filter="url(#f1)" height="327.8594" style="stroke: #383838; stroke-width: 1.0;" width="10" x="33" y="144.3984"/><rect fill="#FFFFFF" filter="url(#f1)" height="327.8594" style="stroke: #383838; stroke-width: 1.0;" width="10" x="239" y="144.3984"/><rect fill="#FFFFFF" filter="url(#f1)" height="239.3281" style="stroke: #383838; stroke-width: 1.0;" width="10" x="445" y="203.7969"/><rect fill="#FFFFFF" filter="url(#f1)" height="165.7969" style="stroke: #383838; stroke-width: 1.0;" width="10" x="646" y="248.1953"/><rect fill="#FFFFFF" filter="url(#f1)" height="68.2656" style="stroke: #383838; stroke-width: 1.0;" width="10" x="847" y="316.5938"/><polygon fill="#383838" points="227,140.3984,237,144.3984,227,148.3984,231,144.3984" style="stroke: #383838; stroke-width: 1.0;"/><line style="stroke: #383838; stroke-width: 1.0;" x1="43" x2="233" y1="144.3984" y2="144.3984"/><text fill="#000000" font-size="13" lengthAdjust="spacingAndGlyphs" textLength="67" x="50" y="110.3984">Command</text><text fill="#000000" font-size="13" lengthAdjust="spacingAndGlyphs" textLength="172" x="50" y="125.5313">"Get setting of command Y</text><text fill="#000000" font-size="13" lengthAdjust="spacingAndGlyphs" textLength="92" x="54" y="140.6641">from device X"</text><polygon fill="#383838" points="433,199.7969,443,203.7969,433,207.7969,437,203.7969" style="stroke: #383838; stroke-width: 1.0;"/><line style="stroke: #383838; stroke-width: 1.0;" x1="249" x2="439" y1="203.7969" y2="203.7969"/><text fill="#000000" font-size="13" lengthAdjust="spacingAndGlyphs" textLength="67" x="256" y="169.7969">Command</text><text fill="#000000" font-size="13" lengthAdjust="spacingAndGlyphs" textLength="172" x="256" y="184.9297">"Get setting of command Y</text><text fill="#000000" font-size="13" lengthAdjust="spacingAndGlyphs" textLength="92" x="260" y="200.0625">from device X"</text><polygon fill="#383838" points="634,244.1953,644,248.1953,634,252.1953,638,248.1953" style="stroke: #383838; stroke-width: 1.0;"/><line style="stroke: #383838; stroke-width: 1.0;" x1="455" x2="640" y1="248.1953" y2="248.1953"/><text fill="#000000" font-size="13" lengthAdjust="spacingAndGlyphs" textLength="167" x="462" y="229.1953">Get setting of command Y</text><text fill="#000000" font-size="13" lengthAdjust="spacingAndGlyphs" textLength="87" x="466" y="244.3281">from device X</text><polygon fill="#ECECEC" filter="url(#f1)" points="585,261.4609,585,286.4609,712,286.4609,712,271.4609,702,261.4609,585,261.4609" style="stroke: #383838; stroke-width: 1.0;"/><line style="stroke: #383838; stroke-width: 1.0;" x1="702" x2="702" y1="261.4609" y2="271.4609"/><line style="stroke: #383838; stroke-width: 1.0;" x1="712" x2="702" y1="271.4609" y2="271.4609"/><text fill="#000000" font-size="13" lengthAdjust="spacingAndGlyphs" textLength="106" x="591" y="279.4609">Device ID X exist</text><polygon fill="#383838" points="835,312.5938,845,316.5938,835,320.5938,839,316.5938" style="stroke: #383838; stroke-width: 1.0;"/><line style="stroke: #383838; stroke-width: 1.0;" x1="656" x2="841" y1="316.5938" y2="316.5938"/><text fill="#000000" font-size="13" lengthAdjust="spacingAndGlyphs" textLength="167" x="663" y="312.5938">Get setting of command Y</text><polygon fill="#ECECEC" filter="url(#f1)" points="771,329.7266,771,354.7266,929,354.7266,929,339.7266,919,329.7266,771,329.7266" style="stroke: #383838; stroke-width: 1.0;"/><line style="stroke: #383838; stroke-width: 1.0;" x1="919" x2="919" y1="329.7266" y2="339.7266"/><line style="stroke: #383838; stroke-width: 1.0;" x1="929" x2="919" y1="339.7266" y2="339.7266"/><text fill="#000000" font-size="13" lengthAdjust="spacingAndGlyphs" textLength="137" x="777" y="347.7266">Command Y not exist</text><polygon fill="#383838" points="667,380.8594,657,384.8594,667,388.8594,663,384.8594" style="stroke: #383838; stroke-width: 1.0;"/><line style="stroke: #383838; stroke-width: 1.0;" x1="661" x2="851" y1="384.8594" y2="384.8594"/><text fill="#000000" font-size="13" lengthAdjust="spacingAndGlyphs" textLength="74" x="673" y="380.8594">Result code</text><polygon fill="#383838" points="466,409.9922,456,413.9922,466,417.9922,462,413.9922" style="stroke: #383838; stroke-width: 1.0;"/><line style="stroke: #383838; stroke-width: 1.0;" x1="460" x2="650" y1="413.9922" y2="413.9922"/><text fill="#000000" font-size="13" lengthAdjust="spacingAndGlyphs" textLength="74" x="472" y="409.9922">Result code</text><polygon fill="#383838" points="260,439.125,250,443.125,260,447.125,256,443.125" style="stroke: #383838; stroke-width: 1.0;"/><line style="stroke: #383838; stroke-width: 1.0;" x1="254" x2="449" y1="443.125" y2="443.125"/><text fill="#000000" font-size="13" lengthAdjust="spacingAndGlyphs" textLength="74" x="266" y="439.125">Result code</text><polygon fill="#383838" points="49,468.2578,39,472.2578,49,476.2578,45,472.2578" style="stroke: #383838; stroke-width: 1.0;"/><line style="stroke: #383838; stroke-width: 1.0;" x1="43" x2="243" y1="472.2578" y2="472.2578"/><text fill="#000000" font-size="13" lengthAdjust="spacingAndGlyphs" textLength="74" x="55" y="468.2578">Result code</text></g></svg>