<?xml version="1.0" encoding="UTF-8" standalone="yes"?><svg xmlns="http://www.w3.org/2000/svg" xmlns:xlink="http://www.w3.org/1999/xlink" height="553pt" style="width:1073px;height:553px;" version="1.1" viewBox="0 0 1073 553" width="1073pt"><defs><filter height="300%" id="f1" width="300%" x="-1" y="-1"><feGaussianBlur result="blurOut" stdDeviation="2.0"/><feColorMatrix in="blurOut" result="blurOut2" type="matrix" values="0 0 0 0 0 0 0 0 0 0 0 0 0 0 0 0 0 0 .4 0"/><feOffset dx="4.0" dy="4.0" in="blurOut2" result="blurOut3"/><feBlend in="SourceGraphic" in2="blurOut3" mode="normal"/></filter></defs><g><text fill="#000000" font-size="13" font-weight="bold" lengthAdjust="spacingAndGlyphs" textLength="357" x="355.5" y="20">Bridge: PC_app &lt;--&gt; AVR - set setting (success)</text><rect fill="#FFFFFF" filter="url(#f1)" height="352.9922" style="stroke: #383838; stroke-width: 1.0;" width="10" x="33" y="144.3984"/><rect fill="#FFFFFF" filter="url(#f1)" height="352.9922" style="stroke: #383838; stroke-width: 1.0;" width="10" x="238" y="144.3984"/><rect fill="#FFFFFF" filter="url(#f1)" height="264.4609" style="stroke: #383838; stroke-width: 1.0;" width="10" x="443" y="203.7969"/><rect fill="#FFFFFF" filter="url(#f1)" height="190.9297" style="stroke: #383838; stroke-width: 1.0;" width="10" x="643" y="248.1953"/><rect fill="#FFFFFF" filter="url(#f1)" height="88.3984" style="stroke: #383838; stroke-width: 1.0;" width="10" x="896" y="316.5938"/><rect fill="#DDDDDD" height="522" style="stroke: #383838; stroke-width: 1.0;" width="750" x="206.5" y="30.1328"/><text fill="#000000" font-size="13" font-weight="bold" lengthAdjust="spacingAndGlyphs" textLength="30" x="566.5" y="43.1328">AVR</text><line style="stroke: #383838; stroke-width: 1.0; stroke-dasharray: 5.0,5.0;" x1="38" x2="38" y1="83.3984" y2="515.5234"/><line style="stroke: #383838; stroke-width: 1.0; stroke-dasharray: 5.0,5.0;" x1="242.5" x2="242.5" y1="83.3984" y2="515.5234"/><line style="stroke: #383838; stroke-width: 1.0; stroke-dasharray: 5.0,5.0;" x1="447.5" x2="447.5" y1="83.3984" y2="515.5234"/><line style="stroke: #383838; stroke-width: 1.0; stroke-dasharray: 5.0,5.0;" x1="647.5" x2="647.5" y1="83.3984" y2="515.5234"/><line style="stroke: #383838; stroke-width: 1.0; stroke-dasharray: 5.0,5.0;" x1="900.5" x2="900.5" y1="83.3984" y2="515.5234"/><rect fill="#F8F8F8" filter="url(#f1)" height="29.1328" style="stroke: #383838; stroke-width: 1.5;" width="62" x="5" y="49.2656"/><text fill="#000000" font-size="13" lengthAdjust="spacingAndGlyphs" textLength="48" x="12" y="69.2656">PC_app</text><rect fill="#F8F8F8" filter="url(#f1)" height="29.1328" style="stroke: #383838; stroke-width: 1.5;" width="62" x="5" y="514"/><text fill="#000000" font-size="13" lengthAdjust="spacingAndGlyphs" textLength="48" x="12" y="534">PC_app</text><rect fill="#F8F8F8" filter="url(#f1)" height="29.1328" style="stroke: #383838; stroke-width: 1.5;" width="61" x="210.5" y="49.2656"/><text fill="#000000" font-size="13" lengthAdjust="spacingAndGlyphs" textLength="47" x="217.5" y="69.2656">Uniprot</text><rect fill="#F8F8F8" filter="url(#f1)" height="29.1328" style="stroke: #383838; stroke-width: 1.5;" width="61" x="210.5" y="514"/><text fill="#000000" font-size="13" lengthAdjust="spacingAndGlyphs" textLength="47" x="217.5" y="534">Uniprot</text><rect fill="#F8F8F8" filter="url(#f1)" height="29.1328" style="stroke: #383838; stroke-width: 1.5;" width="55" x="418.5" y="49.2656"/><text fill="#000000" font-size="13" lengthAdjust="spacingAndGlyphs" textLength="41" x="425.5" y="69.2656">Bridge</text><rect fill="#F8F8F8" filter="url(#f1)" height="29.1328" style="stroke: #383838; stroke-width: 1.5;" width="55" x="418.5" y="514"/><text fill="#000000" font-size="13" lengthAdjust="spacingAndGlyphs" textLength="41" x="425.5" y="534">Bridge</text><rect fill="#F8F8F8" filter="url(#f1)" height="29.1328" style="stroke: #383838; stroke-width: 1.5;" width="35" x="628.5" y="49.2656"/><text fill="#000000" font-size="13" lengthAdjust="spacingAndGlyphs" textLength="21" x="635.5" y="69.2656">HW</text><rect fill="#F8F8F8" filter="url(#f1)" height="29.1328" style="stroke: #383838; stroke-width: 1.5;" width="35" x="628.5" y="514"/><text fill="#000000" font-size="13" lengthAdjust="spacingAndGlyphs" textLength="21" x="635.5" y="534">HW</text><rect fill="#F8F8F8" filter="url(#f1)" height="29.1328" style="stroke: #383838; stroke-width: 1.5;" width="99" x="849.5" y="49.2656"/><text fill="#000000" font-size="13" lengthAdjust="spacingAndGlyphs" textLength="85" x="856.5" y="69.2656">DEV_X_driver</text><rect fill="#F8F8F8" filter="url(#f1)" height="29.1328" style="stroke: #383838; stroke-width: 1.5;" width="99" x="849.5" y="514"/><text fill="#000000" font-size="13" lengthAdjust="spacingAndGlyphs" textLength="85" x="856.5" y="534">DEV_X_driver</text><rect fill="#FFFFFF" filter="url(#f1)" height="352.9922" style="stroke: #383838; stroke-width: 1.0;" width="10" x="33" y="144.3984"/><rect fill="#FFFFFF" filter="url(#f1)" height="352.9922" style="stroke: #383838; stroke-width: 1.0;" width="10" x="238" y="144.3984"/><rect fill="#FFFFFF" filter="url(#f1)" height="264.4609" style="stroke: #383838; stroke-width: 1.0;" width="10" x="443" y="203.7969"/><rect fill="#FFFFFF" filter="url(#f1)" height="190.9297" style="stroke: #383838; stroke-width: 1.0;" width="10" x="643" y="248.1953"/><rect fill="#FFFFFF" filter="url(#f1)" height="88.3984" style="stroke: #383838; stroke-width: 1.0;" width="10" x="896" y="316.5938"/><polygon fill="#383838" points="226,140.3984,236,144.3984,226,148.3984,230,144.3984" style="stroke: #383838; stroke-width: 1.0;"/><line style="stroke: #383838; stroke-width: 1.0;" x1="43" x2="232" y1="144.3984" y2="144.3984"/><text fill="#000000" font-size="13" lengthAdjust="spacingAndGlyphs" textLength="67" x="50" y="110.3984">Command</text><text fill="#000000" font-size="13" lengthAdjust="spacingAndGlyphs" textLength="171" x="50" y="125.5313">"Set setting of command Y</text><text fill="#000000" font-size="13" lengthAdjust="spacingAndGlyphs" textLength="159" x="54" y="140.6641">to device X + value (4B)"</text><polygon fill="#383838" points="431,199.7969,441,203.7969,431,207.7969,435,203.7969" style="stroke: #383838; stroke-width: 1.0;"/><line style="stroke: #383838; stroke-width: 1.0;" x1="248" x2="437" y1="203.7969" y2="203.7969"/><text fill="#000000" font-size="13" lengthAdjust="spacingAndGlyphs" textLength="67" x="255" y="169.7969">Command</text><text fill="#000000" font-size="13" lengthAdjust="spacingAndGlyphs" textLength="171" x="255" y="184.9297">"Set setting of command Y</text><text fill="#000000" font-size="13" lengthAdjust="spacingAndGlyphs" textLength="159" x="259" y="200.0625">to device X + value (4B)"</text><polygon fill="#383838" points="631,244.1953,641,248.1953,631,252.1953,635,248.1953" style="stroke: #383838; stroke-width: 1.0;"/><line style="stroke: #383838; stroke-width: 1.0;" x1="453" x2="637" y1="248.1953" y2="248.1953"/><text fill="#000000" font-size="13" lengthAdjust="spacingAndGlyphs" textLength="166" x="460" y="229.1953">Set setting of command Y</text><text fill="#000000" font-size="13" lengthAdjust="spacingAndGlyphs" textLength="154" x="464" y="244.3281">to device X + value (4B)</text><polygon fill="#ECECEC" filter="url(#f1)" points="582,261.4609,582,286.4609,709,286.4609,709,271.4609,699,261.4609,582,261.4609" style="stroke: #383838; stroke-width: 1.0;"/><line style="stroke: #383838; stroke-width: 1.0;" x1="699" x2="699" y1="261.4609" y2="271.4609"/><line style="stroke: #383838; stroke-width: 1.0;" x1="709" x2="699" y1="271.4609" y2="271.4609"/><text fill="#000000" font-size="13" lengthAdjust="spacingAndGlyphs" textLength="106" x="588" y="279.4609">Device ID X exist</text><polygon fill="#383838" points="884,312.5938,894,316.5938,884,320.5938,888,316.5938" style="stroke: #383838; stroke-width: 1.0;"/><line style="stroke: #383838; stroke-width: 1.0;" x1="653" x2="890" y1="316.5938" y2="316.5938"/><text fill="#000000" font-size="13" lengthAdjust="spacingAndGlyphs" textLength="219" x="660" y="312.5938">Set setting of command Y + value</text><polygon fill="#ECECEC" filter="url(#f1)" points="832,329.7266,832,369.7266,965,369.7266,965,339.7266,955,329.7266,832,329.7266" style="stroke: #383838; stroke-width: 1.0;"/><line style="stroke: #383838; stroke-width: 1.0;" x1="955" x2="955" y1="329.7266" y2="339.7266"/><line style="stroke: #383838; stroke-width: 1.0;" x1="965" x2="955" y1="339.7266" y2="339.7266"/><text fill="#000000" font-size="13" lengthAdjust="spacingAndGlyphs" textLength="112" x="838" y="347.7266">Command Y exist</text><text fill="#000000" font-size="13" lengthAdjust="spacingAndGlyphs" textLength="104" x="838" y="362.8594">Data processing</text><polygon fill="#383838" points="664,400.9922,654,404.9922,664,408.9922,660,404.9922" style="stroke: #383838; stroke-width: 1.0;"/><line style="stroke: #383838; stroke-width: 1.0;" x1="658" x2="900" y1="404.9922" y2="404.9922"/><text fill="#000000" font-size="13" lengthAdjust="spacingAndGlyphs" textLength="74" x="670" y="400.9922">Result code</text><polygon fill="#ECECEC" filter="url(#f1)" points="911,383.9922,911,408.9922,1064,408.9922,1064,393.9922,1054,383.9922,911,383.9922" style="stroke: #383838; stroke-width: 1.0;"/><line style="stroke: #383838; stroke-width: 1.0;" x1="1054" x2="1054" y1="383.9922" y2="393.9922"/><line style="stroke: #383838; stroke-width: 1.0;" x1="1064" x2="1054" y1="393.9922" y2="393.9922"/><text fill="#000000" font-size="13" lengthAdjust="spacingAndGlyphs" textLength="132" x="917" y="401.9922">Return 0 if SUCCESS</text><polygon fill="#383838" points="464,435.125,454,439.125,464,443.125,460,439.125" style="stroke: #383838; stroke-width: 1.0;"/><line style="stroke: #383838; stroke-width: 1.0;" x1="458" x2="647" y1="439.125" y2="439.125"/><text fill="#000000" font-size="13" lengthAdjust="spacingAndGlyphs" textLength="74" x="470" y="435.125">Result code</text><polygon fill="#383838" points="259,464.2578,249,468.2578,259,472.2578,255,468.2578" style="stroke: #383838; stroke-width: 1.0;"/><line style="stroke: #383838; stroke-width: 1.0;" x1="253" x2="447" y1="468.2578" y2="468.2578"/><text fill="#000000" font-size="13" lengthAdjust="spacingAndGlyphs" textLength="74" x="265" y="464.2578">Result code</text><polygon fill="#383838" points="49,493.3906,39,497.3906,49,501.3906,45,497.3906" style="stroke: #383838; stroke-width: 1.0;"/><line style="stroke: #383838; stroke-width: 1.0;" x1="43" x2="242" y1="497.3906" y2="497.3906"/><text fill="#000000" font-size="13" lengthAdjust="spacingAndGlyphs" textLength="74" x="55" y="493.3906">Result code</text></g></svg>