<?xml version="1.0" encoding="UTF-8" standalone="yes"?><svg xmlns="http://www.w3.org/2000/svg" xmlns:xlink="http://www.w3.org/1999/xlink" height="261pt" style="width:307px;height:261px;" version="1.1" viewBox="0 0 307 261" width="307pt"><defs><filter height="300%" id="f1" width="300%" x="-1" y="-1"><feGaussianBlur result="blurOut" stdDeviation="2.0"/><feColorMatrix in="blurOut" result="blurOut2" type="matrix" values="0 0 0 0 0 0 0 0 0 0 0 0 0 0 0 0 0 0 .4 0"/><feOffset dx="4.0" dy="4.0" in="blurOut2" result="blurOut3"/><feBlend in="SourceGraphic" in2="blurOut3" mode="normal"/></filter></defs><g><text fill="#000000" font-size="13" font-weight="bold" lengthAdjust="spacingAndGlyphs" textLength="214" x="46.5" y="20">Host set sampling frequency</text><line style="stroke: #383838; stroke-width: 1.0; stroke-dasharray: 5.0,5.0;" x1="29" x2="29" y1="63.2656" y2="224.9297"/><line style="stroke: #383838; stroke-width: 1.0; stroke-dasharray: 5.0,5.0;" x1="225.5" x2="225.5" y1="63.2656" y2="224.9297"/><rect fill="#F8F8F8" filter="url(#f1)" height="29.1328" style="stroke: #383838; stroke-width: 1.5;" width="44" x="5" y="29.1328"/><text fill="#000000" font-size="13" lengthAdjust="spacingAndGlyphs" textLength="30" x="12" y="49.1328">Host</text><rect fill="#F8F8F8" filter="url(#f1)" height="29.1328" style="stroke: #383838; stroke-width: 1.5;" width="44" x="5" y="223"/><text fill="#000000" font-size="13" lengthAdjust="spacingAndGlyphs" textLength="30" x="12" y="243">Host</text><rect fill="#F8F8F8" filter="url(#f1)" height="29.1328" style="stroke: #383838; stroke-width: 1.5;" width="57" x="195.5" y="29.1328"/><text fill="#000000" font-size="13" lengthAdjust="spacingAndGlyphs" textLength="43" x="202.5" y="49.1328">Device</text><rect fill="#F8F8F8" filter="url(#f1)" height="29.1328" style="stroke: #383838; stroke-width: 1.5;" width="57" x="195.5" y="223"/><text fill="#000000" font-size="13" lengthAdjust="spacingAndGlyphs" textLength="43" x="202.5" y="243">Device</text><polygon fill="#383838" points="214,90.2656,224,94.2656,214,98.2656,218,94.2656" style="stroke: #383838; stroke-width: 1.0;"/><line style="stroke: #383838; stroke-width: 1.0;" x1="29" x2="220" y1="94.2656" y2="94.2656"/><text fill="#000000" font-size="13" lengthAdjust="spacingAndGlyphs" textLength="153" x="36" y="90.2656">request: get descriptors</text><polygon fill="#383838" points="40,119.3984,30,123.3984,40,127.3984,36,123.3984" style="stroke: #383838; stroke-width: 1.0;"/><line style="stroke: #383838; stroke-width: 1.0;" x1="34" x2="225" y1="123.3984" y2="123.3984"/><text fill="#000000" font-size="13" lengthAdjust="spacingAndGlyphs" textLength="173" x="46" y="119.3984">response: send descriptors</text><polygon fill="#383838" points="214,148.5313,224,152.5313,214,156.5313,218,152.5313" style="stroke: #383838; stroke-width: 1.0;"/><line style="stroke: #383838; stroke-width: 1.0;" x1="29" x2="220" y1="152.5313" y2="152.5313"/><text fill="#000000" font-size="13" lengthAdjust="spacingAndGlyphs" textLength="144" x="36" y="148.5313">request: set frequency</text><polygon fill="#ECECEC" filter="url(#f1)" points="149,165.6641,149,205.6641,298,205.6641,298,175.6641,288,165.6641,149,165.6641" style="stroke: #383838; stroke-width: 1.0;"/><line style="stroke: #383838; stroke-width: 1.0;" x1="288" x2="288" y1="165.6641" y2="175.6641"/><line style="stroke: #383838; stroke-width: 1.0;" x1="298" x2="288" y1="175.6641" y2="175.6641"/><text fill="#000000" font-size="13" lengthAdjust="spacingAndGlyphs" textLength="128" x="155" y="183.6641">Detect request type</text><text fill="#000000" font-size="13" lengthAdjust="spacingAndGlyphs" textLength="126" x="155" y="198.7969">Call audio_set_cur()</text></g></svg>