<?xml version="1.0" encoding="UTF-8" standalone="yes"?><svg xmlns="http://www.w3.org/2000/svg" xmlns:xlink="http://www.w3.org/1999/xlink" height="354pt" style="width:360px;height:354px;" version="1.1" viewBox="0 0 360 354" width="360pt"><defs><filter height="300%" id="f1" width="300%" x="-1" y="-1"><feGaussianBlur result="blurOut" stdDeviation="2.0"/><feColorMatrix in="blurOut" result="blurOut2" type="matrix" values="0 0 0 0 0 0 0 0 0 0 0 0 0 0 0 0 0 0 .4 0"/><feOffset dx="4.0" dy="4.0" in="blurOut2" result="blurOut3"/><feBlend in="SourceGraphic" in2="blurOut3" mode="normal"/></filter></defs><g><text fill="#000000" font-size="13" font-weight="bold" lengthAdjust="spacingAndGlyphs" textLength="311" x="24.5" y="20">Universal protocol: DEV1 &lt;---&gt; DEV2 (Fail)</text><line style="stroke: #383838; stroke-width: 1.0; stroke-dasharray: 5.0,5.0;" x1="69" x2="69" y1="63.2656" y2="317.1953"/><line style="stroke: #383838; stroke-width: 1.0; stroke-dasharray: 5.0,5.0;" x1="292" x2="292" y1="63.2656" y2="317.1953"/><rect fill="#F8F8F8" filter="url(#f1)" height="29.1328" style="stroke: #383838; stroke-width: 1.5;" width="49" x="43" y="29.1328"/><text fill="#000000" font-size="13" lengthAdjust="spacingAndGlyphs" textLength="35" x="50" y="49.1328">DEV1</text><rect fill="#F8F8F8" filter="url(#f1)" height="29.1328" style="stroke: #383838; stroke-width: 1.5;" width="49" x="43" y="316"/><text fill="#000000" font-size="13" lengthAdjust="spacingAndGlyphs" textLength="35" x="50" y="336">DEV1</text><rect fill="#F8F8F8" filter="url(#f1)" height="29.1328" style="stroke: #383838; stroke-width: 1.5;" width="49" x="266" y="29.1328"/><text fill="#000000" font-size="13" lengthAdjust="spacingAndGlyphs" textLength="35" x="273" y="49.1328">DEV2</text><rect fill="#F8F8F8" filter="url(#f1)" height="29.1328" style="stroke: #383838; stroke-width: 1.5;" width="49" x="266" y="316"/><text fill="#000000" font-size="13" lengthAdjust="spacingAndGlyphs" textLength="35" x="273" y="336">DEV2</text><polygon fill="#383838" points="280.5,90.2656,290.5,94.2656,280.5,98.2656,284.5,94.2656" style="stroke: #383838; stroke-width: 1.0;"/><line style="stroke: #383838; stroke-width: 1.0;" x1="69.5" x2="286.5" y1="94.2656" y2="94.2656"/><text fill="#000000" font-size="13" lengthAdjust="spacingAndGlyphs" textLength="199" x="76.5" y="90.2656">Header + payload + tail + CRC</text><polygon fill="#ECECEC" filter="url(#f1)" points="230,107.3984,230,132.3984,351,132.3984,351,117.3984,341,107.3984,230,107.3984" style="stroke: #383838; stroke-width: 1.0;"/><line style="stroke: #383838; stroke-width: 1.0;" x1="341" x2="341" y1="107.3984" y2="117.3984"/><line style="stroke: #383838; stroke-width: 1.0;" x1="351" x2="341" y1="117.3984" y2="117.3984"/><text fill="#000000" font-size="13" lengthAdjust="spacingAndGlyphs" textLength="100" x="236" y="125.3984">Data corruption</text><polygon fill="#383838" points="80.5,158.5313,70.5,162.5313,80.5,166.5313,76.5,162.5313" style="stroke: #383838; stroke-width: 1.0;"/><line style="stroke: #383838; stroke-width: 1.0;" x1="74.5" x2="291.5" y1="162.5313" y2="162.5313"/><text fill="#000000" font-size="13" lengthAdjust="spacingAndGlyphs" textLength="36" x="86.5" y="158.5313">NACK</text><polygon fill="#ECECEC" filter="url(#f1)" points="5,175.6641,5,200.6641,131,200.6641,131,185.6641,121,175.6641,5,175.6641" style="stroke: #383838; stroke-width: 1.0;"/><line style="stroke: #383838; stroke-width: 1.0;" x1="121" x2="121" y1="175.6641" y2="185.6641"/><line style="stroke: #383838; stroke-width: 1.0;" x1="131" x2="121" y1="185.6641" y2="185.6641"/><text fill="#000000" font-size="13" lengthAdjust="spacingAndGlyphs" textLength="105" x="11" y="193.6641">Send data again</text><polygon fill="#383838" points="280.5,226.7969,290.5,230.7969,280.5,234.7969,284.5,230.7969" style="stroke: #383838; stroke-width: 1.0;"/><line style="stroke: #383838; stroke-width: 1.0;" x1="69.5" x2="286.5" y1="230.7969" y2="230.7969"/><text fill="#000000" font-size="13" lengthAdjust="spacingAndGlyphs" textLength="199" x="76.5" y="226.7969">Header + payload + tail + CRC</text><polygon fill="#ECECEC" filter="url(#f1)" points="253,243.9297,253,268.9297,327,268.9297,327,253.9297,317,243.9297,253,243.9297" style="stroke: #383838; stroke-width: 1.0;"/><line style="stroke: #383838; stroke-width: 1.0;" x1="317" x2="317" y1="243.9297" y2="253.9297"/><line style="stroke: #383838; stroke-width: 1.0;" x1="327" x2="317" y1="253.9297" y2="253.9297"/><text fill="#000000" font-size="13" lengthAdjust="spacingAndGlyphs" textLength="53" x="259" y="261.9297">Data OK</text><polygon fill="#383838" points="80.5,295.0625,70.5,299.0625,80.5,303.0625,76.5,299.0625" style="stroke: #383838; stroke-width: 1.0;"/><line style="stroke: #383838; stroke-width: 1.0;" x1="74.5" x2="291.5" y1="299.0625" y2="299.0625"/><text fill="#000000" font-size="13" lengthAdjust="spacingAndGlyphs" textLength="26" x="86.5" y="295.0625">ACK</text></g></svg>