<?xml version="1.0" encoding="UTF-8" standalone="yes"?><svg xmlns="http://www.w3.org/2000/svg" xmlns:xlink="http://www.w3.org/1999/xlink" height="242pt" style="width:495px;height:242px;" version="1.1" viewBox="0 0 495 242" width="495pt"><defs><filter height="300%" id="f1" width="300%" x="-1" y="-1"><feGaussianBlur result="blurOut" stdDeviation="2.0"/><feColorMatrix in="blurOut" result="blurOut2" type="matrix" values="0 0 0 0 0 0 0 0 0 0 0 0 0 0 0 0 0 0 .4 0"/><feOffset dx="4.0" dy="4.0" in="blurOut2" result="blurOut3"/><feBlend in="SourceGraphic" in2="blurOut3" mode="normal"/></filter></defs><g><text fill="#000000" font-size="13" font-weight="bold" lengthAdjust="spacingAndGlyphs" textLength="424" x="35.5" y="20">Universal protocol: DEV1 &lt;---&gt; DEV2 (RX buffer overflow)</text><line style="stroke: #383838; stroke-width: 1.0; stroke-dasharray: 5.0,5.0;" x1="160" x2="160" y1="63.2656" y2="205.7969"/><line style="stroke: #383838; stroke-width: 1.0; stroke-dasharray: 5.0,5.0;" x1="383" x2="383" y1="63.2656" y2="205.7969"/><rect fill="#F8F8F8" filter="url(#f1)" height="29.1328" style="stroke: #383838; stroke-width: 1.5;" width="49" x="134" y="29.1328"/><text fill="#000000" font-size="13" lengthAdjust="spacingAndGlyphs" textLength="35" x="141" y="49.1328">DEV1</text><rect fill="#F8F8F8" filter="url(#f1)" height="29.1328" style="stroke: #383838; stroke-width: 1.5;" width="49" x="134" y="204"/><text fill="#000000" font-size="13" lengthAdjust="spacingAndGlyphs" textLength="35" x="141" y="224">DEV1</text><rect fill="#F8F8F8" filter="url(#f1)" height="29.1328" style="stroke: #383838; stroke-width: 1.5;" width="49" x="357" y="29.1328"/><text fill="#000000" font-size="13" lengthAdjust="spacingAndGlyphs" textLength="35" x="364" y="49.1328">DEV2</text><rect fill="#F8F8F8" filter="url(#f1)" height="29.1328" style="stroke: #383838; stroke-width: 1.5;" width="49" x="357" y="204"/><text fill="#000000" font-size="13" lengthAdjust="spacingAndGlyphs" textLength="35" x="364" y="224">DEV2</text><polygon fill="#383838" points="371.5,90.2656,381.5,94.2656,371.5,98.2656,375.5,94.2656" style="stroke: #383838; stroke-width: 1.0;"/><line style="stroke: #383838; stroke-width: 1.0;" x1="160.5" x2="377.5" y1="94.2656" y2="94.2656"/><text fill="#000000" font-size="13" lengthAdjust="spacingAndGlyphs" textLength="199" x="167.5" y="90.2656">Header + payload + tail + CRC</text><polygon fill="#ECECEC" filter="url(#f1)" points="276,107.3984,276,132.3984,486,132.3984,486,117.3984,476,107.3984,276,107.3984" style="stroke: #383838; stroke-width: 1.0;"/><line style="stroke: #383838; stroke-width: 1.0;" x1="476" x2="476" y1="107.3984" y2="117.3984"/><line style="stroke: #383838; stroke-width: 1.0;" x1="486" x2="476" y1="117.3984" y2="117.3984"/><text fill="#000000" font-size="13" lengthAdjust="spacingAndGlyphs" textLength="189" x="282" y="125.3984">Response (RX buffer overflow)</text><polygon fill="#383838" points="171.5,171.0977,161.5,175.0977,171.5,179.0977,167.5,175.0977" style="stroke: #383838; stroke-width: 1.0;"/><line style="stroke: #383838; stroke-width: 1.0;" x1="165.5" x2="382.5" y1="175.0977" y2="175.0977"/><text fill="#000000" font-size="13" lengthAdjust="spacingAndGlyphs" textLength="123" x="177.5" y="171.0977">BUFFER OVERFLOW</text><polygon fill="#ECECEC" filter="url(#f1)" points="5,146.5313,5,186.5313,152,186.5313,152,156.5313,142,146.5313,5,146.5313" style="stroke: #383838; stroke-width: 1.0;"/><line style="stroke: #383838; stroke-width: 1.0;" x1="142" x2="142" y1="146.5313" y2="156.5313"/><line style="stroke: #383838; stroke-width: 1.0;" x1="152" x2="142" y1="156.5313" y2="156.5313"/><text fill="#000000" font-size="13" lengthAdjust="spacingAndGlyphs" textLength="126" x="11" y="164.5313">Problem is reported</text><text fill="#000000" font-size="13" lengthAdjust="spacingAndGlyphs" textLength="92" x="11" y="179.6641">to higher layer</text></g></svg>