<?xml version="1.0" encoding="UTF-8" standalone="yes"?><svg xmlns="http://www.w3.org/2000/svg" xmlns:xlink="http://www.w3.org/1999/xlink" height="217pt" style="width:357px;height:217px;" version="1.1" viewBox="0 0 357 217" width="357pt"><defs><filter height="300%" id="f1" width="300%" x="-1" y="-1"><feGaussianBlur result="blurOut" stdDeviation="2.0"/><feColorMatrix in="blurOut" result="blurOut2" type="matrix" values="0 0 0 0 0 0 0 0 0 0 0 0 0 0 0 0 0 0 .4 0"/><feOffset dx="4.0" dy="4.0" in="blurOut2" result="blurOut3"/><feBlend in="SourceGraphic" in2="blurOut3" mode="normal"/></filter></defs><g><text fill="#000000" font-size="13" font-weight="bold" lengthAdjust="spacingAndGlyphs" textLength="344" x="12" y="20">Universal protocol: DEV1 &lt;---&gt; DEV2 (Success)</text><line style="stroke: #383838; stroke-width: 1.0; stroke-dasharray: 5.0,5.0;" x1="44" x2="44" y1="63.2656" y2="180.6641"/><line style="stroke: #383838; stroke-width: 1.0; stroke-dasharray: 5.0,5.0;" x1="267" x2="267" y1="63.2656" y2="180.6641"/><rect fill="#F8F8F8" filter="url(#f1)" height="29.1328" style="stroke: #383838; stroke-width: 1.5;" width="49" x="18" y="29.1328"/><text fill="#000000" font-size="13" lengthAdjust="spacingAndGlyphs" textLength="35" x="25" y="49.1328">DEV1</text><rect fill="#F8F8F8" filter="url(#f1)" height="29.1328" style="stroke: #383838; stroke-width: 1.5;" width="49" x="18" y="179"/><text fill="#000000" font-size="13" lengthAdjust="spacingAndGlyphs" textLength="35" x="25" y="199">DEV1</text><rect fill="#F8F8F8" filter="url(#f1)" height="29.1328" style="stroke: #383838; stroke-width: 1.5;" width="49" x="241" y="29.1328"/><text fill="#000000" font-size="13" lengthAdjust="spacingAndGlyphs" textLength="35" x="248" y="49.1328">DEV2</text><rect fill="#F8F8F8" filter="url(#f1)" height="29.1328" style="stroke: #383838; stroke-width: 1.5;" width="49" x="241" y="179"/><text fill="#000000" font-size="13" lengthAdjust="spacingAndGlyphs" textLength="35" x="248" y="199">DEV2</text><polygon fill="#383838" points="255.5,90.2656,265.5,94.2656,255.5,98.2656,259.5,94.2656" style="stroke: #383838; stroke-width: 1.0;"/><line style="stroke: #383838; stroke-width: 1.0;" x1="44.5" x2="261.5" y1="94.2656" y2="94.2656"/><text fill="#000000" font-size="13" lengthAdjust="spacingAndGlyphs" textLength="199" x="51.5" y="90.2656">Header + payload + tail + CRC</text><polygon fill="#ECECEC" filter="url(#f1)" points="185,107.3984,185,132.3984,346,132.3984,346,117.3984,336,107.3984,185,107.3984" style="stroke: #383838; stroke-width: 1.0;"/><line style="stroke: #383838; stroke-width: 1.0;" x1="336" x2="336" y1="107.3984" y2="117.3984"/><line style="stroke: #383838; stroke-width: 1.0;" x1="346" x2="336" y1="117.3984" y2="117.3984"/><text fill="#000000" font-size="13" lengthAdjust="spacingAndGlyphs" textLength="140" x="191" y="125.3984">Response (Data valid)</text><polygon fill="#383838" points="55.5,158.5313,45.5,162.5313,55.5,166.5313,51.5,162.5313" style="stroke: #383838; stroke-width: 1.0;"/><line style="stroke: #383838; stroke-width: 1.0;" x1="49.5" x2="266.5" y1="162.5313" y2="162.5313"/><text fill="#000000" font-size="13" lengthAdjust="spacingAndGlyphs" textLength="26" x="61.5" y="158.5313">ACK</text></g></svg>