<?xml version="1.0" encoding="UTF-8" standalone="yes"?><svg xmlns="http://www.w3.org/2000/svg" xmlns:xlink="http://www.w3.org/1999/xlink" height="327pt" style="width:495px;height:327px;" version="1.1" viewBox="0 0 495 327" width="495pt"><defs><filter height="300%" id="f1" width="300%" x="-1" y="-1"><feGaussianBlur result="blurOut" stdDeviation="2.0"/><feColorMatrix in="blurOut" result="blurOut2" type="matrix" values="0 0 0 0 0 0 0 0 0 0 0 0 0 0 0 0 0 0 .4 0"/><feOffset dx="4.0" dy="4.0" in="blurOut2" result="blurOut3"/><feBlend in="SourceGraphic" in2="blurOut3" mode="normal"/></filter></defs><g><text fill="#000000" font-size="13" font-weight="bold" lengthAdjust="spacingAndGlyphs" textLength="482" x="12" y="20">Universal protocol: DEV1 &lt;---&gt; DEV2 (Internal error -&gt; Reset bus)</text><line style="stroke: #383838; stroke-width: 1.0; stroke-dasharray: 5.0,5.0;" x1="188" x2="188" y1="63.2656" y2="290.3281"/><line style="stroke: #383838; stroke-width: 1.0; stroke-dasharray: 5.0,5.0;" x1="317" x2="317" y1="63.2656" y2="290.3281"/><rect fill="#F8F8F8" filter="url(#f1)" height="29.1328" style="stroke: #383838; stroke-width: 1.5;" width="49" x="162" y="29.1328"/><text fill="#000000" font-size="13" lengthAdjust="spacingAndGlyphs" textLength="35" x="169" y="49.1328">DEV1</text><rect fill="#F8F8F8" filter="url(#f1)" height="29.1328" style="stroke: #383838; stroke-width: 1.5;" width="49" x="162" y="289"/><text fill="#000000" font-size="13" lengthAdjust="spacingAndGlyphs" textLength="35" x="169" y="309">DEV1</text><rect fill="#F8F8F8" filter="url(#f1)" height="29.1328" style="stroke: #383838; stroke-width: 1.5;" width="49" x="291" y="29.1328"/><text fill="#000000" font-size="13" lengthAdjust="spacingAndGlyphs" textLength="35" x="298" y="49.1328">DEV2</text><rect fill="#F8F8F8" filter="url(#f1)" height="29.1328" style="stroke: #383838; stroke-width: 1.5;" width="49" x="291" y="289"/><text fill="#000000" font-size="13" lengthAdjust="spacingAndGlyphs" textLength="35" x="298" y="309">DEV2</text><polygon fill="#ECECEC" filter="url(#f1)" points="263,78.2656,263,103.2656,367,103.2656,367,88.2656,357,78.2656,263,78.2656" style="stroke: #383838; stroke-width: 1.0;"/><line style="stroke: #383838; stroke-width: 1.0;" x1="357" x2="357" y1="78.2656" y2="88.2656"/><line style="stroke: #383838; stroke-width: 1.0;" x1="367" x2="357" y1="88.2656" y2="88.2656"/><text fill="#000000" font-size="13" lengthAdjust="spacingAndGlyphs" textLength="83" x="269" y="96.2656">Internal error</text><polygon fill="#383838" points="199.5,129.3984,189.5,133.3984,199.5,137.3984,195.5,133.3984" style="stroke: #383838; stroke-width: 1.0;"/><line style="stroke: #383838; stroke-width: 1.0;" x1="193.5" x2="316.5" y1="133.3984" y2="133.3984"/><text fill="#000000" font-size="13" lengthAdjust="spacingAndGlyphs" textLength="105" x="205.5" y="129.3984">Reset command</text><polygon fill="#ECECEC" filter="url(#f1)" points="259,146.5313,259,201.5313,371,201.5313,371,156.5313,361,146.5313,259,146.5313" style="stroke: #383838; stroke-width: 1.0;"/><line style="stroke: #383838; stroke-width: 1.0;" x1="361" x2="361" y1="146.5313" y2="156.5313"/><line style="stroke: #383838; stroke-width: 1.0;" x1="371" x2="361" y1="156.5313" y2="156.5313"/><text fill="#000000" font-size="13" lengthAdjust="spacingAndGlyphs" textLength="91" x="265" y="164.5313">Reset bus and</text><text fill="#000000" font-size="13" lengthAdjust="spacingAndGlyphs" textLength="68" x="265" y="179.6641">settings to</text><text fill="#000000" font-size="13" lengthAdjust="spacingAndGlyphs" textLength="44" x="265" y="194.7969">default</text><polygon fill="#ECECEC" filter="url(#f1)" points="131,215.9297,131,270.9297,243,270.9297,243,225.9297,233,215.9297,131,215.9297" style="stroke: #383838; stroke-width: 1.0;"/><line style="stroke: #383838; stroke-width: 1.0;" x1="233" x2="233" y1="215.9297" y2="225.9297"/><line style="stroke: #383838; stroke-width: 1.0;" x1="243" x2="233" y1="225.9297" y2="225.9297"/><text fill="#000000" font-size="13" lengthAdjust="spacingAndGlyphs" textLength="91" x="137" y="233.9297">Reset bus and</text><text fill="#000000" font-size="13" lengthAdjust="spacingAndGlyphs" textLength="68" x="137" y="249.0625">settings to</text><text fill="#000000" font-size="13" lengthAdjust="spacingAndGlyphs" textLength="44" x="137" y="264.1953">default</text></g></svg>