<?xml version="1.0" encoding="UTF-8" standalone="no"?>
<!-- Created with Inkscape (http://www.inkscape.org/) -->

<svg
   xmlns:dc="http://purl.org/dc/elements/1.1/"
   xmlns:cc="http://creativecommons.org/ns#"
   xmlns:rdf="http://www.w3.org/1999/02/22-rdf-syntax-ns#"
   xmlns:svg="http://www.w3.org/2000/svg"
   xmlns="http://www.w3.org/2000/svg"
   xmlns:sodipodi="http://sodipodi.sourceforge.net/DTD/sodipodi-0.dtd"
   xmlns:inkscape="http://www.inkscape.org/namespaces/inkscape"
   id="svg2"
   version="1.1"
   inkscape:version="0.48.2 r9819"
   width="744.09447"
   height="1052.3622"
   xml:space="preserve"
   sodipodi:docname="SNCHN_II-03_Extra_sticker.svg"><metadata
     id="metadata8"><rdf:RDF><cc:Work
         rdf:about=""><dc:format>image/svg+xml</dc:format><dc:type
           rdf:resource="http://purl.org/dc/dcmitype/StillImage" /><dc:title></dc:title></cc:Work></rdf:RDF></metadata><defs
     id="defs6" /><sodipodi:namedview
     pagecolor="#ffffff"
     bordercolor="#666666"
     borderopacity="1"
     objecttolerance="10"
     gridtolerance="10"
     guidetolerance="10"
     inkscape:pageopacity="0"
     inkscape:pageshadow="2"
     inkscape:window-width="1280"
     inkscape:window-height="1002"
     id="namedview4"
     showgrid="false"
     inkscape:zoom="1.2685914"
     inkscape:cx="191.55844"
     inkscape:cy="787.94132"
     inkscape:window-x="-8"
     inkscape:window-y="-8"
     inkscape:window-maximized="0"
     inkscape:current-layer="g10" /><g
     id="g10"
     inkscape:groupmode="layer"
     inkscape:label="SNCHN_II-03_Extra_sticker"
     transform="matrix(1.25,0,0,-1.25,0,1052.3622)"><g
       transform="matrix(1,0,0,-1,0,841.88977)"
       id="g188"><path
         inkscape:connector-curvature="0"
         id="path190"
         style="fill:none;stroke:#000000;stroke-width:0.23244099;stroke-linecap:butt;stroke-linejoin:miter;stroke-miterlimit:4;stroke-opacity:1;stroke-dasharray:none"
         d="m 51.023,354.047 108,0 0,108 -108,0 0,-108 z" /></g><g
       transform="matrix(1,0,0,-1,0,841.88977)"
       id="g192"><path
         inkscape:connector-curvature="0"
         id="path194"
         style="fill:none;stroke:#000000;stroke-width:0.79936999;stroke-linecap:round;stroke-linejoin:round;stroke-miterlimit:4;stroke-opacity:1;stroke-dasharray:none"
         d="m 99.625,395.445 -30.602,0 0,23.403 72,0 0,-23.403 -30.601,0" /></g><g
       transform="matrix(1,0,0,-1,0,841.88977)"
       id="g196"><path
         inkscape:connector-curvature="0"
         id="path198"
         style="fill:#ffffff;fill-opacity:1;fill-rule:nonzero;stroke:#828282;stroke-width:0.79936999;stroke-linecap:round;stroke-linejoin:round;stroke-miterlimit:4;stroke-opacity:1;stroke-dasharray:none"
         d="m 105.922,403.547 c 0,0.496 -0.402,0.898 -0.899,0.898 -0.496,0 -0.898,-0.402 -0.898,-0.898 0,-0.496 0.402,-0.899 0.898,-0.899 0.497,0 0.899,0.403 0.899,0.899 z" /></g><g
       transform="matrix(1,0,0,-1,0,841.88977)"
       id="g200"><path
         inkscape:connector-curvature="0"
         id="path202"
         style="fill:#ffffff;fill-opacity:1;fill-rule:nonzero;stroke:#828282;stroke-width:0.79936999;stroke-linecap:round;stroke-linejoin:round;stroke-miterlimit:4;stroke-opacity:1;stroke-dasharray:none"
         d="m 113.125,403.547 c 0,0.496 -0.406,0.898 -0.902,0.898 -0.496,0 -0.899,-0.402 -0.899,-0.898 0,-0.496 0.403,-0.899 0.899,-0.899 0.496,0 0.902,0.403 0.902,0.899 z" /></g><g
       transform="matrix(1,0,0,-1,0,841.88977)"
       id="g204"><path
         inkscape:connector-curvature="0"
         id="path206"
         style="fill:#ffffff;fill-opacity:1;fill-rule:nonzero;stroke:#828282;stroke-width:0.79936999;stroke-linecap:round;stroke-linejoin:round;stroke-miterlimit:4;stroke-opacity:1;stroke-dasharray:none"
         d="m 105.922,410.746 c 0,0.5 -0.402,0.902 -0.899,0.902 -0.496,0 -0.898,-0.402 -0.898,-0.902 0,-0.496 0.402,-0.898 0.898,-0.898 0.497,0 0.899,0.402 0.899,0.898 z" /></g><g
       transform="matrix(1,0,0,-1,0,841.88977)"
       id="g208"><path
         inkscape:connector-curvature="0"
         id="path210"
         style="fill:#ffffff;fill-opacity:1;fill-rule:nonzero;stroke:#828282;stroke-width:0.79936999;stroke-linecap:round;stroke-linejoin:round;stroke-miterlimit:4;stroke-opacity:1;stroke-dasharray:none"
         d="m 113.125,410.746 c 0,0.5 -0.406,0.902 -0.902,0.902 -0.496,0 -0.899,-0.402 -0.899,-0.902 0,-0.496 0.403,-0.898 0.899,-0.898 0.496,0 0.902,0.402 0.902,0.898 z" /></g><g
       transform="matrix(1,0,0,-1,0,841.88977)"
       id="g212"><path
         inkscape:connector-curvature="0"
         id="path214"
         style="fill:#ffffff;fill-opacity:1;fill-rule:nonzero;stroke:#828282;stroke-width:0.79936999;stroke-linecap:round;stroke-linejoin:round;stroke-miterlimit:4;stroke-opacity:1;stroke-dasharray:none"
         d="m 120.324,403.547 c 0,0.496 -0.402,0.898 -0.902,0.898 -0.496,0 -0.899,-0.402 -0.899,-0.898 0,-0.496 0.403,-0.899 0.899,-0.899 0.5,0 0.902,0.403 0.902,0.899 z" /></g><g
       transform="matrix(1,0,0,-1,0,841.88977)"
       id="g216"><path
         inkscape:connector-curvature="0"
         id="path218"
         style="fill:#ffffff;fill-opacity:1;fill-rule:nonzero;stroke:#828282;stroke-width:0.79936999;stroke-linecap:round;stroke-linejoin:round;stroke-miterlimit:4;stroke-opacity:1;stroke-dasharray:none"
         d="m 127.523,403.547 c 0,0.496 -0.402,0.898 -0.898,0.898 -0.5,0 -0.902,-0.402 -0.902,-0.898 0,-0.496 0.402,-0.899 0.902,-0.899 0.496,0 0.898,0.403 0.898,0.899 z" /></g><g
       transform="matrix(1,0,0,-1,0,841.88977)"
       id="g220"><path
         inkscape:connector-curvature="0"
         id="path222"
         style="fill:#ffffff;fill-opacity:1;fill-rule:nonzero;stroke:#828282;stroke-width:0.79936999;stroke-linecap:round;stroke-linejoin:round;stroke-miterlimit:4;stroke-opacity:1;stroke-dasharray:none"
         d="m 120.324,410.746 c 0,0.5 -0.402,0.902 -0.902,0.902 -0.496,0 -0.899,-0.402 -0.899,-0.902 0,-0.496 0.403,-0.898 0.899,-0.898 0.5,0 0.902,0.402 0.902,0.898 z" /></g><g
       transform="matrix(1,0,0,-1,0,841.88977)"
       id="g224"><path
         inkscape:connector-curvature="0"
         id="path226"
         style="fill:#ffffff;fill-opacity:1;fill-rule:nonzero;stroke:#828282;stroke-width:0.79936999;stroke-linecap:round;stroke-linejoin:round;stroke-miterlimit:4;stroke-opacity:1;stroke-dasharray:none"
         d="m 127.523,410.746 c 0,0.5 -0.402,0.902 -0.898,0.902 -0.5,0 -0.902,-0.402 -0.902,-0.902 0,-0.496 0.402,-0.898 0.902,-0.898 0.496,0 0.898,0.402 0.898,0.898 z" /></g><g
       transform="matrix(1,0,0,-1,0,841.88977)"
       id="g228"><path
         inkscape:connector-curvature="0"
         id="path230"
         style="fill:#ffffff;fill-opacity:1;fill-rule:nonzero;stroke:#828282;stroke-width:0.79936999;stroke-linecap:round;stroke-linejoin:round;stroke-miterlimit:4;stroke-opacity:1;stroke-dasharray:none"
         d="m 91.523,403.547 c 0,0.496 -0.402,0.898 -0.898,0.898 -0.5,0 -0.902,-0.402 -0.902,-0.898 0,-0.496 0.402,-0.899 0.902,-0.899 0.496,0 0.898,0.403 0.898,0.899 z" /></g><g
       transform="matrix(1,0,0,-1,0,841.88977)"
       id="g232"><path
         inkscape:connector-curvature="0"
         id="path234"
         style="fill:#ffffff;fill-opacity:1;fill-rule:nonzero;stroke:#828282;stroke-width:0.79936999;stroke-linecap:round;stroke-linejoin:round;stroke-miterlimit:4;stroke-opacity:1;stroke-dasharray:none"
         d="m 98.723,403.547 c 0,0.496 -0.403,0.898 -0.899,0.898 -0.496,0 -0.902,-0.402 -0.902,-0.898 0,-0.496 0.406,-0.899 0.902,-0.899 0.496,0 0.899,0.403 0.899,0.899 z" /></g><g
       transform="matrix(1,0,0,-1,0,841.88977)"
       id="g236"><path
         inkscape:connector-curvature="0"
         id="path238"
         style="fill:#ffffff;fill-opacity:1;fill-rule:nonzero;stroke:#828282;stroke-width:0.79936999;stroke-linecap:round;stroke-linejoin:round;stroke-miterlimit:4;stroke-opacity:1;stroke-dasharray:none"
         d="m 91.523,410.746 c 0,0.5 -0.402,0.902 -0.898,0.902 -0.5,0 -0.902,-0.402 -0.902,-0.902 0,-0.496 0.402,-0.898 0.902,-0.898 0.496,0 0.898,0.402 0.898,0.898 z" /></g><g
       transform="matrix(1,0,0,-1,0,841.88977)"
       id="g240"><path
         inkscape:connector-curvature="0"
         id="path242"
         style="fill:#ffffff;fill-opacity:1;fill-rule:nonzero;stroke:#828282;stroke-width:0.79936999;stroke-linecap:round;stroke-linejoin:round;stroke-miterlimit:4;stroke-opacity:1;stroke-dasharray:none"
         d="m 98.723,410.746 c 0,0.5 -0.403,0.902 -0.899,0.902 -0.496,0 -0.902,-0.402 -0.902,-0.902 0,-0.496 0.406,-0.898 0.902,-0.898 0.496,0 0.899,0.402 0.899,0.898 z" /></g><g
       transform="matrix(1,0,0,-1,0,841.88977)"
       id="g244"><path
         inkscape:connector-curvature="0"
         id="path246"
         style="fill:#ffffff;fill-opacity:1;fill-rule:nonzero;stroke:#828282;stroke-width:0.79936999;stroke-linecap:round;stroke-linejoin:round;stroke-miterlimit:4;stroke-opacity:1;stroke-dasharray:none"
         d="m 84.324,403.547 c 0,0.496 -0.402,0.898 -0.902,0.898 -0.496,0 -0.899,-0.402 -0.899,-0.898 0,-0.496 0.403,-0.899 0.899,-0.899 0.5,0 0.902,0.403 0.902,0.899 z" /></g><g
       transform="matrix(1,0,0,-1,0,841.88977)"
       id="g248"><path
         inkscape:connector-curvature="0"
         id="path250"
         style="fill:#ffffff;fill-opacity:1;fill-rule:nonzero;stroke:#828282;stroke-width:0.79936999;stroke-linecap:round;stroke-linejoin:round;stroke-miterlimit:4;stroke-opacity:1;stroke-dasharray:none"
         d="m 84.324,410.746 c 0,0.5 -0.402,0.902 -0.902,0.902 -0.496,0 -0.899,-0.402 -0.899,-0.902 0,-0.496 0.403,-0.898 0.899,-0.898 0.5,0 0.902,0.402 0.902,0.898 z" /></g><text
       id="text252"
       transform="scale(1,-1)"
       x="128.42361"
       y="-437.4426"><tspan
         id="tspan254"
         y="-437.4426"
         x="128.42361"
         style="font-size:5.5999999px;font-variant:normal;font-weight:normal;writing-mode:lr-tb;fill:#999999;fill-opacity:1;fill-rule:nonzero;stroke:none;font-family:Arial;-inkscape-font-specification:ArialMT">1</tspan><tspan
         id="tspan256"
         y="-430.24258"
         x="128.42361"
         style="font-size:5.5999999px;font-variant:normal;font-weight:normal;writing-mode:lr-tb;fill:#999999;fill-opacity:1;fill-rule:nonzero;stroke:none;font-family:Arial;-inkscape-font-specification:ArialMT">2</tspan><tspan
         id="tspan258"
         sodipodi:role="line"
         y="-437.4426"
         x="74.423622 77.537224"
         style="font-size:5.5999999px;font-variant:normal;font-weight:normal;writing-mode:lr-tb;fill:#999999;fill-opacity:1;fill-rule:nonzero;stroke:none;font-family:Arial;-inkscape-font-specification:ArialMT">13</tspan><tspan
         id="tspan260"
         sodipodi:role="line"
         y="-430.24258"
         x="74.423622 77.537224"
         style="font-size:5.5999999px;font-variant:normal;font-weight:normal;writing-mode:lr-tb;fill:#999999;fill-opacity:1;fill-rule:nonzero;stroke:none;font-family:Arial;-inkscape-font-specification:ArialMT">14</tspan></text>
<text
       id="text262"
       transform="matrix(0,1,1,0,0,0)"
       x="448.24258"
       y="85.223625"><tspan
         id="tspan264"
         sodipodi:role="line"
         y="85.223625"
         x="448.24258 452.2858 412.2402 416.289"
         style="font-size:5.5999999px;font-variant:normal;font-weight:normal;writing-mode:lr-tb;fill:#000000;fill-opacity:1;fill-rule:nonzero;stroke:none;font-family:Arial;-inkscape-font-specification:ArialMT">NCNC</tspan><tspan
         id="tspan266"
         sodipodi:role="line"
         y="92.423622"
         x="406.84259 410.10739 413.22098 416.95618"
         style="font-size:5.5999999px;font-variant:normal;font-weight:normal;writing-mode:lr-tb;fill:#000000;fill-opacity:1;fill-rule:nonzero;stroke:none;font-family:Arial;-inkscape-font-specification:ArialMT">+3V3</tspan><tspan
         id="tspan268"
         sodipodi:role="line"
         y="99.623619"
         x="448.24258 452.59378 456.63699"
         style="font-size:5.5999999px;font-variant:normal;font-weight:normal;writing-mode:lr-tb;fill:#000000;fill-opacity:1;fill-rule:nonzero;stroke:none;font-family:Arial;-inkscape-font-specification:ArialMT">GND</tspan><tspan
         id="tspan270"
         sodipodi:role="line"
         y="92.423622"
         x="448.24258 452.59378 456.63699"
         style="font-size:5.5999999px;font-variant:normal;font-weight:normal;writing-mode:lr-tb;fill:#000000;fill-opacity:1;fill-rule:nonzero;stroke:none;font-family:Arial;-inkscape-font-specification:ArialMT">GND</tspan><tspan
         id="tspan272"
         sodipodi:role="line"
         y="106.82362"
         x="448.24258 452.2858 456.021 459.7562 463.49139"
         style="font-size:5.5999999px;font-variant:normal;font-weight:normal;writing-mode:lr-tb;fill:#000000;fill-opacity:1;fill-rule:nonzero;stroke:none;font-family:Arial;-inkscape-font-specification:ArialMT">RESET</tspan><tspan
         id="tspan274"
         sodipodi:role="line"
         y="114.02362"
         x="448.24258 452.59378 456.63699"
         style="font-size:5.5999999px;font-variant:normal;font-weight:normal;writing-mode:lr-tb;fill:#000000;fill-opacity:1;fill-rule:nonzero;stroke:none;font-family:Arial;-inkscape-font-specification:ArialMT">GND</tspan><tspan
         id="tspan276"
         sodipodi:role="line"
         y="121.22362"
         x="448.24258 451.97778 455.71298 459.7562"
         style="font-size:5.5999999px;font-variant:normal;font-weight:normal;writing-mode:lr-tb;fill:#000000;fill-opacity:1;fill-rule:nonzero;stroke:none;font-family:Arial;-inkscape-font-specification:ArialMT">SYNC</tspan><tspan
         id="tspan278"
         sodipodi:role="line"
         y="128.42361"
         x="448.24258 452.59378 456.63699"
         style="font-size:5.5999999px;font-variant:normal;font-weight:normal;writing-mode:lr-tb;fill:#000000;fill-opacity:1;fill-rule:nonzero;stroke:none;font-family:Arial;-inkscape-font-specification:ArialMT">GND</tspan><tspan
         id="tspan280"
         sodipodi:role="line"
         y="99.623619"
         x="405.0426 409.71298 413.7562 417.1778"
         style="font-size:5.5999999px;font-variant:normal;font-weight:normal;writing-mode:lr-tb;fill:#000000;fill-opacity:1;fill-rule:nonzero;stroke:none;font-family:Arial;-inkscape-font-specification:ArialMT">MUTE</tspan><tspan
         id="tspan282"
         sodipodi:role="line"
         y="106.82362"
         x="401.4426 405.48578 409.22098 410.77219 412.64258 414.1882 418.237"
         style="font-size:5.5999999px;font-variant:normal;font-weight:normal;writing-mode:lr-tb;fill:#000000;fill-opacity:1;fill-rule:nonzero;stroke:none;font-family:Arial;-inkscape-font-specification:ArialMT">RX (IN)</tspan><tspan
         id="tspan284"
         sodipodi:role="line"
         y="114.02362"
         x="396.04254 399.45856 403.19376 404.74493 406.61536 410.96094 415.00974 418.42575"
         style="font-size:5.5999999px;font-variant:normal;font-weight:normal;writing-mode:lr-tb;fill:#000000;fill-opacity:1;fill-rule:nonzero;stroke:none;font-family:Arial;-inkscape-font-specification:ArialMT">TX (OUT)</tspan><tspan
         id="tspan286"
         sodipodi:role="line"
         y="121.22362"
         x="405.0426 408.7778 412.82098 415.94019"
         style="font-size:5.5999999px;font-variant:normal;font-weight:normal;writing-mode:lr-tb;fill:#000000;fill-opacity:1;fill-rule:nonzero;stroke:none;font-family:Arial;-inkscape-font-specification:ArialMT">BCLK</tspan><tspan
         id="tspan288"
         sodipodi:role="line"
         y="128.42361"
         x="394.30426 398.97467 403.01785 406.13705 409.87225 411.41788 413.28827 414.83948 418.88266"
         style="font-size:5.5999999px;font-variant:normal;font-weight:normal;writing-mode:lr-tb;fill:#000000;fill-opacity:1;fill-rule:nonzero;stroke:none;font-family:Arial;-inkscape-font-specification:ArialMT">MCLK (IN)</tspan></text>
<text
       id="text290"
       transform="scale(1,-1)"
       x="88.823624"
       y="-473.4426"><tspan
         id="tspan292"
         sodipodi:role="line"
         y="-473.4426"
         x="88.823624 90.374825 93.488426 97.223625 98.769226 101.56922 104.68842 107.80202 110.92123 114.03483 116.83482 118.38602 121.49963"
         style="font-size:5.5999999px;font-variant:normal;font-weight:normal;writing-mode:lr-tb;fill:#000000;fill-opacity:1;fill-rule:nonzero;stroke:none;font-family:Arial;-inkscape-font-specification:ArialMT">I2S connector</tspan></text>
<g
       transform="matrix(1,0,0,-1,0,841.88977)"
       id="g294"><path
         inkscape:connector-curvature="0"
         id="path296"
         style="fill:none;stroke:#000000;stroke-width:0.80000001;stroke-linecap:butt;stroke-linejoin:miter;stroke-miterlimit:4;stroke-opacity:1;stroke-dasharray:none"
         d="m 87.023,363.047 37.801,0 0,7.199 -37.801,0 0,-7.199 z" /></g><g
       transform="matrix(1,0,0,-1,0,841.88977)"
       id="g298"><path
         inkscape:connector-curvature="0"
         id="path300"
         style="fill:none;stroke:#000000;stroke-width:0.80000001;stroke-linecap:butt;stroke-linejoin:miter;stroke-miterlimit:4;stroke-opacity:1;stroke-dasharray:none"
         d="m 87.023,366.648 -18,0 -3.601,3.598 0,79.199 75.601,0 3.602,-3.597 0,-79.2 -19.801,0" /></g><g
       id="g15786"><text
         y="-698.315"
         x="66.996849"
         transform="scale(1,-1)"
         id="text14"><tspan
           style="font-size:6.40000009999999970px;font-variant:normal;font-weight:bold;writing-mode:lr-tb;fill:#000000;fill-opacity:1;fill-rule:nonzero;stroke:none;font-family:Agency FB;-inkscape-font-specification:Agency FB"
           x="66.996849 68.897652 72.276848 75.764847 77.646446 81.153648 84.270447 87.316849 90.433647"
           y="-698.315"
           sodipodi:role="line"
           id="tspan16">I2S Reset</tspan><tspan
           style="font-size:6.40000009999999970px;font-variant:normal;font-weight:bold;writing-mode:lr-tb;fill:#000000;fill-opacity:1;fill-rule:nonzero;stroke:none;font-family:Agency FB;-inkscape-font-specification:Agency FB"
           x="82.204948 85.763351 87.568153 90.531349"
           y="-667.15826"
           sodipodi:role="line"
           id="tspan18">Dir.</tspan><tspan
           style="font-size:6.40000009999999970px;font-variant:normal;font-weight:bold;writing-mode:lr-tb;fill:#000000;fill-opacity:1;fill-rule:nonzero;stroke:none;font-family:Agency FB;-inkscape-font-specification:Agency FB"
           x="72.372383 76.468384 79.649178 81.965981"
           y="-601.93701"
           sodipodi:role="line"
           id="tspan20">Mute</tspan><tspan
           style="font-size:6.40000009999999970px;font-variant:normal;font-weight:bold;writing-mode:lr-tb;fill:#000000;fill-opacity:1;fill-rule:nonzero;stroke:none;font-family:Agency FB;-inkscape-font-specification:Agency FB"
           x="82.204948 85.686554 88.003349 91.107353"
           y="-627.76233"
           sodipodi:role="line"
           id="tspan22">Stat</tspan></text>
<text
         y="-627.76233"
         x="93.424149"
         transform="scale(1,-1)"
         id="text24"><tspan
           style="font-size:6.4000001px;font-variant:normal;font-weight:normal;writing-mode:lr-tb;fill:#000000;fill-opacity:1;fill-rule:nonzero;stroke:none;font-family:Arial;-inkscape-font-specification:ArialMT"
           x="93.424149"
           y="-627.76233"
           id="tspan26">.</tspan></text>
<text
         y="-613.62018"
         x="82.204948"
         transform="scale(1,-1)"
         id="text28"><tspan
           style="font-size:6.40000009999999970px;font-variant:normal;font-weight:bold;writing-mode:lr-tb;fill:#000000;fill-opacity:1;fill-rule:nonzero;stroke:none;font-family:Agency FB;-inkscape-font-specification:Agency FB"
           x="82.204948 85.763351 87.568153 90.531349"
           y="-613.62018"
           sodipodi:role="line"
           id="tspan30">Dir.</tspan></text>
<text
         y="110.1552"
         x="625.90955"
         transform="matrix(0,1,1,0,0,0)"
         id="text32"><tspan
           style="font-size:6.40000009999999970px;font-variant:normal;font-weight:bold;writing-mode:lr-tb;fill:#000000;fill-opacity:1;fill-rule:nonzero;stroke:none;font-family:Agency FB;-inkscape-font-specification:Agency FB"
           x="625.90955 628.96875"
           y="110.1552"
           sodipodi:role="line"
           id="tspan34">TX</tspan><tspan
           style="font-size:6.40000009999999970px;font-variant:normal;font-weight:bold;writing-mode:lr-tb;fill:#000000;fill-opacity:1;fill-rule:nonzero;stroke:none;font-family:Agency FB;-inkscape-font-specification:Agency FB"
           x="625.45953 628.96039"
           y="132.1937"
           sodipodi:role="line"
           id="tspan36">RX</tspan></text>
<text
         y="-758.62122"
         x="207.2588"
         transform="scale(1,-1)"
         id="text38"><tspan
           style="font-size:6.40000009999999970px;font-variant:normal;font-weight:bold;writing-mode:lr-tb;fill:#000000;fill-opacity:1;fill-rule:nonzero;stroke:none;font-family:Agency FB;-inkscape-font-specification:Agency FB"
           x="207.2588 210.798 213.95322 217.12761 220.24442 223.3484 225.23001 228.28922 231.65561 235.04761 238.55481"
           y="-758.62122"
           sodipodi:role="line"
           id="tspan40">Codec TX/RX</tspan><tspan
           style="font-size:6.40000009999999970px;font-variant:normal;font-weight:bold;writing-mode:lr-tb;fill:#000000;fill-opacity:1;fill-rule:nonzero;stroke:none;font-family:Agency FB;-inkscape-font-specification:Agency FB"
           x="207.2588 209.14041 212.18681 216.21881 218.02361 220.34041 223.44441"
           y="-750.62122"
           sodipodi:role="line"
           id="tspan42"> switch</tspan></text>
<text
         y="153.4743"
         x="608.30896"
         transform="matrix(0,1,1,0,0,0)"
         id="text44"><tspan
           style="font-size:6.40000009999999970px;font-variant:normal;font-weight:bold;writing-mode:lr-tb;fill:#000000;fill-opacity:1;fill-rule:nonzero;stroke:none;font-family:Agency FB;-inkscape-font-specification:Agency FB"
           x="608.30896 612.40497 615.94415 618.86896 622.19055 624.07214 627.63055 629.43536"
           y="153.4743"
           sodipodi:role="line"
           id="tspan46">MCLK Dir</tspan><tspan
           style="font-size:6.40000009999999970px;font-variant:normal;font-weight:bold;writing-mode:lr-tb;fill:#000000;fill-opacity:1;fill-rule:nonzero;stroke:none;font-family:Agency FB;-inkscape-font-specification:Agency FB"
           x="608.87146 612.39783 615.94342 618.86182 622.18341 624.07141 627.62982 629.43463"
           y="175.14674"
           sodipodi:role="line"
           id="tspan48">BCLK Dir</tspan><tspan
           style="font-size:6.40000009999999970px;font-variant:normal;font-weight:bold;writing-mode:lr-tb;fill:#000000;fill-opacity:1;fill-rule:nonzero;stroke:none;font-family:Agency FB;-inkscape-font-specification:Agency FB"
           x="605.17395 608.14355 611.62512 615.01715 618.63953 622.17871 624.06671 627.62512 629.42993"
           y="196.42784"
           sodipodi:role="line"
           id="tspan50">FSYNC Dir</tspan></text>
<text
         y="-638.78741"
         x="221.23703"
         transform="scale(1,-1)"
         id="text52"><tspan
           style="font-size:6.40000009999999970px;font-variant:normal;font-weight:bold;writing-mode:lr-tb;fill:#000000;fill-opacity:1;fill-rule:nonzero;stroke:none;font-family:Agency FB;-inkscape-font-specification:Agency FB"
           x="221.23703 224.73782 227.85463 230.90103 234.01782"
           y="-638.78741"
           sodipodi:role="line"
           id="tspan54">Reset</tspan><tspan
           style="font-size:6.40000009999999970px;font-variant:normal;font-weight:bold;writing-mode:lr-tb;fill:#000000;fill-opacity:1;fill-rule:nonzero;stroke:none;font-family:Agency FB;-inkscape-font-specification:Agency FB"
           x="222.60861 225.69342 228.65021 231.61342 234.76862"
           y="-681.30713"
           sodipodi:role="line"
           id="tspan56">Error</tspan></text>
<text
         y="152.7135"
         x="531.07086"
         transform="matrix(0,1,1,0,0,0)"
         id="text58"><tspan
           style="font-size:6.40000009999999970px;font-variant:normal;font-weight:bold;writing-mode:lr-tb;fill:#000000;fill-opacity:1;fill-rule:nonzero;stroke:none;font-family:Agency FB;-inkscape-font-specification:Agency FB"
           x="531.07086 534.61011 537.76532 540.95251 544.1333 547.25006 550.35406 552.6709 555.82611"
           y="152.7135"
           sodipodi:role="line"
           id="tspan60">Connector</tspan><tspan
           style="font-size:6.40000009999999970px;font-variant:normal;font-weight:bold;writing-mode:lr-tb;fill:#000000;fill-opacity:1;fill-rule:nonzero;stroke:none;font-family:Agency FB;-inkscape-font-specification:Agency FB"
           x="531.07086 532.95251 536.12689 539.2821 543.30768 546.4245"
           y="160.7135"
           sodipodi:role="line"
           id="tspan62"> power</tspan><tspan
           style="font-size:6.40000009999999970px;font-variant:normal;font-weight:bold;writing-mode:lr-tb;fill:#000000;fill-opacity:1;fill-rule:nonzero;stroke:none;font-family:Agency FB;-inkscape-font-specification:Agency FB"
           x="530.94275 534.34753 537.50275 539.30756 542.48834 547.05157"
           y="191.41907"
           sodipodi:role="line"
           id="tspan64">Volume</tspan><tspan
           style="font-size:6.40000009999999970px;font-variant:normal;font-weight:bold;writing-mode:lr-tb;fill:#000000;fill-opacity:1;fill-rule:nonzero;stroke:none;font-family:Agency FB;-inkscape-font-specification:Agency FB"
           x="530.77716 534.37396 537.49072 540.59473 543.76276 546.93713 550.11792 553.27313 556.46033 559.57715"
           y="225.50803"
           sodipodi:role="line"
           id="tspan66">Headphones</tspan></text>
<g
         id="g68"
         transform="matrix(1,0,0,-1,0,841.88977)"><path
           d="m 65.578,137.34 28.348,0 0,7.652 -28.348,0 0,-7.652 z"
           style="fill:none;stroke:#000000;stroke-width:0.80000001;stroke-linecap:butt;stroke-linejoin:miter;stroke-miterlimit:4;stroke-opacity:1;stroke-dasharray:none"
           id="path70"
           inkscape:connector-curvature="0" /></g><g
         id="g72"
         transform="matrix(1,0,0,-1,0,841.88977)"><path
           d="m 65.578,142.156 -1.414,0 -2.836,2.836 0,34.016 32.598,0 2.836,-2.836 0,-34.016 -2.836,0"
           style="fill:none;stroke:#000000;stroke-width:0.80000001;stroke-linecap:butt;stroke-linejoin:miter;stroke-miterlimit:4;stroke-opacity:1;stroke-dasharray:none"
           id="path74"
           inkscape:connector-curvature="0" /></g><g
         id="g76"
         transform="matrix(1,0,0,-1,0,841.88977)"><path
           d="m 70.953,234.285 15.594,0 0,7.086 -15.594,0 0,-7.086 z"
           style="fill:none;stroke:#000000;stroke-width:0.80000001;stroke-linecap:butt;stroke-linejoin:miter;stroke-miterlimit:4;stroke-opacity:1;stroke-dasharray:none"
           id="path78"
           inkscape:connector-curvature="0" /></g><g
         id="g80"
         transform="matrix(1,0,0,-1,0,841.88977)"><path
           d="m 71.25,238.535 -9.922,0 0,-52.441 2.836,-2.832 32.598,0 0,52.437 -2.836,2.836 -7.086,0"
           style="fill:none;stroke:#000000;stroke-width:0.80000001;stroke-linecap:butt;stroke-linejoin:miter;stroke-miterlimit:4;stroke-opacity:1;stroke-dasharray:none"
           id="path82"
           inkscape:connector-curvature="0" /></g><g
         id="g84"
         transform="matrix(1,0,0,-1,0,841.88977)"><path
           d="m 101.012,197.434 2.836,-2.836 11.34,0 0,21.261 -2.836,2.832 -11.34,0 0,-21.257 z"
           style="fill:none;stroke:#000000;stroke-width:0.80000001;stroke-linecap:butt;stroke-linejoin:miter;stroke-miterlimit:4;stroke-opacity:1;stroke-dasharray:none"
           id="path86"
           inkscape:connector-curvature="0" /></g><g
         id="g88"
         transform="matrix(1,0,0,-1,0,841.88977)"><path
           d="m 122.273,197.434 2.832,-2.836 12.758,0 0,21.261 -2.836,2.832 -12.754,0 0,-21.257 z"
           style="fill:none;stroke:#000000;stroke-width:0.80000001;stroke-linecap:butt;stroke-linejoin:miter;stroke-miterlimit:4;stroke-opacity:1;stroke-dasharray:none"
           id="path90"
           inkscape:connector-curvature="0" /></g><g
         id="g92"
         transform="matrix(1,0,0,-1,0,841.88977)"><path
           d="m 143.531,197.434 2.836,-2.836 12.754,0 0,41.101 -2.832,2.836 -12.758,0 0,-41.101 z"
           style="fill:none;stroke:#000000;stroke-width:0.80000001;stroke-linecap:butt;stroke-linejoin:miter;stroke-miterlimit:4;stroke-opacity:1;stroke-dasharray:none"
           id="path94"
           inkscape:connector-curvature="0" /></g><g
         id="g96"
         transform="matrix(1,0,0,-1,0,841.88977)"><path
           d="m 164.793,197.434 2.832,-2.836 12.758,0 0,41.101 -2.836,2.836 -12.754,0 0,-41.101 z"
           style="fill:none;stroke:#000000;stroke-width:0.80000001;stroke-linecap:butt;stroke-linejoin:miter;stroke-miterlimit:4;stroke-opacity:1;stroke-dasharray:none"
           id="path98"
           inkscape:connector-curvature="0" /></g><g
         id="g100"
         transform="matrix(1,0,0,-1,0,841.88977)"><path
           d="m 186.051,197.434 2.836,-2.836 12.754,0 0,41.101 -2.832,2.836 -12.758,0 0,-41.101 z"
           style="fill:none;stroke:#000000;stroke-width:0.80000001;stroke-linecap:butt;stroke-linejoin:miter;stroke-miterlimit:4;stroke-opacity:1;stroke-dasharray:none"
           id="path102"
           inkscape:connector-curvature="0" /></g><g
         id="g104"
         transform="matrix(1,0,0,-1,0,841.88977)"><path
           d="m 220.066,204.52 0,-19.844 2.836,-2.832 17.008,0 0,19.84 -2.836,2.836 -17.008,0 z"
           style="fill:none;stroke:#000000;stroke-width:0.80000001;stroke-linecap:butt;stroke-linejoin:miter;stroke-miterlimit:4;stroke-opacity:1;stroke-dasharray:none"
           id="path106"
           inkscape:connector-curvature="0" /></g><g
         id="g108"
         transform="matrix(1,0,0,-1,0,841.88977)"><path
           d="m 220.066,176.172 0,-19.84 2.836,-2.836 17.008,0 0,19.844 -2.836,2.832 -17.008,0 z"
           style="fill:none;stroke:#000000;stroke-width:0.80000001;stroke-linecap:butt;stroke-linejoin:miter;stroke-miterlimit:4;stroke-opacity:1;stroke-dasharray:none"
           id="path110"
           inkscape:connector-curvature="0" /></g><text
         y="-758.62122"
         x="75.207031"
         transform="scale(1,-1)"
         id="text112"><tspan
           style="font-size:6.40000009999999970px;font-variant:normal;font-weight:bold;writing-mode:lr-tb;fill:#000000;fill-opacity:1;fill-rule:nonzero;stroke:none;font-family:Agency FB;-inkscape-font-specification:Agency FB"
           x="75.207031 78.240631 81.165428"
           y="-758.62122"
           sodipodi:role="line"
           id="tspan114">USB</tspan></text>
<g
         id="g116"
         transform="matrix(1,0,0,-1,0,841.88977)"><path
           d="m 74.082,76.961 11.34,0 0,7.938 -11.34,0 0,-7.938 z"
           style="fill:none;stroke:#000000;stroke-width:0.80000001;stroke-linecap:butt;stroke-linejoin:miter;stroke-miterlimit:4;stroke-opacity:1;stroke-dasharray:none"
           id="path118"
           inkscape:connector-curvature="0" /></g><g
         id="g120"
         transform="matrix(1,0,0,-1,0,841.88977)"><path
           d="m 96.762,278.219 8.504,0 0,38.27 -8.504,0 0,-38.27 z"
           style="fill:none;stroke:#000000;stroke-width:0.80000001;stroke-linecap:butt;stroke-linejoin:miter;stroke-miterlimit:4;stroke-opacity:1;stroke-dasharray:none"
           id="path122"
           inkscape:connector-curvature="0" /></g><text
         y="103.06858"
         x="527.25818"
         transform="matrix(0,1,1,0,0,0)"
         id="text124"><tspan
           style="font-size:6.40000009999999970px;font-variant:normal;font-weight:bold;writing-mode:lr-tb;fill:#000000;fill-opacity:1;fill-rule:nonzero;stroke:none;font-family:Agency FB;-inkscape-font-specification:Agency FB"
           x="527.25818 528.60217 531.41815 534.34296 535.66772 538.65015 541.70294 544.76215 547.82776 550.34937 553.33173 555.83417 558.88055"
           y="103.06858"
           sodipodi:role="line"
           id="tspan126">I2S CONNECTOR</tspan></text>
<g
         id="g128"
         transform="matrix(1,0,0,-1,0,841.88977)"><path
           d="m 207.313,76.961 -2.836,2.836 0,12.754 35.433,0 2.836,-2.836 0,-12.754 -35.433,0 z"
           style="fill:none;stroke:#000000;stroke-width:0.80000001;stroke-linecap:butt;stroke-linejoin:miter;stroke-miterlimit:4;stroke-opacity:1;stroke-dasharray:none"
           id="path130"
           inkscape:connector-curvature="0" /></g><g
         id="g132"
         transform="matrix(1,0,0,-1,0,841.88977)"><path
           d="m 146.367,282.473 17.008,0 0,29.762 -17.008,0 0,-29.762 z"
           style="fill:none;stroke:#000000;stroke-width:0.80000001;stroke-linecap:butt;stroke-linejoin:miter;stroke-miterlimit:4;stroke-opacity:1;stroke-dasharray:none"
           id="path134"
           inkscape:connector-curvature="0" /></g><g
         id="g136"
         transform="matrix(1,0,0,-1,0,841.88977)"><path
           d="m 184.633,290.977 8.504,0 0,21.258 -8.504,0 0,-21.258 z"
           style="fill:none;stroke:#000000;stroke-width:0.80000001;stroke-linecap:butt;stroke-linejoin:miter;stroke-miterlimit:4;stroke-opacity:1;stroke-dasharray:none"
           id="path138"
           inkscape:connector-curvature="0" /></g><g
         id="g140"
         transform="matrix(1,0,0,-1,0,841.88977)"><path
           d="m 218.652,278.219 9.918,0 0,34.016 -9.918,0 0,-34.016 z"
           style="fill:none;stroke:#000000;stroke-width:0.80000001;stroke-linecap:butt;stroke-linejoin:miter;stroke-miterlimit:4;stroke-opacity:1;stroke-dasharray:none"
           id="path142"
           inkscape:connector-curvature="0" /></g><g
         id="g144"
         transform="matrix(1,0,0,-1,0,841.88977)"><path
           d="m 154.871,312.234 0,1.418 -2.836,2.836 -29.762,0 0,-35.433 2.832,-2.836 29.766,0 0,4.254"
           style="fill:none;stroke:#000000;stroke-width:0.80000001;stroke-linecap:butt;stroke-linejoin:miter;stroke-miterlimit:4;stroke-opacity:1;stroke-dasharray:none"
           id="path146"
           inkscape:connector-curvature="0" /></g><g
         id="g148"
         transform="matrix(1,0,0,-0.992775,0,841.88977)"><path
           d="m 91.23,245.009 92.48,0 0,19.245 -92.48,0 0,-19.245 z"
           style="fill:#ffffff;fill-opacity:1;fill-rule:nonzero;stroke:#ffffff;stroke-width:0.27853;stroke-linecap:butt;stroke-linejoin:miter;stroke-miterlimit:4;stroke-opacity:1;stroke-dasharray:none"
           id="path150"
           inkscape:connector-curvature="0" /></g><path
         d="m 176.945,583.734 0.086,0 0.074,-0.004 0.09,-0.012 0.075,-0.016 0.089,-0.011 0.153,-0.051 0.074,-0.031 0.078,-0.032 0.066,-0.035 0.079,-0.039 0.132,-0.094 0.071,-0.047 0.054,-0.058 0.063,-0.055 0.062,-0.062 0.051,-0.063 0.051,-0.058 0.051,-0.071 0.039,-0.066 0.043,-0.07 0.031,-0.079 0.039,-0.07 0.031,-0.078 0.028,-0.074 0.015,-0.082 0.02,-0.075 0.015,-0.078 0.008,-0.086 0.008,-0.082 0,-0.168 -0.012,-0.086 -0.011,-0.078 -0.012,-0.082 -0.016,-0.082 -0.023,-0.082 -0.024,-0.074 -0.031,-0.078 -0.043,-0.074 -0.027,-0.071 -0.043,-0.066 -0.039,-0.078 -0.051,-0.059 -0.051,-0.062 -0.054,-0.067 -0.055,-0.05 -0.063,-0.055 -0.054,-0.055 -0.067,-0.051 -0.062,-0.043 -0.07,-0.043 -0.071,-0.046 -0.066,-0.032 -0.082,-0.035 -0.074,-0.031 -0.082,-0.02 -0.075,-0.031 -0.086,-0.019 -0.078,-0.012 -0.086,-0.012 -0.082,-0.008 -0.176,0 -0.164,0.016 -0.074,0.016 -0.086,0.019 -0.074,0.028 -0.082,0.019 -0.07,0.031 -0.082,0.035 -0.067,0.036 -0.078,0.035 -0.066,0.051 -0.067,0.039 -0.07,0.058 -0.055,0.051 -0.125,0.117 -0.05,0.063 -0.055,0.066 -0.043,0.066 -0.043,0.071 -0.043,0.066 -0.035,0.071 -0.035,0.074 -0.032,0.078 -0.019,0.078 -0.02,0.074 -0.023,0.078 -0.016,0.09 -0.015,0.156 0,0.168 0.007,0.082 0.008,0.086 0.016,0.078 0.023,0.075 0.02,0.082 0.019,0.074 0.032,0.078 0.035,0.07 0.035,0.079 0.043,0.07 0.043,0.066 0.043,0.071 0.055,0.058 0.05,0.063 0.063,0.062 0.062,0.055 0.055,0.058 0.07,0.047 0.133,0.094 0.078,0.039 0.067,0.035 0.082,0.032 0.07,0.031 0.082,0.027 0.074,0.024 0.086,0.011 0.074,0.016 0.082,0.012 0.082,0.004 0.09,0 z m -1.781,-1.665 0.008,-0.085 0.004,-0.086 0.012,-0.086 0.011,-0.082 0.024,-0.09 0.015,-0.082 0.035,-0.082 0.032,-0.075 0.07,-0.156 0.039,-0.074 0.047,-0.074 0.102,-0.141 0.062,-0.062 0.063,-0.067 0.058,-0.062 0.074,-0.059 0.067,-0.051 0.074,-0.05 0.066,-0.047 0.078,-0.043 0.083,-0.031 0.078,-0.043 0.156,-0.055 0.094,-0.02 0.074,-0.019 0.094,-0.016 0.082,-0.012 0.086,-0.015 0.183,0 0.086,0.015 0.09,0.012 0.086,0.016 0.082,0.019 0.086,0.02 0.164,0.055 0.07,0.043 0.082,0.031 0.078,0.043 0.067,0.047 0.074,0.05 0.066,0.051 0.067,0.059 0.066,0.062 0.059,0.067 0.066,0.062 0.102,0.141 0.094,0.148 0.035,0.078 0.031,0.078 0.027,0.075 0.039,0.082 0.012,0.082 0.024,0.09 0.015,0.082 0.008,0.086 0.012,0.086 0,0.179 -0.012,0.086 -0.008,0.09 -0.015,0.082 -0.024,0.086 -0.012,0.074 -0.039,0.09 -0.027,0.078 -0.031,0.078 -0.035,0.074 -0.047,0.079 -0.047,0.07 -0.051,0.07 -0.051,0.067 -0.066,0.07 -0.059,0.055 -0.066,0.074 -0.067,0.051 -0.066,0.058 -0.074,0.047 -0.067,0.047 -0.078,0.039 -0.082,0.039 -0.07,0.035 -0.082,0.032 -0.082,0.027 -0.086,0.023 -0.082,0.016 -0.086,0.012 -0.09,0.015 -0.086,0.008 -0.183,0 -0.094,-0.008 -0.086,-0.015 -0.086,-0.012 -0.082,-0.02 -0.09,-0.027 -0.082,-0.023 -0.082,-0.032 -0.074,-0.035 -0.086,-0.047 -0.067,-0.035 -0.07,-0.043 -0.078,-0.047 -0.062,-0.062 -0.067,-0.051 -0.058,-0.066 -0.059,-0.055 -0.059,-0.066 -0.05,-0.067 -0.047,-0.062 -0.051,-0.075 -0.043,-0.074 -0.039,-0.078 -0.031,-0.074 -0.032,-0.082 -0.035,-0.086 -0.019,-0.082 -0.024,-0.086 -0.011,-0.082 -0.012,-0.09 -0.004,-0.09 -0.008,-0.094 z"
         style="fill:#0000ff;fill-opacity:1;fill-rule:evenodd;stroke:none"
         id="path152"
         inkscape:connector-curvature="0" /><path
         d="m 176.102,583.14 1.093,0 0.075,-0.008 0.078,-0.012 0.132,-0.039 0.055,-0.027 0.051,-0.024 0.047,-0.035 0.043,-0.043 0.035,-0.039 0.031,-0.047 0.02,-0.054 0.019,-0.051 0.02,-0.063 0.008,-0.058 0.004,-0.067 -0.004,-0.066 -0.008,-0.066 -0.02,-0.063 -0.019,-0.055 -0.016,-0.043 -0.027,-0.043 -0.028,-0.035 -0.031,-0.031 -0.027,-0.031 -0.035,-0.024 -0.028,-0.019 -0.027,-0.012 -0.047,-0.023 -0.035,-0.012 0,-0.004 0.043,-0.016 0.059,-0.019 0.023,-0.012 0.027,-0.019 0.024,-0.02 0.027,-0.023 0.02,-0.028 0.027,-0.031 0.016,-0.031 0.015,-0.047 0.016,-0.043 0.004,-0.043 0.004,-0.055 0,-0.062 0.007,-0.09 0.004,-0.086 0.008,-0.082 0.016,-0.082 0.015,-0.063 0.024,-0.062 0.023,-0.051 0.028,-0.035 -0.395,0 -0.019,0.035 -0.012,0.035 -0.012,0.039 -0.015,0.043 -0.004,0.075 0,0.148 -0.004,0.066 -0.004,0.059 -0.012,0.059 -0.012,0.05 -0.015,0.043 -0.008,0.039 -0.02,0.039 -0.027,0.032 -0.031,0.027 -0.039,0.024 -0.035,0.019 -0.043,0.008 -0.051,0.012 -0.055,0.011 -0.605,0 0,-0.863 -0.371,0 0,2.094 z m 0.371,-0.949 0.648,0 0.039,0.007 0.039,0.004 0.035,0.004 0.028,0.012 0.035,0.016 0.023,0.019 0.028,0.02 0.019,0.019 0.016,0.031 0.031,0.055 0.012,0.031 0.004,0.035 0.004,0.043 0,0.082 -0.004,0.043 -0.012,0.036 -0.016,0.035 -0.015,0.031 -0.016,0.027 -0.019,0.024 -0.024,0.015 -0.027,0.02 -0.031,0.008 -0.024,0.011 -0.035,0.012 -0.066,0.012 -0.672,0 0,-0.652 z"
         style="fill:#0000ff;fill-opacity:1;fill-rule:evenodd;stroke:none"
         id="path154"
         inkscape:connector-curvature="0" /><path
         d="m 116.34,583.148 -4.313,14.898 -11.422,0 0,-2.84 2.231,0 -3.488,-12.058 -1.246,0 0,-2.84 6.437,0 0,2.84 -1.09,0 0.512,1.773 5.352,0 0.511,-1.773 -1.176,0 0,-2.84 8.938,0 0,2.84 -1.246,0 z m -11.41,5.144 1.707,5.895 1.703,-5.895 -3.41,0 z"
         style="fill:#0000ff;fill-opacity:1;fill-rule:evenodd;stroke:none"
         id="path156"
         inkscape:connector-curvature="0" /><path
         d="m 131.34,587.589 0,-4.441 -4.641,0 0,12.058 1.25,0 0,2.84 -8.742,0 0,-2.84 1.25,0 0,-12.058 -1.25,0 0,-2.84 16.777,0 0,7.281 -4.644,0 z"
         style="fill:#0000ff;fill-opacity:1;fill-rule:evenodd;stroke:none"
         id="path158"
         inkscape:connector-curvature="0" /><path
         d="m 148.957,598.046 -11.332,0 0,-2.84 1.074,0 0,-12.058 -1.074,0 0,-2.84 8.395,0 0,2.84 -1.067,0 0,2.66 4.004,0 0.32,0.008 0.313,0.023 0.312,0.043 0.305,0.051 0.293,0.066 0.293,0.086 0.285,0.094 0.281,0.109 0.274,0.125 0.269,0.137 0.254,0.144 0.254,0.157 0.238,0.175 0.231,0.18 0.223,0.195 0.214,0.196 0.204,0.215 0.195,0.222 0.18,0.235 0.171,0.238 0.161,0.246 0.152,0.258 0.137,0.262 0.125,0.277 0.105,0.273 0.098,0.286 0.09,0.289 0.066,0.293 0.051,0.308 0.043,0.301 0.023,0.312 0.012,0.317 -0.012,0.312 -0.023,0.309 -0.043,0.305 -0.051,0.304 -0.066,0.297 -0.09,0.289 -0.098,0.285 -0.105,0.278 -0.125,0.277 -0.137,0.262 -0.152,0.254 -0.161,0.246 -0.171,0.242 -0.18,0.234 -0.195,0.219 -0.204,0.215 -0.214,0.199 -0.223,0.195 -0.231,0.18 -0.238,0.168 -0.254,0.164 -0.254,0.149 -0.269,0.136 -0.274,0.114 -0.281,0.113 -0.285,0.098 -0.293,0.082 -0.293,0.062 -0.305,0.059 -0.312,0.039 -0.313,0.023 -0.32,0.008 z m -2.676,-9.398 -1.336,0 0,6.558 1.508,0 0.164,-0.015 0.168,-0.02 0.16,-0.027 0.16,-0.035 0.157,-0.051 0.16,-0.047 0.148,-0.059 0.149,-0.07 0.14,-0.07 0.141,-0.082 0.129,-0.086 0.133,-0.09 0.125,-0.098 0.121,-0.101 0.109,-0.106 0.113,-0.117 0.106,-0.117 0.094,-0.125 0.093,-0.129 0.086,-0.133 0.079,-0.137 0.074,-0.14 0.066,-0.153 0.059,-0.144 0.051,-0.149 0.046,-0.156 0.036,-0.16 0.031,-0.16 0.019,-0.164 0.016,-0.168 0.004,-0.168 -0.004,-0.172 -0.016,-0.164 -0.019,-0.164 -0.031,-0.16 -0.036,-0.16 -0.046,-0.157 -0.051,-0.156 -0.059,-0.145 -0.066,-0.152 -0.074,-0.137 -0.079,-0.132 -0.086,-0.137 -0.093,-0.129 -0.094,-0.125 -0.106,-0.113 -0.113,-0.117 -0.109,-0.114 -0.121,-0.097 -0.125,-0.102 -0.133,-0.086 -0.129,-0.086 -0.141,-0.082 -0.14,-0.074 -0.149,-0.063 -0.148,-0.058 -0.16,-0.055 -0.157,-0.043 -0.16,-0.035 -0.16,-0.031 -0.168,-0.024 -0.164,-0.008 -0.172,-0.003 z"
         style="fill:#0000ff;fill-opacity:1;fill-rule:evenodd;stroke:none"
         id="path160"
         inkscape:connector-curvature="0" /><path
         d="m 170.887,581.015 0.199,0.078 0.195,0.078 0.184,0.094 0.187,0.09 0.176,0.093 0.172,0.098 0.164,0.102 0.16,0.093 0.149,0.106 0.14,0.097 0.133,0.094 0.121,0.094 0.117,0.09 0.102,0.086 0.086,0.086 0.086,0.078 0.289,0.312 0.137,0.176 0.129,0.164 0.054,0.094 0.067,0.09 0.05,0.097 0.055,0.09 0.055,0.094 0.051,0.102 0.043,0.089 0.05,0.102 0.043,0.102 0.039,0.105 0.039,0.102 0.036,0.101 0.035,0.113 0.031,0.106 0.023,0.105 0.028,0.114 0.019,0.109 0.02,0.113 0.023,0.117 0.024,0.235 0.011,0.113 0,0.125 0.004,0.121 -0.004,0.137 -0.007,0.141 -0.008,0.148 -0.016,0.137 -0.027,0.14 -0.02,0.129 -0.023,0.137 -0.039,0.137 -0.035,0.132 -0.039,0.129 -0.043,0.129 -0.051,0.121 -0.047,0.129 -0.059,0.121 -0.05,0.121 -0.067,0.118 -0.066,0.121 -0.067,0.105 -0.078,0.117 -0.07,0.114 -0.082,0.101 -0.082,0.106 -0.086,0.105 -0.09,0.098 -0.09,0.101 -0.094,0.09 -0.101,0.094 -0.098,0.086 -0.105,0.086 -0.11,0.086 -0.101,0.082 -0.113,0.07 -0.2,0.133 -0.207,0.129 -0.23,0.133 -0.235,0.129 -0.261,0.125 -0.278,0.121 -0.3,0.133 -0.321,0.117 -0.281,0.105 -0.273,0.098 -0.286,0.097 -0.277,0.09 -0.269,0.082 -0.278,0.078 -0.265,0.083 -0.27,0.082 -0.254,0.066 -0.262,0.074 -0.492,0.133 -0.234,0.066 -0.231,0.055 -0.214,0.063 -0.204,0.054 -0.281,0.078 -0.293,0.086 -0.316,0.086 -0.32,0.102 -0.329,0.101 -0.32,0.106 -0.316,0.113 -0.309,0.11 -0.172,0.07 -0.156,0.066 -0.117,0.074 -0.082,0.047 -0.039,0.032 -0.051,0.043 -0.027,0.019 -0.036,0.035 -0.031,0.035 -0.055,0.082 -0.054,0.102 -0.016,0.055 -0.023,0.066 -0.008,0.066 -0.008,0.083 0,0.074 0.008,0.07 0.016,0.086 0.015,0.074 0.024,0.071 0.062,0.14 0.035,0.067 0.039,0.054 0.059,0.067 0.047,0.05 0.109,0.102 0.063,0.043 0.062,0.035 0.07,0.035 0.067,0.035 0.109,0.039 0.094,0.043 0.113,0.036 0.11,0.027 0.105,0.031 0.113,0.02 0.118,0.023 0.113,0.008 -0.016,0.008 0.106,0.008 0.097,0.011 0.102,0.016 0.105,0.004 0.094,0.012 0.106,0.007 0.093,0.004 0.106,0.008 0.652,0 0.199,-0.016 0.196,-0.015 0.199,-0.016 0.199,-0.019 0.188,-0.028 0.191,-0.027 0.188,-0.031 0.367,-0.071 0.176,-0.043 0.179,-0.035 0.172,-0.05 0.344,-0.086 0.324,-0.102 0.313,-0.098 0.308,-0.105 0.285,-0.109 0.278,-0.11 0.265,-0.109 0.239,-0.11 0.226,-0.101 0.219,-0.106 0,-1.5 2.863,0 0,6.387 -2.863,0 0,-1.465 -0.078,0.039 -0.059,0.032 -0.062,0.023 -0.051,0.027 -0.336,0.153 -0.344,0.14 -0.347,0.133 -0.352,0.121 -0.359,0.121 -0.364,0.106 -0.363,0.097 -0.371,0.098 -0.184,0.035 -0.183,0.039 -0.192,0.043 -0.183,0.028 -0.188,0.031 -0.191,0.031 -0.188,0.02 -0.191,0.027 -0.199,0.023 -0.192,0.02 -0.191,0.016 -0.199,0.015 -0.188,0.012 -0.195,0.004 -0.199,0.004 -0.203,0.008 -0.352,-0.008 -0.359,-0.004 -0.348,-0.016 -0.352,-0.023 -0.347,-0.035 -0.348,-0.043 -0.344,-0.051 -0.336,-0.059 -0.343,-0.066 -0.332,-0.07 -0.336,-0.086 -0.328,-0.09 -0.329,-0.102 -0.32,-0.097 -0.316,-0.118 -0.313,-0.129 -0.23,-0.097 -0.223,-0.106 -0.223,-0.117 -0.214,-0.121 -0.207,-0.125 -0.208,-0.144 -0.199,-0.137 -0.203,-0.153 -0.035,-0.035 -0.043,-0.023 -0.039,-0.035 -0.043,-0.035 -0.004,-0.008 -0.004,-0.004 -0.082,-0.07 -0.086,-0.079 -0.082,-0.082 -0.082,-0.086 -0.078,-0.078 -0.07,-0.086 -0.071,-0.093 -0.078,-0.09 -0.066,-0.086 -0.063,-0.098 -0.066,-0.09 -0.059,-0.101 -0.062,-0.098 -0.059,-0.105 -0.051,-0.102 -0.042,-0.101 -0.051,-0.106 -0.055,-0.109 -0.035,-0.106 -0.039,-0.113 -0.043,-0.106 -0.031,-0.117 -0.028,-0.109 -0.031,-0.117 -0.027,-0.117 -0.016,-0.118 -0.019,-0.121 -0.016,-0.113 -0.008,-0.121 -0.016,-0.125 -0.007,-0.117 0,-0.129 0.007,-0.141 0.004,-0.14 0.016,-0.149 0.02,-0.141 0.019,-0.132 0.023,-0.145 0.028,-0.137 0.031,-0.136 0.043,-0.137 0.039,-0.121 0.047,-0.133 0.047,-0.125 0.058,-0.129 0.059,-0.125 0.063,-0.117 0.066,-0.121 0.07,-0.121 0.141,-0.227 0.09,-0.109 0.074,-0.102 0.09,-0.105 0.086,-0.11 0.097,-0.089 0.09,-0.102 0.102,-0.086 0.097,-0.098 0.102,-0.085 0.109,-0.083 0.106,-0.078 0.113,-0.082 0.117,-0.07 0.016,-0.012 0.031,-0.019 0.02,-0.012 0.015,-0.008 0.211,-0.121 0.215,-0.117 0.207,-0.117 0.223,-0.102 0.219,-0.097 0.222,-0.09 0.231,-0.094 0.23,-0.074 0.383,-0.133 0.375,-0.125 0.379,-0.129 0.375,-0.109 0.387,-0.118 0.375,-0.113 0.39,-0.109 0.383,-0.113 0.363,-0.098 0.364,-0.094 0.367,-0.098 0.367,-0.101 0.367,-0.106 0.367,-0.109 0.188,-0.051 0.183,-0.058 0.176,-0.063 0.176,-0.058 0.117,-0.036 0.117,-0.046 0.114,-0.051 0.105,-0.047 0.113,-0.051 0.114,-0.058 0.203,-0.118 -0.004,0.004 0.031,-0.019 0.031,-0.028 0.032,-0.023 0.039,-0.031 0.031,-0.032 0.031,-0.035 0.024,-0.035 0.031,-0.039 0.019,-0.035 0.032,-0.035 0.019,-0.047 0.012,-0.047 0.016,-0.039 0.015,-0.047 0.008,-0.051 0.008,-0.047 0.004,-0.043 0.004,-0.046 -0.004,-0.055 -0.004,-0.047 -0.008,-0.051 -0.008,-0.047 -0.015,-0.043 -0.016,-0.047 -0.012,-0.039 -0.019,-0.046 -0.032,-0.036 -0.023,-0.043 -0.027,-0.039 -0.024,-0.035 -0.066,-0.066 -0.035,-0.031 -0.043,-0.024 0.004,0 -0.102,-0.078 -0.113,-0.059 -0.117,-0.058 -0.122,-0.051 -0.117,-0.043 -0.125,-0.035 -0.133,-0.031 -0.125,-0.028 0.004,0 -0.117,-0.019 -0.121,-0.008 -0.125,-0.016 -0.113,-0.011 -0.121,0 -0.121,-0.004 -0.121,-0.008 -0.34,0 -0.2,0.012 -0.199,0.004 -0.39,0.031 -0.192,0.015 -0.195,0.032 -0.199,0.023 -0.192,0.024 -0.187,0.027 -0.196,0.031 -0.187,0.035 -0.184,0.043 -0.191,0.039 -0.184,0.035 -0.183,0.047 -0.192,0.055 -0.179,0.047 -0.192,0.051 -0.175,0.054 -0.18,0.063 -0.18,0.055 -0.18,0.07 -0.179,0.062 -0.172,0.067 -0.176,0.07 -0.172,0.066 -0.176,0.079 -0.168,0.078 -0.167,0.082 -0.168,0.074 -0.168,0.094 -0.164,0.078 -0.047,0.027 -0.047,0.024 -0.086,0.047 0,1.132 -2.86,0 0,-6.566 2.86,0 0,1.363 0.047,-0.027 0.047,-0.016 0.05,-0.027 0.051,-0.024 0.18,-0.093 0.187,-0.078 0.188,-0.094 0.191,-0.082 0.196,-0.071 0.191,-0.085 0.383,-0.141 0.199,-0.07 0.195,-0.067 0.2,-0.066 0.199,-0.059 0.207,-0.058 0.203,-0.055 0.199,-0.051 0.203,-0.051 0.211,-0.05 0.207,-0.036 0.207,-0.046 0.207,-0.043 0.211,-0.028 0.211,-0.035 0.215,-0.031 0.215,-0.028 0.215,-0.023 0.215,-0.019 0.21,-0.016 0.215,-0.016 0.223,-0.011 0.215,-0.008 0.219,-0.008 0.218,0 0.383,0.008 0.379,0.015 0.367,0.02 0.36,0.031 0.355,0.039 0.348,0.051 0.34,0.051 0.332,0.066 0.324,0.059 0.32,0.078 0.305,0.074 0.308,0.082 0.301,0.09 0.285,0.102 0.293,0.097 0.274,0.102 z"
         style="fill:#0000ff;fill-opacity:1;fill-rule:evenodd;stroke:none"
         id="path162"
         inkscape:connector-curvature="0" /><path
         d="m 176.945,583.734 0.086,0 0.074,-0.004 0.09,-0.012 0.075,-0.016 0.089,-0.011 0.153,-0.051 0.074,-0.031 0.078,-0.032 0.066,-0.035 0.079,-0.039 0.132,-0.094 0.071,-0.047 0.054,-0.058 0.063,-0.055 0.062,-0.062 0.051,-0.063 0.051,-0.058 0.051,-0.071 0.039,-0.066 0.043,-0.07 0.031,-0.079 0.039,-0.07 0.031,-0.078 0.028,-0.074 0.015,-0.082 0.02,-0.075 0.015,-0.078 0.008,-0.086 0.008,-0.082 0,-0.168 -0.012,-0.086 -0.011,-0.078 -0.012,-0.082 -0.016,-0.082 -0.023,-0.082 -0.024,-0.074 -0.031,-0.078 -0.043,-0.074 -0.027,-0.071 -0.043,-0.066 -0.039,-0.078 -0.051,-0.059 -0.051,-0.062 -0.054,-0.067 -0.055,-0.05 -0.063,-0.055 -0.054,-0.055 -0.067,-0.051 -0.062,-0.043 -0.07,-0.043 -0.071,-0.046 -0.066,-0.032 -0.082,-0.035 -0.074,-0.031 -0.082,-0.02 -0.075,-0.031 -0.086,-0.019 -0.078,-0.012 -0.086,-0.012 -0.082,-0.008 -0.176,0 -0.164,0.016 -0.074,0.016 -0.086,0.019 -0.074,0.028 -0.082,0.019 -0.07,0.031 -0.082,0.035 -0.067,0.036 -0.078,0.035 -0.066,0.051 -0.067,0.039 -0.07,0.058 -0.055,0.051 -0.125,0.117 -0.05,0.063 -0.055,0.066 -0.043,0.066 -0.043,0.071 -0.043,0.066 -0.035,0.071 -0.035,0.074 -0.032,0.078 -0.019,0.078 -0.02,0.074 -0.023,0.078 -0.016,0.09 -0.015,0.156 0,0.168 0.007,0.082 0.008,0.086 0.016,0.078 0.023,0.075 0.02,0.082 0.019,0.074 0.032,0.078 0.035,0.07 0.035,0.079 0.043,0.07 0.043,0.066 0.043,0.071 0.055,0.058 0.05,0.063 0.063,0.062 0.062,0.055 0.055,0.058 0.07,0.047 0.133,0.094 0.078,0.039 0.067,0.035 0.082,0.032 0.07,0.031 0.082,0.027 0.074,0.024 0.086,0.011 0.074,0.016 0.082,0.012 0.082,0.004 0.09,0 z m -1.781,-1.665 0.008,-0.085 0.004,-0.086 0.012,-0.086 0.011,-0.082 0.024,-0.09 0.015,-0.082 0.035,-0.082 0.032,-0.075 0.07,-0.156 0.039,-0.074 0.047,-0.074 0.102,-0.141 0.062,-0.062 0.063,-0.067 0.058,-0.062 0.074,-0.059 0.067,-0.051 0.074,-0.05 0.066,-0.047 0.078,-0.043 0.083,-0.031 0.078,-0.043 0.156,-0.055 0.094,-0.02 0.074,-0.019 0.094,-0.016 0.082,-0.012 0.086,-0.015 0.183,0 0.086,0.015 0.09,0.012 0.086,0.016 0.082,0.019 0.086,0.02 0.164,0.055 0.07,0.043 0.082,0.031 0.078,0.043 0.067,0.047 0.074,0.05 0.066,0.051 0.067,0.059 0.066,0.062 0.059,0.067 0.066,0.062 0.102,0.141 0.094,0.148 0.035,0.078 0.031,0.078 0.027,0.075 0.039,0.082 0.012,0.082 0.024,0.09 0.015,0.082 0.008,0.086 0.012,0.086 0,0.179 -0.012,0.086 -0.008,0.09 -0.015,0.082 -0.024,0.086 -0.012,0.074 -0.039,0.09 -0.027,0.078 -0.031,0.078 -0.035,0.074 -0.047,0.079 -0.047,0.07 -0.051,0.07 -0.051,0.067 -0.066,0.07 -0.059,0.055 -0.066,0.074 -0.067,0.051 -0.066,0.058 -0.074,0.047 -0.067,0.047 -0.078,0.039 -0.082,0.039 -0.07,0.035 -0.082,0.032 -0.082,0.027 -0.086,0.023 -0.082,0.016 -0.086,0.012 -0.09,0.015 -0.086,0.008 -0.183,0 -0.094,-0.008 -0.086,-0.015 -0.086,-0.012 -0.082,-0.02 -0.09,-0.027 -0.082,-0.023 -0.082,-0.032 -0.074,-0.035 -0.086,-0.047 -0.067,-0.035 -0.07,-0.043 -0.078,-0.047 -0.062,-0.062 -0.067,-0.051 -0.058,-0.066 -0.059,-0.055 -0.059,-0.066 -0.05,-0.067 -0.047,-0.062 -0.051,-0.075 -0.043,-0.074 -0.039,-0.078 -0.031,-0.074 -0.032,-0.082 -0.035,-0.086 -0.019,-0.082 -0.024,-0.086 -0.011,-0.082 -0.012,-0.09 -0.004,-0.09 -0.008,-0.094 z"
         style="fill:#0000ff;fill-opacity:1;fill-rule:evenodd;stroke:none"
         id="path164"
         inkscape:connector-curvature="0" /><path
         d="m 176.102,583.14 1.093,0 0.075,-0.008 0.078,-0.012 0.132,-0.039 0.055,-0.027 0.051,-0.024 0.047,-0.035 0.043,-0.043 0.035,-0.039 0.031,-0.047 0.02,-0.054 0.019,-0.051 0.02,-0.063 0.008,-0.058 0.004,-0.067 -0.004,-0.066 -0.008,-0.066 -0.02,-0.063 -0.019,-0.055 -0.016,-0.043 -0.027,-0.043 -0.028,-0.035 -0.031,-0.031 -0.027,-0.031 -0.035,-0.024 -0.028,-0.019 -0.027,-0.012 -0.047,-0.023 -0.035,-0.012 0,-0.004 0.043,-0.016 0.059,-0.019 0.023,-0.012 0.027,-0.019 0.024,-0.02 0.027,-0.023 0.02,-0.028 0.027,-0.031 0.016,-0.031 0.015,-0.047 0.016,-0.043 0.004,-0.043 0.004,-0.055 0,-0.062 0.007,-0.09 0.004,-0.086 0.008,-0.082 0.016,-0.082 0.015,-0.063 0.024,-0.062 0.023,-0.051 0.028,-0.035 -0.395,0 -0.019,0.035 -0.012,0.035 -0.012,0.039 -0.015,0.043 -0.004,0.075 0,0.148 -0.004,0.066 -0.004,0.059 -0.012,0.059 -0.012,0.05 -0.015,0.043 -0.008,0.039 -0.02,0.039 -0.027,0.032 -0.031,0.027 -0.039,0.024 -0.035,0.019 -0.043,0.008 -0.051,0.012 -0.055,0.011 -0.605,0 0,-0.863 -0.371,0 0,2.094 z m 0.371,-0.949 0.648,0 0.039,0.007 0.039,0.004 0.035,0.004 0.028,0.012 0.035,0.016 0.023,0.019 0.028,0.02 0.019,0.019 0.016,0.031 0.031,0.055 0.012,0.031 0.004,0.035 0.004,0.043 0,0.082 -0.004,0.043 -0.012,0.036 -0.016,0.035 -0.015,0.031 -0.016,0.027 -0.019,0.024 -0.024,0.015 -0.027,0.02 -0.031,0.008 -0.024,0.011 -0.035,0.012 -0.066,0.012 -0.672,0 0,-0.652 z"
         style="fill:#0000ff;fill-opacity:1;fill-rule:evenodd;stroke:none"
         id="path166"
         inkscape:connector-curvature="0" /><path
         d="m 116.34,583.148 -4.313,14.898 -11.422,0 0,-2.84 2.231,0 -3.488,-12.058 -1.246,0 0,-2.84 6.437,0 0,2.84 -1.09,0 0.512,1.773 5.352,0 0.511,-1.773 -1.176,0 0,-2.84 8.938,0 0,2.84 -1.246,0 z m -11.41,5.144 1.707,5.895 1.703,-5.895 -3.41,0 z"
         style="fill:#0000ff;fill-opacity:1;fill-rule:evenodd;stroke:none"
         id="path168"
         inkscape:connector-curvature="0" /><path
         d="m 131.34,587.589 0,-4.441 -4.641,0 0,12.058 1.25,0 0,2.84 -8.742,0 0,-2.84 1.25,0 0,-12.058 -1.25,0 0,-2.84 16.777,0 0,7.281 -4.644,0 z"
         style="fill:#0000ff;fill-opacity:1;fill-rule:evenodd;stroke:none"
         id="path170"
         inkscape:connector-curvature="0" /><path
         d="m 148.957,598.046 -11.332,0 0,-2.84 1.074,0 0,-12.058 -1.074,0 0,-2.84 8.395,0 0,2.84 -1.067,0 0,2.66 4.004,0 0.32,0.008 0.313,0.023 0.312,0.043 0.305,0.051 0.293,0.066 0.293,0.086 0.285,0.094 0.281,0.109 0.274,0.125 0.269,0.137 0.254,0.144 0.254,0.157 0.238,0.175 0.231,0.18 0.223,0.195 0.214,0.196 0.204,0.215 0.195,0.222 0.18,0.235 0.171,0.238 0.161,0.246 0.152,0.258 0.137,0.262 0.125,0.277 0.105,0.273 0.098,0.286 0.09,0.289 0.066,0.293 0.051,0.308 0.043,0.301 0.023,0.312 0.012,0.317 -0.012,0.312 -0.023,0.309 -0.043,0.305 -0.051,0.304 -0.066,0.297 -0.09,0.289 -0.098,0.285 -0.105,0.278 -0.125,0.277 -0.137,0.262 -0.152,0.254 -0.161,0.246 -0.171,0.242 -0.18,0.234 -0.195,0.219 -0.204,0.215 -0.214,0.199 -0.223,0.195 -0.231,0.18 -0.238,0.168 -0.254,0.164 -0.254,0.149 -0.269,0.136 -0.274,0.114 -0.281,0.113 -0.285,0.098 -0.293,0.082 -0.293,0.062 -0.305,0.059 -0.312,0.039 -0.313,0.023 -0.32,0.008 z m -2.676,-9.398 -1.336,0 0,6.558 1.508,0 0.164,-0.015 0.168,-0.02 0.16,-0.027 0.16,-0.035 0.157,-0.051 0.16,-0.047 0.148,-0.059 0.149,-0.07 0.14,-0.07 0.141,-0.082 0.129,-0.086 0.133,-0.09 0.125,-0.098 0.121,-0.101 0.109,-0.106 0.113,-0.117 0.106,-0.117 0.094,-0.125 0.093,-0.129 0.086,-0.133 0.079,-0.137 0.074,-0.14 0.066,-0.153 0.059,-0.144 0.051,-0.149 0.046,-0.156 0.036,-0.16 0.031,-0.16 0.019,-0.164 0.016,-0.168 0.004,-0.168 -0.004,-0.172 -0.016,-0.164 -0.019,-0.164 -0.031,-0.16 -0.036,-0.16 -0.046,-0.157 -0.051,-0.156 -0.059,-0.145 -0.066,-0.152 -0.074,-0.137 -0.079,-0.132 -0.086,-0.137 -0.093,-0.129 -0.094,-0.125 -0.106,-0.113 -0.113,-0.117 -0.109,-0.114 -0.121,-0.097 -0.125,-0.102 -0.133,-0.086 -0.129,-0.086 -0.141,-0.082 -0.14,-0.074 -0.149,-0.063 -0.148,-0.058 -0.16,-0.055 -0.157,-0.043 -0.16,-0.035 -0.16,-0.031 -0.168,-0.024 -0.164,-0.008 -0.172,-0.003 z"
         style="fill:#0000ff;fill-opacity:1;fill-rule:evenodd;stroke:none"
         id="path172"
         inkscape:connector-curvature="0" /><path
         d="m 170.887,581.015 0.199,0.078 0.195,0.078 0.184,0.094 0.187,0.09 0.176,0.093 0.172,0.098 0.164,0.102 0.16,0.093 0.149,0.106 0.14,0.097 0.133,0.094 0.121,0.094 0.117,0.09 0.102,0.086 0.086,0.086 0.086,0.078 0.289,0.312 0.137,0.176 0.129,0.164 0.054,0.094 0.067,0.09 0.05,0.097 0.055,0.09 0.055,0.094 0.051,0.102 0.043,0.089 0.05,0.102 0.043,0.102 0.039,0.105 0.039,0.102 0.036,0.101 0.035,0.113 0.031,0.106 0.023,0.105 0.028,0.114 0.019,0.109 0.02,0.113 0.023,0.117 0.024,0.235 0.011,0.113 0,0.125 0.004,0.121 -0.004,0.137 -0.007,0.141 -0.008,0.148 -0.016,0.137 -0.027,0.14 -0.02,0.129 -0.023,0.137 -0.039,0.137 -0.035,0.132 -0.039,0.129 -0.043,0.129 -0.051,0.121 -0.047,0.129 -0.059,0.121 -0.05,0.121 -0.067,0.118 -0.066,0.121 -0.067,0.105 -0.078,0.117 -0.07,0.114 -0.082,0.101 -0.082,0.106 -0.086,0.105 -0.09,0.098 -0.09,0.101 -0.094,0.09 -0.101,0.094 -0.098,0.086 -0.105,0.086 -0.11,0.086 -0.101,0.082 -0.113,0.07 -0.2,0.133 -0.207,0.129 -0.23,0.133 -0.235,0.129 -0.261,0.125 -0.278,0.121 -0.3,0.133 -0.321,0.117 -0.281,0.105 -0.273,0.098 -0.286,0.097 -0.277,0.09 -0.269,0.082 -0.278,0.078 -0.265,0.083 -0.27,0.082 -0.254,0.066 -0.262,0.074 -0.492,0.133 -0.234,0.066 -0.231,0.055 -0.214,0.063 -0.204,0.054 -0.281,0.078 -0.293,0.086 -0.316,0.086 -0.32,0.102 -0.329,0.101 -0.32,0.106 -0.316,0.113 -0.309,0.11 -0.172,0.07 -0.156,0.066 -0.117,0.074 -0.082,0.047 -0.039,0.032 -0.051,0.043 -0.027,0.019 -0.036,0.035 -0.031,0.035 -0.055,0.082 -0.054,0.102 -0.016,0.055 -0.023,0.066 -0.008,0.066 -0.008,0.083 0,0.074 0.008,0.07 0.016,0.086 0.015,0.074 0.024,0.071 0.062,0.14 0.035,0.067 0.039,0.054 0.059,0.067 0.047,0.05 0.109,0.102 0.063,0.043 0.062,0.035 0.07,0.035 0.067,0.035 0.109,0.039 0.094,0.043 0.113,0.036 0.11,0.027 0.105,0.031 0.113,0.02 0.118,0.023 0.113,0.008 -0.016,0.008 0.106,0.008 0.097,0.011 0.102,0.016 0.105,0.004 0.094,0.012 0.106,0.007 0.093,0.004 0.106,0.008 0.652,0 0.199,-0.016 0.196,-0.015 0.199,-0.016 0.199,-0.019 0.188,-0.028 0.191,-0.027 0.188,-0.031 0.367,-0.071 0.176,-0.043 0.179,-0.035 0.172,-0.05 0.344,-0.086 0.324,-0.102 0.313,-0.098 0.308,-0.105 0.285,-0.109 0.278,-0.11 0.265,-0.109 0.239,-0.11 0.226,-0.101 0.219,-0.106 0,-1.5 2.863,0 0,6.387 -2.863,0 0,-1.465 -0.078,0.039 -0.059,0.032 -0.062,0.023 -0.051,0.027 -0.336,0.153 -0.344,0.14 -0.347,0.133 -0.352,0.121 -0.359,0.121 -0.364,0.106 -0.363,0.097 -0.371,0.098 -0.184,0.035 -0.183,0.039 -0.192,0.043 -0.183,0.028 -0.188,0.031 -0.191,0.031 -0.188,0.02 -0.191,0.027 -0.199,0.023 -0.192,0.02 -0.191,0.016 -0.199,0.015 -0.188,0.012 -0.195,0.004 -0.199,0.004 -0.203,0.008 -0.352,-0.008 -0.359,-0.004 -0.348,-0.016 -0.352,-0.023 -0.347,-0.035 -0.348,-0.043 -0.344,-0.051 -0.336,-0.059 -0.343,-0.066 -0.332,-0.07 -0.336,-0.086 -0.328,-0.09 -0.329,-0.102 -0.32,-0.097 -0.316,-0.118 -0.313,-0.129 -0.23,-0.097 -0.223,-0.106 -0.223,-0.117 -0.214,-0.121 -0.207,-0.125 -0.208,-0.144 -0.199,-0.137 -0.203,-0.153 -0.035,-0.035 -0.043,-0.023 -0.039,-0.035 -0.043,-0.035 -0.004,-0.008 -0.004,-0.004 -0.082,-0.07 -0.086,-0.079 -0.082,-0.082 -0.082,-0.086 -0.078,-0.078 -0.07,-0.086 -0.071,-0.093 -0.078,-0.09 -0.066,-0.086 -0.063,-0.098 -0.066,-0.09 -0.059,-0.101 -0.062,-0.098 -0.059,-0.105 -0.051,-0.102 -0.042,-0.101 -0.051,-0.106 -0.055,-0.109 -0.035,-0.106 -0.039,-0.113 -0.043,-0.106 -0.031,-0.117 -0.028,-0.109 -0.031,-0.117 -0.027,-0.117 -0.016,-0.118 -0.019,-0.121 -0.016,-0.113 -0.008,-0.121 -0.016,-0.125 -0.007,-0.117 0,-0.129 0.007,-0.141 0.004,-0.14 0.016,-0.149 0.02,-0.141 0.019,-0.132 0.023,-0.145 0.028,-0.137 0.031,-0.136 0.043,-0.137 0.039,-0.121 0.047,-0.133 0.047,-0.125 0.058,-0.129 0.059,-0.125 0.063,-0.117 0.066,-0.121 0.07,-0.121 0.141,-0.227 0.09,-0.109 0.074,-0.102 0.09,-0.105 0.086,-0.11 0.097,-0.089 0.09,-0.102 0.102,-0.086 0.097,-0.098 0.102,-0.085 0.109,-0.083 0.106,-0.078 0.113,-0.082 0.117,-0.07 0.016,-0.012 0.031,-0.019 0.02,-0.012 0.015,-0.008 0.211,-0.121 0.215,-0.117 0.207,-0.117 0.223,-0.102 0.219,-0.097 0.222,-0.09 0.231,-0.094 0.23,-0.074 0.383,-0.133 0.375,-0.125 0.379,-0.129 0.375,-0.109 0.387,-0.118 0.375,-0.113 0.39,-0.109 0.383,-0.113 0.363,-0.098 0.364,-0.094 0.367,-0.098 0.367,-0.101 0.367,-0.106 0.367,-0.109 0.188,-0.051 0.183,-0.058 0.176,-0.063 0.176,-0.058 0.117,-0.036 0.117,-0.046 0.114,-0.051 0.105,-0.047 0.113,-0.051 0.114,-0.058 0.203,-0.118 -0.004,0.004 0.031,-0.019 0.031,-0.028 0.032,-0.023 0.039,-0.031 0.031,-0.032 0.031,-0.035 0.024,-0.035 0.031,-0.039 0.019,-0.035 0.032,-0.035 0.019,-0.047 0.012,-0.047 0.016,-0.039 0.015,-0.047 0.008,-0.051 0.008,-0.047 0.004,-0.043 0.004,-0.046 -0.004,-0.055 -0.004,-0.047 -0.008,-0.051 -0.008,-0.047 -0.015,-0.043 -0.016,-0.047 -0.012,-0.039 -0.019,-0.046 -0.032,-0.036 -0.023,-0.043 -0.027,-0.039 -0.024,-0.035 -0.066,-0.066 -0.035,-0.031 -0.043,-0.024 0.004,0 -0.102,-0.078 -0.113,-0.059 -0.117,-0.058 -0.122,-0.051 -0.117,-0.043 -0.125,-0.035 -0.133,-0.031 -0.125,-0.028 0.004,0 -0.117,-0.019 -0.121,-0.008 -0.125,-0.016 -0.113,-0.011 -0.121,0 -0.121,-0.004 -0.121,-0.008 -0.34,0 -0.2,0.012 -0.199,0.004 -0.39,0.031 -0.192,0.015 -0.195,0.032 -0.199,0.023 -0.192,0.024 -0.187,0.027 -0.196,0.031 -0.187,0.035 -0.184,0.043 -0.191,0.039 -0.184,0.035 -0.183,0.047 -0.192,0.055 -0.179,0.047 -0.192,0.051 -0.175,0.054 -0.18,0.063 -0.18,0.055 -0.18,0.07 -0.179,0.062 -0.172,0.067 -0.176,0.07 -0.172,0.066 -0.176,0.079 -0.168,0.078 -0.167,0.082 -0.168,0.074 -0.168,0.094 -0.164,0.078 -0.047,0.027 -0.047,0.024 -0.086,0.047 0,1.132 -2.86,0 0,-6.566 2.86,0 0,1.363 0.047,-0.027 0.047,-0.016 0.05,-0.027 0.051,-0.024 0.18,-0.093 0.187,-0.078 0.188,-0.094 0.191,-0.082 0.196,-0.071 0.191,-0.085 0.383,-0.141 0.199,-0.07 0.195,-0.067 0.2,-0.066 0.199,-0.059 0.207,-0.058 0.203,-0.055 0.199,-0.051 0.203,-0.051 0.211,-0.05 0.207,-0.036 0.207,-0.046 0.207,-0.043 0.211,-0.028 0.211,-0.035 0.215,-0.031 0.215,-0.028 0.215,-0.023 0.215,-0.019 0.21,-0.016 0.215,-0.016 0.223,-0.011 0.215,-0.008 0.219,-0.008 0.218,0 0.383,0.008 0.379,0.015 0.367,0.02 0.36,0.031 0.355,0.039 0.348,0.051 0.34,0.051 0.332,0.066 0.324,0.059 0.32,0.078 0.305,0.074 0.308,0.082 0.301,0.09 0.285,0.102 0.293,0.097 0.274,0.102 z"
         style="fill:#0000ff;fill-opacity:1;fill-rule:evenodd;stroke:none"
         id="path174"
         inkscape:connector-curvature="0" /><text
         style="font-size:11.95656872px"
         y="-571.59265"
         x="97.103996"
         transform="scale(1.0036324,-0.99638075)"
         id="text176"><tspan
           style="font-size:9.18398189999999910px;font-style:oblique;font-variant:normal;font-weight:bold;writing-mode:lr-tb;fill:#0000ff;fill-opacity:1;fill-rule:nonzero;stroke:none;font-family:FuturaCE;-inkscape-font-specification:FuturaCE"
           x="97.103996 102.74297 108.82276 114.88419 120.97317 125.39066 131.45209 137.71556 143.77699 146.93628 156.00087 162.31027 165.28587"
           y="-571.59265"
           sodipodi:role="line"
           id="tspan178">Sonochan mkII</tspan></text>
<g
         id="g180"
         transform="matrix(1,0,0,-1,0,841.88977)"><path
           d="m 45.738,253.953 45.492,0 0,7.652 -45.492,0 0,-7.652 z"
           style="fill:#0000ff;fill-opacity:1;fill-rule:nonzero;stroke:#0000ff;stroke-width:0.76533198;stroke-linecap:butt;stroke-linejoin:miter;stroke-miterlimit:4;stroke-opacity:1;stroke-dasharray:none"
           id="path182"
           inkscape:connector-curvature="0" /></g><g
         id="g184"
         transform="matrix(1,0,0,-1,0,841.88977)"><path
           d="m 182.305,253.953 74.613,0 0,7.652 -74.613,0 0,-7.652 z"
           style="fill:#0000ff;fill-opacity:1;fill-rule:nonzero;stroke:#0000ff;stroke-width:0.76533198;stroke-linecap:butt;stroke-linejoin:miter;stroke-miterlimit:4;stroke-opacity:1;stroke-dasharray:none"
           id="path186"
           inkscape:connector-curvature="0" /></g><g
         id="g302"
         transform="matrix(1,0,0,-1,0,841.88977)"><path
           d="m 227.203,234.285 c 0,0.653 -0.527,1.184 -1.183,1.184 -0.653,0 -1.184,-0.531 -1.184,-1.184 0,-0.656 0.531,-1.183 1.184,-1.183 0.656,0 1.183,0.527 1.183,1.183 z"
           style="fill:#00ff00;fill-opacity:1;fill-rule:nonzero;stroke:#00ff00;stroke-width:1.42388296;stroke-linecap:butt;stroke-linejoin:round;stroke-miterlimit:4;stroke-opacity:1;stroke-dasharray:none"
           id="path304"
           inkscape:connector-curvature="0" /></g><g
         id="g306"
         transform="matrix(1,0,0,-1,0,841.88977)"><path
           d="m 227.156,227.789 c 0,0.641 -0.519,1.156 -1.16,1.156 -0.641,0 -1.16,-0.515 -1.16,-1.156 0,-0.641 0.519,-1.16 1.16,-1.16 0.641,0 1.16,0.519 1.16,1.16 z"
           style="fill:#ff0000;fill-opacity:1;fill-rule:nonzero;stroke:#ff0000;stroke-width:1.45973301;stroke-linecap:butt;stroke-linejoin:round;stroke-miterlimit:4;stroke-opacity:1;stroke-dasharray:none"
           id="path308"
           inkscape:connector-curvature="0" /></g><text
         y="-620.36224"
         x="219.77396"
         transform="scale(1,-1)"
         id="text310"><tspan
           style="font-size:6.40000009999999970px;font-variant:normal;font-weight:bold;writing-mode:lr-tb;fill:#000000;fill-opacity:1;fill-rule:nonzero;stroke:none;font-family:Agency FB;-inkscape-font-specification:Agency FB"
           x="219.77396 222.77554 224.02354 226.41714 228.97075 231.51794 233.27155 234.51955 237.11156"
           y="-620.36224"
           sodipodi:role="line"
           id="tspan312">Direction</tspan><tspan
           style="font-size:6.40000009999999970px;font-variant:normal;font-weight:bold;writing-mode:lr-tb;fill:#000000;fill-opacity:1;fill-rule:nonzero;stroke:none;font-family:Agency FB;-inkscape-font-specification:Agency FB"
           x="228.54884 229.88644"
           y="-611.85828"
           sodipodi:role="line"
           id="tspan314">In</tspan><tspan
           style="font-size:6.40000009999999970px;font-variant:normal;font-weight:bold;writing-mode:lr-tb;fill:#000000;fill-opacity:1;fill-rule:nonzero;stroke:none;font-family:Agency FB;-inkscape-font-specification:Agency FB"
           x="228.56136 231.61415 234.23175"
           y="-605.26691"
           sodipodi:role="line"
           id="tspan316">Out</tspan></text>
<g
         id="g318"
         transform="matrix(1,0,0,-1,0,841.88977)"><path
           d="m 218.652,215.859 22.676,0 0,7.086 -22.676,0 0,-7.086 z"
           style="fill:none;stroke:#000000;stroke-width:0.80000001;stroke-linecap:butt;stroke-linejoin:miter;stroke-miterlimit:4;stroke-opacity:1;stroke-dasharray:none"
           id="path320"
           inkscape:connector-curvature="0" /></g><g
         id="g322"
         transform="matrix(1,0,0,-1,0,841.88977)"><path
           d="m 222.902,222.945 0,15.59 12.758,0 2.832,-2.836 0,-12.754"
           style="fill:none;stroke:#000000;stroke-width:0.80000001;stroke-linecap:butt;stroke-linejoin:miter;stroke-miterlimit:4;stroke-opacity:1;stroke-dasharray:none"
           id="path324"
           inkscape:connector-curvature="0" /></g><g
         id="g326"
         transform="matrix(1,0,0,-1,0,841.88977)"><path
           d="m 48.57,72.141 7.09,-7.086 192.469,0 7.371,7.371 0,251.715 -7.371,7.371 -192.469,0 -7.371,-7.371 0.281,-252 z"
           style="fill:none;stroke:#000000;stroke-width:0.283465;stroke-linecap:butt;stroke-linejoin:miter;stroke-miterlimit:4;stroke-opacity:1;stroke-dasharray:none"
           id="path328"
           inkscape:connector-curvature="0" /></g></g><g
       transform="matrix(1,0,0,-1,0,841.88977)"
       id="g936"><path
         inkscape:connector-curvature="0"
         id="path938"
         style="fill:none;stroke:#000000;stroke-width:0.23244099;stroke-linecap:butt;stroke-linejoin:miter;stroke-miterlimit:4;stroke-opacity:1;stroke-dasharray:none"
         d="m 181.418,354.047 108,0 0,108 -108,0 0,-108 z" /></g><g
       transform="matrix(1,0,0,-1,0,841.88977)"
       id="g940"><path
         inkscape:connector-curvature="0"
         id="path942"
         style="fill:none;stroke:#000000;stroke-width:0.79936999;stroke-linecap:round;stroke-linejoin:round;stroke-miterlimit:4;stroke-opacity:1;stroke-dasharray:none"
         d="m 230.016,395.445 -30.598,0 0,23.403 72,0 0,-23.403 -30.602,0" /></g><g
       transform="matrix(1,0,0,-1,0,841.88977)"
       id="g944"><path
         inkscape:connector-curvature="0"
         id="path946"
         style="fill:#ffffff;fill-opacity:1;fill-rule:nonzero;stroke:#828282;stroke-width:0.79936999;stroke-linecap:round;stroke-linejoin:round;stroke-miterlimit:4;stroke-opacity:1;stroke-dasharray:none"
         d="m 236.316,403.547 c 0,0.496 -0.402,0.898 -0.898,0.898 -0.496,0 -0.902,-0.402 -0.902,-0.898 0,-0.496 0.406,-0.899 0.902,-0.899 0.496,0 0.898,0.403 0.898,0.899 z" /></g><g
       transform="matrix(1,0,0,-1,0,841.88977)"
       id="g948"><path
         inkscape:connector-curvature="0"
         id="path950"
         style="fill:#ffffff;fill-opacity:1;fill-rule:nonzero;stroke:#828282;stroke-width:0.79936999;stroke-linecap:round;stroke-linejoin:round;stroke-miterlimit:4;stroke-opacity:1;stroke-dasharray:none"
         d="m 243.516,403.547 c 0,0.496 -0.403,0.898 -0.899,0.898 -0.496,0 -0.898,-0.402 -0.898,-0.898 0,-0.496 0.402,-0.899 0.898,-0.899 0.496,0 0.899,0.403 0.899,0.899 z" /></g><g
       transform="matrix(1,0,0,-1,0,841.88977)"
       id="g952"><path
         inkscape:connector-curvature="0"
         id="path954"
         style="fill:#ffffff;fill-opacity:1;fill-rule:nonzero;stroke:#828282;stroke-width:0.79936999;stroke-linecap:round;stroke-linejoin:round;stroke-miterlimit:4;stroke-opacity:1;stroke-dasharray:none"
         d="m 236.316,410.746 c 0,0.5 -0.402,0.902 -0.898,0.902 -0.496,0 -0.902,-0.402 -0.902,-0.902 0,-0.496 0.406,-0.898 0.902,-0.898 0.496,0 0.898,0.402 0.898,0.898 z" /></g><g
       transform="matrix(1,0,0,-1,0,841.88977)"
       id="g956"><path
         inkscape:connector-curvature="0"
         id="path958"
         style="fill:#ffffff;fill-opacity:1;fill-rule:nonzero;stroke:#828282;stroke-width:0.79936999;stroke-linecap:round;stroke-linejoin:round;stroke-miterlimit:4;stroke-opacity:1;stroke-dasharray:none"
         d="m 243.516,410.746 c 0,0.5 -0.403,0.902 -0.899,0.902 -0.496,0 -0.898,-0.402 -0.898,-0.902 0,-0.496 0.402,-0.898 0.898,-0.898 0.496,0 0.899,0.402 0.899,0.898 z" /></g><g
       transform="matrix(1,0,0,-1,0,841.88977)"
       id="g960"><path
         inkscape:connector-curvature="0"
         id="path962"
         style="fill:#ffffff;fill-opacity:1;fill-rule:nonzero;stroke:#828282;stroke-width:0.79936999;stroke-linecap:round;stroke-linejoin:round;stroke-miterlimit:4;stroke-opacity:1;stroke-dasharray:none"
         d="m 250.719,403.547 c 0,0.496 -0.406,0.898 -0.903,0.898 -0.496,0 -0.898,-0.402 -0.898,-0.898 0,-0.496 0.402,-0.899 0.898,-0.899 0.497,0 0.903,0.403 0.903,0.899 z" /></g><g
       transform="matrix(1,0,0,-1,0,841.88977)"
       id="g964"><path
         inkscape:connector-curvature="0"
         id="path966"
         style="fill:#ffffff;fill-opacity:1;fill-rule:nonzero;stroke:#828282;stroke-width:0.79936999;stroke-linecap:round;stroke-linejoin:round;stroke-miterlimit:4;stroke-opacity:1;stroke-dasharray:none"
         d="m 257.918,403.547 c 0,0.496 -0.402,0.898 -0.902,0.898 -0.496,0 -0.899,-0.402 -0.899,-0.898 0,-0.496 0.403,-0.899 0.899,-0.899 0.5,0 0.902,0.403 0.902,0.899 z" /></g><g
       transform="matrix(1,0,0,-1,0,841.88977)"
       id="g968"><path
         inkscape:connector-curvature="0"
         id="path970"
         style="fill:#ffffff;fill-opacity:1;fill-rule:nonzero;stroke:#828282;stroke-width:0.79936999;stroke-linecap:round;stroke-linejoin:round;stroke-miterlimit:4;stroke-opacity:1;stroke-dasharray:none"
         d="m 250.719,410.746 c 0,0.5 -0.406,0.902 -0.903,0.902 -0.496,0 -0.898,-0.402 -0.898,-0.902 0,-0.496 0.402,-0.898 0.898,-0.898 0.497,0 0.903,0.402 0.903,0.898 z" /></g><g
       transform="matrix(1,0,0,-1,0,841.88977)"
       id="g972"><path
         inkscape:connector-curvature="0"
         id="path974"
         style="fill:#ffffff;fill-opacity:1;fill-rule:nonzero;stroke:#828282;stroke-width:0.79936999;stroke-linecap:round;stroke-linejoin:round;stroke-miterlimit:4;stroke-opacity:1;stroke-dasharray:none"
         d="m 257.918,410.746 c 0,0.5 -0.402,0.902 -0.902,0.902 -0.496,0 -0.899,-0.402 -0.899,-0.902 0,-0.496 0.403,-0.898 0.899,-0.898 0.5,0 0.902,0.402 0.902,0.898 z" /></g><g
       transform="matrix(1,0,0,-1,0,841.88977)"
       id="g976"><path
         inkscape:connector-curvature="0"
         id="path978"
         style="fill:#ffffff;fill-opacity:1;fill-rule:nonzero;stroke:#828282;stroke-width:0.79936999;stroke-linecap:round;stroke-linejoin:round;stroke-miterlimit:4;stroke-opacity:1;stroke-dasharray:none"
         d="m 221.918,403.547 c 0,0.496 -0.402,0.898 -0.902,0.898 -0.496,0 -0.899,-0.402 -0.899,-0.898 0,-0.496 0.403,-0.899 0.899,-0.899 0.5,0 0.902,0.403 0.902,0.899 z" /></g><g
       transform="matrix(1,0,0,-1,0,841.88977)"
       id="g980"><path
         inkscape:connector-curvature="0"
         id="path982"
         style="fill:#ffffff;fill-opacity:1;fill-rule:nonzero;stroke:#828282;stroke-width:0.79936999;stroke-linecap:round;stroke-linejoin:round;stroke-miterlimit:4;stroke-opacity:1;stroke-dasharray:none"
         d="m 229.117,403.547 c 0,0.496 -0.402,0.898 -0.898,0.898 -0.5,0 -0.903,-0.402 -0.903,-0.898 0,-0.496 0.403,-0.899 0.903,-0.899 0.496,0 0.898,0.403 0.898,0.899 z" /></g><g
       transform="matrix(1,0,0,-1,0,841.88977)"
       id="g984"><path
         inkscape:connector-curvature="0"
         id="path986"
         style="fill:#ffffff;fill-opacity:1;fill-rule:nonzero;stroke:#828282;stroke-width:0.79936999;stroke-linecap:round;stroke-linejoin:round;stroke-miterlimit:4;stroke-opacity:1;stroke-dasharray:none"
         d="m 221.918,410.746 c 0,0.5 -0.402,0.902 -0.902,0.902 -0.496,0 -0.899,-0.402 -0.899,-0.902 0,-0.496 0.403,-0.898 0.899,-0.898 0.5,0 0.902,0.402 0.902,0.898 z" /></g><g
       transform="matrix(1,0,0,-1,0,841.88977)"
       id="g988"><path
         inkscape:connector-curvature="0"
         id="path990"
         style="fill:#ffffff;fill-opacity:1;fill-rule:nonzero;stroke:#828282;stroke-width:0.79936999;stroke-linecap:round;stroke-linejoin:round;stroke-miterlimit:4;stroke-opacity:1;stroke-dasharray:none"
         d="m 229.117,410.746 c 0,0.5 -0.402,0.902 -0.898,0.902 -0.5,0 -0.903,-0.402 -0.903,-0.902 0,-0.496 0.403,-0.898 0.903,-0.898 0.496,0 0.898,0.402 0.898,0.898 z" /></g><g
       transform="matrix(1,0,0,-1,0,841.88977)"
       id="g992"><path
         inkscape:connector-curvature="0"
         id="path994"
         style="fill:#ffffff;fill-opacity:1;fill-rule:nonzero;stroke:#828282;stroke-width:0.79936999;stroke-linecap:round;stroke-linejoin:round;stroke-miterlimit:4;stroke-opacity:1;stroke-dasharray:none"
         d="m 214.719,403.547 c 0,0.496 -0.406,0.898 -0.903,0.898 -0.496,0 -0.898,-0.402 -0.898,-0.898 0,-0.496 0.402,-0.899 0.898,-0.899 0.497,0 0.903,0.403 0.903,0.899 z" /></g><g
       transform="matrix(1,0,0,-1,0,841.88977)"
       id="g996"><path
         inkscape:connector-curvature="0"
         id="path998"
         style="fill:#ffffff;fill-opacity:1;fill-rule:nonzero;stroke:#828282;stroke-width:0.79936999;stroke-linecap:round;stroke-linejoin:round;stroke-miterlimit:4;stroke-opacity:1;stroke-dasharray:none"
         d="m 214.719,410.746 c 0,0.5 -0.406,0.902 -0.903,0.902 -0.496,0 -0.898,-0.402 -0.898,-0.902 0,-0.496 0.402,-0.898 0.898,-0.898 0.497,0 0.903,0.402 0.903,0.898 z" /></g><text
       id="text1000"
       transform="scale(1,-1)"
       x="258.81732"
       y="-437.4426"><tspan
         id="tspan1002"
         y="-437.4426"
         x="258.81732"
         style="font-size:5.5999999px;font-variant:normal;font-weight:normal;writing-mode:lr-tb;fill:#999999;fill-opacity:1;fill-rule:nonzero;stroke:none;font-family:Arial;-inkscape-font-specification:ArialMT">1</tspan><tspan
         id="tspan1004"
         y="-430.24258"
         x="258.81732"
         style="font-size:5.5999999px;font-variant:normal;font-weight:normal;writing-mode:lr-tb;fill:#999999;fill-opacity:1;fill-rule:nonzero;stroke:none;font-family:Arial;-inkscape-font-specification:ArialMT">2</tspan><tspan
         id="tspan1006"
         sodipodi:role="line"
         y="-437.4426"
         x="204.81732 207.93092"
         style="font-size:5.5999999px;font-variant:normal;font-weight:normal;writing-mode:lr-tb;fill:#999999;fill-opacity:1;fill-rule:nonzero;stroke:none;font-family:Arial;-inkscape-font-specification:ArialMT">13</tspan><tspan
         id="tspan1008"
         sodipodi:role="line"
         y="-430.24258"
         x="204.81732 207.93092"
         style="font-size:5.5999999px;font-variant:normal;font-weight:normal;writing-mode:lr-tb;fill:#999999;fill-opacity:1;fill-rule:nonzero;stroke:none;font-family:Arial;-inkscape-font-specification:ArialMT">14</tspan></text>
<text
       id="text1010"
       transform="matrix(0,1,1,0,0,0)"
       x="448.24258"
       y="215.61732"><tspan
         id="tspan1012"
         sodipodi:role="line"
         y="215.61732"
         x="448.24258 452.2858 412.2402 416.289"
         style="font-size:5.5999999px;font-variant:normal;font-weight:normal;writing-mode:lr-tb;fill:#000000;fill-opacity:1;fill-rule:nonzero;stroke:none;font-family:Arial;-inkscape-font-specification:ArialMT">NCNC</tspan><tspan
         id="tspan1014"
         sodipodi:role="line"
         y="222.81732"
         x="406.84259 410.10739 413.22098 416.95618"
         style="font-size:5.5999999px;font-variant:normal;font-weight:normal;writing-mode:lr-tb;fill:#000000;fill-opacity:1;fill-rule:nonzero;stroke:none;font-family:Arial;-inkscape-font-specification:ArialMT">+3V3</tspan><tspan
         id="tspan1016"
         sodipodi:role="line"
         y="230.01732"
         x="448.24258 452.59378 456.63699"
         style="font-size:5.5999999px;font-variant:normal;font-weight:normal;writing-mode:lr-tb;fill:#000000;fill-opacity:1;fill-rule:nonzero;stroke:none;font-family:Arial;-inkscape-font-specification:ArialMT">GND</tspan><tspan
         id="tspan1018"
         sodipodi:role="line"
         y="222.81732"
         x="448.24258 452.59378 456.63699"
         style="font-size:5.5999999px;font-variant:normal;font-weight:normal;writing-mode:lr-tb;fill:#000000;fill-opacity:1;fill-rule:nonzero;stroke:none;font-family:Arial;-inkscape-font-specification:ArialMT">GND</tspan><tspan
         id="tspan1020"
         sodipodi:role="line"
         y="237.21732"
         x="448.24258 452.2858 456.021 459.7562 463.49139"
         style="font-size:5.5999999px;font-variant:normal;font-weight:normal;writing-mode:lr-tb;fill:#000000;fill-opacity:1;fill-rule:nonzero;stroke:none;font-family:Arial;-inkscape-font-specification:ArialMT">RESET</tspan><tspan
         id="tspan1022"
         sodipodi:role="line"
         y="244.41731"
         x="448.24258 452.59378 456.63699"
         style="font-size:5.5999999px;font-variant:normal;font-weight:normal;writing-mode:lr-tb;fill:#000000;fill-opacity:1;fill-rule:nonzero;stroke:none;font-family:Arial;-inkscape-font-specification:ArialMT">GND</tspan><tspan
         id="tspan1024"
         sodipodi:role="line"
         y="251.61731"
         x="448.24258 451.97778 455.71298 459.7562"
         style="font-size:5.5999999px;font-variant:normal;font-weight:normal;writing-mode:lr-tb;fill:#000000;fill-opacity:1;fill-rule:nonzero;stroke:none;font-family:Arial;-inkscape-font-specification:ArialMT">SYNC</tspan><tspan
         id="tspan1026"
         sodipodi:role="line"
         y="258.81732"
         x="448.24258 452.59378 456.63699"
         style="font-size:5.5999999px;font-variant:normal;font-weight:normal;writing-mode:lr-tb;fill:#000000;fill-opacity:1;fill-rule:nonzero;stroke:none;font-family:Arial;-inkscape-font-specification:ArialMT">GND</tspan><tspan
         id="tspan1028"
         sodipodi:role="line"
         y="230.01732"
         x="405.0426 409.71298 413.7562 417.1778"
         style="font-size:5.5999999px;font-variant:normal;font-weight:normal;writing-mode:lr-tb;fill:#000000;fill-opacity:1;fill-rule:nonzero;stroke:none;font-family:Arial;-inkscape-font-specification:ArialMT">MUTE</tspan><tspan
         id="tspan1030"
         sodipodi:role="line"
         y="237.21732"
         x="401.4426 405.48578 409.22098 410.77219 412.64258 414.1882 418.237"
         style="font-size:5.5999999px;font-variant:normal;font-weight:normal;writing-mode:lr-tb;fill:#000000;fill-opacity:1;fill-rule:nonzero;stroke:none;font-family:Arial;-inkscape-font-specification:ArialMT">RX (IN)</tspan><tspan
         id="tspan1032"
         sodipodi:role="line"
         y="244.41731"
         x="396.04254 399.45856 403.19376 404.74493 406.61536 410.96094 415.00974 418.42575"
         style="font-size:5.5999999px;font-variant:normal;font-weight:normal;writing-mode:lr-tb;fill:#000000;fill-opacity:1;fill-rule:nonzero;stroke:none;font-family:Arial;-inkscape-font-specification:ArialMT">TX (OUT)</tspan><tspan
         id="tspan1034"
         sodipodi:role="line"
         y="251.61731"
         x="405.0426 408.7778 412.82098 415.94019"
         style="font-size:5.5999999px;font-variant:normal;font-weight:normal;writing-mode:lr-tb;fill:#000000;fill-opacity:1;fill-rule:nonzero;stroke:none;font-family:Arial;-inkscape-font-specification:ArialMT">BCLK</tspan><tspan
         id="tspan1036"
         sodipodi:role="line"
         y="258.81732"
         x="394.30426 398.97467 403.01785 406.13705 409.87225 411.41788 413.28827 414.83948 418.88266"
         style="font-size:5.5999999px;font-variant:normal;font-weight:normal;writing-mode:lr-tb;fill:#000000;fill-opacity:1;fill-rule:nonzero;stroke:none;font-family:Arial;-inkscape-font-specification:ArialMT">MCLK (IN)</tspan></text>
<text
       id="text1038"
       transform="scale(1,-1)"
       x="219.21732"
       y="-473.4426"><tspan
         id="tspan1040"
         sodipodi:role="line"
         y="-473.4426"
         x="219.21732 220.76852 223.88213 227.61732 229.16292 231.96292 235.08212 238.19572 241.31493 244.42853 247.22852 248.77972 251.89333"
         style="font-size:5.5999999px;font-variant:normal;font-weight:normal;writing-mode:lr-tb;fill:#000000;fill-opacity:1;fill-rule:nonzero;stroke:none;font-family:Arial;-inkscape-font-specification:ArialMT">I2S connector</tspan></text>
<g
       transform="matrix(1,0,0,-1,0,841.88977)"
       id="g1042"><path
         inkscape:connector-curvature="0"
         id="path1044"
         style="fill:none;stroke:#000000;stroke-width:0.80000001;stroke-linecap:butt;stroke-linejoin:miter;stroke-miterlimit:4;stroke-opacity:1;stroke-dasharray:none"
         d="m 217.418,363.047 37.801,0 0,7.199 -37.801,0 0,-7.199 z" /></g><g
       transform="matrix(1,0,0,-1,0,841.88977)"
       id="g1046"><path
         inkscape:connector-curvature="0"
         id="path1048"
         style="fill:none;stroke:#000000;stroke-width:0.80000001;stroke-linecap:butt;stroke-linejoin:miter;stroke-miterlimit:4;stroke-opacity:1;stroke-dasharray:none"
         d="m 217.418,366.648 -18,0 -3.602,3.598 0,79.199 75.602,0 3.598,-3.597 0,-79.2 -19.797,0" /></g></g></svg>