%
M48
M72
T01C0.0197
T02C0.0315
T03C0.0320
T04C0.0354
T05C0.0360
T06C0.0394
T07C0.0400
T08C0.0520
T09C0.0630
T10C0.0669
T11C0.0827
%
T01
X8057Y5628
X11807Y5628
X15557Y5628
X19307Y5628
X19307Y7316
X23807Y5628
X26182Y8441
X26432Y9332
X28057Y9707
X26432Y11770
X24682Y11707
X23807Y11691
X23807Y13691
X24682Y13707
X24682Y15707
X23807Y15691
X23807Y17503
X22807Y18503
X23807Y19441
X25682Y19316
X26307Y18707
X26182Y20066
X26182Y21316
X26870Y22253
X27495Y22191
X28057Y22253
X29682Y22753
X29620Y23878
X29932Y24253
X30432Y24253
X29620Y26941
X30245Y27128
X29620Y28691
X30932Y30753
X34995Y30441
X34995Y34191
X34995Y37941
X32682Y37941
X29932Y36941
X29807Y34878
X25120Y33816
X24807Y32941
X24745Y32191
X24745Y31628
X23932Y29941
X22745Y30441
X21432Y30628
X21120Y31628
X21557Y32503
X21370Y33128
X22745Y33566
X24182Y34191
X24432Y36753
X21870Y37066
X21120Y36316
X20620Y36066
X20557Y35566
X19557Y35441
X18995Y35441
X18432Y36191
X17120Y35878
X15557Y35691
X14495Y35753
X13432Y36316
X14307Y37441
X12557Y38191
X12245Y37128
X11307Y37441
X10307Y37503
X10182Y38191
X10307Y36691
X10432Y34753
X10432Y34253
X9120Y34566
X7120Y34128
X7120Y30378
X7120Y26628
X10182Y26003
X11807Y28503
X13182Y30503
X14307Y28878
X14995Y29378
X14995Y29941
X14932Y31003
X15495Y31503
X14682Y32003
X14682Y32816
X14682Y33691
X16120Y32316
X18682Y33253
X19557Y34691
X21495Y34878
X19557Y32066
X18495Y30503
X18807Y29878
X17932Y30066
X17807Y29128
X17557Y27941
X17682Y26878
X18057Y24753
X18495Y24253
X21057Y24691
X22932Y23878
X20932Y22441
X21245Y20753
X21245Y20066
X19682Y21066
X17932Y20753
X17057Y21316
X14932Y21253
X14932Y21878
X14245Y21878
X13870Y22253
X11995Y21066
X11370Y18503
X10620Y17128
X8370Y18191
X7120Y19128
X8370Y21253
X7120Y22878
X13182Y23941
X13870Y23941
X19620Y29316
X20870Y29628
X21745Y28066
X21307Y27441
X20245Y26691
X23370Y26691
X25370Y27441
X26370Y28691
X26245Y24691
X24557Y21691
X23432Y21566
X20370Y17878
X20432Y17378
X19932Y18128
X19745Y18628
X17057Y16003
X17682Y15503
X15057Y14628
X14620Y14253
X14182Y14566
X14932Y13691
X16932Y12441
X13807Y11378
X12682Y11378
X11932Y12378
X11932Y12941
X10557Y14566
X8057Y13878
X7120Y15316
X9807Y11253
X10182Y10816
X8057Y9753
X23807Y9691
X24682Y9707
X28745Y6395
X29057Y5645
X27995Y5628
X31057Y5645
X33120Y5645
X34057Y5645
X34995Y6707
X34995Y8707
X34995Y10707
X34995Y12707
X34995Y14707
X34995Y16707
X34432Y17270
X33682Y17270
X32682Y16457
X32370Y17441
X31682Y17503
X31682Y16770
X30807Y17066
X30557Y17503
X30557Y18378
X29620Y16753
X28932Y16628
X28307Y16628
X27432Y16378
X27432Y17191
X27682Y18707
X25182Y17520
X27932Y14020
X29557Y12457
X31370Y14707
X29932Y15582
X32120Y20441
X32620Y20441
X33745Y22503
X34995Y22566
X34995Y24066
X33495Y24066
X34995Y26566
X34995Y20636
X34995Y18707
X30932Y7832
X32432Y7441
X11682Y33441
X8307Y37878
X7120Y37878
X9182Y40378
X10932Y40378
X10932Y41691
X7807Y41691
X13995Y41816
X15370Y39691
X16745Y41003
X17245Y38753
X17620Y38378
X18182Y38191
X21057Y38753
X22245Y38316
X21932Y40003
X27932Y41191
X28932Y40191
X34307Y41691
T02
X24552Y40618
X23552Y40618
X22552Y40618
X21552Y40618
X20552Y40618
X19552Y40618
X18552Y40618
X17552Y40618
X11182Y27441
X10182Y27441
X9182Y27441
X9182Y19941
X10182Y19941
X11182Y19941
X17552Y25263
X18552Y25263
X19552Y25263
X20552Y25263
X21552Y25263
X22552Y25263
X23552Y25263
X24552Y25263
X24932Y23191
X23932Y23191
X22932Y23191
X21932Y23191
X20932Y23191
X19932Y23191
X25932Y23191
X26932Y23191
X27932Y23191
T03
X31432Y27941
X32432Y27941
X18432Y23191
X17432Y23191
X15432Y23191
X14432Y23191
X10682Y21941
X9682Y21941
X9807Y33241
X9807Y35141
X17932Y9441
X18932Y9441
T04
X11798Y40441
X10066Y40441
T05
X15682Y25691
X15682Y24691
X26932Y37691
X27932Y37691
X28932Y37691
X16932Y9441
X15932Y9441
X14932Y9441
X13932Y9441
X12932Y9441
X11932Y9441
X11932Y8441
X12932Y8441
X13932Y8441
X14932Y8441
X15932Y8441
X16932Y8441
X10932Y8441
X10932Y9441
T06
X25198Y7066
X26182Y7066
X27166Y7066
X31682Y35691
X31682Y36691
X31682Y37691
X31682Y39691
T07
X31932Y34191
X32932Y34191
X32932Y33191
X32932Y32191
X31932Y32191
X31932Y33191
X31932Y31191
X32932Y31191
X32932Y30191
X31932Y30191
X29745Y30191
X29745Y31191
X28745Y31191
X27745Y31191
X26745Y31191
X25745Y31191
X25745Y30191
X26745Y30191
X27745Y30191
X28745Y30191
X31042Y26187
X32822Y26187
X32822Y23627
X31042Y23627
X11072Y23161
X9292Y23161
X9292Y25721
X11072Y25721
X11072Y28661
X9292Y28661
X9292Y31221
X11072Y31221
T08
X11995Y32253
T09
X20481Y15441
X20481Y13941
X20481Y12441
X22383Y12441
X22383Y13941
X22383Y15441
X22432Y7441
X20432Y7441
T10
X30932Y6819
X30932Y9574
T11
X28151Y8365
X24214Y8365
M30
