G75*
G70*
%OFA0B0*%
%FSLAX24Y24*%
%IPPOS*%
%LPD*%
%AMOC8*
5,1,8,0,0,1.08239X$1,22.5*
%
%ADD10C,0.0576*%
%ADD11C,0.0720*%
%ADD12C,0.0648*%
%ADD13C,0.0567*%
%ADD14C,0.0920*%
%ADD15C,0.0709*%
%ADD16C,0.1227*%
%ADD17C,0.1030*%
%ADD18C,0.0357*%
%ADD19C,0.0160*%
%ADD20C,0.0240*%
%ADD21C,0.0100*%
%ADD22C,0.0120*%
D10*
X017932Y009441D03*
X018932Y009441D03*
X010682Y021941D03*
X009682Y021941D03*
X014432Y023191D03*
X015432Y023191D03*
X017432Y023191D03*
X018432Y023191D03*
X009807Y033241D03*
X009807Y035141D03*
X031432Y027941D03*
X032432Y027941D03*
D11*
X032822Y026187D03*
X031042Y026187D03*
X031042Y023627D03*
X032822Y023627D03*
X032932Y030191D03*
X032932Y031191D03*
X032932Y032191D03*
X032932Y033191D03*
X032932Y034191D03*
X031932Y034191D03*
X031932Y033191D03*
X031932Y032191D03*
X031932Y031191D03*
X031932Y030191D03*
X029745Y030191D03*
X029745Y031191D03*
X028745Y031191D03*
X027745Y031191D03*
X026745Y031191D03*
X025745Y031191D03*
X025745Y030191D03*
X026745Y030191D03*
X027745Y030191D03*
X028745Y030191D03*
X011072Y031221D03*
X009292Y031221D03*
X009292Y028661D03*
X011072Y028661D03*
X011072Y025721D03*
X009292Y025721D03*
X009292Y023161D03*
X011072Y023161D03*
D12*
X015682Y024691D03*
X015682Y025691D03*
X026932Y037691D03*
X027932Y037691D03*
X028932Y037691D03*
X016932Y009441D03*
X015932Y009441D03*
X014932Y009441D03*
X013932Y009441D03*
X012932Y009441D03*
X011932Y009441D03*
X011932Y008441D03*
X012932Y008441D03*
X013932Y008441D03*
X014932Y008441D03*
X015932Y008441D03*
X016932Y008441D03*
X010932Y008441D03*
X010932Y009441D03*
D13*
X011182Y019941D03*
X010182Y019941D03*
X009182Y019941D03*
X009182Y027441D03*
X010182Y027441D03*
X011182Y027441D03*
X017552Y025263D03*
X018552Y025263D03*
X019552Y025263D03*
X020552Y025263D03*
X021552Y025263D03*
X022552Y025263D03*
X023552Y025263D03*
X024552Y025263D03*
X024932Y023191D03*
X023932Y023191D03*
X022932Y023191D03*
X021932Y023191D03*
X020932Y023191D03*
X019932Y023191D03*
X025932Y023191D03*
X026932Y023191D03*
X027932Y023191D03*
X024552Y040618D03*
X023552Y040618D03*
X022552Y040618D03*
X021552Y040618D03*
X020552Y040618D03*
X019552Y040618D03*
X018552Y040618D03*
X017552Y040618D03*
D14*
X011995Y032253D03*
D15*
X031682Y035691D03*
X031682Y036691D03*
X031682Y037691D03*
X031682Y039691D03*
X027166Y007066D03*
X026182Y007066D03*
X025198Y007066D03*
D16*
X024214Y008365D03*
X028151Y008365D03*
D17*
X022432Y007441D03*
X020432Y007441D03*
X020481Y012441D03*
X020481Y013941D03*
X020481Y015441D03*
X022383Y015441D03*
X022383Y013941D03*
X022383Y012441D03*
D18*
X023807Y011691D03*
X024682Y011707D03*
X026432Y011770D03*
X024682Y013707D03*
X023807Y013691D03*
X023807Y015691D03*
X024682Y015707D03*
X025182Y017520D03*
X023807Y017503D03*
X022807Y018503D03*
X023807Y019441D03*
X025682Y019316D03*
X026307Y018707D03*
X026182Y020066D03*
X026182Y021316D03*
X026870Y022253D03*
X027495Y022191D03*
X028057Y022253D03*
X029682Y022753D03*
X029620Y023878D03*
X029932Y024253D03*
X030432Y024253D03*
X029620Y026941D03*
X030245Y027128D03*
X029620Y028691D03*
X030932Y030753D03*
X034995Y030441D03*
X034995Y034191D03*
X034995Y037941D03*
X032682Y037941D03*
X029932Y036941D03*
X029807Y034878D03*
X025120Y033816D03*
X024807Y032941D03*
X024745Y032191D03*
X024745Y031628D03*
X023932Y029941D03*
X022745Y030441D03*
X021432Y030628D03*
X021120Y031628D03*
X021557Y032503D03*
X021370Y033128D03*
X022745Y033566D03*
X024182Y034191D03*
X024432Y036753D03*
X021870Y037066D03*
X021120Y036316D03*
X020620Y036066D03*
X020557Y035566D03*
X019557Y035441D03*
X018995Y035441D03*
X018432Y036191D03*
X017120Y035878D03*
X015557Y035691D03*
X014495Y035753D03*
X013432Y036316D03*
X014307Y037441D03*
X012557Y038191D03*
X012245Y037128D03*
X011307Y037441D03*
X010307Y037503D03*
X010182Y038191D03*
X010307Y036691D03*
X010432Y034753D03*
X010432Y034253D03*
X009120Y034566D03*
X007120Y034128D03*
X007120Y030378D03*
X007120Y026628D03*
X010182Y026003D03*
X011807Y028503D03*
X013182Y030503D03*
X014307Y028878D03*
X014995Y029378D03*
X014995Y029941D03*
X014932Y031003D03*
X015495Y031503D03*
X014682Y032003D03*
X014682Y032816D03*
X014682Y033691D03*
X016120Y032316D03*
X018682Y033253D03*
X019557Y034691D03*
X021495Y034878D03*
X019557Y032066D03*
X018495Y030503D03*
X018807Y029878D03*
X017932Y030066D03*
X017807Y029128D03*
X017557Y027941D03*
X017682Y026878D03*
X018057Y024753D03*
X018495Y024253D03*
X021057Y024691D03*
X022932Y023878D03*
X020932Y022441D03*
X021245Y020753D03*
X021245Y020066D03*
X019682Y021066D03*
X017932Y020753D03*
X017057Y021316D03*
X014932Y021253D03*
X014932Y021878D03*
X014245Y021878D03*
X013870Y022253D03*
X011995Y021066D03*
X011370Y018503D03*
X010620Y017128D03*
X008370Y018191D03*
X007120Y019128D03*
X008370Y021253D03*
X007120Y022878D03*
X013182Y023941D03*
X013870Y023941D03*
X019620Y029316D03*
X020870Y029628D03*
X021745Y028066D03*
X021307Y027441D03*
X020245Y026691D03*
X023370Y026691D03*
X025370Y027441D03*
X026370Y028691D03*
X026245Y024691D03*
X024557Y021691D03*
X023432Y021566D03*
X020370Y017878D03*
X020432Y017378D03*
X019932Y018128D03*
X019745Y018628D03*
X017057Y016003D03*
X017682Y015503D03*
X015057Y014628D03*
X014620Y014253D03*
X014182Y014566D03*
X014932Y013691D03*
X016932Y012441D03*
X013807Y011378D03*
X012682Y011378D03*
X011932Y012378D03*
X011932Y012941D03*
X010557Y014566D03*
X008057Y013878D03*
X007120Y015316D03*
X009807Y011253D03*
X010182Y010816D03*
X008057Y009753D03*
X008057Y005628D03*
X011807Y005628D03*
X015557Y005628D03*
X019307Y005628D03*
X019307Y007316D03*
X023807Y005628D03*
X026182Y008441D03*
X026432Y009332D03*
X028057Y009707D03*
X029557Y012457D03*
X027932Y014020D03*
X027432Y016378D03*
X028307Y016628D03*
X027432Y017191D03*
X027682Y018707D03*
X028932Y016628D03*
X029620Y016753D03*
X030557Y017503D03*
X030807Y017066D03*
X031682Y016770D03*
X031682Y017503D03*
X032370Y017441D03*
X032682Y016457D03*
X033682Y017270D03*
X034432Y017270D03*
X034995Y016707D03*
X034995Y014707D03*
X034995Y012707D03*
X034995Y010707D03*
X034995Y008707D03*
X034995Y006707D03*
X034057Y005645D03*
X033120Y005645D03*
X032432Y007441D03*
X030932Y007832D03*
X031057Y005645D03*
X029057Y005645D03*
X028745Y006395D03*
X027995Y005628D03*
X024682Y009707D03*
X023807Y009691D03*
X029932Y015582D03*
X031370Y014707D03*
X030557Y018378D03*
X032120Y020441D03*
X032620Y020441D03*
X033745Y022503D03*
X034995Y022566D03*
X034995Y024066D03*
X033495Y024066D03*
X034995Y026566D03*
X034995Y020636D03*
X034995Y018707D03*
X022245Y038316D03*
X021057Y038753D03*
X021932Y040003D03*
X018182Y038191D03*
X017620Y038378D03*
X017245Y038753D03*
X015370Y039691D03*
X016745Y041003D03*
X013995Y041816D03*
X010932Y041691D03*
X010932Y040378D03*
X009182Y040378D03*
X007807Y041691D03*
X008307Y037878D03*
X007120Y037878D03*
X011682Y033441D03*
X027932Y041191D03*
X028932Y040191D03*
X034307Y041691D03*
D19*
X034397Y041814D02*
X007708Y041814D01*
X007802Y041908D02*
X034302Y041908D01*
X035132Y041078D01*
X035132Y023231D01*
X034362Y023231D01*
X034828Y023697D01*
X034877Y023814D01*
X034877Y023942D01*
X034877Y037879D01*
X034828Y037997D01*
X034738Y038087D01*
X033613Y039212D01*
X033496Y039261D01*
X033369Y039261D01*
X031999Y039261D01*
X032030Y039283D01*
X032090Y039342D01*
X032139Y039410D01*
X032177Y039485D01*
X032203Y039565D01*
X032216Y039648D01*
X032216Y039672D01*
X031701Y039672D01*
X031701Y039709D01*
X032216Y039709D01*
X032216Y039733D01*
X032203Y039816D01*
X032177Y039896D01*
X032139Y039971D01*
X032090Y040039D01*
X032030Y040098D01*
X031962Y040148D01*
X031887Y040186D01*
X031807Y040212D01*
X031724Y040225D01*
X031701Y040225D01*
X031701Y039709D01*
X031664Y039709D01*
X031664Y040225D01*
X031640Y040225D01*
X031557Y040212D01*
X031477Y040186D01*
X031402Y040148D01*
X031334Y040098D01*
X031275Y040039D01*
X031225Y039971D01*
X031187Y039896D01*
X031161Y039816D01*
X031148Y039733D01*
X031148Y039709D01*
X031664Y039709D01*
X031664Y039672D01*
X031148Y039672D01*
X031148Y039648D01*
X031161Y039565D01*
X031187Y039485D01*
X031225Y039410D01*
X031275Y039342D01*
X031334Y039283D01*
X031365Y039261D01*
X027065Y039261D01*
X026703Y039622D01*
X026613Y039712D01*
X026496Y039761D01*
X020869Y039761D01*
X020751Y039712D01*
X020661Y039622D01*
X019411Y038372D01*
X019362Y038254D01*
X019362Y038127D01*
X019362Y036261D01*
X019016Y035914D01*
X018824Y035823D01*
X018758Y035795D01*
X018640Y035678D01*
X018612Y035611D01*
X018521Y035419D01*
X018515Y035413D01*
X018175Y035073D01*
X010782Y035073D01*
X010582Y035144D01*
X010515Y035171D01*
X010349Y035171D01*
X010335Y035166D01*
X010335Y035246D01*
X010255Y035440D01*
X010106Y035588D01*
X009912Y035669D01*
X009702Y035669D01*
X009508Y035588D01*
X009360Y035440D01*
X009279Y035246D01*
X009279Y035036D01*
X009360Y034841D01*
X009508Y034693D01*
X009702Y034613D01*
X009912Y034613D01*
X010019Y034657D01*
X010077Y034516D01*
X010090Y034503D01*
X010077Y034490D01*
X010014Y034336D01*
X010014Y034170D01*
X010077Y034016D01*
X010195Y033898D01*
X010349Y033835D01*
X010515Y033835D01*
X010581Y033862D01*
X010632Y033880D01*
X010782Y033933D01*
X010871Y033933D01*
X010989Y033982D01*
X011127Y034121D01*
X018425Y034121D01*
X018876Y033669D01*
X018994Y033621D01*
X019121Y033621D01*
X021996Y033621D01*
X022113Y033669D01*
X022203Y033759D01*
X023565Y035121D01*
X027619Y035121D01*
X027746Y035121D01*
X027863Y035169D01*
X029203Y036509D01*
X029252Y036627D01*
X029252Y036754D01*
X029252Y037146D01*
X029340Y037283D01*
X029476Y037371D01*
X029996Y037371D01*
X030113Y037419D01*
X030203Y037509D01*
X031065Y038371D01*
X033050Y038371D01*
X033925Y037495D01*
X033925Y024136D01*
X033422Y023633D01*
X033422Y023746D01*
X033331Y023967D01*
X033162Y024136D01*
X032942Y024227D01*
X032703Y024227D01*
X032482Y024136D01*
X032314Y023967D01*
X032222Y023746D01*
X032222Y023508D01*
X032314Y023287D01*
X032466Y023135D01*
X032436Y023105D01*
X032392Y022998D01*
X032392Y022883D01*
X032392Y022603D01*
X032300Y022511D01*
X031580Y022511D01*
X031801Y022732D01*
X031891Y022822D01*
X031940Y022939D01*
X031940Y026183D01*
X033828Y028072D01*
X033877Y028189D01*
X033877Y028317D01*
X033877Y035879D01*
X033828Y035997D01*
X033738Y036087D01*
X032953Y036872D01*
X032863Y036962D01*
X032746Y037011D01*
X032272Y037011D01*
X032062Y037152D01*
X032051Y037162D01*
X032220Y037331D01*
X032316Y037564D01*
X032316Y037817D01*
X032220Y038050D01*
X032041Y038228D01*
X031808Y038325D01*
X031556Y038325D01*
X031323Y038228D01*
X031144Y038050D01*
X031078Y037890D01*
X031074Y037883D01*
X031072Y037875D01*
X031048Y037817D01*
X031048Y037752D01*
X031002Y037520D01*
X029783Y036301D01*
X029611Y036301D01*
X029478Y036246D01*
X029377Y036144D01*
X025783Y032551D01*
X025112Y032551D01*
X025102Y032551D01*
X025025Y032578D01*
X025044Y032586D01*
X025162Y032704D01*
X025226Y032857D01*
X025226Y033024D01*
X025162Y033178D01*
X025044Y033295D01*
X024890Y033359D01*
X024724Y033359D01*
X024570Y033295D01*
X024452Y033178D01*
X024389Y033024D01*
X024389Y032857D01*
X024452Y032704D01*
X024550Y032606D01*
X024485Y032579D01*
X024356Y032450D01*
X024286Y032282D01*
X024286Y032099D01*
X024356Y031931D01*
X024378Y031909D01*
X024356Y031888D01*
X024286Y031719D01*
X024286Y031537D01*
X024307Y031488D01*
X021515Y031488D01*
X021538Y031545D01*
X021538Y031711D01*
X021474Y031865D01*
X021357Y031983D01*
X021203Y032046D01*
X021036Y032046D01*
X020883Y031983D01*
X020765Y031865D01*
X020701Y031711D01*
X020701Y031545D01*
X020725Y031488D01*
X017816Y031488D01*
X017673Y031488D01*
X017541Y031433D01*
X016408Y030301D01*
X016182Y030301D01*
X018655Y032773D01*
X018661Y032779D01*
X018853Y032871D01*
X018919Y032898D01*
X019037Y033016D01*
X019101Y033170D01*
X019101Y033336D01*
X019037Y033490D01*
X018919Y033608D01*
X018765Y033671D01*
X018599Y033671D01*
X018445Y033608D01*
X018328Y033490D01*
X018300Y033424D01*
X018208Y033232D01*
X018202Y033225D01*
X015737Y030761D01*
X015281Y030761D01*
X015287Y030766D01*
X015351Y030920D01*
X015351Y031086D01*
X015339Y031115D01*
X015411Y031085D01*
X015578Y031085D01*
X015732Y031148D01*
X015849Y031266D01*
X015913Y031420D01*
X015913Y031586D01*
X015849Y031740D01*
X015732Y031858D01*
X015578Y031921D01*
X015411Y031921D01*
X015258Y031858D01*
X015140Y031740D01*
X015076Y031586D01*
X015076Y031420D01*
X015088Y031392D01*
X014911Y031477D01*
X014863Y031524D01*
X014746Y031573D01*
X012808Y031573D01*
X012681Y031573D01*
X012563Y031524D01*
X011300Y030261D01*
X008746Y030261D01*
X008619Y030261D01*
X008501Y030212D01*
X007501Y029212D01*
X007411Y029122D01*
X007362Y029004D01*
X007362Y017627D01*
X007411Y017509D01*
X007501Y017419D01*
X007973Y016947D01*
X007973Y016947D01*
X008063Y016857D01*
X008181Y016808D01*
X010261Y016808D01*
X010269Y016808D01*
X010471Y016737D01*
X010536Y016710D01*
X010703Y016710D01*
X010857Y016773D01*
X010974Y016891D01*
X011038Y017045D01*
X011038Y017211D01*
X010974Y017365D01*
X010857Y017483D01*
X010703Y017546D01*
X010536Y017546D01*
X010470Y017519D01*
X010269Y017448D01*
X010261Y017448D01*
X008377Y017448D01*
X008002Y017823D01*
X008002Y017985D01*
X008015Y017954D01*
X008133Y017836D01*
X008286Y017772D01*
X008453Y017772D01*
X008607Y017836D01*
X008724Y017954D01*
X008788Y018107D01*
X008788Y018274D01*
X008724Y018428D01*
X008607Y018545D01*
X008453Y018609D01*
X008286Y018609D01*
X008133Y018545D01*
X008015Y018428D01*
X008002Y018396D01*
X008002Y021047D01*
X008015Y021016D01*
X008133Y020898D01*
X008286Y020835D01*
X008453Y020835D01*
X008607Y020898D01*
X008724Y021016D01*
X008788Y021170D01*
X008788Y021336D01*
X008724Y021490D01*
X008607Y021608D01*
X008453Y021671D01*
X008286Y021671D01*
X008133Y021608D01*
X008015Y021490D01*
X008002Y021459D01*
X008002Y028808D01*
X008815Y029621D01*
X011369Y029621D01*
X011496Y029621D01*
X011613Y029669D01*
X012877Y030933D01*
X014502Y030933D01*
X014536Y030862D01*
X014550Y030832D01*
X014577Y030766D01*
X014583Y030761D01*
X014246Y030761D01*
X014119Y030761D01*
X014001Y030712D01*
X012161Y028872D01*
X012112Y028754D01*
X012112Y028627D01*
X012112Y022004D01*
X012112Y021877D01*
X012161Y021759D01*
X015430Y018491D01*
X014742Y018491D01*
X014622Y018491D01*
X014512Y018445D01*
X014428Y018360D01*
X014382Y018250D01*
X014382Y016991D01*
X011992Y016991D01*
X011872Y016991D01*
X011762Y016945D01*
X011678Y016860D01*
X011632Y016750D01*
X011632Y014491D01*
X006972Y014491D01*
X006972Y041078D01*
X007802Y041908D01*
X007549Y041656D02*
X034555Y041656D01*
X034714Y041497D02*
X007391Y041497D01*
X007232Y041338D02*
X016488Y041338D01*
X016508Y041358D02*
X016390Y041240D01*
X016326Y041086D01*
X016326Y040920D01*
X016390Y040766D01*
X016508Y040648D01*
X016661Y040585D01*
X016828Y040585D01*
X016982Y040648D01*
X017029Y040695D01*
X017029Y040514D01*
X017109Y040321D01*
X017256Y040174D01*
X017448Y040094D01*
X017656Y040094D01*
X017849Y040174D01*
X017996Y040321D01*
X018052Y040457D01*
X018069Y040417D01*
X018071Y040402D01*
X018072Y040400D01*
X018084Y040381D01*
X018109Y040321D01*
X018137Y040293D01*
X018232Y040135D01*
X018232Y039881D01*
X017737Y039386D01*
X017493Y039386D01*
X017376Y039337D01*
X017286Y039247D01*
X017266Y039227D01*
X017074Y039135D01*
X017008Y039108D01*
X016890Y038990D01*
X016826Y038836D01*
X016826Y038670D01*
X016890Y038516D01*
X017008Y038398D01*
X017161Y038335D01*
X017201Y038335D01*
X017201Y038295D01*
X017265Y038141D01*
X017383Y038023D01*
X017536Y037960D01*
X017703Y037960D01*
X017807Y038003D01*
X017827Y037954D01*
X017945Y037836D01*
X018099Y037772D01*
X018265Y037772D01*
X018419Y037836D01*
X018537Y037954D01*
X018601Y038107D01*
X018601Y038274D01*
X018573Y038341D01*
X018547Y038415D01*
X019363Y039232D01*
X019453Y039322D01*
X019502Y039439D01*
X019502Y039496D01*
X020371Y039496D01*
X020488Y039544D01*
X020578Y039634D01*
X020579Y039634D01*
X020752Y039808D01*
X020999Y039808D01*
X021126Y039808D01*
X021126Y039808D01*
X021244Y039857D01*
X021334Y039947D01*
X021437Y040050D01*
X021616Y040094D01*
X021616Y040094D01*
X021616Y040094D01*
X021656Y040094D01*
X021716Y040119D01*
X021740Y040125D01*
X021752Y040134D01*
X021849Y040174D01*
X021996Y040321D01*
X022052Y040457D01*
X022109Y040321D01*
X022256Y040174D01*
X022448Y040094D01*
X022656Y040094D01*
X022849Y040174D01*
X022996Y040321D01*
X023052Y040457D01*
X023109Y040321D01*
X023256Y040174D01*
X023448Y040094D01*
X023656Y040094D01*
X023849Y040174D01*
X023996Y040321D01*
X024076Y040514D01*
X024076Y040722D01*
X023996Y040914D01*
X023849Y041061D01*
X023656Y041141D01*
X023448Y041141D01*
X023256Y041061D01*
X023109Y040914D01*
X023052Y040778D01*
X022996Y040914D01*
X022849Y041061D01*
X022656Y041141D01*
X022448Y041141D01*
X022256Y041061D01*
X022109Y040914D01*
X022052Y040778D01*
X021996Y040914D01*
X021849Y041061D01*
X021656Y041141D01*
X021448Y041141D01*
X021256Y041061D01*
X021109Y040914D01*
X021068Y040817D01*
X021059Y040805D01*
X021053Y040781D01*
X021052Y040778D01*
X020996Y040914D01*
X020849Y041061D01*
X020656Y041141D01*
X020448Y041141D01*
X020256Y041061D01*
X020109Y040914D01*
X020068Y040817D01*
X020059Y040805D01*
X020053Y040781D01*
X020052Y040778D01*
X019996Y040914D01*
X019849Y041061D01*
X019656Y041141D01*
X019448Y041141D01*
X019256Y041061D01*
X019109Y040914D01*
X019052Y040778D01*
X018996Y040914D01*
X018849Y041061D01*
X018656Y041141D01*
X018448Y041141D01*
X018256Y041061D01*
X018109Y040914D01*
X018052Y040778D01*
X017996Y040914D01*
X017849Y041061D01*
X017656Y041141D01*
X017448Y041141D01*
X017256Y041061D01*
X017163Y040969D01*
X017163Y041086D01*
X017099Y041240D01*
X016982Y041358D01*
X016828Y041421D01*
X016661Y041421D01*
X016508Y041358D01*
X016365Y041180D02*
X007074Y041180D01*
X006972Y041021D02*
X016326Y041021D01*
X016350Y040863D02*
X006972Y040863D01*
X006972Y040704D02*
X009740Y040704D01*
X009712Y040677D02*
X009649Y040524D01*
X009649Y040358D01*
X009712Y040204D01*
X009830Y040087D01*
X009983Y040023D01*
X010149Y040023D01*
X010302Y040087D01*
X010420Y040204D01*
X010483Y040358D01*
X010483Y040524D01*
X010420Y040677D01*
X010302Y040794D01*
X010149Y040858D01*
X009983Y040858D01*
X009830Y040794D01*
X009712Y040677D01*
X009658Y040546D02*
X006972Y040546D01*
X006972Y040387D02*
X009649Y040387D01*
X009702Y040229D02*
X006972Y040229D01*
X006972Y040070D02*
X009870Y040070D01*
X010262Y040070D02*
X011603Y040070D01*
X011562Y040087D02*
X011715Y040023D01*
X011881Y040023D01*
X012035Y040087D01*
X012152Y040204D01*
X012215Y040358D01*
X012215Y040524D01*
X012152Y040677D01*
X012035Y040794D01*
X011881Y040858D01*
X011715Y040858D01*
X011562Y040794D01*
X011445Y040677D01*
X011381Y040524D01*
X011381Y040358D01*
X011445Y040204D01*
X011562Y040087D01*
X011435Y040229D02*
X010430Y040229D01*
X010483Y040387D02*
X011381Y040387D01*
X011390Y040546D02*
X010474Y040546D01*
X010392Y040704D02*
X011472Y040704D01*
X012125Y040704D02*
X016452Y040704D01*
X017029Y040546D02*
X012206Y040546D01*
X012215Y040387D02*
X017081Y040387D01*
X017201Y040229D02*
X012162Y040229D01*
X011994Y040070D02*
X018232Y040070D01*
X018232Y039912D02*
X006972Y039912D01*
X006972Y039753D02*
X018105Y039753D01*
X017946Y039594D02*
X006972Y039594D01*
X006972Y039436D02*
X017788Y039436D01*
X017870Y039066D02*
X018552Y039748D01*
X018552Y040224D01*
X018378Y040513D01*
X018552Y040618D01*
X018726Y040513D01*
X018552Y040224D01*
X018552Y040618D01*
X018216Y041021D02*
X017889Y041021D01*
X018017Y040863D02*
X018087Y040863D01*
X018080Y040387D02*
X018023Y040387D01*
X017903Y040229D02*
X018176Y040229D01*
X018870Y039878D02*
X019120Y040128D01*
X020063Y040128D01*
X020274Y040339D01*
X020355Y040666D01*
X020552Y040618D01*
X020601Y040420D01*
X020274Y040339D01*
X020552Y040618D01*
X020620Y040128D02*
X021063Y040128D01*
X021274Y040339D01*
X021355Y040666D01*
X021552Y040618D01*
X021601Y040420D01*
X021274Y040339D01*
X021552Y040618D01*
X021903Y040229D02*
X022201Y040229D01*
X022081Y040387D02*
X022023Y040387D01*
X022017Y040863D02*
X022087Y040863D01*
X022216Y041021D02*
X021889Y041021D01*
X021216Y041021D02*
X020889Y041021D01*
X021017Y040863D02*
X021087Y040863D01*
X020620Y040128D02*
X020307Y039816D01*
X019307Y039816D01*
X019182Y039691D01*
X019182Y039503D01*
X018182Y038503D01*
X018182Y038486D01*
X018275Y038223D01*
X018182Y038191D01*
X018089Y038223D01*
X018182Y038486D01*
X018182Y038191D01*
X018601Y038168D02*
X019362Y038168D01*
X019362Y038009D02*
X018560Y038009D01*
X018434Y037850D02*
X019362Y037850D01*
X019362Y037692D02*
X006972Y037692D01*
X006972Y037850D02*
X009931Y037850D01*
X009945Y037836D02*
X009827Y037954D01*
X009764Y038107D01*
X009764Y038274D01*
X009827Y038428D01*
X009945Y038545D01*
X010099Y038609D01*
X010265Y038609D01*
X010419Y038545D01*
X010537Y038428D01*
X010601Y038274D01*
X010601Y038107D01*
X010537Y037954D01*
X010419Y037836D01*
X010265Y037772D01*
X010099Y037772D01*
X009945Y037836D01*
X009804Y038009D02*
X006972Y038009D01*
X006972Y038168D02*
X009764Y038168D01*
X009785Y038326D02*
X006972Y038326D01*
X006972Y038485D02*
X009885Y038485D01*
X010480Y038485D02*
X012260Y038485D01*
X012202Y038428D02*
X012139Y038274D01*
X012139Y038107D01*
X012202Y037954D01*
X012320Y037836D01*
X012474Y037772D01*
X012640Y037772D01*
X012794Y037836D01*
X012912Y037954D01*
X012976Y038107D01*
X012976Y038274D01*
X012912Y038428D01*
X012794Y038545D01*
X012640Y038609D01*
X012474Y038609D01*
X012320Y038545D01*
X012202Y038428D01*
X012160Y038326D02*
X010579Y038326D01*
X010601Y038168D02*
X012139Y038168D01*
X012179Y038009D02*
X010560Y038009D01*
X010434Y037850D02*
X012306Y037850D01*
X012809Y037850D02*
X017931Y037850D01*
X017709Y038336D02*
X017620Y038378D01*
X017577Y038467D01*
X017829Y038587D01*
X017709Y038336D01*
X017620Y038378D02*
X017829Y038587D01*
X018870Y039628D01*
X018870Y039878D01*
X019250Y039119D02*
X020158Y039119D01*
X020316Y039277D02*
X019409Y039277D01*
X019501Y039436D02*
X020475Y039436D01*
X020539Y039594D02*
X020634Y039594D01*
X020697Y039753D02*
X020850Y039753D01*
X020932Y039441D02*
X026432Y039441D01*
X026932Y038941D01*
X033432Y038941D01*
X034557Y037816D01*
X034557Y023878D01*
X032557Y021878D01*
X027807Y021878D01*
X027704Y021982D01*
X027452Y022102D01*
X027495Y022191D01*
X027584Y022233D01*
X027704Y021982D01*
X027495Y022191D01*
X027324Y021808D02*
X027354Y021794D01*
X027516Y021717D01*
X027522Y021710D01*
X027536Y021697D01*
X027626Y021607D01*
X027744Y021558D01*
X031640Y021558D01*
X031562Y021481D01*
X028124Y021481D01*
X028018Y021436D01*
X027936Y021355D01*
X023936Y017355D01*
X023892Y017248D01*
X023892Y017133D01*
X023892Y009155D01*
X023730Y009088D01*
X023490Y008848D01*
X023360Y008534D01*
X023360Y008195D01*
X023490Y007881D01*
X023730Y007641D01*
X024044Y007511D01*
X024383Y007511D01*
X024697Y007641D01*
X024937Y007881D01*
X025067Y008195D01*
X025067Y008534D01*
X025019Y008651D01*
X027345Y008651D01*
X027297Y008534D01*
X027297Y008195D01*
X027427Y007881D01*
X027667Y007641D01*
X027981Y007511D01*
X028142Y007511D01*
X028142Y005481D01*
X019982Y005481D01*
X019982Y006910D01*
X020045Y006861D01*
X020124Y006816D01*
X020208Y006781D01*
X020296Y006757D01*
X020355Y006750D01*
X020355Y007363D01*
X020510Y007363D01*
X020510Y007518D01*
X021123Y007518D01*
X021115Y007576D01*
X021092Y007664D01*
X021057Y007749D01*
X021011Y007827D01*
X020956Y007900D01*
X020891Y007964D01*
X020819Y008020D01*
X020740Y008065D01*
X020656Y008100D01*
X020568Y008124D01*
X020510Y008131D01*
X020510Y007518D01*
X020355Y007518D01*
X020355Y008131D01*
X020296Y008124D01*
X020208Y008100D01*
X020124Y008065D01*
X020045Y008020D01*
X019982Y007971D01*
X019982Y010131D01*
X019982Y010250D01*
X019936Y010360D01*
X019482Y010815D01*
X019482Y012641D01*
X019747Y012641D01*
X019726Y012591D01*
X019726Y012290D01*
X019841Y012013D01*
X020054Y011801D01*
X020331Y011686D01*
X020632Y011686D01*
X020909Y011801D01*
X021121Y012013D01*
X021236Y012290D01*
X021236Y012591D01*
X021216Y012641D01*
X021717Y012641D01*
X021700Y012576D01*
X021692Y012518D01*
X022305Y012518D01*
X022305Y012363D01*
X021692Y012363D01*
X021700Y012305D01*
X021724Y012217D01*
X021758Y012132D01*
X021804Y012054D01*
X021859Y011981D01*
X021924Y011917D01*
X021996Y011861D01*
X022075Y011816D01*
X022159Y011781D01*
X022247Y011757D01*
X022305Y011750D01*
X022305Y012363D01*
X022460Y012363D01*
X022460Y011750D01*
X022519Y011757D01*
X022607Y011781D01*
X022691Y011816D01*
X022770Y011861D01*
X022842Y011917D01*
X022907Y011981D01*
X022962Y012054D01*
X023008Y012132D01*
X023042Y012217D01*
X023066Y012305D01*
X023074Y012363D01*
X022461Y012363D01*
X022461Y012518D01*
X023074Y012518D01*
X023066Y012576D01*
X023049Y012641D01*
X023372Y012641D01*
X023492Y012641D01*
X023602Y012686D01*
X023686Y012771D01*
X023732Y012881D01*
X023732Y016131D01*
X023732Y016250D01*
X023686Y016360D01*
X023186Y016860D01*
X023102Y016945D01*
X022992Y016991D01*
X022232Y016991D01*
X022232Y018131D01*
X022232Y018183D01*
X022448Y018183D01*
X022457Y018183D01*
X022658Y018112D01*
X022724Y018085D01*
X022890Y018085D01*
X023044Y018148D01*
X023162Y018266D01*
X023226Y018420D01*
X023226Y018586D01*
X023162Y018740D01*
X023044Y018858D01*
X022890Y018921D01*
X022724Y018921D01*
X022658Y018894D01*
X022649Y018891D01*
X022457Y018823D01*
X022448Y018823D01*
X021002Y018823D01*
X020551Y019274D01*
X020433Y019323D01*
X020306Y019323D01*
X019431Y019323D01*
X019313Y019274D01*
X019223Y019184D01*
X018800Y018761D01*
X016065Y018761D01*
X012752Y022073D01*
X012752Y028558D01*
X014315Y030121D01*
X014573Y030121D01*
X014536Y030032D01*
X014536Y029849D01*
X014606Y029681D01*
X014628Y029659D01*
X014606Y029638D01*
X014536Y029469D01*
X014536Y029287D01*
X014569Y029208D01*
X014544Y029233D01*
X014390Y029296D01*
X014224Y029296D01*
X014070Y029233D01*
X013953Y029115D01*
X013889Y028961D01*
X013889Y028795D01*
X013953Y028641D01*
X014070Y028523D01*
X014224Y028460D01*
X014390Y028460D01*
X014544Y028523D01*
X014662Y028641D01*
X014726Y028795D01*
X014726Y028961D01*
X014699Y029026D01*
X014735Y028989D01*
X014904Y028920D01*
X015086Y028920D01*
X015254Y028989D01*
X015383Y029118D01*
X015453Y029287D01*
X015453Y029469D01*
X015407Y029581D01*
X016486Y029581D01*
X016629Y029581D01*
X016761Y029635D01*
X016801Y029675D01*
X016862Y029737D01*
X017894Y030768D01*
X021037Y030768D01*
X021014Y030711D01*
X021014Y030545D01*
X021077Y030391D01*
X021195Y030273D01*
X021349Y030210D01*
X021515Y030210D01*
X021669Y030273D01*
X021787Y030391D01*
X021851Y030545D01*
X021851Y030711D01*
X021827Y030768D01*
X022481Y030768D01*
X022390Y030678D01*
X022326Y030524D01*
X022326Y030357D01*
X022390Y030204D01*
X022508Y030086D01*
X022661Y030022D01*
X022828Y030022D01*
X022982Y030086D01*
X023099Y030204D01*
X023163Y030357D01*
X023163Y030524D01*
X023099Y030678D01*
X023009Y030768D01*
X024385Y030768D01*
X024385Y029369D01*
X024440Y029237D01*
X024541Y029135D01*
X026642Y027034D01*
X024998Y025391D01*
X024982Y025441D01*
X024949Y025506D01*
X024906Y025565D01*
X024854Y025617D01*
X024795Y025660D01*
X024730Y025693D01*
X024661Y025715D01*
X024589Y025727D01*
X024552Y025727D01*
X024516Y025727D01*
X024444Y025715D01*
X024374Y025693D01*
X024309Y025660D01*
X024250Y025617D01*
X024199Y025565D01*
X024156Y025506D01*
X024123Y025441D01*
X024100Y025372D01*
X024089Y025300D01*
X024089Y025264D01*
X024552Y025264D01*
X024552Y025727D01*
X024552Y025264D01*
X024552Y025264D01*
X024552Y025263D01*
X024089Y025263D01*
X024089Y025227D01*
X024100Y025155D01*
X024123Y025085D01*
X024141Y025051D01*
X024031Y025051D01*
X024076Y025159D01*
X024076Y025368D01*
X023996Y025560D01*
X023849Y025707D01*
X023656Y025787D01*
X023448Y025787D01*
X023256Y025707D01*
X023109Y025560D01*
X023052Y025424D01*
X022996Y025560D01*
X022849Y025707D01*
X022656Y025787D01*
X022448Y025787D01*
X022256Y025707D01*
X022109Y025560D01*
X022052Y025424D01*
X021996Y025560D01*
X021849Y025707D01*
X021656Y025787D01*
X021448Y025787D01*
X021256Y025707D01*
X021109Y025560D01*
X021052Y025424D01*
X020996Y025560D01*
X020849Y025707D01*
X020656Y025787D01*
X020448Y025787D01*
X020256Y025707D01*
X020109Y025560D01*
X020052Y025424D01*
X019996Y025560D01*
X019849Y025707D01*
X019656Y025787D01*
X019448Y025787D01*
X019256Y025707D01*
X019109Y025560D01*
X019052Y025424D01*
X018996Y025560D01*
X018849Y025707D01*
X018656Y025787D01*
X018448Y025787D01*
X018256Y025707D01*
X018109Y025560D01*
X018052Y025424D01*
X017996Y025560D01*
X017849Y025707D01*
X017656Y025787D01*
X017448Y025787D01*
X017256Y025707D01*
X017109Y025560D01*
X017029Y025368D01*
X017029Y025159D01*
X017109Y024967D01*
X017256Y024820D01*
X017448Y024740D01*
X017656Y024740D01*
X017849Y024820D01*
X017996Y024967D01*
X018052Y025103D01*
X018109Y024967D01*
X018256Y024820D01*
X018448Y024740D01*
X018656Y024740D01*
X018849Y024820D01*
X018996Y024967D01*
X019052Y025103D01*
X019109Y024967D01*
X019256Y024820D01*
X019448Y024740D01*
X019656Y024740D01*
X019849Y024820D01*
X019996Y024967D01*
X020052Y025103D01*
X020109Y024967D01*
X020256Y024820D01*
X020448Y024740D01*
X020639Y024740D01*
X020639Y024613D01*
X018852Y024613D01*
X018697Y024668D01*
X018659Y024681D01*
X018586Y024711D01*
X018404Y024711D01*
X018235Y024642D01*
X018106Y024513D01*
X018036Y024344D01*
X018036Y024162D01*
X018106Y023993D01*
X018235Y023864D01*
X018404Y023795D01*
X018586Y023795D01*
X018658Y023825D01*
X018852Y023893D01*
X021236Y023893D01*
X021379Y023893D01*
X021511Y023948D01*
X021894Y024331D01*
X024736Y024331D01*
X024879Y024331D01*
X025011Y024385D01*
X027151Y026525D01*
X029418Y024258D01*
X029425Y024251D01*
X029425Y024250D01*
X029383Y024233D01*
X029265Y024115D01*
X029201Y023961D01*
X029201Y023795D01*
X029265Y023641D01*
X029293Y023613D01*
X029081Y023613D01*
X028584Y024110D01*
X028574Y024121D01*
X028441Y024175D01*
X024673Y024175D01*
X024541Y024121D01*
X024509Y024089D01*
X024127Y023707D01*
X024093Y023625D01*
X024041Y023643D01*
X023969Y023654D01*
X023932Y023654D01*
X023896Y023654D01*
X023824Y023643D01*
X023754Y023620D01*
X023689Y023587D01*
X023630Y023544D01*
X023579Y023492D01*
X023536Y023433D01*
X023503Y023368D01*
X023480Y023299D01*
X023469Y023227D01*
X023469Y023191D01*
X023932Y023191D01*
X023932Y023654D01*
X023932Y023191D01*
X023932Y023191D01*
X023932Y023190D01*
X023932Y023190D01*
X023932Y022727D01*
X023896Y022727D01*
X023824Y022739D01*
X023754Y022761D01*
X023689Y022794D01*
X023630Y022837D01*
X023579Y022889D01*
X023536Y022948D01*
X023503Y023013D01*
X023480Y023082D01*
X023469Y023154D01*
X023469Y023190D01*
X023932Y023190D01*
X023932Y022727D01*
X023969Y022727D01*
X024041Y022739D01*
X024072Y022749D01*
X024072Y022715D01*
X023430Y022073D01*
X023299Y022010D01*
X023245Y021984D01*
X023173Y021954D01*
X023044Y021825D01*
X022974Y021657D01*
X022974Y021474D01*
X023044Y021306D01*
X023173Y021177D01*
X023341Y021107D01*
X023523Y021107D01*
X023692Y021177D01*
X023821Y021306D01*
X023851Y021379D01*
X023877Y021433D01*
X023939Y021564D01*
X024139Y021763D01*
X024139Y021607D01*
X024202Y021454D01*
X024320Y021336D01*
X024474Y021272D01*
X024640Y021272D01*
X024794Y021336D01*
X024912Y021454D01*
X024976Y021607D01*
X024976Y021774D01*
X024912Y021928D01*
X024794Y022045D01*
X024640Y022109D01*
X024485Y022109D01*
X024737Y022362D01*
X024792Y022494D01*
X024792Y022637D01*
X024792Y022682D01*
X024828Y022667D01*
X025036Y022667D01*
X025229Y022747D01*
X025376Y022894D01*
X025432Y023030D01*
X025488Y022894D01*
X025636Y022747D01*
X025828Y022667D01*
X026036Y022667D01*
X026229Y022747D01*
X026376Y022894D01*
X026456Y023086D01*
X026456Y023295D01*
X026389Y023456D01*
X026552Y023456D01*
X026536Y023433D01*
X026503Y023368D01*
X026480Y023299D01*
X026469Y023227D01*
X026469Y023191D01*
X026932Y023191D01*
X026932Y023190D01*
X026469Y023190D01*
X026469Y023154D01*
X026480Y023082D01*
X026503Y023013D01*
X026536Y022948D01*
X026579Y022889D01*
X026630Y022837D01*
X026689Y022794D01*
X026754Y022761D01*
X026824Y022739D01*
X026892Y022728D01*
X026891Y022727D01*
X026699Y022635D01*
X026633Y022608D01*
X026515Y022490D01*
X026451Y022336D01*
X026451Y022170D01*
X026515Y022016D01*
X026633Y021898D01*
X026786Y021835D01*
X026953Y021835D01*
X027107Y021898D01*
X027151Y021943D01*
X027258Y021836D01*
X027324Y021808D01*
X027256Y021838D02*
X026960Y021838D01*
X026779Y021838D02*
X024949Y021838D01*
X024976Y021679D02*
X027554Y021679D01*
X027944Y021362D02*
X024820Y021362D01*
X024940Y021521D02*
X031602Y021521D01*
X032432Y022191D02*
X034245Y024003D01*
X034245Y037628D01*
X033182Y038691D01*
X030932Y038691D01*
X029932Y037691D01*
X029382Y037691D01*
X029065Y037486D01*
X028932Y037691D01*
X028727Y037558D01*
X028932Y037241D01*
X029137Y037558D01*
X028932Y037691D01*
X029065Y037896D01*
X029382Y037691D01*
X028932Y037691D01*
X028932Y037241D01*
X028932Y036691D01*
X027682Y035441D01*
X023432Y035441D01*
X021932Y033941D01*
X019057Y033941D01*
X018557Y034441D01*
X019348Y035232D01*
X019468Y035483D01*
X019557Y035441D01*
X019600Y035352D01*
X019348Y035232D01*
X019557Y035441D01*
X019204Y035649D02*
X019682Y036128D01*
X019682Y038191D01*
X020932Y039441D01*
X021065Y039121D02*
X026300Y039121D01*
X026612Y038808D01*
X026612Y038235D01*
X026491Y038047D01*
X026454Y038010D01*
X026431Y037954D01*
X026429Y037951D01*
X026424Y037943D01*
X026422Y037932D01*
X026368Y037803D01*
X026368Y037578D01*
X026454Y037371D01*
X026613Y037212D01*
X026820Y037127D01*
X027044Y037127D01*
X027252Y037212D01*
X027410Y037371D01*
X027464Y037501D01*
X027465Y037497D01*
X027501Y037426D01*
X027548Y037362D01*
X027604Y037306D01*
X027668Y037259D01*
X027739Y037223D01*
X027814Y037199D01*
X027893Y037187D01*
X027922Y037187D01*
X027922Y037680D01*
X027942Y037680D01*
X027942Y037187D01*
X027972Y037187D01*
X028050Y037199D01*
X028126Y037223D01*
X028196Y037259D01*
X028261Y037306D01*
X028317Y037362D01*
X028363Y037426D01*
X028399Y037497D01*
X028400Y037501D01*
X028422Y037449D01*
X028424Y037438D01*
X028431Y037427D01*
X028454Y037371D01*
X028491Y037334D01*
X028612Y037146D01*
X028612Y036823D01*
X027550Y035761D01*
X023496Y035761D01*
X023369Y035761D01*
X023251Y035712D01*
X021800Y034261D01*
X019190Y034261D01*
X019010Y034441D01*
X019530Y034960D01*
X019536Y034967D01*
X019728Y035058D01*
X019794Y035086D01*
X019912Y035204D01*
X019976Y035357D01*
X019976Y035524D01*
X019912Y035678D01*
X019798Y035791D01*
X019863Y035857D01*
X019953Y035947D01*
X020002Y036064D01*
X020002Y038058D01*
X021065Y039121D01*
X021063Y039119D02*
X026301Y039119D01*
X026460Y038960D02*
X020904Y038960D01*
X020746Y038802D02*
X026612Y038802D01*
X026612Y038643D02*
X022509Y038643D01*
X022482Y038670D02*
X022328Y038734D01*
X022161Y038734D01*
X022008Y038670D01*
X021890Y038553D01*
X021826Y038399D01*
X021826Y038232D01*
X021890Y038079D01*
X022008Y037961D01*
X022161Y037897D01*
X022328Y037897D01*
X022482Y037961D01*
X022599Y038079D01*
X022663Y038232D01*
X022663Y038399D01*
X022599Y038553D01*
X022482Y038670D01*
X022628Y038485D02*
X026612Y038485D01*
X026612Y038326D02*
X022663Y038326D01*
X022636Y038168D02*
X026569Y038168D01*
X026454Y038009D02*
X022530Y038009D01*
X021959Y038009D02*
X020002Y038009D01*
X020002Y037850D02*
X026388Y037850D01*
X026368Y037692D02*
X020002Y037692D01*
X020002Y037533D02*
X026387Y037533D01*
X026452Y037375D02*
X022152Y037375D01*
X022107Y037420D02*
X021953Y037484D01*
X021786Y037484D01*
X021633Y037420D01*
X021515Y037303D01*
X021451Y037149D01*
X021451Y036982D01*
X021515Y036829D01*
X021633Y036711D01*
X021786Y036647D01*
X021953Y036647D01*
X022107Y036711D01*
X022224Y036829D01*
X022288Y036982D01*
X022288Y037149D01*
X022224Y037303D01*
X022107Y037420D01*
X022260Y037216D02*
X026609Y037216D01*
X026932Y037691D02*
X026727Y037823D01*
X026932Y038141D01*
X027137Y037823D01*
X026932Y037691D01*
X026932Y038141D01*
X026932Y038941D01*
X027048Y039277D02*
X031342Y039277D01*
X031212Y039436D02*
X026889Y039436D01*
X026731Y039594D02*
X031156Y039594D01*
X031151Y039753D02*
X026514Y039753D01*
X026703Y039622D02*
X026703Y039622D01*
X027252Y038621D02*
X030410Y038621D01*
X029800Y038011D01*
X029476Y038011D01*
X029289Y038132D01*
X029252Y038169D01*
X029195Y038192D01*
X029185Y038199D01*
X029174Y038201D01*
X029044Y038255D01*
X028820Y038255D01*
X028613Y038169D01*
X028454Y038010D01*
X028400Y037880D01*
X028399Y037884D01*
X028363Y037955D01*
X028317Y038019D01*
X028261Y038075D01*
X028196Y038122D01*
X028126Y038158D01*
X028050Y038182D01*
X027972Y038195D01*
X027942Y038195D01*
X027942Y037701D01*
X027922Y037701D01*
X027922Y038195D01*
X027893Y038195D01*
X027814Y038182D01*
X027739Y038158D01*
X027668Y038122D01*
X027604Y038075D01*
X027548Y038019D01*
X027501Y037955D01*
X027465Y037884D01*
X027464Y037880D01*
X027442Y037932D01*
X027441Y037943D01*
X027434Y037954D01*
X027410Y038010D01*
X027373Y038047D01*
X027252Y038235D01*
X027252Y038621D01*
X027252Y038485D02*
X030274Y038485D01*
X030115Y038326D02*
X027252Y038326D01*
X027296Y038168D02*
X027769Y038168D01*
X027922Y038168D02*
X027942Y038168D01*
X028095Y038168D02*
X028612Y038168D01*
X028454Y038009D02*
X028324Y038009D01*
X027942Y038009D02*
X027922Y038009D01*
X027922Y037850D02*
X027942Y037850D01*
X027922Y037533D02*
X027942Y037533D01*
X027942Y037375D02*
X027922Y037375D01*
X027922Y037216D02*
X027942Y037216D01*
X028104Y037216D02*
X028567Y037216D01*
X028612Y037058D02*
X022288Y037058D01*
X022254Y036899D02*
X028612Y036899D01*
X028530Y036741D02*
X022137Y036741D01*
X021603Y036741D02*
X020002Y036741D01*
X020002Y036899D02*
X021486Y036899D01*
X021451Y037058D02*
X020002Y037058D01*
X020002Y037216D02*
X021479Y037216D01*
X021587Y037375D02*
X020002Y037375D01*
X020112Y038168D02*
X021853Y038168D01*
X021826Y038326D02*
X020270Y038326D01*
X020429Y038485D02*
X021862Y038485D01*
X021981Y038643D02*
X020587Y038643D01*
X019999Y038960D02*
X019092Y038960D01*
X018933Y038802D02*
X019841Y038802D01*
X019682Y038643D02*
X018775Y038643D01*
X018616Y038485D02*
X019524Y038485D01*
X019392Y038326D02*
X018579Y038326D01*
X019362Y037533D02*
X006972Y037533D01*
X006972Y037375D02*
X019362Y037375D01*
X019362Y037216D02*
X006972Y037216D01*
X006972Y037058D02*
X019362Y037058D01*
X019362Y036899D02*
X006972Y036899D01*
X006972Y036741D02*
X019362Y036741D01*
X019362Y036582D02*
X018580Y036582D01*
X018515Y036609D02*
X018349Y036609D01*
X018195Y036545D01*
X018077Y036428D01*
X018014Y036274D01*
X018014Y036107D01*
X018077Y035954D01*
X018195Y035836D01*
X018349Y035772D01*
X018515Y035772D01*
X018669Y035836D01*
X018787Y035954D01*
X018851Y036107D01*
X018851Y036274D01*
X018787Y036428D01*
X018669Y036545D01*
X018515Y036609D01*
X018284Y036582D02*
X013757Y036582D01*
X013787Y036553D02*
X013669Y036670D01*
X013515Y036734D01*
X013349Y036734D01*
X013195Y036670D01*
X013077Y036553D01*
X013014Y036399D01*
X013014Y036232D01*
X013077Y036079D01*
X013195Y035961D01*
X013349Y035897D01*
X013515Y035897D01*
X013669Y035961D01*
X013787Y036079D01*
X013851Y036232D01*
X013851Y036399D01*
X013787Y036553D01*
X013840Y036424D02*
X018076Y036424D01*
X018014Y036265D02*
X017279Y036265D01*
X017203Y036296D02*
X017036Y036296D01*
X016883Y036233D01*
X016765Y036115D01*
X016701Y035961D01*
X016701Y035795D01*
X016765Y035641D01*
X016883Y035523D01*
X017036Y035460D01*
X017203Y035460D01*
X017357Y035523D01*
X017474Y035641D01*
X017538Y035795D01*
X017538Y035961D01*
X017474Y036115D01*
X017357Y036233D01*
X017203Y036296D01*
X016961Y036265D02*
X013851Y036265D01*
X013798Y036106D02*
X014256Y036106D01*
X014258Y036108D02*
X014140Y035990D01*
X014076Y035836D01*
X014076Y035670D01*
X014140Y035516D01*
X014258Y035398D01*
X014411Y035335D01*
X014578Y035335D01*
X014732Y035398D01*
X014849Y035516D01*
X014913Y035670D01*
X014913Y035836D01*
X014849Y035990D01*
X014732Y036108D01*
X014578Y036171D01*
X014411Y036171D01*
X014258Y036108D01*
X014123Y035948D02*
X013638Y035948D01*
X013226Y035948D02*
X006972Y035948D01*
X006972Y036106D02*
X013066Y036106D01*
X013014Y036265D02*
X006972Y036265D01*
X006972Y036424D02*
X013024Y036424D01*
X013107Y036582D02*
X006972Y036582D01*
X006972Y035789D02*
X014076Y035789D01*
X014092Y035631D02*
X010003Y035631D01*
X010222Y035472D02*
X014184Y035472D01*
X014806Y035472D02*
X017006Y035472D01*
X017234Y035472D02*
X018546Y035472D01*
X018621Y035631D02*
X017464Y035631D01*
X017536Y035789D02*
X018307Y035789D01*
X018557Y035789D02*
X018752Y035789D01*
X018781Y035948D02*
X019050Y035948D01*
X019208Y036106D02*
X018850Y036106D01*
X018851Y036265D02*
X019362Y036265D01*
X019362Y036424D02*
X018789Y036424D01*
X018014Y036106D02*
X017478Y036106D01*
X017538Y035948D02*
X018083Y035948D01*
X018415Y035314D02*
X010307Y035314D01*
X010555Y035155D02*
X018257Y035155D01*
X018307Y034753D02*
X018786Y035232D01*
X018906Y035483D01*
X018995Y035441D01*
X019084Y035398D01*
X019204Y035649D01*
X018952Y035529D01*
X018995Y035441D01*
X019037Y035352D01*
X018786Y035232D01*
X018995Y035441D01*
X019204Y035649D01*
X019800Y035789D02*
X020197Y035789D01*
X020202Y035803D02*
X020139Y035649D01*
X020139Y035482D01*
X020202Y035329D01*
X020320Y035211D01*
X020474Y035147D01*
X020640Y035147D01*
X020794Y035211D01*
X020912Y035329D01*
X020976Y035482D01*
X020976Y035649D01*
X020923Y035777D01*
X020974Y035829D01*
X021008Y035909D01*
X021036Y035897D01*
X021203Y035897D01*
X021357Y035961D01*
X021474Y036079D01*
X021538Y036232D01*
X021538Y036399D01*
X021474Y036553D01*
X021357Y036670D01*
X021203Y036734D01*
X021036Y036734D01*
X020883Y036670D01*
X020765Y036553D01*
X020732Y036472D01*
X020703Y036484D01*
X020536Y036484D01*
X020383Y036420D01*
X020265Y036303D01*
X020201Y036149D01*
X020201Y035982D01*
X020254Y035854D01*
X020202Y035803D01*
X020216Y035948D02*
X019954Y035948D01*
X020002Y036106D02*
X020201Y036106D01*
X020249Y036265D02*
X020002Y036265D01*
X020002Y036424D02*
X020391Y036424D01*
X020002Y036582D02*
X020795Y036582D01*
X021326Y035948D02*
X027737Y035948D01*
X027579Y035789D02*
X020935Y035789D01*
X020976Y035631D02*
X023170Y035631D01*
X023011Y035472D02*
X020971Y035472D01*
X020897Y035314D02*
X022853Y035314D01*
X022694Y035155D02*
X021809Y035155D01*
X021849Y035115D02*
X021732Y035233D01*
X021578Y035296D01*
X021411Y035296D01*
X021258Y035233D01*
X021140Y035115D01*
X021076Y034961D01*
X021076Y034795D01*
X021140Y034641D01*
X021258Y034523D01*
X021411Y034460D01*
X021578Y034460D01*
X021732Y034523D01*
X021849Y034641D01*
X021913Y034795D01*
X021913Y034961D01*
X021849Y035115D01*
X021898Y034997D02*
X022536Y034997D01*
X022377Y034838D02*
X021913Y034838D01*
X021865Y034680D02*
X022219Y034680D01*
X022060Y034521D02*
X021726Y034521D01*
X021902Y034363D02*
X019088Y034363D01*
X019090Y034521D02*
X021263Y034521D01*
X021124Y034680D02*
X019249Y034680D01*
X019407Y034838D02*
X021076Y034838D01*
X021091Y034997D02*
X019599Y034997D01*
X019864Y035155D02*
X020454Y035155D01*
X020660Y035155D02*
X021180Y035155D01*
X020217Y035314D02*
X019958Y035314D01*
X019976Y035472D02*
X020143Y035472D01*
X020139Y035631D02*
X019931Y035631D01*
X021486Y036106D02*
X027896Y036106D01*
X028054Y036265D02*
X021538Y036265D01*
X021528Y036424D02*
X028213Y036424D01*
X028371Y036582D02*
X021445Y036582D01*
X023282Y034838D02*
X028071Y034838D01*
X028229Y034997D02*
X023441Y034997D01*
X023124Y034680D02*
X027912Y034680D01*
X027754Y034521D02*
X024500Y034521D01*
X024442Y034579D02*
X024273Y034649D01*
X024091Y034649D01*
X023923Y034579D01*
X023794Y034450D01*
X023724Y034282D01*
X023724Y034099D01*
X023794Y033931D01*
X023923Y033802D01*
X024091Y033732D01*
X024273Y033732D01*
X024442Y033802D01*
X024571Y033931D01*
X024641Y034099D01*
X024641Y034282D01*
X024571Y034450D01*
X024442Y034579D01*
X024607Y034363D02*
X027595Y034363D01*
X027437Y034204D02*
X024641Y034204D01*
X024618Y034045D02*
X027278Y034045D01*
X027119Y033887D02*
X024527Y033887D01*
X024528Y033253D02*
X023024Y033253D01*
X022982Y033211D02*
X023099Y033329D01*
X023163Y033482D01*
X023163Y033649D01*
X023099Y033803D01*
X022982Y033920D01*
X022828Y033984D01*
X022661Y033984D01*
X022508Y033920D01*
X022390Y033803D01*
X022326Y033649D01*
X022326Y033482D01*
X022390Y033329D01*
X022508Y033211D01*
X022661Y033147D01*
X022828Y033147D01*
X022982Y033211D01*
X023134Y033411D02*
X026644Y033411D01*
X026485Y033253D02*
X025087Y033253D01*
X025196Y033094D02*
X026327Y033094D01*
X026168Y032936D02*
X025226Y032936D01*
X025192Y032777D02*
X026010Y032777D01*
X025851Y032619D02*
X025077Y032619D01*
X025040Y032191D02*
X024778Y032098D01*
X024745Y032191D01*
X024778Y032283D01*
X025040Y032191D01*
X024745Y032191D01*
X025040Y032191D02*
X025932Y032191D01*
X029682Y035941D01*
X029932Y035941D01*
X031334Y037343D01*
X031413Y037743D01*
X031682Y037691D01*
X031735Y037421D01*
X031334Y037343D01*
X031682Y037691D01*
X031262Y038168D02*
X030862Y038168D01*
X031020Y038326D02*
X033094Y038326D01*
X033253Y038168D02*
X032102Y038168D01*
X032237Y038009D02*
X033411Y038009D01*
X033570Y037850D02*
X032303Y037850D01*
X032316Y037692D02*
X033728Y037692D01*
X033887Y037533D02*
X032304Y037533D01*
X032238Y037375D02*
X033925Y037375D01*
X033925Y037216D02*
X032105Y037216D01*
X032201Y037058D02*
X033925Y037058D01*
X033925Y036899D02*
X032926Y036899D01*
X032953Y036872D02*
X032953Y036872D01*
X033085Y036741D02*
X033925Y036741D01*
X033925Y036582D02*
X033243Y036582D01*
X033402Y036424D02*
X033925Y036424D01*
X033925Y036265D02*
X033560Y036265D01*
X033719Y036106D02*
X033925Y036106D01*
X033925Y035948D02*
X033849Y035948D01*
X033877Y035789D02*
X033925Y035789D01*
X033925Y035631D02*
X033877Y035631D01*
X033877Y035472D02*
X033925Y035472D01*
X033925Y035314D02*
X033877Y035314D01*
X033877Y035155D02*
X033925Y035155D01*
X033925Y034997D02*
X033877Y034997D01*
X033877Y034838D02*
X033925Y034838D01*
X033925Y034680D02*
X033877Y034680D01*
X033877Y034521D02*
X033925Y034521D01*
X033925Y034363D02*
X033877Y034363D01*
X033877Y034204D02*
X033925Y034204D01*
X033925Y034045D02*
X033877Y034045D01*
X033877Y033887D02*
X033925Y033887D01*
X033925Y033728D02*
X033877Y033728D01*
X033877Y033570D02*
X033925Y033570D01*
X033925Y033411D02*
X033877Y033411D01*
X033877Y033253D02*
X033925Y033253D01*
X033925Y033094D02*
X033877Y033094D01*
X033877Y032936D02*
X033925Y032936D01*
X033925Y032777D02*
X033877Y032777D01*
X033877Y032619D02*
X033925Y032619D01*
X033925Y032460D02*
X033877Y032460D01*
X033877Y032301D02*
X033925Y032301D01*
X033925Y032143D02*
X033877Y032143D01*
X033877Y031984D02*
X033925Y031984D01*
X033925Y031826D02*
X033877Y031826D01*
X033877Y031667D02*
X033925Y031667D01*
X033925Y031509D02*
X033877Y031509D01*
X033877Y031350D02*
X033925Y031350D01*
X033925Y031192D02*
X033877Y031192D01*
X033877Y031033D02*
X033925Y031033D01*
X033925Y030875D02*
X033877Y030875D01*
X033877Y030716D02*
X033925Y030716D01*
X033925Y030557D02*
X033877Y030557D01*
X033877Y030399D02*
X033925Y030399D01*
X033925Y030240D02*
X033877Y030240D01*
X033877Y030082D02*
X033925Y030082D01*
X033925Y029923D02*
X033877Y029923D01*
X033877Y029765D02*
X033925Y029765D01*
X033925Y029606D02*
X033877Y029606D01*
X033877Y029448D02*
X033925Y029448D01*
X033925Y029289D02*
X033877Y029289D01*
X033877Y029131D02*
X033925Y029131D01*
X033925Y028972D02*
X033877Y028972D01*
X033877Y028814D02*
X033925Y028814D01*
X033925Y028655D02*
X033877Y028655D01*
X033877Y028496D02*
X033925Y028496D01*
X033925Y028338D02*
X033877Y028338D01*
X033873Y028179D02*
X033925Y028179D01*
X033925Y028021D02*
X033777Y028021D01*
X033925Y027862D02*
X033619Y027862D01*
X033460Y027704D02*
X033925Y027704D01*
X033925Y027545D02*
X033302Y027545D01*
X033143Y027387D02*
X033925Y027387D01*
X033925Y027228D02*
X032985Y027228D01*
X032826Y027070D02*
X033925Y027070D01*
X033925Y026911D02*
X032668Y026911D01*
X032703Y026787D02*
X032482Y026696D01*
X032314Y026527D01*
X032222Y026306D01*
X032222Y026068D01*
X032314Y025847D01*
X032482Y025678D01*
X032703Y025587D01*
X032942Y025587D01*
X033162Y025678D01*
X033331Y025847D01*
X033422Y026068D01*
X033422Y026306D01*
X033331Y026527D01*
X033162Y026696D01*
X032942Y026787D01*
X032703Y026787D01*
X032619Y026752D02*
X032509Y026752D01*
X032381Y026594D02*
X032351Y026594D01*
X032276Y026435D02*
X032192Y026435D01*
X032222Y026277D02*
X032034Y026277D01*
X031940Y026118D02*
X032222Y026118D01*
X032267Y025960D02*
X031940Y025960D01*
X031940Y025801D02*
X032360Y025801D01*
X032569Y025643D02*
X031940Y025643D01*
X031940Y025484D02*
X033925Y025484D01*
X033925Y025326D02*
X031940Y025326D01*
X031940Y025167D02*
X033925Y025167D01*
X033925Y025008D02*
X031940Y025008D01*
X031940Y024850D02*
X033925Y024850D01*
X033925Y024691D02*
X031940Y024691D01*
X031940Y024533D02*
X033925Y024533D01*
X033925Y024374D02*
X031940Y024374D01*
X031940Y024216D02*
X032676Y024216D01*
X032969Y024216D02*
X033925Y024216D01*
X033846Y024057D02*
X033241Y024057D01*
X033359Y023899D02*
X033688Y023899D01*
X033529Y023740D02*
X033422Y023740D01*
X032404Y024057D02*
X031940Y024057D01*
X031940Y023899D02*
X032285Y023899D01*
X032222Y023740D02*
X031940Y023740D01*
X031940Y023582D02*
X032222Y023582D01*
X032257Y023423D02*
X031940Y023423D01*
X031940Y023264D02*
X032336Y023264D01*
X032438Y023106D02*
X031940Y023106D01*
X031940Y022947D02*
X032392Y022947D01*
X032392Y022789D02*
X031858Y022789D01*
X031699Y022630D02*
X032392Y022630D01*
X032432Y022191D02*
X029682Y022191D01*
X029245Y022628D01*
X027245Y022628D01*
X027079Y022462D01*
X026959Y022211D01*
X026870Y022253D01*
X026827Y022342D01*
X027079Y022462D01*
X026870Y022253D01*
X026687Y022630D02*
X024792Y022630D01*
X024783Y022472D02*
X026507Y022472D01*
X026451Y022313D02*
X024689Y022313D01*
X024530Y022155D02*
X026458Y022155D01*
X026535Y021996D02*
X024843Y021996D01*
X024432Y022566D02*
X023641Y021774D01*
X023521Y021523D01*
X023432Y021566D01*
X023390Y021654D01*
X023641Y021774D01*
X023432Y021566D01*
X023020Y021362D02*
X017476Y021362D01*
X017476Y021399D02*
X017412Y021553D01*
X017294Y021670D01*
X017140Y021734D01*
X016974Y021734D01*
X016820Y021670D01*
X016702Y021553D01*
X016639Y021399D01*
X016639Y021232D01*
X016702Y021078D01*
X016820Y020961D01*
X016974Y020897D01*
X017140Y020897D01*
X017294Y020961D01*
X017412Y021078D01*
X017476Y021232D01*
X017476Y021399D01*
X017425Y021521D02*
X022974Y021521D01*
X022983Y021679D02*
X017273Y021679D01*
X016842Y021679D02*
X016627Y021679D01*
X016627Y021521D02*
X016689Y021521D01*
X016639Y021362D02*
X016627Y021362D01*
X016627Y021203D02*
X016651Y021203D01*
X016627Y021045D02*
X016736Y021045D01*
X016627Y020948D02*
X016627Y023683D01*
X016801Y023857D01*
X016891Y023947D01*
X016940Y024064D01*
X016940Y027746D01*
X017139Y027945D01*
X017139Y027857D01*
X017202Y027704D01*
X016940Y027704D01*
X016940Y027545D02*
X017418Y027545D01*
X017474Y027522D02*
X017640Y027522D01*
X017794Y027586D01*
X017912Y027704D01*
X020979Y027704D01*
X020952Y027678D02*
X020889Y027524D01*
X020889Y027357D01*
X020952Y027204D01*
X021070Y027086D01*
X021224Y027022D01*
X021390Y027022D01*
X021544Y027086D01*
X021662Y027204D01*
X021726Y027357D01*
X021726Y027524D01*
X021674Y027647D01*
X021828Y027647D01*
X021982Y027711D01*
X022099Y027829D01*
X022163Y027982D01*
X022163Y028149D01*
X022099Y028303D01*
X021982Y028420D01*
X021828Y028484D01*
X021661Y028484D01*
X021508Y028420D01*
X021390Y028303D01*
X021326Y028149D01*
X021326Y027982D01*
X021377Y027859D01*
X021224Y027859D01*
X021070Y027795D01*
X020952Y027678D01*
X020898Y027545D02*
X017696Y027545D01*
X017474Y027522D02*
X017320Y027586D01*
X017202Y027704D01*
X017139Y027862D02*
X017056Y027862D01*
X016620Y027878D02*
X016620Y024128D01*
X016307Y023816D01*
X016307Y020816D01*
X017057Y020066D01*
X020949Y020066D01*
X021212Y020158D01*
X021245Y020066D01*
X021212Y019973D01*
X020949Y020066D01*
X021245Y020066D01*
X021547Y019777D02*
X026358Y019777D01*
X026517Y019935D02*
X021644Y019935D01*
X021663Y019982D02*
X021663Y020149D01*
X021599Y020303D01*
X021493Y020409D01*
X021599Y020516D01*
X021663Y020670D01*
X021663Y020836D01*
X021599Y020990D01*
X021482Y021108D01*
X021328Y021171D01*
X021161Y021171D01*
X021008Y021108D01*
X020890Y020990D01*
X020826Y020836D01*
X020826Y020670D01*
X020890Y020516D01*
X020988Y020418D01*
X020894Y020386D01*
X020886Y020386D01*
X017190Y020386D01*
X016627Y020948D01*
X016689Y020886D02*
X020847Y020886D01*
X020826Y020728D02*
X016847Y020728D01*
X017006Y020569D02*
X020868Y020569D01*
X020966Y020411D02*
X017165Y020411D01*
X016735Y019935D02*
X014890Y019935D01*
X014732Y020094D02*
X016577Y020094D01*
X016418Y020252D02*
X014573Y020252D01*
X014415Y020411D02*
X016259Y020411D01*
X016101Y020569D02*
X014256Y020569D01*
X014097Y020728D02*
X015997Y020728D01*
X015987Y020752D02*
X016036Y020634D01*
X016876Y019794D01*
X016994Y019746D01*
X017121Y019746D01*
X020886Y019746D01*
X020894Y019746D01*
X021096Y019674D01*
X021161Y019647D01*
X021328Y019647D01*
X021482Y019711D01*
X021599Y019829D01*
X021663Y019982D01*
X021663Y020094D02*
X026675Y020094D01*
X026834Y020252D02*
X021620Y020252D01*
X021494Y020411D02*
X026992Y020411D01*
X027151Y020569D02*
X021621Y020569D01*
X021663Y020728D02*
X027309Y020728D01*
X027468Y020886D02*
X021642Y020886D01*
X021545Y021045D02*
X027626Y021045D01*
X027785Y021203D02*
X023718Y021203D01*
X023844Y021362D02*
X024294Y021362D01*
X024175Y021521D02*
X023919Y021521D01*
X023877Y021433D02*
X023877Y021433D01*
X024055Y021679D02*
X024139Y021679D01*
X023512Y022155D02*
X021238Y022155D01*
X021287Y022204D02*
X021351Y022357D01*
X021351Y022524D01*
X021287Y022678D01*
X021172Y022793D01*
X021175Y022794D01*
X021234Y022837D01*
X021286Y022889D01*
X021329Y022948D01*
X021362Y023013D01*
X021384Y023082D01*
X021396Y023154D01*
X021396Y023190D01*
X020933Y023190D01*
X020933Y023191D01*
X021396Y023191D01*
X021396Y023227D01*
X021384Y023299D01*
X021362Y023368D01*
X021329Y023433D01*
X021286Y023492D01*
X021234Y023544D01*
X021175Y023587D01*
X021110Y023620D01*
X021041Y023643D01*
X020969Y023654D01*
X020932Y023654D01*
X020896Y023654D01*
X020824Y023643D01*
X020754Y023620D01*
X020689Y023587D01*
X020630Y023544D01*
X020579Y023492D01*
X020536Y023433D01*
X020503Y023368D01*
X020480Y023299D01*
X020469Y023227D01*
X020469Y023191D01*
X020932Y023191D01*
X020932Y023654D01*
X020932Y023191D01*
X020932Y023191D01*
X020932Y023190D01*
X020469Y023190D01*
X020469Y023154D01*
X020480Y023082D01*
X020503Y023013D01*
X020536Y022948D01*
X020579Y022889D01*
X020630Y022837D01*
X020689Y022794D01*
X020692Y022793D01*
X020577Y022678D01*
X020514Y022524D01*
X020514Y022357D01*
X020577Y022204D01*
X020695Y022086D01*
X020849Y022022D01*
X021015Y022022D01*
X021169Y022086D01*
X021287Y022204D01*
X021332Y022313D02*
X023671Y022313D01*
X023829Y022472D02*
X021351Y022472D01*
X021306Y022630D02*
X023988Y022630D01*
X023932Y022789D02*
X023932Y022789D01*
X023932Y022947D02*
X023932Y022947D01*
X023932Y023106D02*
X023932Y023106D01*
X023932Y023264D02*
X023932Y023264D01*
X023932Y023423D02*
X023932Y023423D01*
X023932Y023582D02*
X023932Y023582D01*
X023682Y023582D02*
X023281Y023582D01*
X023254Y023609D02*
X023287Y023641D01*
X023351Y023795D01*
X023351Y023961D01*
X023287Y024115D01*
X023169Y024233D01*
X023015Y024296D01*
X022849Y024296D01*
X022695Y024233D01*
X022577Y024115D01*
X022514Y023961D01*
X022514Y023795D01*
X022577Y023641D01*
X022610Y023609D01*
X022488Y023487D01*
X022432Y023351D01*
X022376Y023487D01*
X022229Y023634D01*
X022036Y023714D01*
X021828Y023714D01*
X021636Y023634D01*
X021488Y023487D01*
X021409Y023295D01*
X021409Y023086D01*
X021488Y022894D01*
X021636Y022747D01*
X021828Y022667D01*
X022036Y022667D01*
X022229Y022747D01*
X022376Y022894D01*
X022432Y023030D01*
X022488Y022894D01*
X022636Y022747D01*
X022828Y022667D01*
X023036Y022667D01*
X023229Y022747D01*
X023376Y022894D01*
X023456Y023086D01*
X023456Y023295D01*
X023376Y023487D01*
X023254Y023609D01*
X023328Y023740D02*
X024160Y023740D01*
X024319Y023899D02*
X023351Y023899D01*
X023311Y024057D02*
X024477Y024057D01*
X024745Y023816D02*
X028370Y023816D01*
X028932Y023253D01*
X029807Y023253D01*
X030432Y023878D01*
X030432Y023958D01*
X030339Y024220D01*
X030432Y024253D01*
X030432Y024253D01*
X030432Y023958D01*
X030525Y024220D01*
X030432Y024253D01*
X030293Y024691D02*
X030078Y024691D01*
X030119Y024672D02*
X029934Y024760D01*
X029927Y024767D01*
X027324Y027371D01*
X025105Y029590D01*
X025105Y031200D01*
X025105Y031261D01*
X025105Y031271D01*
X025173Y031464D01*
X025203Y031537D01*
X025203Y031719D01*
X025157Y031831D01*
X025861Y031831D01*
X026004Y031831D01*
X026136Y031885D01*
X029831Y035581D01*
X029861Y035581D01*
X030004Y035581D01*
X030136Y035635D01*
X031088Y036587D01*
X031088Y036572D01*
X031178Y036354D01*
X031313Y036219D01*
X031144Y036050D01*
X031048Y035817D01*
X031048Y035564D01*
X031144Y035331D01*
X031323Y035153D01*
X031556Y035056D01*
X031808Y035056D01*
X032041Y035153D01*
X032220Y035331D01*
X032316Y035564D01*
X032316Y035817D01*
X032220Y036050D01*
X032051Y036219D01*
X032061Y036229D01*
X032066Y036233D01*
X032272Y036371D01*
X032550Y036371D01*
X033237Y035683D01*
X033237Y034636D01*
X033215Y034652D01*
X033139Y034691D01*
X033059Y034717D01*
X032975Y034731D01*
X032952Y034731D01*
X032952Y034211D01*
X032912Y034211D01*
X032912Y034731D01*
X032890Y034731D01*
X032806Y034717D01*
X032725Y034691D01*
X032649Y034652D01*
X032580Y034602D01*
X032520Y034542D01*
X032470Y034474D01*
X032467Y034467D01*
X032441Y034530D01*
X032272Y034699D01*
X032052Y034791D01*
X031813Y034791D01*
X031592Y034699D01*
X031424Y034530D01*
X031332Y034310D01*
X031332Y034071D01*
X031424Y033851D01*
X031584Y033691D01*
X031424Y033530D01*
X031332Y033310D01*
X031332Y033071D01*
X031424Y032851D01*
X031584Y032691D01*
X031424Y032530D01*
X031332Y032310D01*
X031332Y032071D01*
X031424Y031851D01*
X031584Y031691D01*
X031424Y031530D01*
X031332Y031310D01*
X031332Y031071D01*
X031424Y030851D01*
X031584Y030691D01*
X031424Y030530D01*
X031332Y030310D01*
X031332Y030071D01*
X031424Y029851D01*
X031592Y029682D01*
X031813Y029591D01*
X032052Y029591D01*
X032272Y029682D01*
X032441Y029851D01*
X032467Y029914D01*
X032470Y029908D01*
X032520Y029839D01*
X032580Y029779D01*
X032649Y029729D01*
X032725Y029690D01*
X032806Y029664D01*
X032890Y029651D01*
X032912Y029651D01*
X032912Y030170D01*
X032952Y030170D01*
X032952Y029651D01*
X032975Y029651D01*
X033059Y029664D01*
X033139Y029690D01*
X033215Y029729D01*
X033237Y029745D01*
X033237Y028386D01*
X032890Y028039D01*
X032889Y028050D01*
X032866Y028120D01*
X032832Y028186D01*
X032789Y028245D01*
X032737Y028297D01*
X032677Y028341D01*
X032612Y028374D01*
X032542Y028397D01*
X032469Y028409D01*
X032432Y028409D01*
X032395Y028409D01*
X032323Y028397D01*
X032253Y028374D01*
X032187Y028341D01*
X032127Y028297D01*
X032075Y028245D01*
X032032Y028186D01*
X031999Y028120D01*
X031976Y028050D01*
X031964Y027977D01*
X031964Y027941D01*
X032432Y027941D01*
X032432Y028409D01*
X032432Y027941D01*
X032432Y027941D01*
X032432Y027940D01*
X031964Y027940D01*
X031964Y027904D01*
X031976Y027831D01*
X031999Y027761D01*
X032032Y027695D01*
X032075Y027636D01*
X032127Y027584D01*
X032187Y027540D01*
X032253Y027507D01*
X032323Y027484D01*
X032334Y027482D01*
X031438Y026587D01*
X031422Y026571D01*
X031394Y026599D01*
X031325Y026649D01*
X031249Y026687D01*
X031169Y026714D01*
X031085Y026727D01*
X031062Y026727D01*
X031062Y026207D01*
X031022Y026207D01*
X031022Y026167D01*
X030502Y026167D01*
X030502Y026145D01*
X030516Y026061D01*
X030542Y025980D01*
X030580Y025904D01*
X030630Y025835D01*
X030690Y025775D01*
X030759Y025725D01*
X030835Y025687D01*
X030916Y025660D01*
X031000Y025647D01*
X031022Y025647D01*
X031022Y026167D01*
X031062Y026167D01*
X031062Y025647D01*
X031085Y025647D01*
X031169Y025660D01*
X031249Y025687D01*
X031300Y025712D01*
X031300Y024102D01*
X031249Y024127D01*
X031169Y024154D01*
X031085Y024167D01*
X031062Y024167D01*
X031062Y023647D01*
X031022Y023647D01*
X031022Y024167D01*
X031000Y024167D01*
X030916Y024154D01*
X030883Y024143D01*
X030891Y024162D01*
X030891Y024344D01*
X030821Y024513D01*
X030692Y024642D01*
X030523Y024711D01*
X030341Y024711D01*
X030182Y024646D01*
X030119Y024672D01*
X029844Y024850D02*
X031300Y024850D01*
X031300Y025008D02*
X029686Y025008D01*
X029527Y025167D02*
X031300Y025167D01*
X031300Y025326D02*
X029369Y025326D01*
X029210Y025484D02*
X031300Y025484D01*
X031300Y025643D02*
X029052Y025643D01*
X028893Y025801D02*
X030664Y025801D01*
X030552Y025960D02*
X028735Y025960D01*
X028576Y026118D02*
X030506Y026118D01*
X030502Y026207D02*
X031022Y026207D01*
X031022Y026727D01*
X031000Y026727D01*
X030916Y026714D01*
X030835Y026687D01*
X030759Y026649D01*
X030690Y026599D01*
X030630Y026539D01*
X030580Y026470D01*
X030542Y026394D01*
X030516Y026314D01*
X030502Y026230D01*
X030502Y026207D01*
X030510Y026277D02*
X028417Y026277D01*
X028259Y026435D02*
X030563Y026435D01*
X030685Y026594D02*
X028100Y026594D01*
X027942Y026752D02*
X030058Y026752D01*
X030008Y026773D02*
X030161Y026710D01*
X030328Y026710D01*
X030482Y026773D01*
X030599Y026891D01*
X030663Y027045D01*
X030663Y027211D01*
X030599Y027365D01*
X030482Y027483D01*
X030328Y027546D01*
X030161Y027546D01*
X030008Y027483D01*
X029890Y027365D01*
X029826Y027211D01*
X029826Y027045D01*
X029890Y026891D01*
X030008Y026773D01*
X029882Y026911D02*
X027783Y026911D01*
X027625Y027070D02*
X029826Y027070D01*
X029833Y027228D02*
X027466Y027228D01*
X027308Y027387D02*
X029912Y027387D01*
X030158Y027545D02*
X027149Y027545D01*
X026991Y027704D02*
X030959Y027704D01*
X030985Y027641D02*
X031133Y027493D01*
X031327Y027413D01*
X031537Y027413D01*
X031731Y027493D01*
X031880Y027641D01*
X031960Y027836D01*
X031960Y028046D01*
X031880Y028240D01*
X031731Y028388D01*
X031537Y028469D01*
X031327Y028469D01*
X031133Y028388D01*
X030985Y028240D01*
X030904Y028046D01*
X030904Y027836D01*
X030985Y027641D01*
X031081Y027545D02*
X030331Y027545D01*
X030578Y027387D02*
X032238Y027387D01*
X032180Y027545D02*
X031783Y027545D01*
X031906Y027704D02*
X032028Y027704D01*
X031971Y027862D02*
X031960Y027862D01*
X031960Y028021D02*
X031971Y028021D01*
X032029Y028179D02*
X031905Y028179D01*
X031781Y028338D02*
X032183Y028338D01*
X032432Y028338D02*
X032432Y028338D01*
X032432Y028179D02*
X032432Y028179D01*
X032432Y028021D02*
X032432Y028021D01*
X032681Y028338D02*
X033190Y028338D01*
X033237Y028496D02*
X026198Y028496D01*
X026356Y028338D02*
X031083Y028338D01*
X030960Y028179D02*
X026515Y028179D01*
X026673Y028021D02*
X030904Y028021D01*
X030904Y027862D02*
X026832Y027862D01*
X026289Y027387D02*
X021726Y027387D01*
X021717Y027545D02*
X026131Y027545D01*
X025972Y027704D02*
X021965Y027704D01*
X022113Y027862D02*
X025814Y027862D01*
X025655Y028021D02*
X022163Y028021D01*
X022150Y028179D02*
X025497Y028179D01*
X025338Y028338D02*
X022064Y028338D01*
X021425Y028338D02*
X017691Y028338D01*
X017640Y028359D02*
X017553Y028359D01*
X017565Y028371D01*
X018246Y028371D01*
X018363Y028419D01*
X018453Y028509D01*
X019078Y029134D01*
X019127Y029252D01*
X019127Y029379D01*
X019127Y029519D01*
X019127Y029528D01*
X019195Y029719D01*
X019198Y029728D01*
X019226Y029795D01*
X019226Y029961D01*
X019162Y030115D01*
X019044Y030233D01*
X018890Y030296D01*
X018724Y030296D01*
X018570Y030233D01*
X018452Y030115D01*
X018389Y029961D01*
X018389Y029795D01*
X018416Y029729D01*
X018487Y029528D01*
X018487Y029519D01*
X018487Y029448D01*
X018226Y029186D01*
X018226Y029211D01*
X018162Y029365D01*
X018044Y029483D01*
X017890Y029546D01*
X017724Y029546D01*
X017570Y029483D01*
X017452Y029365D01*
X017389Y029211D01*
X017389Y029045D01*
X017403Y029011D01*
X017369Y029011D01*
X017251Y028962D01*
X016438Y028149D01*
X016348Y028059D01*
X016300Y027942D01*
X016300Y024261D01*
X016126Y024087D01*
X016036Y023997D01*
X015987Y023879D01*
X015987Y020879D01*
X015987Y020752D01*
X015987Y020886D02*
X015140Y020886D01*
X015169Y020898D02*
X015287Y021016D01*
X015351Y021170D01*
X015351Y021336D01*
X015287Y021490D01*
X015169Y021608D01*
X015015Y021671D01*
X014849Y021671D01*
X014695Y021608D01*
X014577Y021490D01*
X014514Y021336D01*
X014514Y021170D01*
X014577Y021016D01*
X014695Y020898D01*
X014849Y020835D01*
X015015Y020835D01*
X015169Y020898D01*
X015299Y021045D02*
X015987Y021045D01*
X015987Y021203D02*
X015351Y021203D01*
X015340Y021362D02*
X015987Y021362D01*
X015987Y021521D02*
X015256Y021521D01*
X014608Y021521D02*
X014475Y021521D01*
X014482Y021523D02*
X014599Y021641D01*
X014663Y021795D01*
X014663Y021961D01*
X014599Y022115D01*
X014482Y022233D01*
X014328Y022296D01*
X014288Y022296D01*
X014288Y022336D01*
X014224Y022490D01*
X014107Y022608D01*
X013953Y022671D01*
X013786Y022671D01*
X013633Y022608D01*
X013515Y022490D01*
X013451Y022336D01*
X013451Y022170D01*
X013515Y022016D01*
X013633Y021898D01*
X013786Y021835D01*
X013826Y021835D01*
X013826Y021795D01*
X013890Y021641D01*
X014008Y021523D01*
X014161Y021460D01*
X014328Y021460D01*
X014482Y021523D01*
X014524Y021362D02*
X013463Y021362D01*
X013305Y021521D02*
X014014Y021521D01*
X013874Y021679D02*
X013146Y021679D01*
X012988Y021838D02*
X013779Y021838D01*
X013535Y021996D02*
X012829Y021996D01*
X012752Y022155D02*
X013458Y022155D01*
X013451Y022313D02*
X012752Y022313D01*
X012752Y022472D02*
X013507Y022472D01*
X013687Y022630D02*
X012752Y022630D01*
X012752Y022789D02*
X014087Y022789D01*
X014133Y022743D02*
X014327Y022663D01*
X014537Y022663D01*
X014731Y022743D01*
X014880Y022891D01*
X014960Y023086D01*
X014960Y023296D01*
X014880Y023490D01*
X014731Y023638D01*
X014537Y023719D01*
X014327Y023719D01*
X014133Y023638D01*
X013985Y023490D01*
X013904Y023296D01*
X013904Y023086D01*
X013985Y022891D01*
X014133Y022743D01*
X014052Y022630D02*
X015987Y022630D01*
X015987Y022472D02*
X014232Y022472D01*
X014288Y022313D02*
X015987Y022313D01*
X015987Y022155D02*
X014560Y022155D01*
X014649Y021996D02*
X015987Y021996D01*
X015987Y021838D02*
X014663Y021838D01*
X014615Y021679D02*
X015987Y021679D01*
X016627Y021838D02*
X023056Y021838D01*
X023270Y021996D02*
X016627Y021996D01*
X016627Y022155D02*
X020626Y022155D01*
X020532Y022313D02*
X016627Y022313D01*
X016627Y022472D02*
X020514Y022472D01*
X020558Y022630D02*
X016627Y022630D01*
X016627Y022789D02*
X017087Y022789D01*
X017133Y022743D02*
X017327Y022663D01*
X017537Y022663D01*
X017731Y022743D01*
X017880Y022891D01*
X017960Y023086D01*
X017960Y023296D01*
X017880Y023490D01*
X017731Y023638D01*
X017537Y023719D01*
X017327Y023719D01*
X017133Y023638D01*
X016985Y023490D01*
X016904Y023296D01*
X016904Y023086D01*
X016985Y022891D01*
X017133Y022743D01*
X016961Y022947D02*
X016627Y022947D01*
X016627Y023106D02*
X016904Y023106D01*
X016904Y023264D02*
X016627Y023264D01*
X016627Y023423D02*
X016957Y023423D01*
X017077Y023582D02*
X016627Y023582D01*
X016684Y023740D02*
X022536Y023740D01*
X022514Y023899D02*
X021392Y023899D01*
X021621Y024057D02*
X022554Y024057D01*
X022678Y024216D02*
X021779Y024216D01*
X021307Y024253D02*
X021745Y024691D01*
X024807Y024691D01*
X027120Y027003D01*
X027120Y027066D01*
X029723Y024462D01*
X029975Y024342D01*
X029932Y024253D01*
X029843Y024211D01*
X029723Y024462D01*
X029932Y024253D01*
X029366Y024216D02*
X023186Y024216D01*
X023402Y023423D02*
X023531Y023423D01*
X023475Y023264D02*
X023456Y023264D01*
X023456Y023106D02*
X023476Y023106D01*
X023536Y022947D02*
X023398Y022947D01*
X023271Y022789D02*
X023700Y022789D01*
X023299Y022010D02*
X023299Y022010D01*
X022594Y022789D02*
X022271Y022789D01*
X022398Y022947D02*
X022466Y022947D01*
X022462Y023423D02*
X022402Y023423D01*
X022281Y023582D02*
X022583Y023582D01*
X021583Y023582D02*
X021182Y023582D01*
X021334Y023423D02*
X021462Y023423D01*
X021409Y023264D02*
X021390Y023264D01*
X021388Y023106D02*
X021409Y023106D01*
X021466Y022947D02*
X021328Y022947D01*
X021176Y022789D02*
X021594Y022789D01*
X020932Y023264D02*
X020932Y023264D01*
X020932Y023423D02*
X020932Y023423D01*
X020932Y023582D02*
X020932Y023582D01*
X020682Y023582D02*
X020281Y023582D01*
X020229Y023634D02*
X020036Y023714D01*
X019828Y023714D01*
X019636Y023634D01*
X019488Y023487D01*
X019409Y023295D01*
X019409Y023086D01*
X019488Y022894D01*
X019636Y022747D01*
X019828Y022667D01*
X020036Y022667D01*
X020229Y022747D01*
X020376Y022894D01*
X020456Y023086D01*
X020456Y023295D01*
X020376Y023487D01*
X020229Y023634D01*
X020402Y023423D02*
X020531Y023423D01*
X020475Y023264D02*
X020456Y023264D01*
X020456Y023106D02*
X020476Y023106D01*
X020536Y022947D02*
X020398Y022947D01*
X020271Y022789D02*
X020689Y022789D01*
X019594Y022789D02*
X018675Y022789D01*
X018677Y022790D02*
X018737Y022834D01*
X018789Y022886D01*
X018832Y022945D01*
X018866Y023011D01*
X018889Y023081D01*
X018900Y023154D01*
X018900Y023190D01*
X018433Y023190D01*
X018433Y023191D01*
X018900Y023191D01*
X018900Y023227D01*
X018889Y023300D01*
X018866Y023370D01*
X018832Y023436D01*
X018789Y023495D01*
X018737Y023547D01*
X018677Y023591D01*
X018612Y023624D01*
X018542Y023647D01*
X018469Y023659D01*
X018432Y023659D01*
X018395Y023659D01*
X018323Y023647D01*
X018253Y023624D01*
X018187Y023591D01*
X018127Y023547D01*
X018075Y023495D01*
X018032Y023436D01*
X017999Y023370D01*
X017976Y023300D01*
X017964Y023227D01*
X017964Y023191D01*
X018432Y023191D01*
X018432Y023659D01*
X018432Y023191D01*
X018432Y023191D01*
X018432Y023190D01*
X018432Y023190D01*
X018432Y022723D01*
X018395Y022723D01*
X018323Y022734D01*
X018253Y022757D01*
X018187Y022790D01*
X018127Y022834D01*
X018075Y022886D01*
X018032Y022945D01*
X017999Y023011D01*
X017976Y023081D01*
X017964Y023154D01*
X017964Y023190D01*
X018432Y023190D01*
X018432Y022723D01*
X018469Y022723D01*
X018542Y022734D01*
X018612Y022757D01*
X018677Y022790D01*
X018834Y022947D02*
X019466Y022947D01*
X019409Y023106D02*
X018893Y023106D01*
X018894Y023264D02*
X019409Y023264D01*
X019462Y023423D02*
X018839Y023423D01*
X018690Y023582D02*
X019583Y023582D01*
X018790Y024253D02*
X018528Y024160D01*
X018495Y024253D01*
X018528Y024346D01*
X018790Y024253D01*
X021307Y024253D01*
X020639Y024691D02*
X018634Y024691D01*
X018355Y024691D02*
X016940Y024691D01*
X016940Y024533D02*
X018126Y024533D01*
X018049Y024374D02*
X016940Y024374D01*
X016940Y024216D02*
X018036Y024216D01*
X018080Y024057D02*
X016937Y024057D01*
X016843Y023899D02*
X018201Y023899D01*
X018174Y023582D02*
X017788Y023582D01*
X017907Y023423D02*
X018025Y023423D01*
X017970Y023264D02*
X017960Y023264D01*
X017960Y023106D02*
X017972Y023106D01*
X018031Y022947D02*
X017903Y022947D01*
X017777Y022789D02*
X018190Y022789D01*
X018432Y022789D02*
X018432Y022789D01*
X018432Y022947D02*
X018432Y022947D01*
X018432Y023106D02*
X018432Y023106D01*
X018432Y023264D02*
X018432Y023264D01*
X018432Y023423D02*
X018432Y023423D01*
X018432Y023582D02*
X018432Y023582D01*
X018495Y024253D02*
X018790Y024253D01*
X018879Y024850D02*
X019225Y024850D01*
X019091Y025008D02*
X019013Y025008D01*
X019027Y025484D02*
X019077Y025484D01*
X019191Y025643D02*
X018913Y025643D01*
X018191Y025643D02*
X017913Y025643D01*
X018027Y025484D02*
X018077Y025484D01*
X018091Y025008D02*
X018013Y025008D01*
X017879Y024850D02*
X018225Y024850D01*
X017225Y024850D02*
X016940Y024850D01*
X016940Y025008D02*
X017091Y025008D01*
X017029Y025167D02*
X016940Y025167D01*
X016940Y025326D02*
X017029Y025326D01*
X017077Y025484D02*
X016940Y025484D01*
X016940Y025643D02*
X017191Y025643D01*
X016940Y025801D02*
X025409Y025801D01*
X025567Y025960D02*
X016940Y025960D01*
X016940Y026118D02*
X025726Y026118D01*
X025884Y026277D02*
X016940Y026277D01*
X016940Y026435D02*
X026043Y026435D01*
X026202Y026594D02*
X017990Y026594D01*
X018037Y026641D02*
X018101Y026795D01*
X018101Y026961D01*
X018037Y027115D01*
X017919Y027233D01*
X017765Y027296D01*
X017599Y027296D01*
X017445Y027233D01*
X017327Y027115D01*
X017264Y026961D01*
X017264Y026795D01*
X017327Y026641D01*
X017445Y026523D01*
X017599Y026460D01*
X017765Y026460D01*
X017919Y026523D01*
X018037Y026641D01*
X018083Y026752D02*
X026360Y026752D01*
X026519Y026911D02*
X018101Y026911D01*
X018056Y027070D02*
X021109Y027070D01*
X020942Y027228D02*
X017924Y027228D01*
X017912Y027704D02*
X017976Y027857D01*
X017976Y028024D01*
X017912Y028178D01*
X017794Y028295D01*
X017640Y028359D01*
X017910Y028179D02*
X021339Y028179D01*
X021326Y028021D02*
X017976Y028021D01*
X017976Y027862D02*
X021376Y027862D01*
X020889Y027387D02*
X016940Y027387D01*
X016940Y027228D02*
X017440Y027228D01*
X017309Y027070D02*
X016940Y027070D01*
X016940Y026911D02*
X017264Y026911D01*
X017281Y026752D02*
X016940Y026752D01*
X016940Y026594D02*
X017375Y026594D01*
X016300Y026594D02*
X012752Y026594D01*
X012752Y026752D02*
X016300Y026752D01*
X016300Y026911D02*
X012752Y026911D01*
X012752Y027070D02*
X016300Y027070D01*
X016300Y027228D02*
X012752Y027228D01*
X012752Y027387D02*
X016300Y027387D01*
X016300Y027545D02*
X012752Y027545D01*
X012752Y027704D02*
X016300Y027704D01*
X016300Y027862D02*
X012752Y027862D01*
X012752Y028021D02*
X016333Y028021D01*
X016468Y028179D02*
X012752Y028179D01*
X012752Y028338D02*
X016627Y028338D01*
X016786Y028496D02*
X014479Y028496D01*
X014668Y028655D02*
X016944Y028655D01*
X017103Y028814D02*
X014726Y028814D01*
X014721Y028972D02*
X014777Y028972D01*
X014536Y029289D02*
X014408Y029289D01*
X014206Y029289D02*
X013483Y029289D01*
X013325Y029131D02*
X013968Y029131D01*
X013893Y028972D02*
X013166Y028972D01*
X013008Y028814D02*
X013889Y028814D01*
X013947Y028655D02*
X012849Y028655D01*
X012752Y028496D02*
X014135Y028496D01*
X014536Y029448D02*
X013642Y029448D01*
X013800Y029606D02*
X014593Y029606D01*
X014571Y029765D02*
X013959Y029765D01*
X014118Y029923D02*
X014536Y029923D01*
X014557Y030082D02*
X014276Y030082D01*
X014182Y030441D02*
X012432Y028691D01*
X012432Y021941D01*
X015932Y018441D01*
X018932Y018441D01*
X019495Y019003D01*
X020370Y019003D01*
X020870Y018503D01*
X022512Y018503D01*
X022774Y018596D01*
X022807Y018503D01*
X022774Y018410D01*
X022512Y018503D01*
X022807Y018503D01*
X023226Y018508D02*
X025090Y018508D01*
X025248Y018667D02*
X023192Y018667D01*
X023077Y018825D02*
X025407Y018825D01*
X025565Y018984D02*
X020841Y018984D01*
X020683Y019142D02*
X025724Y019142D01*
X025882Y019301D02*
X020487Y019301D01*
X021000Y018825D02*
X022463Y018825D01*
X023196Y018350D02*
X024931Y018350D01*
X024773Y018191D02*
X023087Y018191D01*
X022232Y018033D02*
X024614Y018033D01*
X024456Y017874D02*
X022232Y017874D01*
X022232Y017715D02*
X024297Y017715D01*
X024138Y017557D02*
X022232Y017557D01*
X022232Y017398D02*
X023980Y017398D01*
X023892Y017240D02*
X022232Y017240D01*
X022232Y017081D02*
X023892Y017081D01*
X023892Y016923D02*
X023124Y016923D01*
X023283Y016764D02*
X023892Y016764D01*
X023892Y016606D02*
X023441Y016606D01*
X023600Y016447D02*
X023892Y016447D01*
X023892Y016289D02*
X023716Y016289D01*
X023732Y016130D02*
X023892Y016130D01*
X023892Y015971D02*
X023732Y015971D01*
X023732Y015813D02*
X023892Y015813D01*
X023892Y015654D02*
X023732Y015654D01*
X023732Y015496D02*
X023892Y015496D01*
X023892Y015337D02*
X023732Y015337D01*
X023732Y015179D02*
X023892Y015179D01*
X023892Y015020D02*
X023732Y015020D01*
X023732Y014862D02*
X023892Y014862D01*
X023892Y014703D02*
X023732Y014703D01*
X023732Y014545D02*
X023892Y014545D01*
X023892Y014386D02*
X023732Y014386D01*
X023732Y014228D02*
X023892Y014228D01*
X023892Y014069D02*
X023732Y014069D01*
X023732Y013910D02*
X023892Y013910D01*
X023892Y013752D02*
X023732Y013752D01*
X023732Y013593D02*
X023892Y013593D01*
X023892Y013435D02*
X023732Y013435D01*
X023732Y013276D02*
X023892Y013276D01*
X023892Y013118D02*
X023732Y013118D01*
X023732Y012959D02*
X023892Y012959D01*
X023892Y012801D02*
X023699Y012801D01*
X023892Y012642D02*
X023496Y012642D01*
X023892Y012484D02*
X022461Y012484D01*
X022305Y012484D02*
X021236Y012484D01*
X021236Y012325D02*
X021697Y012325D01*
X021744Y012166D02*
X021185Y012166D01*
X021116Y012008D02*
X021839Y012008D01*
X022017Y011849D02*
X020958Y011849D01*
X020644Y011691D02*
X023892Y011691D01*
X023892Y011849D02*
X022749Y011849D01*
X022927Y012008D02*
X023892Y012008D01*
X023892Y012166D02*
X023022Y012166D01*
X023069Y012325D02*
X023892Y012325D01*
X023892Y011532D02*
X019482Y011532D01*
X019482Y011374D02*
X023892Y011374D01*
X023892Y011215D02*
X019482Y011215D01*
X019482Y011057D02*
X023892Y011057D01*
X023892Y010898D02*
X019482Y010898D01*
X019557Y010740D02*
X023892Y010740D01*
X023892Y010581D02*
X019716Y010581D01*
X019874Y010422D02*
X023892Y010422D01*
X023892Y010264D02*
X019976Y010264D01*
X019982Y010105D02*
X023892Y010105D01*
X023892Y009947D02*
X019982Y009947D01*
X019982Y009788D02*
X023892Y009788D01*
X023892Y009630D02*
X019982Y009630D01*
X019982Y009471D02*
X023892Y009471D01*
X023892Y009313D02*
X019982Y009313D01*
X019982Y009154D02*
X023890Y009154D01*
X023638Y008996D02*
X019982Y008996D01*
X019982Y008837D02*
X023486Y008837D01*
X023420Y008679D02*
X019982Y008679D01*
X019982Y008520D02*
X023360Y008520D01*
X023360Y008361D02*
X019982Y008361D01*
X019982Y008203D02*
X023360Y008203D01*
X023423Y008044D02*
X022776Y008044D01*
X022740Y008065D02*
X022656Y008100D01*
X022568Y008124D01*
X022510Y008131D01*
X022510Y007518D01*
X023123Y007518D01*
X023115Y007576D01*
X023092Y007664D01*
X023057Y007749D01*
X023011Y007827D01*
X022956Y007900D01*
X022891Y007964D01*
X022819Y008020D01*
X022740Y008065D01*
X022510Y008044D02*
X022355Y008044D01*
X022355Y008131D02*
X022296Y008124D01*
X022208Y008100D01*
X022124Y008065D01*
X022045Y008020D01*
X021973Y007964D01*
X021909Y007900D01*
X021853Y007827D01*
X021808Y007749D01*
X021773Y007664D01*
X021749Y007576D01*
X021741Y007518D01*
X022354Y007518D01*
X022354Y007363D01*
X021741Y007363D01*
X021749Y007305D01*
X021773Y007217D01*
X021808Y007132D01*
X021853Y007054D01*
X021909Y006981D01*
X021973Y006917D01*
X022045Y006861D01*
X022124Y006816D01*
X022208Y006781D01*
X022296Y006757D01*
X022355Y006750D01*
X022355Y007363D01*
X022510Y007363D01*
X022510Y007518D01*
X022355Y007518D01*
X022355Y008131D01*
X022355Y007886D02*
X022510Y007886D01*
X022510Y007727D02*
X022355Y007727D01*
X022355Y007569D02*
X022510Y007569D01*
X022510Y007410D02*
X024788Y007410D01*
X024790Y007414D02*
X024741Y007346D01*
X024703Y007271D01*
X024677Y007191D01*
X024664Y007108D01*
X024664Y007084D01*
X025179Y007084D01*
X025179Y007047D01*
X024664Y007047D01*
X024664Y007023D01*
X024677Y006940D01*
X024703Y006860D01*
X024741Y006785D01*
X024790Y006717D01*
X024850Y006658D01*
X024918Y006609D01*
X024993Y006570D01*
X025073Y006544D01*
X025156Y006531D01*
X025179Y006531D01*
X025179Y007047D01*
X025216Y007047D01*
X025216Y006531D01*
X025240Y006531D01*
X025323Y006544D01*
X025403Y006570D01*
X025478Y006609D01*
X025546Y006658D01*
X025605Y006717D01*
X025655Y006785D01*
X025655Y006786D01*
X025678Y006729D01*
X025846Y006562D01*
X026064Y006471D01*
X026300Y006471D01*
X026519Y006562D01*
X026674Y006717D01*
X026830Y006562D01*
X027048Y006471D01*
X027285Y006471D01*
X027503Y006562D01*
X027670Y006729D01*
X027761Y006947D01*
X027761Y007184D01*
X027670Y007402D01*
X027503Y007569D01*
X027285Y007660D01*
X027048Y007660D01*
X026830Y007569D01*
X026674Y007414D01*
X026519Y007569D01*
X026300Y007660D01*
X026064Y007660D01*
X025846Y007569D01*
X025678Y007402D01*
X025655Y007346D01*
X025605Y007414D01*
X025546Y007473D01*
X025478Y007523D01*
X025403Y007561D01*
X025323Y007587D01*
X025240Y007600D01*
X025216Y007600D01*
X025216Y007084D01*
X025179Y007084D01*
X025179Y007600D01*
X025156Y007600D01*
X025073Y007587D01*
X024993Y007561D01*
X024918Y007523D01*
X024850Y007473D01*
X024790Y007414D01*
X024697Y007252D02*
X023101Y007252D01*
X023092Y007217D02*
X023115Y007305D01*
X023123Y007363D01*
X022510Y007363D01*
X022510Y006750D01*
X022568Y006757D01*
X022656Y006781D01*
X022740Y006816D01*
X022819Y006861D01*
X022891Y006917D01*
X022956Y006981D01*
X023011Y007054D01*
X023057Y007132D01*
X023092Y007217D01*
X023034Y007093D02*
X024664Y007093D01*
X024679Y006935D02*
X022909Y006935D01*
X022637Y006776D02*
X024748Y006776D01*
X024906Y006617D02*
X019982Y006617D01*
X019982Y006459D02*
X028142Y006459D01*
X028142Y006617D02*
X027559Y006617D01*
X027690Y006776D02*
X028142Y006776D01*
X028142Y006935D02*
X027755Y006935D01*
X027761Y007093D02*
X028142Y007093D01*
X028142Y007252D02*
X027733Y007252D01*
X027662Y007410D02*
X028142Y007410D01*
X027843Y007569D02*
X027504Y007569D01*
X027581Y007727D02*
X024783Y007727D01*
X024939Y007886D02*
X027425Y007886D01*
X027360Y008044D02*
X025005Y008044D01*
X025067Y008203D02*
X027297Y008203D01*
X027297Y008361D02*
X025067Y008361D01*
X025067Y008520D02*
X027297Y008520D01*
X026829Y007569D02*
X026520Y007569D01*
X025845Y007569D02*
X025378Y007569D01*
X025216Y007569D02*
X025179Y007569D01*
X025179Y007410D02*
X025216Y007410D01*
X025216Y007252D02*
X025179Y007252D01*
X025179Y007093D02*
X025216Y007093D01*
X025216Y006935D02*
X025179Y006935D01*
X025179Y006776D02*
X025216Y006776D01*
X025216Y006617D02*
X025179Y006617D01*
X025490Y006617D02*
X025790Y006617D01*
X025659Y006776D02*
X025648Y006776D01*
X025655Y007346D02*
X025655Y007346D01*
X025686Y007410D02*
X025608Y007410D01*
X025017Y007569D02*
X024522Y007569D01*
X023906Y007569D02*
X023116Y007569D01*
X023066Y007727D02*
X023644Y007727D01*
X023488Y007886D02*
X022966Y007886D01*
X022354Y007410D02*
X020510Y007410D01*
X020510Y007363D02*
X021123Y007363D01*
X021115Y007305D01*
X021092Y007217D01*
X021057Y007132D01*
X021011Y007054D01*
X020956Y006981D01*
X020891Y006917D01*
X020819Y006861D01*
X020740Y006816D01*
X020656Y006781D01*
X020568Y006757D01*
X020510Y006750D01*
X020510Y007363D01*
X020510Y007252D02*
X020355Y007252D01*
X020355Y007093D02*
X020510Y007093D01*
X020510Y006935D02*
X020355Y006935D01*
X020355Y006776D02*
X020510Y006776D01*
X020637Y006776D02*
X022227Y006776D01*
X022355Y006776D02*
X022510Y006776D01*
X022510Y006935D02*
X022355Y006935D01*
X022355Y007093D02*
X022510Y007093D01*
X022510Y007252D02*
X022355Y007252D01*
X021955Y006935D02*
X020909Y006935D01*
X021034Y007093D02*
X021830Y007093D01*
X021763Y007252D02*
X021101Y007252D01*
X021116Y007569D02*
X021748Y007569D01*
X021799Y007727D02*
X021066Y007727D01*
X020966Y007886D02*
X021898Y007886D01*
X022088Y008044D02*
X020776Y008044D01*
X020510Y008044D02*
X020355Y008044D01*
X020355Y007886D02*
X020510Y007886D01*
X020510Y007727D02*
X020355Y007727D01*
X020355Y007569D02*
X020510Y007569D01*
X020088Y008044D02*
X019982Y008044D01*
X019982Y006776D02*
X020227Y006776D01*
X019982Y006300D02*
X028142Y006300D01*
X028142Y006142D02*
X019982Y006142D01*
X019982Y005983D02*
X028142Y005983D01*
X028142Y005825D02*
X019982Y005825D01*
X019982Y005666D02*
X028142Y005666D01*
X028142Y005508D02*
X019982Y005508D01*
X020319Y011691D02*
X019482Y011691D01*
X019482Y011849D02*
X020005Y011849D01*
X019846Y012008D02*
X019482Y012008D01*
X019482Y012166D02*
X019778Y012166D01*
X019726Y012325D02*
X019482Y012325D01*
X019482Y012484D02*
X019726Y012484D01*
X022305Y012325D02*
X022460Y012325D01*
X022460Y012166D02*
X022305Y012166D01*
X022305Y012008D02*
X022460Y012008D01*
X022460Y011849D02*
X022305Y011849D01*
X020182Y016566D02*
X018120Y016566D01*
X017682Y016128D01*
X017682Y015798D01*
X017775Y015536D01*
X017682Y015503D01*
X017589Y015536D01*
X017682Y015798D01*
X017682Y015503D01*
X017146Y015961D02*
X017057Y016003D01*
X017015Y016092D01*
X017266Y016212D01*
X017146Y015961D01*
X017057Y016003D02*
X017932Y016878D01*
X019932Y016878D01*
X020223Y017169D01*
X020343Y017420D01*
X020432Y017378D01*
X020475Y017289D01*
X020223Y017169D01*
X020432Y017378D01*
X020161Y017669D02*
X020281Y017920D01*
X020370Y017878D01*
X020412Y017789D01*
X020161Y017669D01*
X020370Y017878D01*
X020161Y017669D02*
X019682Y017191D01*
X017620Y017191D01*
X015266Y014837D01*
X015146Y014586D01*
X015057Y014628D01*
X015015Y014717D01*
X015266Y014837D01*
X015057Y014628D01*
X014932Y015003D02*
X014620Y015003D01*
X014391Y014774D01*
X014271Y014523D01*
X014182Y014566D01*
X014140Y014654D01*
X014391Y014774D01*
X014182Y014566D01*
X014932Y015003D02*
X017432Y017503D01*
X019307Y017503D01*
X019495Y017691D01*
X019495Y018378D01*
X019536Y018419D01*
X019656Y018670D01*
X019745Y018628D01*
X019787Y018539D01*
X019536Y018419D01*
X019745Y018628D01*
X019899Y018221D02*
X019932Y018128D01*
X020016Y018077D01*
X020160Y018316D01*
X019899Y018221D01*
X019932Y018128D02*
X020120Y018316D01*
X020160Y018316D01*
X020495Y018316D01*
X020807Y018003D01*
X020807Y017191D01*
X020182Y016566D01*
X018864Y018825D02*
X016000Y018825D01*
X015841Y018984D02*
X019023Y018984D01*
X019181Y019142D02*
X015683Y019142D01*
X015524Y019301D02*
X019378Y019301D01*
X017464Y021203D02*
X023146Y021203D01*
X024432Y022566D02*
X024432Y023503D01*
X024745Y023816D01*
X024984Y024374D02*
X029302Y024374D01*
X029143Y024533D02*
X025159Y024533D01*
X025317Y024691D02*
X028985Y024691D01*
X028826Y024850D02*
X025476Y024850D01*
X025634Y025008D02*
X028668Y025008D01*
X028509Y025167D02*
X025793Y025167D01*
X025951Y025326D02*
X028351Y025326D01*
X028192Y025484D02*
X026110Y025484D01*
X026268Y025643D02*
X028033Y025643D01*
X027875Y025801D02*
X026427Y025801D01*
X026585Y025960D02*
X027716Y025960D01*
X027558Y026118D02*
X026744Y026118D01*
X026903Y026277D02*
X027399Y026277D01*
X027241Y026435D02*
X027061Y026435D01*
X027120Y027066D02*
X024745Y029440D01*
X024745Y031128D01*
X024745Y031333D01*
X024652Y031595D01*
X024745Y031628D01*
X024838Y031595D01*
X024745Y031333D01*
X024745Y031628D01*
X025159Y031826D02*
X030157Y031826D01*
X030085Y031699D02*
X029864Y031791D01*
X029625Y031791D01*
X029405Y031699D01*
X029245Y031539D01*
X029085Y031699D01*
X028864Y031791D01*
X028625Y031791D01*
X028405Y031699D01*
X028245Y031539D01*
X028085Y031699D01*
X027864Y031791D01*
X027625Y031791D01*
X027405Y031699D01*
X027245Y031539D01*
X027085Y031699D01*
X026864Y031791D01*
X026625Y031791D01*
X026405Y031699D01*
X026245Y031539D01*
X026085Y031699D01*
X025864Y031791D01*
X025625Y031791D01*
X025405Y031699D01*
X025236Y031530D01*
X025145Y031310D01*
X025145Y031071D01*
X025236Y030851D01*
X025396Y030691D01*
X025236Y030530D01*
X025145Y030310D01*
X025145Y030071D01*
X025236Y029851D01*
X025405Y029682D01*
X025625Y029591D01*
X025864Y029591D01*
X026085Y029682D01*
X026245Y029842D01*
X026405Y029682D01*
X026625Y029591D01*
X026864Y029591D01*
X027085Y029682D01*
X027245Y029842D01*
X027405Y029682D01*
X027625Y029591D01*
X027864Y029591D01*
X028085Y029682D01*
X028245Y029842D01*
X028405Y029682D01*
X028625Y029591D01*
X028864Y029591D01*
X029085Y029682D01*
X029253Y029851D01*
X029280Y029914D01*
X029283Y029908D01*
X029333Y029839D01*
X029393Y029779D01*
X029462Y029729D01*
X029537Y029690D01*
X029618Y029664D01*
X029702Y029651D01*
X029725Y029651D01*
X029725Y030170D01*
X029765Y030170D01*
X029765Y029651D01*
X029787Y029651D01*
X029871Y029664D01*
X029952Y029690D01*
X030028Y029729D01*
X030097Y029779D01*
X030157Y029839D01*
X030207Y029908D01*
X030245Y029983D01*
X030271Y030064D01*
X030285Y030148D01*
X030285Y030171D01*
X029765Y030171D01*
X029765Y030211D01*
X030285Y030211D01*
X030285Y030233D01*
X030271Y030317D01*
X030245Y030398D01*
X030207Y030474D01*
X030157Y030542D01*
X030097Y030602D01*
X030028Y030652D01*
X030021Y030656D01*
X030085Y030682D01*
X030253Y030851D01*
X030345Y031071D01*
X030345Y031310D01*
X030253Y031530D01*
X030085Y031699D01*
X030117Y031667D02*
X030315Y031667D01*
X030262Y031509D02*
X030474Y031509D01*
X030612Y031370D02*
X030612Y031127D01*
X030511Y030874D01*
X030487Y030817D01*
X030487Y030815D01*
X030486Y030813D01*
X030487Y030751D01*
X030487Y030689D01*
X030488Y030688D01*
X030488Y030686D01*
X030512Y030630D01*
X030536Y030572D01*
X030537Y030570D01*
X030538Y030569D01*
X030568Y030540D01*
X030577Y030516D01*
X030695Y030398D01*
X030849Y030335D01*
X031015Y030335D01*
X031169Y030398D01*
X031287Y030516D01*
X031297Y030540D01*
X031326Y030569D01*
X031327Y030570D01*
X031328Y030572D01*
X031352Y030630D01*
X031376Y030686D01*
X031376Y030688D01*
X031377Y030689D01*
X031377Y030751D01*
X031378Y030813D01*
X031377Y030815D01*
X031377Y030817D01*
X031353Y030874D01*
X031252Y031127D01*
X031252Y031439D01*
X031252Y031567D01*
X031203Y031684D01*
X030127Y032761D01*
X030127Y034528D01*
X030195Y034719D01*
X030198Y034729D01*
X030226Y034795D01*
X030226Y034961D01*
X030162Y035115D01*
X030044Y035233D01*
X029890Y035296D01*
X029724Y035296D01*
X029570Y035233D01*
X029452Y035115D01*
X029389Y034961D01*
X029389Y034795D01*
X029416Y034729D01*
X029487Y034528D01*
X029487Y032564D01*
X029536Y032447D01*
X029626Y032357D01*
X030612Y031370D01*
X030612Y031350D02*
X030328Y031350D01*
X030345Y031192D02*
X030612Y031192D01*
X030575Y031033D02*
X030329Y031033D01*
X030263Y030875D02*
X030511Y030875D01*
X030487Y030716D02*
X030119Y030716D01*
X030141Y030557D02*
X030549Y030557D01*
X030695Y030399D02*
X030245Y030399D01*
X030284Y030240D02*
X031332Y030240D01*
X031332Y030082D02*
X030274Y030082D01*
X030215Y029923D02*
X031393Y029923D01*
X031509Y029765D02*
X030077Y029765D01*
X029765Y029765D02*
X029725Y029765D01*
X029725Y029923D02*
X029765Y029923D01*
X029765Y030082D02*
X029725Y030082D01*
X029412Y029765D02*
X029167Y029765D01*
X028902Y029606D02*
X031775Y029606D01*
X032089Y029606D02*
X033237Y029606D01*
X033237Y029448D02*
X025247Y029448D01*
X025105Y029606D02*
X025588Y029606D01*
X025322Y029765D02*
X025105Y029765D01*
X025105Y029923D02*
X025206Y029923D01*
X025145Y030082D02*
X025105Y030082D01*
X025105Y030240D02*
X025145Y030240D01*
X025105Y030399D02*
X025182Y030399D01*
X025105Y030557D02*
X025263Y030557D01*
X025371Y030716D02*
X025105Y030716D01*
X025105Y030875D02*
X025226Y030875D01*
X025161Y031033D02*
X025105Y031033D01*
X025105Y031192D02*
X025145Y031192D01*
X025133Y031350D02*
X025161Y031350D01*
X025191Y031509D02*
X025227Y031509D01*
X025203Y031667D02*
X025373Y031667D01*
X026117Y031667D02*
X026373Y031667D01*
X026235Y031984D02*
X029998Y031984D01*
X029840Y032143D02*
X026394Y032143D01*
X026552Y032301D02*
X029681Y032301D01*
X029530Y032460D02*
X026711Y032460D01*
X026869Y032619D02*
X029487Y032619D01*
X029487Y032777D02*
X027028Y032777D01*
X027186Y032936D02*
X029487Y032936D01*
X029487Y033094D02*
X027345Y033094D01*
X027503Y033253D02*
X029487Y033253D01*
X029487Y033411D02*
X027662Y033411D01*
X027821Y033570D02*
X029487Y033570D01*
X029487Y033728D02*
X027979Y033728D01*
X028138Y033887D02*
X029487Y033887D01*
X029487Y034045D02*
X028296Y034045D01*
X028455Y034204D02*
X029487Y034204D01*
X029487Y034363D02*
X028613Y034363D01*
X028772Y034521D02*
X029487Y034521D01*
X029434Y034680D02*
X028930Y034680D01*
X029089Y034838D02*
X029389Y034838D01*
X029403Y034997D02*
X029247Y034997D01*
X029406Y035155D02*
X029493Y035155D01*
X029565Y035314D02*
X031162Y035314D01*
X031086Y035472D02*
X029723Y035472D01*
X030125Y035631D02*
X031048Y035631D01*
X031048Y035789D02*
X030290Y035789D01*
X030449Y035948D02*
X031102Y035948D01*
X031201Y036106D02*
X030607Y036106D01*
X030766Y036265D02*
X031267Y036265D01*
X031149Y036424D02*
X030924Y036424D01*
X031083Y036582D02*
X031088Y036582D01*
X031682Y036691D02*
X031835Y036463D01*
X032174Y036691D01*
X031835Y036918D01*
X031682Y036691D01*
X032174Y036691D01*
X032682Y036691D01*
X033557Y035816D01*
X033557Y028253D01*
X031620Y026316D01*
X031620Y023003D01*
X031120Y022503D01*
X029932Y022503D01*
X029891Y022544D01*
X029640Y022664D01*
X029682Y022753D01*
X029771Y022795D01*
X029891Y022544D01*
X029682Y022753D01*
X030065Y022923D02*
X030042Y022978D01*
X030112Y023049D01*
X030527Y023464D01*
X030542Y023420D01*
X030580Y023344D01*
X030630Y023275D01*
X030690Y023215D01*
X030759Y023165D01*
X030835Y023127D01*
X030916Y023100D01*
X031000Y023087D01*
X031022Y023087D01*
X031022Y023607D01*
X031062Y023607D01*
X031062Y023087D01*
X031085Y023087D01*
X031169Y023100D01*
X031249Y023127D01*
X031300Y023152D01*
X031300Y023136D01*
X030987Y022823D01*
X030112Y022823D01*
X030065Y022923D01*
X030055Y022947D02*
X031111Y022947D01*
X031062Y023106D02*
X031022Y023106D01*
X030899Y023106D02*
X030169Y023106D01*
X030328Y023264D02*
X030641Y023264D01*
X030541Y023423D02*
X030486Y023423D01*
X031022Y023423D02*
X031062Y023423D01*
X031062Y023264D02*
X031022Y023264D01*
X031186Y023106D02*
X031270Y023106D01*
X031062Y023582D02*
X031022Y023582D01*
X031022Y023740D02*
X031062Y023740D01*
X031062Y023899D02*
X031022Y023899D01*
X031022Y024057D02*
X031062Y024057D01*
X030891Y024216D02*
X031300Y024216D01*
X031300Y024374D02*
X030878Y024374D01*
X030801Y024533D02*
X031300Y024533D01*
X031300Y024691D02*
X030572Y024691D01*
X031022Y025801D02*
X031062Y025801D01*
X031062Y025960D02*
X031022Y025960D01*
X031022Y026118D02*
X031062Y026118D01*
X031062Y026277D02*
X031022Y026277D01*
X031022Y026435D02*
X031062Y026435D01*
X031062Y026594D02*
X031022Y026594D01*
X031399Y026594D02*
X031446Y026594D01*
X031438Y026587D02*
X031438Y026587D01*
X031604Y026752D02*
X030431Y026752D01*
X030608Y026911D02*
X031763Y026911D01*
X031921Y027070D02*
X030663Y027070D01*
X030656Y027228D02*
X032080Y027228D01*
X033025Y026752D02*
X033925Y026752D01*
X033925Y026594D02*
X033264Y026594D01*
X033369Y026435D02*
X033925Y026435D01*
X033925Y026277D02*
X033422Y026277D01*
X033422Y026118D02*
X033925Y026118D01*
X033925Y025960D02*
X033377Y025960D01*
X033285Y025801D02*
X033925Y025801D01*
X033925Y025643D02*
X033076Y025643D01*
X034877Y025643D02*
X035132Y025643D01*
X035132Y025801D02*
X034877Y025801D01*
X034877Y025960D02*
X035132Y025960D01*
X035132Y026118D02*
X034877Y026118D01*
X034877Y026277D02*
X035132Y026277D01*
X035132Y026435D02*
X034877Y026435D01*
X034877Y026594D02*
X035132Y026594D01*
X035132Y026752D02*
X034877Y026752D01*
X034877Y026911D02*
X035132Y026911D01*
X035132Y027070D02*
X034877Y027070D01*
X034877Y027228D02*
X035132Y027228D01*
X035132Y027387D02*
X034877Y027387D01*
X034877Y027545D02*
X035132Y027545D01*
X035132Y027704D02*
X034877Y027704D01*
X034877Y027862D02*
X035132Y027862D01*
X035132Y028021D02*
X034877Y028021D01*
X034877Y028179D02*
X035132Y028179D01*
X035132Y028338D02*
X034877Y028338D01*
X034877Y028496D02*
X035132Y028496D01*
X035132Y028655D02*
X034877Y028655D01*
X034877Y028814D02*
X035132Y028814D01*
X035132Y028972D02*
X034877Y028972D01*
X034877Y029131D02*
X035132Y029131D01*
X035132Y029289D02*
X034877Y029289D01*
X034877Y029448D02*
X035132Y029448D01*
X035132Y029606D02*
X034877Y029606D01*
X034877Y029765D02*
X035132Y029765D01*
X035132Y029923D02*
X034877Y029923D01*
X034877Y030082D02*
X035132Y030082D01*
X035132Y030240D02*
X034877Y030240D01*
X034877Y030399D02*
X035132Y030399D01*
X035132Y030557D02*
X034877Y030557D01*
X034877Y030716D02*
X035132Y030716D01*
X035132Y030875D02*
X034877Y030875D01*
X034877Y031033D02*
X035132Y031033D01*
X035132Y031192D02*
X034877Y031192D01*
X034877Y031350D02*
X035132Y031350D01*
X035132Y031509D02*
X034877Y031509D01*
X034877Y031667D02*
X035132Y031667D01*
X035132Y031826D02*
X034877Y031826D01*
X034877Y031984D02*
X035132Y031984D01*
X035132Y032143D02*
X034877Y032143D01*
X034877Y032301D02*
X035132Y032301D01*
X035132Y032460D02*
X034877Y032460D01*
X034877Y032619D02*
X035132Y032619D01*
X035132Y032777D02*
X034877Y032777D01*
X034877Y032936D02*
X035132Y032936D01*
X035132Y033094D02*
X034877Y033094D01*
X034877Y033253D02*
X035132Y033253D01*
X035132Y033411D02*
X034877Y033411D01*
X034877Y033570D02*
X035132Y033570D01*
X035132Y033728D02*
X034877Y033728D01*
X034877Y033887D02*
X035132Y033887D01*
X035132Y034045D02*
X034877Y034045D01*
X034877Y034204D02*
X035132Y034204D01*
X035132Y034363D02*
X034877Y034363D01*
X034877Y034521D02*
X035132Y034521D01*
X035132Y034680D02*
X034877Y034680D01*
X034877Y034838D02*
X035132Y034838D01*
X035132Y034997D02*
X034877Y034997D01*
X034877Y035155D02*
X035132Y035155D01*
X035132Y035314D02*
X034877Y035314D01*
X034877Y035472D02*
X035132Y035472D01*
X035132Y035631D02*
X034877Y035631D01*
X034877Y035789D02*
X035132Y035789D01*
X035132Y035948D02*
X034877Y035948D01*
X034877Y036106D02*
X035132Y036106D01*
X035132Y036265D02*
X034877Y036265D01*
X034877Y036424D02*
X035132Y036424D01*
X035132Y036582D02*
X034877Y036582D01*
X034877Y036741D02*
X035132Y036741D01*
X035132Y036899D02*
X034877Y036899D01*
X034877Y037058D02*
X035132Y037058D01*
X035132Y037216D02*
X034877Y037216D01*
X034877Y037375D02*
X035132Y037375D01*
X035132Y037533D02*
X034877Y037533D01*
X034877Y037692D02*
X035132Y037692D01*
X035132Y037850D02*
X034877Y037850D01*
X034816Y038009D02*
X035132Y038009D01*
X035132Y038168D02*
X034658Y038168D01*
X034499Y038326D02*
X035132Y038326D01*
X035132Y038485D02*
X034341Y038485D01*
X034182Y038643D02*
X035132Y038643D01*
X035132Y038802D02*
X034024Y038802D01*
X033865Y038960D02*
X035132Y038960D01*
X035132Y039119D02*
X033706Y039119D01*
X035132Y039277D02*
X032022Y039277D01*
X032152Y039436D02*
X035132Y039436D01*
X035132Y039594D02*
X032208Y039594D01*
X032213Y039753D02*
X035132Y039753D01*
X035132Y039912D02*
X032169Y039912D01*
X032058Y040070D02*
X035132Y040070D01*
X035132Y040229D02*
X024805Y040229D01*
X024795Y040221D02*
X024854Y040264D01*
X024906Y040316D01*
X024949Y040375D01*
X024982Y040440D01*
X025004Y040509D01*
X025016Y040581D01*
X025016Y040617D01*
X024553Y040617D01*
X024553Y040618D01*
X025016Y040618D01*
X025016Y040654D01*
X025004Y040726D01*
X024982Y040796D01*
X024949Y040861D01*
X024906Y040920D01*
X024854Y040971D01*
X024795Y041014D01*
X024730Y041047D01*
X024661Y041070D01*
X024589Y041081D01*
X024552Y041081D01*
X024516Y041081D01*
X024444Y041070D01*
X024374Y041047D01*
X024309Y041014D01*
X024250Y040971D01*
X024199Y040920D01*
X024156Y040861D01*
X024123Y040796D01*
X024100Y040726D01*
X024089Y040654D01*
X024089Y040618D01*
X024552Y040618D01*
X024552Y041081D01*
X024552Y040618D01*
X024552Y040618D01*
X024552Y040617D01*
X024552Y040617D01*
X024552Y040154D01*
X024516Y040154D01*
X024444Y040166D01*
X024374Y040188D01*
X024309Y040221D01*
X024250Y040264D01*
X024199Y040316D01*
X024156Y040375D01*
X024123Y040440D01*
X024100Y040509D01*
X024089Y040581D01*
X024089Y040617D01*
X024552Y040617D01*
X024552Y040154D01*
X024589Y040154D01*
X024661Y040166D01*
X024730Y040188D01*
X024795Y040221D01*
X024955Y040387D02*
X035132Y040387D01*
X035132Y040546D02*
X025010Y040546D01*
X025008Y040704D02*
X035132Y040704D01*
X035132Y040863D02*
X024947Y040863D01*
X024781Y041021D02*
X035132Y041021D01*
X035031Y041180D02*
X017124Y041180D01*
X017163Y041021D02*
X017216Y041021D01*
X017001Y041338D02*
X034872Y041338D01*
X031701Y040070D02*
X031664Y040070D01*
X031664Y039912D02*
X031701Y039912D01*
X031701Y039753D02*
X031664Y039753D01*
X031306Y040070D02*
X021518Y040070D01*
X021334Y039947D02*
X021334Y039947D01*
X021299Y039912D02*
X031195Y039912D01*
X031128Y038009D02*
X030703Y038009D01*
X030545Y037850D02*
X031062Y037850D01*
X031036Y037692D02*
X030386Y037692D01*
X030228Y037533D02*
X031005Y037533D01*
X030857Y037375D02*
X030006Y037375D01*
X030382Y036899D02*
X029252Y036899D01*
X029252Y036741D02*
X030223Y036741D01*
X030065Y036582D02*
X029234Y036582D01*
X029118Y036424D02*
X029906Y036424D01*
X029525Y036265D02*
X028959Y036265D01*
X028801Y036106D02*
X029339Y036106D01*
X029181Y035948D02*
X028642Y035948D01*
X028484Y035789D02*
X029022Y035789D01*
X028863Y035631D02*
X028325Y035631D01*
X028167Y035472D02*
X028705Y035472D01*
X028546Y035314D02*
X028008Y035314D01*
X027830Y035155D02*
X028388Y035155D01*
X029714Y034845D02*
X029807Y034583D01*
X029807Y032628D01*
X030932Y031503D01*
X030932Y031066D01*
X030807Y030753D01*
X030932Y030753D01*
X031057Y030753D01*
X030932Y031066D01*
X030932Y030753D01*
X031170Y030399D02*
X031369Y030399D01*
X031315Y030557D02*
X031451Y030557D01*
X031377Y030716D02*
X031558Y030716D01*
X031414Y030875D02*
X031353Y030875D01*
X031348Y031033D02*
X031290Y031033D01*
X031252Y031192D02*
X031332Y031192D01*
X031349Y031350D02*
X031252Y031350D01*
X031252Y031509D02*
X031415Y031509D01*
X031560Y031667D02*
X031211Y031667D01*
X031062Y031826D02*
X031448Y031826D01*
X031368Y031984D02*
X030903Y031984D01*
X030745Y032143D02*
X031332Y032143D01*
X031332Y032301D02*
X030586Y032301D01*
X030428Y032460D02*
X031394Y032460D01*
X031512Y032619D02*
X030269Y032619D01*
X030127Y032777D02*
X031497Y032777D01*
X031388Y032936D02*
X030127Y032936D01*
X030127Y033094D02*
X031332Y033094D01*
X031332Y033253D02*
X030127Y033253D01*
X030127Y033411D02*
X031374Y033411D01*
X031463Y033570D02*
X030127Y033570D01*
X030127Y033728D02*
X031546Y033728D01*
X031409Y033887D02*
X030127Y033887D01*
X030127Y034045D02*
X031343Y034045D01*
X031332Y034204D02*
X030127Y034204D01*
X030127Y034363D02*
X031354Y034363D01*
X031420Y034521D02*
X030127Y034521D01*
X030181Y034680D02*
X031573Y034680D01*
X031320Y035155D02*
X030122Y035155D01*
X030211Y034997D02*
X033237Y034997D01*
X033237Y035155D02*
X032044Y035155D01*
X032202Y035314D02*
X033237Y035314D01*
X033237Y035472D02*
X032278Y035472D01*
X032316Y035631D02*
X033237Y035631D01*
X033131Y035789D02*
X032316Y035789D01*
X032262Y035948D02*
X032972Y035948D01*
X032814Y036106D02*
X032163Y036106D01*
X032066Y036233D02*
X032066Y036233D01*
X032115Y036265D02*
X032655Y036265D01*
X033237Y034838D02*
X030226Y034838D01*
X029900Y034845D02*
X029807Y034878D01*
X029714Y034845D01*
X029807Y034878D02*
X029807Y034583D01*
X029900Y034845D01*
X030540Y037058D02*
X029252Y037058D01*
X029297Y037216D02*
X030699Y037216D01*
X029957Y038168D02*
X029253Y038168D01*
X028452Y037375D02*
X028326Y037375D01*
X027761Y037216D02*
X027256Y037216D01*
X027412Y037375D02*
X027539Y037375D01*
X027541Y038009D02*
X027411Y038009D01*
X024552Y040229D02*
X024552Y040229D01*
X024552Y040387D02*
X024552Y040387D01*
X024552Y040546D02*
X024552Y040546D01*
X024552Y040704D02*
X024552Y040704D01*
X024552Y040863D02*
X024552Y040863D01*
X024552Y041021D02*
X024552Y041021D01*
X024324Y041021D02*
X023889Y041021D01*
X024017Y040863D02*
X024158Y040863D01*
X024097Y040704D02*
X024076Y040704D01*
X024076Y040546D02*
X024094Y040546D01*
X024150Y040387D02*
X024023Y040387D01*
X023903Y040229D02*
X024299Y040229D01*
X023201Y040229D02*
X022903Y040229D01*
X023023Y040387D02*
X023081Y040387D01*
X023087Y040863D02*
X023017Y040863D01*
X022889Y041021D02*
X023216Y041021D01*
X020216Y041021D02*
X019889Y041021D01*
X020017Y040863D02*
X020087Y040863D01*
X019216Y041021D02*
X018889Y041021D01*
X019017Y040863D02*
X019087Y040863D01*
X017870Y039066D02*
X017557Y039066D01*
X017454Y038962D01*
X017334Y038711D01*
X017245Y038753D01*
X017202Y038842D01*
X017454Y038962D01*
X017245Y038753D01*
X016921Y038485D02*
X012855Y038485D01*
X012954Y038326D02*
X017201Y038326D01*
X017254Y038168D02*
X012976Y038168D01*
X012935Y038009D02*
X017417Y038009D01*
X016837Y038643D02*
X006972Y038643D01*
X006972Y038802D02*
X016826Y038802D01*
X016878Y038960D02*
X006972Y038960D01*
X006972Y039119D02*
X017034Y039119D01*
X017316Y039277D02*
X006972Y039277D01*
X006972Y035631D02*
X009611Y035631D01*
X009392Y035472D02*
X006972Y035472D01*
X006972Y035314D02*
X009307Y035314D01*
X009279Y035155D02*
X006972Y035155D01*
X006972Y034997D02*
X009295Y034997D01*
X009363Y034838D02*
X006972Y034838D01*
X006972Y034680D02*
X009540Y034680D01*
X010075Y034521D02*
X006972Y034521D01*
X006972Y034363D02*
X010025Y034363D01*
X010014Y034204D02*
X006972Y034204D01*
X006972Y034045D02*
X010065Y034045D01*
X010223Y033887D02*
X006972Y033887D01*
X006972Y033728D02*
X009605Y033728D01*
X009508Y033688D02*
X009702Y033769D01*
X009912Y033769D01*
X010106Y033688D01*
X010255Y033540D01*
X010335Y033346D01*
X010335Y033136D01*
X010255Y032941D01*
X010106Y032793D01*
X009912Y032713D01*
X009702Y032713D01*
X009508Y032793D01*
X009360Y032941D01*
X009279Y033136D01*
X009279Y033346D01*
X009360Y033540D01*
X009508Y033688D01*
X009390Y033570D02*
X006972Y033570D01*
X006972Y033411D02*
X009306Y033411D01*
X009279Y033253D02*
X006972Y033253D01*
X006972Y033094D02*
X009296Y033094D01*
X009365Y032936D02*
X006972Y032936D01*
X006972Y032777D02*
X009546Y032777D01*
X010068Y032777D02*
X011529Y032777D01*
X011598Y032846D02*
X011401Y032650D01*
X011295Y032392D01*
X011295Y032114D01*
X011401Y031857D01*
X011598Y031660D01*
X011855Y031553D01*
X012134Y031553D01*
X012391Y031660D01*
X012588Y031857D01*
X012695Y032114D01*
X012695Y032392D01*
X012588Y032650D01*
X012391Y032846D01*
X012134Y032953D01*
X011855Y032953D01*
X011598Y032846D01*
X011813Y032936D02*
X010249Y032936D01*
X010318Y033094D02*
X014369Y033094D01*
X014327Y033053D02*
X014264Y032899D01*
X014264Y032732D01*
X014327Y032579D01*
X014445Y032461D01*
X014570Y032409D01*
X014445Y032358D01*
X014327Y032240D01*
X014264Y032086D01*
X014264Y031920D01*
X014327Y031766D01*
X014445Y031648D01*
X014599Y031585D01*
X014765Y031585D01*
X014919Y031648D01*
X015037Y031766D01*
X015101Y031920D01*
X015101Y032086D01*
X015037Y032240D01*
X014919Y032358D01*
X014795Y032409D01*
X014919Y032461D01*
X015037Y032579D01*
X015101Y032732D01*
X015101Y032899D01*
X015037Y033053D01*
X014919Y033170D01*
X014765Y033234D01*
X014599Y033234D01*
X014445Y033170D01*
X014327Y033053D01*
X014279Y032936D02*
X012176Y032936D01*
X012461Y032777D02*
X014264Y032777D01*
X014311Y032619D02*
X012601Y032619D01*
X012667Y032460D02*
X014447Y032460D01*
X014389Y032301D02*
X012695Y032301D01*
X012695Y032143D02*
X014287Y032143D01*
X014264Y031984D02*
X012641Y031984D01*
X012557Y031826D02*
X014303Y031826D01*
X014426Y031667D02*
X012399Y031667D01*
X012548Y031509D02*
X011602Y031509D01*
X011581Y031560D02*
X011412Y031729D01*
X011192Y031821D01*
X010953Y031821D01*
X010732Y031729D01*
X010564Y031560D01*
X010472Y031340D01*
X010472Y031101D01*
X010564Y030881D01*
X010732Y030712D01*
X010953Y030621D01*
X011192Y030621D01*
X011412Y030712D01*
X011581Y030881D01*
X011672Y031101D01*
X011672Y031340D01*
X011581Y031560D01*
X011591Y031667D02*
X011474Y031667D01*
X011432Y031826D02*
X006972Y031826D01*
X006972Y031984D02*
X011348Y031984D01*
X011295Y032143D02*
X006972Y032143D01*
X006972Y032301D02*
X011295Y032301D01*
X011323Y032460D02*
X006972Y032460D01*
X006972Y032619D02*
X011388Y032619D01*
X010670Y031667D02*
X009694Y031667D01*
X009632Y031729D02*
X009412Y031821D01*
X009173Y031821D01*
X008952Y031729D01*
X008784Y031560D01*
X008692Y031340D01*
X008692Y031101D01*
X008784Y030881D01*
X008952Y030712D01*
X009173Y030621D01*
X009412Y030621D01*
X009632Y030712D01*
X009801Y030881D01*
X009892Y031101D01*
X009892Y031340D01*
X009801Y031560D01*
X009632Y031729D01*
X009822Y031509D02*
X010542Y031509D01*
X010476Y031350D02*
X009888Y031350D01*
X009892Y031192D02*
X010472Y031192D01*
X010500Y031033D02*
X009864Y031033D01*
X009795Y030875D02*
X010570Y030875D01*
X010728Y030716D02*
X009636Y030716D01*
X008948Y030716D02*
X006972Y030716D01*
X006972Y030557D02*
X011597Y030557D01*
X011438Y030399D02*
X006972Y030399D01*
X006972Y030240D02*
X008570Y030240D01*
X008371Y030082D02*
X006972Y030082D01*
X006972Y029923D02*
X008212Y029923D01*
X008054Y029765D02*
X006972Y029765D01*
X006972Y029606D02*
X007895Y029606D01*
X007737Y029448D02*
X006972Y029448D01*
X006972Y029289D02*
X007578Y029289D01*
X007420Y029131D02*
X006972Y029131D01*
X006972Y028972D02*
X007362Y028972D01*
X007362Y028814D02*
X006972Y028814D01*
X006972Y028655D02*
X007362Y028655D01*
X007362Y028496D02*
X006972Y028496D01*
X006972Y028338D02*
X007362Y028338D01*
X007362Y028179D02*
X006972Y028179D01*
X006972Y028021D02*
X007362Y028021D01*
X007362Y027862D02*
X006972Y027862D01*
X006972Y027704D02*
X007362Y027704D01*
X007362Y027545D02*
X006972Y027545D01*
X006972Y027387D02*
X007362Y027387D01*
X007362Y027228D02*
X006972Y027228D01*
X006972Y027070D02*
X007362Y027070D01*
X007362Y026911D02*
X006972Y026911D01*
X006972Y026752D02*
X007362Y026752D01*
X007362Y026594D02*
X006972Y026594D01*
X006972Y026435D02*
X007362Y026435D01*
X007362Y026277D02*
X006972Y026277D01*
X006972Y026118D02*
X007362Y026118D01*
X007362Y025960D02*
X006972Y025960D01*
X006972Y025801D02*
X007362Y025801D01*
X007362Y025643D02*
X006972Y025643D01*
X006972Y025484D02*
X007362Y025484D01*
X007362Y025326D02*
X006972Y025326D01*
X006972Y025167D02*
X007362Y025167D01*
X007362Y025008D02*
X006972Y025008D01*
X006972Y024850D02*
X007362Y024850D01*
X007362Y024691D02*
X006972Y024691D01*
X006972Y024533D02*
X007362Y024533D01*
X007362Y024374D02*
X006972Y024374D01*
X006972Y024216D02*
X007362Y024216D01*
X007362Y024057D02*
X006972Y024057D01*
X006972Y023899D02*
X007362Y023899D01*
X007362Y023740D02*
X006972Y023740D01*
X006972Y023582D02*
X007362Y023582D01*
X007362Y023423D02*
X006972Y023423D01*
X006972Y023264D02*
X007362Y023264D01*
X007362Y023106D02*
X006972Y023106D01*
X006972Y022947D02*
X007362Y022947D01*
X007362Y022789D02*
X006972Y022789D01*
X006972Y022630D02*
X007362Y022630D01*
X007362Y022472D02*
X006972Y022472D01*
X006972Y022313D02*
X007362Y022313D01*
X007362Y022155D02*
X006972Y022155D01*
X006972Y021996D02*
X007362Y021996D01*
X007362Y021838D02*
X006972Y021838D01*
X006972Y021679D02*
X007362Y021679D01*
X007362Y021521D02*
X006972Y021521D01*
X006972Y021362D02*
X007362Y021362D01*
X007362Y021203D02*
X006972Y021203D01*
X006972Y021045D02*
X007362Y021045D01*
X007362Y020886D02*
X006972Y020886D01*
X006972Y020728D02*
X007362Y020728D01*
X007362Y020569D02*
X006972Y020569D01*
X006972Y020411D02*
X007362Y020411D01*
X007362Y020252D02*
X006972Y020252D01*
X006972Y020094D02*
X007362Y020094D01*
X007362Y019935D02*
X006972Y019935D01*
X006972Y019777D02*
X007362Y019777D01*
X007362Y019618D02*
X006972Y019618D01*
X006972Y019459D02*
X007362Y019459D01*
X007362Y019301D02*
X006972Y019301D01*
X006972Y019142D02*
X007362Y019142D01*
X007362Y018984D02*
X006972Y018984D01*
X006972Y018825D02*
X007362Y018825D01*
X007362Y018667D02*
X006972Y018667D01*
X006972Y018508D02*
X007362Y018508D01*
X007362Y018350D02*
X006972Y018350D01*
X006972Y018191D02*
X007362Y018191D01*
X007362Y018033D02*
X006972Y018033D01*
X006972Y017874D02*
X007362Y017874D01*
X007362Y017715D02*
X006972Y017715D01*
X006972Y017557D02*
X007391Y017557D01*
X007501Y017419D02*
X007501Y017419D01*
X007522Y017398D02*
X006972Y017398D01*
X006972Y017240D02*
X007680Y017240D01*
X007839Y017081D02*
X006972Y017081D01*
X006972Y016923D02*
X007997Y016923D01*
X008245Y017128D02*
X010324Y017128D01*
X010587Y017221D01*
X010620Y017128D01*
X010587Y017035D01*
X010324Y017128D01*
X010620Y017128D01*
X010941Y017398D02*
X014382Y017398D01*
X014382Y017240D02*
X011026Y017240D01*
X011038Y017081D02*
X014382Y017081D01*
X014382Y017557D02*
X008268Y017557D01*
X008110Y017715D02*
X014382Y017715D01*
X014382Y017874D02*
X008645Y017874D01*
X008757Y018033D02*
X014382Y018033D01*
X014382Y018191D02*
X011649Y018191D01*
X011607Y018148D02*
X011724Y018266D01*
X011788Y018420D01*
X011788Y018586D01*
X011724Y018740D01*
X011607Y018858D01*
X011453Y018921D01*
X011286Y018921D01*
X011133Y018858D01*
X011015Y018740D01*
X010951Y018586D01*
X010951Y018420D01*
X011015Y018266D01*
X011133Y018148D01*
X011286Y018085D01*
X011453Y018085D01*
X011607Y018148D01*
X011759Y018350D02*
X014423Y018350D01*
X014936Y018984D02*
X008002Y018984D01*
X008002Y019142D02*
X014778Y019142D01*
X014619Y019301D02*
X008002Y019301D01*
X008002Y019459D02*
X008976Y019459D01*
X008886Y019497D02*
X009078Y019417D01*
X009286Y019417D01*
X009479Y019497D01*
X009626Y019644D01*
X009706Y019836D01*
X009706Y020045D01*
X009626Y020237D01*
X009479Y020384D01*
X009286Y020464D01*
X009078Y020464D01*
X008886Y020384D01*
X008738Y020237D01*
X008659Y020045D01*
X008659Y019836D01*
X008738Y019644D01*
X008886Y019497D01*
X008764Y019618D02*
X008002Y019618D01*
X008002Y019777D02*
X008684Y019777D01*
X008659Y019935D02*
X008002Y019935D01*
X008002Y020094D02*
X008679Y020094D01*
X008754Y020252D02*
X008002Y020252D01*
X008002Y020411D02*
X008949Y020411D01*
X009415Y020411D02*
X010949Y020411D01*
X010886Y020384D02*
X011078Y020464D01*
X011286Y020464D01*
X011479Y020384D01*
X011626Y020237D01*
X011706Y020045D01*
X011706Y019836D01*
X011626Y019644D01*
X011479Y019497D01*
X011286Y019417D01*
X011078Y019417D01*
X010886Y019497D01*
X010738Y019644D01*
X010659Y019836D01*
X010659Y020045D01*
X010738Y020237D01*
X010886Y020384D01*
X010754Y020252D02*
X010526Y020252D01*
X010536Y020242D02*
X010484Y020294D01*
X010425Y020337D01*
X010360Y020370D01*
X010291Y020393D01*
X010219Y020404D01*
X010182Y020404D01*
X010146Y020404D01*
X010074Y020393D01*
X010004Y020370D01*
X009939Y020337D01*
X009880Y020294D01*
X009829Y020242D01*
X009786Y020183D01*
X009753Y020118D01*
X009730Y020049D01*
X009719Y019977D01*
X009719Y019941D01*
X010182Y019941D01*
X010182Y020404D01*
X010182Y019941D01*
X010182Y019941D01*
X010182Y019940D01*
X010182Y019940D01*
X010182Y019477D01*
X010146Y019477D01*
X010074Y019489D01*
X010004Y019511D01*
X009939Y019544D01*
X009880Y019587D01*
X009829Y019639D01*
X009786Y019698D01*
X009753Y019763D01*
X009730Y019832D01*
X009719Y019904D01*
X009719Y019940D01*
X010182Y019940D01*
X010182Y019477D01*
X010219Y019477D01*
X010291Y019489D01*
X010360Y019511D01*
X010425Y019544D01*
X010484Y019587D01*
X010536Y019639D01*
X010579Y019698D01*
X010612Y019763D01*
X010634Y019832D01*
X010646Y019904D01*
X010646Y019940D01*
X010183Y019940D01*
X010183Y019941D01*
X010646Y019941D01*
X010646Y019977D01*
X010634Y020049D01*
X010612Y020118D01*
X010579Y020183D01*
X010536Y020242D01*
X010620Y020094D02*
X010679Y020094D01*
X010659Y019935D02*
X010646Y019935D01*
X010616Y019777D02*
X010684Y019777D01*
X010764Y019618D02*
X010515Y019618D01*
X010182Y019618D02*
X010182Y019618D01*
X010182Y019777D02*
X010182Y019777D01*
X010182Y019935D02*
X010182Y019935D01*
X010182Y020094D02*
X010182Y020094D01*
X010182Y020252D02*
X010182Y020252D01*
X009838Y020252D02*
X009611Y020252D01*
X009685Y020094D02*
X009745Y020094D01*
X009719Y019935D02*
X009706Y019935D01*
X009681Y019777D02*
X009748Y019777D01*
X009849Y019618D02*
X009600Y019618D01*
X009389Y019459D02*
X010976Y019459D01*
X011389Y019459D02*
X014461Y019459D01*
X014302Y019618D02*
X011600Y019618D01*
X011681Y019777D02*
X014144Y019777D01*
X013985Y019935D02*
X011706Y019935D01*
X011685Y020094D02*
X013827Y020094D01*
X013668Y020252D02*
X011611Y020252D01*
X011415Y020411D02*
X013509Y020411D01*
X013351Y020569D02*
X008002Y020569D01*
X008002Y020728D02*
X011741Y020728D01*
X011758Y020711D02*
X011911Y020647D01*
X012078Y020647D01*
X012232Y020711D01*
X012349Y020829D01*
X012413Y020982D01*
X012413Y021149D01*
X012349Y021303D01*
X012232Y021420D01*
X012078Y021484D01*
X011911Y021484D01*
X011758Y021420D01*
X011640Y021303D01*
X011576Y021149D01*
X011576Y020982D01*
X011640Y020829D01*
X011758Y020711D01*
X011616Y020886D02*
X008578Y020886D01*
X008736Y021045D02*
X011576Y021045D01*
X011599Y021203D02*
X008788Y021203D01*
X008777Y021362D02*
X011699Y021362D01*
X012290Y021362D02*
X012558Y021362D01*
X012400Y021521D02*
X010889Y021521D01*
X010862Y021507D02*
X010927Y021540D01*
X010987Y021584D01*
X011039Y021636D01*
X011082Y021695D01*
X011116Y021761D01*
X011139Y021831D01*
X011150Y021904D01*
X011150Y021940D01*
X010683Y021940D01*
X010683Y021941D01*
X011150Y021941D01*
X011150Y021977D01*
X011139Y022050D01*
X011116Y022120D01*
X011082Y022186D01*
X011039Y022245D01*
X010987Y022297D01*
X010927Y022341D01*
X010862Y022374D01*
X010792Y022397D01*
X010719Y022409D01*
X010682Y022409D01*
X010645Y022409D01*
X010573Y022397D01*
X010503Y022374D01*
X010437Y022341D01*
X010377Y022297D01*
X010325Y022245D01*
X010282Y022186D01*
X010249Y022120D01*
X010226Y022050D01*
X010214Y021977D01*
X010214Y021941D01*
X010682Y021941D01*
X010682Y022409D01*
X010682Y021941D01*
X010682Y021941D01*
X010682Y021940D01*
X010682Y021940D01*
X010682Y021473D01*
X010645Y021473D01*
X010573Y021484D01*
X010503Y021507D01*
X010437Y021540D01*
X010377Y021584D01*
X010325Y021636D01*
X010282Y021695D01*
X010249Y021761D01*
X010226Y021831D01*
X010214Y021904D01*
X010214Y021940D01*
X010682Y021940D01*
X010682Y021473D01*
X010719Y021473D01*
X010792Y021484D01*
X010862Y021507D01*
X010682Y021521D02*
X010682Y021521D01*
X010682Y021679D02*
X010682Y021679D01*
X010682Y021838D02*
X010682Y021838D01*
X010682Y021996D02*
X010682Y021996D01*
X010682Y022155D02*
X010682Y022155D01*
X010682Y022313D02*
X010682Y022313D01*
X010399Y022313D02*
X010056Y022313D01*
X010130Y022240D02*
X009981Y022388D01*
X009787Y022469D01*
X009577Y022469D01*
X009383Y022388D01*
X009235Y022240D01*
X009154Y022046D01*
X009154Y021836D01*
X009235Y021641D01*
X009383Y021493D01*
X009577Y021413D01*
X009787Y021413D01*
X009981Y021493D01*
X010130Y021641D01*
X010210Y021836D01*
X010210Y022046D01*
X010130Y022240D01*
X010165Y022155D02*
X010266Y022155D01*
X010217Y021996D02*
X010210Y021996D01*
X010210Y021838D02*
X010225Y021838D01*
X010294Y021679D02*
X010145Y021679D01*
X010009Y021521D02*
X010476Y021521D01*
X011071Y021679D02*
X012241Y021679D01*
X012128Y021838D02*
X011140Y021838D01*
X011147Y021996D02*
X012112Y021996D01*
X012112Y022155D02*
X011098Y022155D01*
X010965Y022313D02*
X012112Y022313D01*
X012112Y022472D02*
X008002Y022472D01*
X008002Y022630D02*
X009004Y022630D01*
X008952Y022652D02*
X009173Y022561D01*
X009412Y022561D01*
X009632Y022652D01*
X009801Y022821D01*
X009892Y023041D01*
X009892Y023280D01*
X009801Y023500D01*
X009632Y023669D01*
X009412Y023761D01*
X009173Y023761D01*
X008952Y023669D01*
X008784Y023500D01*
X008692Y023280D01*
X008692Y023041D01*
X008784Y022821D01*
X008952Y022652D01*
X008815Y022789D02*
X008002Y022789D01*
X008002Y022947D02*
X008731Y022947D01*
X008692Y023106D02*
X008002Y023106D01*
X008002Y023264D02*
X008692Y023264D01*
X008752Y023423D02*
X008002Y023423D01*
X008002Y023582D02*
X008865Y023582D01*
X009124Y023740D02*
X008002Y023740D01*
X008002Y023899D02*
X012112Y023899D01*
X012112Y024057D02*
X008002Y024057D01*
X008002Y024216D02*
X012112Y024216D01*
X012112Y024374D02*
X008002Y024374D01*
X008002Y024533D02*
X012112Y024533D01*
X012112Y024691D02*
X008002Y024691D01*
X008002Y024850D02*
X012112Y024850D01*
X012112Y025008D02*
X008002Y025008D01*
X008002Y025167D02*
X009061Y025167D01*
X008952Y025212D02*
X009173Y025121D01*
X009412Y025121D01*
X009632Y025212D01*
X009801Y025381D01*
X009892Y025601D01*
X009892Y025840D01*
X009801Y026060D01*
X009632Y026229D01*
X009412Y026321D01*
X009173Y026321D01*
X008952Y026229D01*
X008784Y026060D01*
X008692Y025840D01*
X008692Y025601D01*
X008784Y025381D01*
X008952Y025212D01*
X008839Y025326D02*
X008002Y025326D01*
X008002Y025484D02*
X008741Y025484D01*
X008692Y025643D02*
X008002Y025643D01*
X008002Y025801D02*
X008692Y025801D01*
X008742Y025960D02*
X008002Y025960D01*
X008002Y026118D02*
X008841Y026118D01*
X009067Y026277D02*
X008002Y026277D01*
X008002Y026435D02*
X012112Y026435D01*
X012112Y026277D02*
X011297Y026277D01*
X011192Y026321D02*
X010953Y026321D01*
X010732Y026229D01*
X010564Y026060D01*
X010472Y025840D01*
X010472Y025601D01*
X010564Y025381D01*
X010732Y025212D01*
X010953Y025121D01*
X011192Y025121D01*
X011412Y025212D01*
X011581Y025381D01*
X011672Y025601D01*
X011672Y025840D01*
X011581Y026060D01*
X011412Y026229D01*
X011192Y026321D01*
X010847Y026277D02*
X009517Y026277D01*
X009743Y026118D02*
X010621Y026118D01*
X010522Y025960D02*
X009843Y025960D01*
X009892Y025801D02*
X010472Y025801D01*
X010472Y025643D02*
X009892Y025643D01*
X009844Y025484D02*
X010521Y025484D01*
X010619Y025326D02*
X009746Y025326D01*
X009524Y025167D02*
X010841Y025167D01*
X011304Y025167D02*
X012112Y025167D01*
X012112Y025326D02*
X011526Y025326D01*
X011624Y025484D02*
X012112Y025484D01*
X012112Y025643D02*
X011672Y025643D01*
X011672Y025801D02*
X012112Y025801D01*
X012112Y025960D02*
X011623Y025960D01*
X011523Y026118D02*
X012112Y026118D01*
X012112Y026594D02*
X008002Y026594D01*
X008002Y026752D02*
X012112Y026752D01*
X012112Y026911D02*
X008002Y026911D01*
X008002Y027070D02*
X008813Y027070D01*
X008886Y026997D02*
X009078Y026917D01*
X009286Y026917D01*
X009479Y026997D01*
X009626Y027144D01*
X009706Y027336D01*
X009706Y027545D01*
X009626Y027737D01*
X009479Y027884D01*
X009286Y027964D01*
X009078Y027964D01*
X008886Y027884D01*
X008738Y027737D01*
X008659Y027545D01*
X008002Y027545D01*
X008002Y027387D02*
X008659Y027387D01*
X008659Y027336D02*
X008738Y027144D01*
X008886Y026997D01*
X008704Y027228D02*
X008002Y027228D01*
X008002Y027704D02*
X008725Y027704D01*
X008659Y027545D02*
X008659Y027336D01*
X008864Y027862D02*
X008002Y027862D01*
X008002Y028021D02*
X012112Y028021D01*
X012112Y028179D02*
X011439Y028179D01*
X011412Y028152D02*
X011581Y028321D01*
X011672Y028541D01*
X011672Y028780D01*
X011581Y029000D01*
X011412Y029169D01*
X011192Y029261D01*
X010953Y029261D01*
X010732Y029169D01*
X010564Y029000D01*
X010472Y028780D01*
X010472Y028541D01*
X010564Y028321D01*
X010732Y028152D01*
X010953Y028061D01*
X011192Y028061D01*
X011412Y028152D01*
X011286Y027964D02*
X011078Y027964D01*
X010886Y027884D01*
X010738Y027737D01*
X010659Y027545D01*
X010635Y027545D01*
X010634Y027549D02*
X010612Y027618D01*
X010579Y027683D01*
X010536Y027742D01*
X010484Y027794D01*
X010425Y027837D01*
X010360Y027870D01*
X010291Y027893D01*
X010219Y027904D01*
X010182Y027904D01*
X010146Y027904D01*
X010074Y027893D01*
X010004Y027870D01*
X009939Y027837D01*
X009880Y027794D01*
X009829Y027742D01*
X009786Y027683D01*
X009753Y027618D01*
X009730Y027549D01*
X009719Y027477D01*
X009719Y027441D01*
X010182Y027441D01*
X010182Y027904D01*
X010182Y027441D01*
X010182Y027441D01*
X010182Y027440D01*
X010182Y027440D01*
X010182Y026977D01*
X010146Y026977D01*
X010074Y026989D01*
X010004Y027011D01*
X009939Y027044D01*
X009880Y027087D01*
X009829Y027139D01*
X009786Y027198D01*
X009753Y027263D01*
X009730Y027332D01*
X009719Y027404D01*
X009719Y027440D01*
X010182Y027440D01*
X010182Y026977D01*
X010219Y026977D01*
X010291Y026989D01*
X010360Y027011D01*
X010425Y027044D01*
X010484Y027087D01*
X010536Y027139D01*
X010579Y027198D01*
X010612Y027263D01*
X010634Y027332D01*
X010646Y027404D01*
X010646Y027440D01*
X010183Y027440D01*
X010183Y027441D01*
X010646Y027441D01*
X010646Y027477D01*
X010634Y027549D01*
X010659Y027545D02*
X010659Y027336D01*
X010738Y027144D01*
X010886Y026997D01*
X011078Y026917D01*
X011286Y026917D01*
X011479Y026997D01*
X011626Y027144D01*
X011706Y027336D01*
X011706Y027545D01*
X011626Y027737D01*
X011479Y027884D01*
X011286Y027964D01*
X011501Y027862D02*
X012112Y027862D01*
X012112Y027704D02*
X011640Y027704D01*
X011705Y027545D02*
X012112Y027545D01*
X012112Y027387D02*
X011706Y027387D01*
X011661Y027228D02*
X012112Y027228D01*
X012112Y027070D02*
X011551Y027070D01*
X010813Y027070D02*
X010460Y027070D01*
X010594Y027228D02*
X010704Y027228D01*
X010659Y027387D02*
X010643Y027387D01*
X010564Y027704D02*
X010725Y027704D01*
X010864Y027862D02*
X010375Y027862D01*
X010182Y027862D02*
X010182Y027862D01*
X010182Y027704D02*
X010182Y027704D01*
X010182Y027545D02*
X010182Y027545D01*
X010182Y027387D02*
X010182Y027387D01*
X010182Y027228D02*
X010182Y027228D01*
X010182Y027070D02*
X010182Y027070D01*
X009904Y027070D02*
X009551Y027070D01*
X009661Y027228D02*
X009770Y027228D01*
X009721Y027387D02*
X009706Y027387D01*
X009705Y027545D02*
X009730Y027545D01*
X009801Y027704D02*
X009640Y027704D01*
X009501Y027862D02*
X009989Y027862D01*
X009659Y028179D02*
X010705Y028179D01*
X010556Y028338D02*
X009808Y028338D01*
X009801Y028321D02*
X009892Y028541D01*
X009892Y028780D01*
X009801Y029000D01*
X009632Y029169D01*
X009412Y029261D01*
X009173Y029261D01*
X008952Y029169D01*
X008784Y029000D01*
X008692Y028780D01*
X008692Y028541D01*
X008784Y028321D01*
X008952Y028152D01*
X009173Y028061D01*
X009412Y028061D01*
X009632Y028152D01*
X009801Y028321D01*
X009874Y028496D02*
X010491Y028496D01*
X010472Y028655D02*
X009892Y028655D01*
X009878Y028814D02*
X010486Y028814D01*
X010552Y028972D02*
X009813Y028972D01*
X009671Y029131D02*
X010694Y029131D01*
X011451Y029131D02*
X012420Y029131D01*
X012578Y029289D02*
X008483Y029289D01*
X008325Y029131D02*
X008914Y029131D01*
X008772Y028972D02*
X008166Y028972D01*
X008008Y028814D02*
X008706Y028814D01*
X008692Y028655D02*
X008002Y028655D01*
X008002Y028496D02*
X008711Y028496D01*
X008776Y028338D02*
X008002Y028338D01*
X008002Y028179D02*
X008925Y028179D01*
X008642Y029448D02*
X012737Y029448D01*
X012895Y029606D02*
X008800Y029606D01*
X008682Y029941D02*
X007682Y028941D01*
X007682Y017691D01*
X008245Y017128D01*
X008095Y017874D02*
X008002Y017874D01*
X008002Y018508D02*
X008096Y018508D01*
X008002Y018667D02*
X010985Y018667D01*
X010951Y018508D02*
X008644Y018508D01*
X008757Y018350D02*
X010980Y018350D01*
X011090Y018191D02*
X008788Y018191D01*
X008002Y018825D02*
X011100Y018825D01*
X011639Y018825D02*
X015095Y018825D01*
X015253Y018667D02*
X011755Y018667D01*
X011788Y018508D02*
X015412Y018508D01*
X015366Y019459D02*
X026041Y019459D01*
X026200Y019618D02*
X015207Y019618D01*
X015049Y019777D02*
X016919Y019777D01*
X017378Y021045D02*
X020945Y021045D01*
X020225Y024850D02*
X019879Y024850D01*
X020013Y025008D02*
X020091Y025008D01*
X020077Y025484D02*
X020027Y025484D01*
X019913Y025643D02*
X020191Y025643D01*
X020913Y025643D02*
X021191Y025643D01*
X021077Y025484D02*
X021027Y025484D01*
X021913Y025643D02*
X022191Y025643D01*
X022077Y025484D02*
X022027Y025484D01*
X022913Y025643D02*
X023191Y025643D01*
X023077Y025484D02*
X023027Y025484D01*
X023913Y025643D02*
X024286Y025643D01*
X024145Y025484D02*
X024027Y025484D01*
X024076Y025326D02*
X024093Y025326D01*
X024076Y025167D02*
X024098Y025167D01*
X024552Y025326D02*
X024552Y025326D01*
X024552Y025484D02*
X024552Y025484D01*
X024552Y025643D02*
X024552Y025643D01*
X024819Y025643D02*
X025250Y025643D01*
X025092Y025484D02*
X024960Y025484D01*
X026607Y027070D02*
X021505Y027070D01*
X021672Y027228D02*
X026448Y027228D01*
X026039Y028655D02*
X033237Y028655D01*
X033237Y028814D02*
X025881Y028814D01*
X025722Y028972D02*
X033237Y028972D01*
X033237Y029131D02*
X025564Y029131D01*
X025405Y029289D02*
X033237Y029289D01*
X032952Y029765D02*
X032912Y029765D01*
X032912Y029923D02*
X032952Y029923D01*
X032952Y030082D02*
X032912Y030082D01*
X032599Y029765D02*
X032355Y029765D01*
X032836Y028179D02*
X033031Y028179D01*
X034877Y025484D02*
X035132Y025484D01*
X035132Y025326D02*
X034877Y025326D01*
X034877Y025167D02*
X035132Y025167D01*
X035132Y025008D02*
X034877Y025008D01*
X034877Y024850D02*
X035132Y024850D01*
X035132Y024691D02*
X034877Y024691D01*
X034877Y024533D02*
X035132Y024533D01*
X035132Y024374D02*
X034877Y024374D01*
X034877Y024216D02*
X035132Y024216D01*
X035132Y024057D02*
X034877Y024057D01*
X034877Y023899D02*
X035132Y023899D01*
X035132Y023740D02*
X034846Y023740D01*
X034713Y023582D02*
X035132Y023582D01*
X035132Y023423D02*
X034555Y023423D01*
X034396Y023264D02*
X035132Y023264D01*
X029224Y023740D02*
X028954Y023740D01*
X028796Y023899D02*
X029201Y023899D01*
X029241Y024057D02*
X028637Y024057D01*
X027475Y023456D02*
X027409Y023295D01*
X027409Y023086D01*
X027466Y022948D01*
X027329Y022948D01*
X027362Y023013D01*
X027384Y023082D01*
X027396Y023154D01*
X027396Y023190D01*
X026933Y023190D01*
X026933Y023191D01*
X027396Y023191D01*
X027396Y023227D01*
X027384Y023299D01*
X027362Y023368D01*
X027329Y023433D01*
X027312Y023456D01*
X027475Y023456D01*
X027462Y023423D02*
X027334Y023423D01*
X027390Y023264D02*
X027409Y023264D01*
X027409Y023106D02*
X027388Y023106D01*
X027902Y022308D02*
X029112Y022308D01*
X029222Y022198D01*
X027955Y022198D01*
X027902Y022308D01*
X026700Y022789D02*
X026271Y022789D01*
X026398Y022947D02*
X026536Y022947D01*
X026476Y023106D02*
X026456Y023106D01*
X026456Y023264D02*
X026475Y023264D01*
X026531Y023423D02*
X026402Y023423D01*
X025594Y022789D02*
X025271Y022789D01*
X025398Y022947D02*
X025466Y022947D01*
X025180Y028496D02*
X018441Y028496D01*
X018599Y028655D02*
X025021Y028655D01*
X024863Y028814D02*
X018758Y028814D01*
X018916Y028972D02*
X019371Y028972D01*
X019383Y028961D02*
X019265Y029079D01*
X019201Y029232D01*
X019201Y029399D01*
X019265Y029553D01*
X019383Y029670D01*
X019536Y029734D01*
X019703Y029734D01*
X019857Y029670D01*
X019974Y029553D01*
X020038Y029399D01*
X020038Y029232D01*
X019974Y029079D01*
X019857Y028961D01*
X019703Y028897D01*
X019536Y028897D01*
X019383Y028961D01*
X019243Y029131D02*
X019075Y029131D01*
X019127Y029289D02*
X019201Y029289D01*
X019222Y029448D02*
X019127Y029448D01*
X019155Y029606D02*
X019319Y029606D01*
X019213Y029765D02*
X020473Y029765D01*
X020451Y029711D02*
X020451Y029545D01*
X020515Y029391D01*
X020633Y029273D01*
X020786Y029210D01*
X020953Y029210D01*
X021107Y029273D01*
X021224Y029391D01*
X021288Y029545D01*
X021288Y029711D01*
X021224Y029865D01*
X021107Y029983D01*
X020953Y030046D01*
X020786Y030046D01*
X020633Y029983D01*
X020515Y029865D01*
X020451Y029711D01*
X020451Y029606D02*
X019921Y029606D01*
X020018Y029448D02*
X020491Y029448D01*
X020617Y029289D02*
X020038Y029289D01*
X019996Y029131D02*
X024545Y029131D01*
X024418Y029289D02*
X021123Y029289D01*
X021248Y029448D02*
X024385Y029448D01*
X024385Y029606D02*
X024190Y029606D01*
X024169Y029586D02*
X024287Y029704D01*
X024351Y029857D01*
X024351Y030024D01*
X024287Y030178D01*
X024169Y030295D01*
X024015Y030359D01*
X023849Y030359D01*
X023695Y030295D01*
X023577Y030178D01*
X023514Y030024D01*
X023514Y029857D01*
X023577Y029704D01*
X023695Y029586D01*
X023849Y029522D01*
X024015Y029522D01*
X024169Y029586D01*
X024312Y029765D02*
X024385Y029765D01*
X024385Y029923D02*
X024351Y029923D01*
X024327Y030082D02*
X024385Y030082D01*
X024385Y030240D02*
X024224Y030240D01*
X024385Y030399D02*
X023163Y030399D01*
X023149Y030557D02*
X024385Y030557D01*
X024385Y030716D02*
X023061Y030716D01*
X023115Y030240D02*
X023640Y030240D01*
X023538Y030082D02*
X022972Y030082D01*
X022517Y030082D02*
X019176Y030082D01*
X019226Y029923D02*
X020573Y029923D01*
X021166Y029923D02*
X023514Y029923D01*
X023552Y029765D02*
X021266Y029765D01*
X021288Y029606D02*
X023675Y029606D01*
X024704Y028972D02*
X019868Y028972D01*
X018807Y029316D02*
X018807Y029583D01*
X018714Y029845D01*
X018807Y029878D01*
X018900Y029845D01*
X018807Y029583D01*
X018807Y029878D01*
X018807Y029941D01*
X018589Y030240D02*
X018313Y030240D01*
X018287Y030303D02*
X018169Y030420D01*
X018015Y030484D01*
X017849Y030484D01*
X017695Y030420D01*
X017577Y030303D01*
X017514Y030149D01*
X017514Y029982D01*
X017577Y029829D01*
X017695Y029711D01*
X017849Y029647D01*
X018015Y029647D01*
X018169Y029711D01*
X018287Y029829D01*
X018351Y029982D01*
X018351Y030149D01*
X018287Y030303D01*
X018191Y030399D02*
X021074Y030399D01*
X021014Y030557D02*
X017683Y030557D01*
X017674Y030399D02*
X017525Y030399D01*
X017552Y030240D02*
X017366Y030240D01*
X017514Y030082D02*
X017208Y030082D01*
X017049Y029923D02*
X017538Y029923D01*
X017641Y029765D02*
X016890Y029765D01*
X016691Y029606D02*
X018459Y029606D01*
X018487Y029448D02*
X018079Y029448D01*
X018193Y029289D02*
X018328Y029289D01*
X018807Y029316D02*
X018182Y028691D01*
X017432Y028691D01*
X016620Y027878D01*
X017276Y028972D02*
X015212Y028972D01*
X015388Y029131D02*
X017389Y029131D01*
X017421Y029289D02*
X015453Y029289D01*
X015453Y029448D02*
X017535Y029448D01*
X018223Y029765D02*
X018401Y029765D01*
X018389Y029923D02*
X018326Y029923D01*
X018351Y030082D02*
X018439Y030082D01*
X019026Y030240D02*
X021275Y030240D01*
X021590Y030240D02*
X022375Y030240D01*
X022326Y030399D02*
X021790Y030399D01*
X021851Y030557D02*
X022340Y030557D01*
X022429Y030716D02*
X021849Y030716D01*
X021016Y030716D02*
X017842Y030716D01*
X017745Y031128D02*
X024745Y031128D01*
X024298Y031509D02*
X021523Y031509D01*
X021538Y031667D02*
X024286Y031667D01*
X024330Y031826D02*
X021491Y031826D01*
X021353Y031984D02*
X024334Y031984D01*
X024286Y032143D02*
X021845Y032143D01*
X021817Y032114D02*
X021946Y032243D01*
X022016Y032412D01*
X022016Y032594D01*
X021946Y032763D01*
X021817Y032892D01*
X021738Y032924D01*
X021788Y033045D01*
X021788Y033211D01*
X021724Y033365D01*
X021607Y033483D01*
X021453Y033546D01*
X021286Y033546D01*
X021133Y033483D01*
X021015Y033365D01*
X020951Y033211D01*
X020951Y033045D01*
X021015Y032891D01*
X021133Y032773D01*
X021167Y032759D01*
X021099Y032594D01*
X021099Y032412D01*
X021169Y032243D01*
X021298Y032114D01*
X021466Y032045D01*
X021648Y032045D01*
X021817Y032114D01*
X021970Y032301D02*
X024294Y032301D01*
X024366Y032460D02*
X022016Y032460D01*
X022006Y032619D02*
X024537Y032619D01*
X024422Y032777D02*
X021931Y032777D01*
X021743Y032936D02*
X024389Y032936D01*
X024418Y033094D02*
X021788Y033094D01*
X021771Y033253D02*
X022466Y033253D01*
X022356Y033411D02*
X021678Y033411D01*
X022173Y033728D02*
X022359Y033728D01*
X022331Y033887D02*
X022474Y033887D01*
X022490Y034045D02*
X023746Y034045D01*
X023724Y034204D02*
X022648Y034204D01*
X022807Y034363D02*
X023757Y034363D01*
X023864Y034521D02*
X022965Y034521D01*
X023015Y033887D02*
X023838Y033887D01*
X023130Y033728D02*
X026961Y033728D01*
X026802Y033570D02*
X023163Y033570D01*
X022326Y033570D02*
X018957Y033570D01*
X019070Y033411D02*
X021061Y033411D01*
X020968Y033253D02*
X019101Y033253D01*
X019069Y033094D02*
X020951Y033094D01*
X020996Y032936D02*
X018957Y032936D01*
X018725Y033164D02*
X018682Y033253D01*
X018593Y033295D01*
X018473Y033044D01*
X018725Y033164D01*
X018682Y033253D02*
X018473Y033044D01*
X015870Y030441D01*
X014182Y030441D01*
X014011Y030716D02*
X013547Y030716D01*
X013537Y030740D02*
X013419Y030858D01*
X013265Y030921D01*
X013099Y030921D01*
X012945Y030858D01*
X012827Y030740D01*
X012764Y030586D01*
X012764Y030420D01*
X012827Y030266D01*
X012945Y030148D01*
X013099Y030085D01*
X013265Y030085D01*
X013419Y030148D01*
X013537Y030266D01*
X013601Y030420D01*
X013601Y030586D01*
X013537Y030740D01*
X013601Y030557D02*
X013847Y030557D01*
X013688Y030399D02*
X013592Y030399D01*
X013529Y030240D02*
X013511Y030240D01*
X013371Y030082D02*
X012026Y030082D01*
X012185Y030240D02*
X012853Y030240D01*
X012772Y030399D02*
X012343Y030399D01*
X012502Y030557D02*
X012764Y030557D01*
X012818Y030716D02*
X012660Y030716D01*
X012819Y030875D02*
X012986Y030875D01*
X013379Y030875D02*
X014530Y030875D01*
X014843Y030961D02*
X014932Y031003D01*
X014975Y031092D01*
X014723Y031212D01*
X014843Y030961D01*
X014932Y031003D02*
X014723Y031212D01*
X014682Y031253D01*
X012745Y031253D01*
X011432Y029941D01*
X008682Y029941D01*
X008790Y030875D02*
X006972Y030875D01*
X006972Y031033D02*
X008720Y031033D01*
X008692Y031192D02*
X006972Y031192D01*
X006972Y031350D02*
X008696Y031350D01*
X008762Y031509D02*
X006972Y031509D01*
X006972Y031667D02*
X008890Y031667D01*
X010335Y033253D02*
X018218Y033253D01*
X018294Y033411D02*
X014995Y033411D01*
X015037Y033454D02*
X015101Y033607D01*
X015101Y033774D01*
X015037Y033928D01*
X014919Y034045D01*
X014765Y034109D01*
X014599Y034109D01*
X014445Y034045D01*
X014327Y033928D01*
X014264Y033774D01*
X014264Y033607D01*
X014327Y033454D01*
X014445Y033336D01*
X014599Y033272D01*
X014765Y033272D01*
X014919Y033336D01*
X015037Y033454D01*
X015085Y033570D02*
X018407Y033570D01*
X018658Y033887D02*
X015054Y033887D01*
X015101Y033728D02*
X018817Y033728D01*
X018500Y034045D02*
X014919Y034045D01*
X014446Y034045D02*
X011052Y034045D01*
X010807Y034253D02*
X010995Y034441D01*
X018557Y034441D01*
X018307Y034753D02*
X010728Y034753D01*
X010465Y034660D01*
X010432Y034753D01*
X010465Y034846D01*
X010728Y034753D01*
X010432Y034753D01*
X010465Y034346D02*
X010432Y034253D01*
X010465Y034160D01*
X010728Y034253D01*
X010465Y034346D01*
X010432Y034253D02*
X010728Y034253D01*
X010807Y034253D01*
X010652Y033887D02*
X014311Y033887D01*
X014264Y033728D02*
X010009Y033728D01*
X010225Y033570D02*
X014279Y033570D01*
X014370Y033411D02*
X010308Y033411D01*
X011668Y031350D02*
X012389Y031350D01*
X012231Y031192D02*
X011672Y031192D01*
X011644Y031033D02*
X012072Y031033D01*
X011914Y030875D02*
X011575Y030875D01*
X011416Y030716D02*
X011755Y030716D01*
X011868Y029923D02*
X013212Y029923D01*
X013054Y029765D02*
X011709Y029765D01*
X011593Y028972D02*
X012261Y028972D01*
X012137Y028814D02*
X011658Y028814D01*
X011672Y028655D02*
X012112Y028655D01*
X012112Y028496D02*
X011654Y028496D01*
X011588Y028338D02*
X012112Y028338D01*
X012752Y026435D02*
X016300Y026435D01*
X016300Y026277D02*
X012752Y026277D01*
X012752Y026118D02*
X015312Y026118D01*
X015363Y026169D02*
X015204Y026010D01*
X015118Y025803D01*
X015118Y025578D01*
X015204Y025371D01*
X015363Y025212D01*
X015416Y025191D01*
X015363Y025169D01*
X015204Y025010D01*
X015118Y024803D01*
X015118Y024578D01*
X015204Y024371D01*
X015363Y024212D01*
X015570Y024127D01*
X015794Y024127D01*
X016002Y024212D01*
X016160Y024371D01*
X016246Y024578D01*
X016246Y024803D01*
X016160Y025010D01*
X016002Y025169D01*
X015949Y025191D01*
X016002Y025212D01*
X016160Y025371D01*
X016246Y025578D01*
X016246Y025803D01*
X016160Y026010D01*
X016002Y026169D01*
X015794Y026255D01*
X015570Y026255D01*
X015363Y026169D01*
X015183Y025960D02*
X012752Y025960D01*
X012752Y025801D02*
X015118Y025801D01*
X015118Y025643D02*
X012752Y025643D01*
X012752Y025484D02*
X015157Y025484D01*
X015250Y025326D02*
X012752Y025326D01*
X012752Y025167D02*
X015361Y025167D01*
X015203Y025008D02*
X012752Y025008D01*
X012752Y024850D02*
X015138Y024850D01*
X015118Y024691D02*
X012752Y024691D01*
X012752Y024533D02*
X015137Y024533D01*
X015203Y024374D02*
X012752Y024374D01*
X012752Y024216D02*
X012866Y024216D01*
X012827Y024178D02*
X012764Y024024D01*
X012764Y023857D01*
X012827Y023704D01*
X012945Y023586D01*
X013099Y023522D01*
X013265Y023522D01*
X013419Y023586D01*
X013537Y023704D01*
X013601Y023857D01*
X013601Y024024D01*
X013537Y024178D01*
X013419Y024295D01*
X013265Y024359D01*
X013099Y024359D01*
X012945Y024295D01*
X012827Y024178D01*
X012778Y024057D02*
X012752Y024057D01*
X012752Y023899D02*
X012764Y023899D01*
X012752Y023740D02*
X012812Y023740D01*
X012752Y023582D02*
X012955Y023582D01*
X012752Y023423D02*
X013957Y023423D01*
X013904Y023264D02*
X012752Y023264D01*
X012752Y023106D02*
X013904Y023106D01*
X013961Y022947D02*
X012752Y022947D01*
X012112Y022947D02*
X011633Y022947D01*
X011672Y023041D02*
X011581Y022821D01*
X011412Y022652D01*
X011192Y022561D01*
X010953Y022561D01*
X010732Y022652D01*
X010564Y022821D01*
X010472Y023041D01*
X010472Y023280D01*
X010564Y023500D01*
X010732Y023669D01*
X010953Y023761D01*
X011192Y023761D01*
X011412Y023669D01*
X011581Y023500D01*
X011672Y023280D01*
X011672Y023041D01*
X011672Y023106D02*
X012112Y023106D01*
X012112Y023264D02*
X011672Y023264D01*
X011613Y023423D02*
X012112Y023423D01*
X012112Y023582D02*
X011500Y023582D01*
X011241Y023740D02*
X012112Y023740D01*
X012112Y022789D02*
X011549Y022789D01*
X011360Y022630D02*
X012112Y022630D01*
X013409Y023582D02*
X014077Y023582D01*
X013552Y023740D02*
X015987Y023740D01*
X015987Y023582D02*
X015690Y023582D01*
X015677Y023591D02*
X015612Y023624D01*
X015542Y023647D01*
X015469Y023659D01*
X015432Y023659D01*
X015395Y023659D01*
X015323Y023647D01*
X015253Y023624D01*
X015187Y023591D01*
X015127Y023547D01*
X015075Y023495D01*
X015032Y023436D01*
X014999Y023370D01*
X014976Y023300D01*
X014964Y023227D01*
X014964Y023191D01*
X015432Y023191D01*
X015432Y023659D01*
X015432Y023191D01*
X015432Y023191D01*
X015432Y023190D01*
X015432Y023190D01*
X015432Y022723D01*
X015395Y022723D01*
X015323Y022734D01*
X015253Y022757D01*
X015187Y022790D01*
X015127Y022834D01*
X015075Y022886D01*
X015032Y022945D01*
X014999Y023011D01*
X014976Y023081D01*
X014964Y023154D01*
X014964Y023190D01*
X015432Y023190D01*
X015432Y022723D01*
X015469Y022723D01*
X015542Y022734D01*
X015612Y022757D01*
X015677Y022790D01*
X015737Y022834D01*
X015789Y022886D01*
X015832Y022945D01*
X015866Y023011D01*
X015889Y023081D01*
X015900Y023154D01*
X015900Y023190D01*
X015433Y023190D01*
X015433Y023191D01*
X015900Y023191D01*
X015900Y023227D01*
X015889Y023300D01*
X015866Y023370D01*
X015832Y023436D01*
X015789Y023495D01*
X015737Y023547D01*
X015677Y023591D01*
X015839Y023423D02*
X015987Y023423D01*
X015987Y023264D02*
X015894Y023264D01*
X015893Y023106D02*
X015987Y023106D01*
X015987Y022947D02*
X015834Y022947D01*
X015987Y022789D02*
X015675Y022789D01*
X015432Y022789D02*
X015432Y022789D01*
X015432Y022947D02*
X015432Y022947D01*
X015432Y023106D02*
X015432Y023106D01*
X015432Y023264D02*
X015432Y023264D01*
X015432Y023423D02*
X015432Y023423D01*
X015432Y023582D02*
X015432Y023582D01*
X015174Y023582D02*
X014788Y023582D01*
X014907Y023423D02*
X015025Y023423D01*
X014970Y023264D02*
X014960Y023264D01*
X014960Y023106D02*
X014972Y023106D01*
X015031Y022947D02*
X014903Y022947D01*
X014777Y022789D02*
X015190Y022789D01*
X015995Y023899D02*
X013601Y023899D01*
X013587Y024057D02*
X016096Y024057D01*
X016005Y024216D02*
X016255Y024216D01*
X016300Y024374D02*
X016162Y024374D01*
X016227Y024533D02*
X016300Y024533D01*
X016300Y024691D02*
X016246Y024691D01*
X016227Y024850D02*
X016300Y024850D01*
X016300Y025008D02*
X016161Y025008D01*
X016300Y025167D02*
X016003Y025167D01*
X016115Y025326D02*
X016300Y025326D01*
X016300Y025484D02*
X016207Y025484D01*
X016246Y025643D02*
X016300Y025643D01*
X016300Y025801D02*
X016246Y025801D01*
X016300Y025960D02*
X016181Y025960D01*
X016300Y026118D02*
X016052Y026118D01*
X015359Y024216D02*
X013499Y024216D01*
X010904Y023740D02*
X009461Y023740D01*
X009720Y023582D02*
X010645Y023582D01*
X010532Y023423D02*
X009833Y023423D01*
X009892Y023264D02*
X010472Y023264D01*
X010472Y023106D02*
X009892Y023106D01*
X009853Y022947D02*
X010511Y022947D01*
X010595Y022789D02*
X009769Y022789D01*
X009580Y022630D02*
X010784Y022630D01*
X009308Y022313D02*
X008002Y022313D01*
X008002Y022155D02*
X009199Y022155D01*
X009154Y021996D02*
X008002Y021996D01*
X008002Y021838D02*
X009154Y021838D01*
X009219Y021679D02*
X008002Y021679D01*
X008002Y021521D02*
X008045Y021521D01*
X008002Y021045D02*
X008003Y021045D01*
X008002Y020886D02*
X008162Y020886D01*
X008694Y021521D02*
X009356Y021521D01*
X012249Y020728D02*
X013192Y020728D01*
X013034Y020886D02*
X012373Y020886D01*
X012413Y021045D02*
X012875Y021045D01*
X012717Y021203D02*
X012390Y021203D01*
X013622Y021203D02*
X014514Y021203D01*
X014566Y021045D02*
X013780Y021045D01*
X013939Y020886D02*
X014724Y020886D01*
X016801Y023857D02*
X016801Y023857D01*
X016557Y029941D02*
X015290Y029941D01*
X015028Y029848D01*
X014995Y029941D01*
X015028Y030033D01*
X015290Y029941D01*
X014995Y029941D01*
X015332Y030875D02*
X015851Y030875D01*
X016010Y031033D02*
X015351Y031033D01*
X015775Y031192D02*
X016168Y031192D01*
X016327Y031350D02*
X015884Y031350D01*
X015913Y031509D02*
X016485Y031509D01*
X016644Y031667D02*
X015880Y031667D01*
X015764Y031826D02*
X016802Y031826D01*
X016961Y031984D02*
X015101Y031984D01*
X015077Y032143D02*
X017120Y032143D01*
X017278Y032301D02*
X014976Y032301D01*
X014917Y032460D02*
X017437Y032460D01*
X017595Y032619D02*
X015053Y032619D01*
X015101Y032777D02*
X017754Y032777D01*
X017912Y032936D02*
X015085Y032936D01*
X014995Y033094D02*
X018071Y033094D01*
X018500Y032619D02*
X021109Y032619D01*
X021129Y032777D02*
X018659Y032777D01*
X018342Y032460D02*
X021099Y032460D01*
X021144Y032301D02*
X018183Y032301D01*
X018025Y032143D02*
X021269Y032143D01*
X020887Y031984D02*
X017866Y031984D01*
X017708Y031826D02*
X020749Y031826D01*
X020701Y031667D02*
X017549Y031667D01*
X017390Y031509D02*
X020716Y031509D01*
X017745Y031128D02*
X016557Y029941D01*
X016506Y030399D02*
X016281Y030399D01*
X016439Y030557D02*
X016665Y030557D01*
X016598Y030716D02*
X016824Y030716D01*
X016756Y030875D02*
X016982Y030875D01*
X016915Y031033D02*
X017141Y031033D01*
X017073Y031192D02*
X017299Y031192D01*
X017232Y031350D02*
X017458Y031350D01*
X015226Y031826D02*
X015062Y031826D01*
X015110Y031667D02*
X014938Y031667D01*
X014879Y031509D02*
X015076Y031509D01*
X014897Y035631D02*
X016775Y035631D01*
X016704Y035789D02*
X014913Y035789D01*
X014867Y035948D02*
X016701Y035948D01*
X016761Y036106D02*
X014733Y036106D01*
X025902Y029606D02*
X026588Y029606D01*
X026322Y029765D02*
X026167Y029765D01*
X026902Y029606D02*
X027588Y029606D01*
X027322Y029765D02*
X027167Y029765D01*
X027902Y029606D02*
X028588Y029606D01*
X028322Y029765D02*
X028167Y029765D01*
X028117Y031667D02*
X028373Y031667D01*
X029117Y031667D02*
X029373Y031667D01*
X027373Y031667D02*
X027117Y031667D01*
X032292Y034680D02*
X032703Y034680D01*
X032912Y034680D02*
X032952Y034680D01*
X032952Y034521D02*
X032912Y034521D01*
X032912Y034363D02*
X032952Y034363D01*
X033162Y034680D02*
X033237Y034680D01*
X032505Y034521D02*
X032445Y034521D01*
X011740Y016923D02*
X010988Y016923D01*
X010835Y016764D02*
X011638Y016764D01*
X011632Y016606D02*
X006972Y016606D01*
X006972Y016764D02*
X010393Y016764D01*
X011632Y016447D02*
X006972Y016447D01*
X006972Y016289D02*
X011632Y016289D01*
X011632Y016130D02*
X006972Y016130D01*
X006972Y015971D02*
X011632Y015971D01*
X011632Y015813D02*
X006972Y015813D01*
X006972Y015654D02*
X011632Y015654D01*
X011632Y015496D02*
X006972Y015496D01*
X006972Y015337D02*
X011632Y015337D01*
X011632Y015179D02*
X006972Y015179D01*
X006972Y015020D02*
X011632Y015020D01*
X011632Y014862D02*
X006972Y014862D01*
X006972Y014703D02*
X011632Y014703D01*
X011632Y014545D02*
X006972Y014545D01*
X009807Y011941D02*
X010245Y012378D01*
X011637Y012378D01*
X011899Y012471D01*
X011932Y012378D01*
X011899Y012285D01*
X011637Y012378D01*
X011932Y012378D01*
X009807Y011941D02*
X009807Y011548D01*
X009900Y011286D01*
X009807Y011253D01*
X009714Y011286D01*
X009807Y011548D01*
X009807Y011253D01*
X026575Y006617D02*
X026774Y006617D01*
D20*
X029562Y016765D02*
X029620Y016753D01*
X029677Y016765D01*
X029620Y017048D01*
X029562Y016765D01*
X029620Y016753D02*
X029620Y017048D01*
X029620Y017378D01*
X030182Y017941D01*
X031245Y017941D01*
X031473Y017712D01*
X031715Y017552D01*
X031682Y017503D01*
X031634Y017471D01*
X031473Y017712D01*
X031682Y017503D01*
D21*
X031443Y017249D02*
X031485Y017208D01*
X031613Y017155D01*
X031752Y017155D01*
X031880Y017208D01*
X031978Y017306D01*
X032031Y017434D01*
X032031Y017572D01*
X031978Y017700D01*
X031936Y017742D01*
X031923Y017761D01*
X031923Y017761D01*
X031923Y017761D01*
X031904Y017774D01*
X031880Y017798D01*
X031846Y017812D01*
X031658Y017937D01*
X031638Y017958D01*
X031491Y018105D01*
X031409Y018186D01*
X031302Y018231D01*
X030240Y018231D01*
X030124Y018231D01*
X030018Y018186D01*
X029455Y017624D01*
X029374Y017542D01*
X029330Y017436D01*
X029330Y017077D01*
X029290Y016879D01*
X029285Y016855D01*
X029271Y016822D01*
X029271Y016788D01*
X029267Y016766D01*
X029267Y016765D01*
X029271Y016742D01*
X029271Y016684D01*
X029324Y016556D01*
X029422Y016458D01*
X029550Y016405D01*
X029689Y016405D01*
X029817Y016458D01*
X029915Y016556D01*
X029968Y016684D01*
X029968Y016743D01*
X029973Y016765D01*
X029973Y016766D01*
X029968Y016788D01*
X029968Y016822D01*
X029954Y016855D01*
X029910Y017077D01*
X029910Y017258D01*
X030302Y017651D01*
X031125Y017651D01*
X031228Y017548D01*
X031248Y017527D01*
X031360Y017358D01*
X031373Y017338D01*
X031387Y017306D01*
X031411Y017281D01*
X031424Y017262D01*
X031443Y017249D01*
X031424Y017262D02*
X031424Y017262D01*
X031424Y017262D01*
X031384Y017311D02*
X029963Y017311D01*
X029910Y017213D02*
X031480Y017213D01*
X031360Y017358D02*
X031360Y017358D01*
X031326Y017410D02*
X030062Y017410D01*
X030160Y017508D02*
X031260Y017508D01*
X031168Y017607D02*
X030259Y017607D01*
X029833Y018001D02*
X024993Y018001D01*
X024894Y017903D02*
X029734Y017903D01*
X029636Y017804D02*
X024796Y017804D01*
X024697Y017706D02*
X029537Y017706D01*
X029439Y017607D02*
X024599Y017607D01*
X024500Y017508D02*
X029360Y017508D01*
X029330Y017410D02*
X024402Y017410D01*
X024303Y017311D02*
X029330Y017311D01*
X029330Y017213D02*
X024204Y017213D01*
X024182Y017191D02*
X028182Y021191D01*
X031682Y021191D01*
X032120Y021628D01*
X032607Y021628D01*
X032699Y021666D01*
X032769Y021736D01*
X033417Y022384D01*
X033449Y022306D01*
X033547Y022208D01*
X033675Y022155D01*
X033814Y022155D01*
X033942Y022208D01*
X034040Y022306D01*
X034093Y022434D01*
X034093Y022572D01*
X034040Y022700D01*
X033942Y022798D01*
X033864Y022831D01*
X033973Y022941D01*
X035202Y022941D01*
X035202Y006282D01*
X034331Y005411D01*
X028432Y005411D01*
X028432Y007633D01*
X028594Y007701D01*
X028815Y007921D01*
X028934Y008209D01*
X028934Y008521D01*
X028815Y008809D01*
X028594Y009029D01*
X028307Y009148D01*
X027995Y009148D01*
X027707Y009029D01*
X027619Y008941D01*
X024746Y008941D01*
X024657Y009029D01*
X024370Y009148D01*
X024225Y009148D01*
X024182Y009191D01*
X024182Y017191D01*
X024182Y017114D02*
X029330Y017114D01*
X029317Y017016D02*
X024182Y017016D01*
X024182Y016917D02*
X029297Y016917D01*
X029271Y016819D02*
X024182Y016819D01*
X024182Y016720D02*
X029271Y016720D01*
X029297Y016622D02*
X024182Y016622D01*
X024182Y016523D02*
X029357Y016523D01*
X029502Y016424D02*
X024182Y016424D01*
X024182Y016326D02*
X035202Y016326D01*
X035202Y016424D02*
X029737Y016424D01*
X029882Y016523D02*
X035202Y016523D01*
X035202Y016622D02*
X029942Y016622D01*
X029968Y016720D02*
X035202Y016720D01*
X035202Y016819D02*
X029968Y016819D01*
X029973Y016766D02*
X029973Y016766D01*
X029942Y016917D02*
X035202Y016917D01*
X035202Y017016D02*
X029922Y017016D01*
X029910Y017114D02*
X035202Y017114D01*
X035202Y017213D02*
X031885Y017213D01*
X031980Y017311D02*
X035202Y017311D01*
X035202Y017410D02*
X032021Y017410D01*
X032031Y017508D02*
X035202Y017508D01*
X035202Y017607D02*
X032016Y017607D01*
X031972Y017706D02*
X035202Y017706D01*
X035202Y017804D02*
X031866Y017804D01*
X031710Y017903D02*
X035202Y017903D01*
X035202Y018001D02*
X031594Y018001D01*
X031496Y018100D02*
X035202Y018100D01*
X035202Y018198D02*
X031380Y018198D01*
X030047Y018198D02*
X025190Y018198D01*
X025091Y018100D02*
X029931Y018100D01*
X027555Y020563D02*
X035202Y020563D01*
X035202Y020465D02*
X027456Y020465D01*
X027358Y020366D02*
X035202Y020366D01*
X035202Y020268D02*
X027259Y020268D01*
X027161Y020169D02*
X035202Y020169D01*
X035202Y020071D02*
X027062Y020071D01*
X026964Y019972D02*
X035202Y019972D01*
X035202Y019874D02*
X026865Y019874D01*
X026767Y019775D02*
X035202Y019775D01*
X035202Y019676D02*
X026668Y019676D01*
X026570Y019578D02*
X035202Y019578D01*
X035202Y019479D02*
X026471Y019479D01*
X026372Y019381D02*
X035202Y019381D01*
X035202Y019282D02*
X026274Y019282D01*
X026175Y019184D02*
X035202Y019184D01*
X035202Y019085D02*
X026077Y019085D01*
X025978Y018987D02*
X035202Y018987D01*
X035202Y018888D02*
X025880Y018888D01*
X025781Y018790D02*
X035202Y018790D01*
X035202Y018691D02*
X025683Y018691D01*
X025584Y018592D02*
X035202Y018592D01*
X035202Y018494D02*
X025486Y018494D01*
X025387Y018395D02*
X035202Y018395D01*
X035202Y018297D02*
X025288Y018297D01*
X024182Y016227D02*
X035202Y016227D01*
X035202Y016129D02*
X024182Y016129D01*
X024182Y016030D02*
X035202Y016030D01*
X035202Y015932D02*
X024182Y015932D01*
X024182Y015833D02*
X035202Y015833D01*
X035202Y015735D02*
X024182Y015735D01*
X024182Y015636D02*
X035202Y015636D01*
X035202Y015538D02*
X024182Y015538D01*
X024182Y015439D02*
X035202Y015439D01*
X035202Y015341D02*
X024182Y015341D01*
X024182Y015242D02*
X035202Y015242D01*
X035202Y015143D02*
X024182Y015143D01*
X024182Y015045D02*
X035202Y015045D01*
X035202Y014946D02*
X024182Y014946D01*
X024182Y014848D02*
X035202Y014848D01*
X035202Y014749D02*
X024182Y014749D01*
X024182Y014651D02*
X035202Y014651D01*
X035202Y014552D02*
X024182Y014552D01*
X024182Y014454D02*
X035202Y014454D01*
X035202Y014355D02*
X024182Y014355D01*
X024182Y014257D02*
X035202Y014257D01*
X035202Y014158D02*
X024182Y014158D01*
X024182Y014059D02*
X035202Y014059D01*
X035202Y013961D02*
X024182Y013961D01*
X024182Y013862D02*
X035202Y013862D01*
X035202Y013764D02*
X024182Y013764D01*
X024182Y013665D02*
X035202Y013665D01*
X035202Y013567D02*
X024182Y013567D01*
X024182Y013468D02*
X035202Y013468D01*
X035202Y013370D02*
X024182Y013370D01*
X024182Y013271D02*
X035202Y013271D01*
X035202Y013173D02*
X024182Y013173D01*
X024182Y013074D02*
X035202Y013074D01*
X035202Y012975D02*
X024182Y012975D01*
X024182Y012877D02*
X035202Y012877D01*
X035202Y012778D02*
X024182Y012778D01*
X024182Y012680D02*
X035202Y012680D01*
X035202Y012581D02*
X024182Y012581D01*
X024182Y012483D02*
X035202Y012483D01*
X035202Y012384D02*
X024182Y012384D01*
X024182Y012286D02*
X035202Y012286D01*
X035202Y012187D02*
X024182Y012187D01*
X024182Y012089D02*
X035202Y012089D01*
X035202Y011990D02*
X024182Y011990D01*
X024182Y011891D02*
X035202Y011891D01*
X035202Y011793D02*
X024182Y011793D01*
X024182Y011694D02*
X035202Y011694D01*
X035202Y011596D02*
X024182Y011596D01*
X024182Y011497D02*
X035202Y011497D01*
X035202Y011399D02*
X024182Y011399D01*
X024182Y011300D02*
X035202Y011300D01*
X035202Y011202D02*
X024182Y011202D01*
X024182Y011103D02*
X035202Y011103D01*
X035202Y011005D02*
X024182Y011005D01*
X024182Y010906D02*
X035202Y010906D01*
X035202Y010808D02*
X024182Y010808D01*
X024182Y010709D02*
X035202Y010709D01*
X035202Y010610D02*
X024182Y010610D01*
X024182Y010512D02*
X035202Y010512D01*
X035202Y010413D02*
X024182Y010413D01*
X024182Y010315D02*
X035202Y010315D01*
X035202Y010216D02*
X024182Y010216D01*
X024182Y010118D02*
X035202Y010118D01*
X035202Y010019D02*
X031177Y010019D01*
X031218Y010002D02*
X031033Y010079D01*
X030832Y010079D01*
X030646Y010002D01*
X030504Y009860D01*
X030428Y009675D01*
X030428Y009474D01*
X030504Y009289D01*
X030646Y009147D01*
X030832Y009070D01*
X031033Y009070D01*
X031218Y009147D01*
X031360Y009289D01*
X031437Y009474D01*
X031437Y009675D01*
X031360Y009860D01*
X031218Y010002D01*
X031300Y009921D02*
X035202Y009921D01*
X035202Y009822D02*
X031376Y009822D01*
X031417Y009724D02*
X035202Y009724D01*
X035202Y009625D02*
X031437Y009625D01*
X031437Y009526D02*
X035202Y009526D01*
X035202Y009428D02*
X031418Y009428D01*
X031377Y009329D02*
X035202Y009329D01*
X035202Y009231D02*
X031302Y009231D01*
X031184Y009132D02*
X035202Y009132D01*
X035202Y009034D02*
X028583Y009034D01*
X028688Y008935D02*
X035202Y008935D01*
X035202Y008837D02*
X028787Y008837D01*
X028844Y008738D02*
X035202Y008738D01*
X035202Y008640D02*
X028885Y008640D01*
X028926Y008541D02*
X035202Y008541D01*
X035202Y008442D02*
X028934Y008442D01*
X028934Y008344D02*
X035202Y008344D01*
X035202Y008245D02*
X028934Y008245D01*
X028908Y008147D02*
X035202Y008147D01*
X035202Y008048D02*
X028868Y008048D01*
X028827Y007950D02*
X035202Y007950D01*
X035202Y007851D02*
X028745Y007851D01*
X028646Y007753D02*
X032275Y007753D01*
X032235Y007736D02*
X032137Y007638D01*
X032084Y007510D01*
X032084Y007371D01*
X032137Y007243D01*
X032235Y007145D01*
X032363Y007092D01*
X032501Y007092D01*
X032630Y007145D01*
X032728Y007243D01*
X032781Y007371D01*
X032781Y007510D01*
X032728Y007638D01*
X032630Y007736D01*
X032501Y007789D01*
X032363Y007789D01*
X032235Y007736D01*
X032153Y007654D02*
X028482Y007654D01*
X028432Y007556D02*
X032103Y007556D01*
X032084Y007457D02*
X028432Y007457D01*
X028432Y007359D02*
X032089Y007359D01*
X032130Y007260D02*
X031185Y007260D01*
X031218Y007246D02*
X031033Y007323D01*
X030832Y007323D01*
X030646Y007246D01*
X030504Y007104D01*
X030428Y006919D01*
X030428Y006718D01*
X030504Y006533D01*
X030646Y006391D01*
X030832Y006314D01*
X031033Y006314D01*
X031218Y006391D01*
X031360Y006533D01*
X031437Y006718D01*
X031437Y006919D01*
X031360Y007104D01*
X031218Y007246D01*
X031303Y007161D02*
X032219Y007161D01*
X032646Y007161D02*
X035202Y007161D01*
X035202Y007063D02*
X031377Y007063D01*
X031418Y006964D02*
X035202Y006964D01*
X035202Y006866D02*
X031437Y006866D01*
X031437Y006767D02*
X035202Y006767D01*
X035202Y006669D02*
X031416Y006669D01*
X031376Y006570D02*
X035202Y006570D01*
X035202Y006472D02*
X031299Y006472D01*
X031176Y006373D02*
X035202Y006373D01*
X035195Y006275D02*
X028432Y006275D01*
X028432Y006373D02*
X030689Y006373D01*
X030565Y006472D02*
X028432Y006472D01*
X028432Y006570D02*
X030489Y006570D01*
X030448Y006669D02*
X028432Y006669D01*
X028432Y006767D02*
X030428Y006767D01*
X030428Y006866D02*
X028432Y006866D01*
X028432Y006964D02*
X030446Y006964D01*
X030487Y007063D02*
X028432Y007063D01*
X028432Y007161D02*
X030561Y007161D01*
X030679Y007260D02*
X028432Y007260D01*
X028432Y006176D02*
X035097Y006176D01*
X034998Y006077D02*
X028432Y006077D01*
X028432Y005979D02*
X034900Y005979D01*
X034801Y005880D02*
X028432Y005880D01*
X028432Y005782D02*
X034703Y005782D01*
X034604Y005683D02*
X028432Y005683D01*
X028432Y005585D02*
X034505Y005585D01*
X034407Y005486D02*
X028432Y005486D01*
X027719Y009034D02*
X024646Y009034D01*
X024408Y009132D02*
X027957Y009132D01*
X028345Y009132D02*
X030681Y009132D01*
X030562Y009231D02*
X024182Y009231D01*
X024182Y009329D02*
X030487Y009329D01*
X030447Y009428D02*
X024182Y009428D01*
X024182Y009526D02*
X030428Y009526D01*
X030428Y009625D02*
X024182Y009625D01*
X024182Y009724D02*
X030448Y009724D01*
X030489Y009822D02*
X024182Y009822D01*
X024182Y009921D02*
X030565Y009921D01*
X030687Y010019D02*
X024182Y010019D01*
X032589Y007753D02*
X035202Y007753D01*
X035202Y007654D02*
X032711Y007654D01*
X032762Y007556D02*
X035202Y007556D01*
X035202Y007457D02*
X032781Y007457D01*
X032775Y007359D02*
X035202Y007359D01*
X035202Y007260D02*
X032734Y007260D01*
X035202Y020662D02*
X027654Y020662D01*
X027752Y020760D02*
X035202Y020760D01*
X035202Y020859D02*
X027851Y020859D01*
X027949Y020957D02*
X035202Y020957D01*
X035202Y021056D02*
X028048Y021056D01*
X028146Y021155D02*
X035202Y021155D01*
X035202Y021253D02*
X031745Y021253D01*
X031843Y021352D02*
X035202Y021352D01*
X035202Y021450D02*
X031942Y021450D01*
X032040Y021549D02*
X035202Y021549D01*
X035202Y021647D02*
X032653Y021647D01*
X032778Y021746D02*
X035202Y021746D01*
X035202Y021844D02*
X032877Y021844D01*
X032976Y021943D02*
X035202Y021943D01*
X035202Y022041D02*
X033074Y022041D01*
X033173Y022140D02*
X035202Y022140D01*
X035202Y022239D02*
X033973Y022239D01*
X034053Y022337D02*
X035202Y022337D01*
X035202Y022436D02*
X034093Y022436D01*
X034093Y022534D02*
X035202Y022534D01*
X035202Y022633D02*
X034068Y022633D01*
X034009Y022731D02*
X035202Y022731D01*
X035202Y022830D02*
X033866Y022830D01*
X033961Y022928D02*
X035202Y022928D01*
X033516Y022239D02*
X033271Y022239D01*
X033370Y022337D02*
X033436Y022337D01*
D22*
X006952Y014191D02*
X006952Y006302D01*
X007794Y005461D01*
X019682Y005461D01*
X019682Y010191D01*
X019182Y010691D01*
X019182Y012941D01*
X019942Y012941D01*
X020065Y013064D01*
X020335Y013175D01*
X020628Y013175D01*
X020898Y013064D01*
X021021Y012941D01*
X021844Y012941D01*
X021967Y013064D01*
X022237Y013175D01*
X022529Y013175D01*
X022799Y013064D01*
X022922Y012941D01*
X023432Y012941D01*
X023432Y013555D01*
X023409Y013611D01*
X023409Y013770D01*
X023432Y013826D01*
X023432Y015555D01*
X023409Y015611D01*
X023409Y015770D01*
X023432Y015826D01*
X023432Y016191D01*
X022932Y016691D01*
X021932Y016691D01*
X021932Y018191D01*
X021044Y018191D01*
X021061Y018173D01*
X021107Y018063D01*
X021107Y017250D01*
X021107Y017131D01*
X021061Y017021D01*
X020436Y016396D01*
X020352Y016311D01*
X020242Y016266D01*
X018244Y016266D01*
X017982Y016004D01*
X017982Y015850D01*
X018048Y015663D01*
X018054Y015646D01*
X018081Y015582D01*
X018081Y015424D01*
X018020Y015277D01*
X017908Y015165D01*
X017761Y015105D01*
X017603Y015105D01*
X017456Y015165D01*
X017344Y015277D01*
X017284Y015424D01*
X017284Y015582D01*
X017310Y015645D01*
X017326Y015692D01*
X017326Y015692D01*
X017336Y015718D01*
X017283Y015665D01*
X017136Y015605D01*
X016978Y015605D01*
X016831Y015665D01*
X016719Y015777D01*
X016693Y015840D01*
X015514Y014661D01*
X015442Y014510D01*
X015442Y014510D01*
X015421Y014465D01*
X015395Y014402D01*
X015283Y014290D01*
X015136Y014230D01*
X014978Y014230D01*
X014831Y014290D01*
X014719Y014402D01*
X014659Y014549D01*
X014659Y014618D01*
X014639Y014599D01*
X014567Y014448D01*
X014567Y014448D01*
X014546Y014403D01*
X014520Y014340D01*
X014408Y014228D01*
X014261Y014167D01*
X014103Y014167D01*
X013956Y014228D01*
X013844Y014340D01*
X013784Y014486D01*
X013784Y014645D01*
X013844Y014791D01*
X013956Y014903D01*
X014020Y014929D01*
X014035Y014937D01*
X014064Y014951D01*
X014064Y014951D01*
X014215Y015023D01*
X014450Y015257D01*
X014560Y015303D01*
X014679Y015303D01*
X014808Y015303D01*
X017262Y017757D01*
X017265Y017759D01*
X017373Y017803D01*
X017373Y017803D01*
X017492Y017803D01*
X019183Y017803D01*
X019195Y017815D01*
X019195Y018191D01*
X019106Y018191D01*
X019102Y018186D01*
X018992Y018141D01*
X018872Y018141D01*
X015872Y018141D01*
X015762Y018186D01*
X015758Y018191D01*
X014682Y018191D01*
X014682Y016691D01*
X011932Y016691D01*
X011932Y014191D01*
X010693Y014191D01*
X010636Y014167D01*
X010478Y014167D01*
X010422Y014191D01*
X006952Y014191D01*
X006952Y014081D02*
X014834Y014081D01*
X014853Y014089D02*
X014706Y014028D01*
X014594Y013916D01*
X014534Y013770D01*
X014534Y013611D01*
X014594Y013465D01*
X014706Y013353D01*
X014853Y013292D01*
X015011Y013292D01*
X015158Y013353D01*
X015270Y013465D01*
X015331Y013611D01*
X015331Y013770D01*
X015270Y013916D01*
X015158Y014028D01*
X015011Y014089D01*
X014853Y014089D01*
X015030Y014081D02*
X019746Y014081D01*
X019746Y014087D02*
X019746Y013794D01*
X019858Y013524D01*
X020065Y013317D01*
X020335Y013206D01*
X020628Y013206D01*
X020898Y013317D01*
X021104Y013524D01*
X021216Y013794D01*
X021216Y014087D01*
X021104Y014357D01*
X020898Y014564D01*
X020628Y014675D01*
X020335Y014675D01*
X020065Y014564D01*
X019858Y014357D01*
X019746Y014087D01*
X019793Y014200D02*
X014340Y014200D01*
X014498Y014318D02*
X014803Y014318D01*
X014705Y014437D02*
X014562Y014437D01*
X014619Y014555D02*
X014659Y014555D01*
X014222Y015030D02*
X011932Y015030D01*
X011932Y015148D02*
X014341Y015148D01*
X014472Y015267D02*
X011932Y015267D01*
X011932Y015385D02*
X014890Y015385D01*
X015009Y015504D02*
X011932Y015504D01*
X011932Y015622D02*
X015127Y015622D01*
X015246Y015741D02*
X011932Y015741D01*
X011932Y015859D02*
X015364Y015859D01*
X015483Y015978D02*
X011932Y015978D01*
X011932Y016097D02*
X015601Y016097D01*
X015720Y016215D02*
X011932Y016215D01*
X011932Y016334D02*
X015839Y016334D01*
X015957Y016452D02*
X011932Y016452D01*
X011932Y016571D02*
X016076Y016571D01*
X016194Y016689D02*
X011932Y016689D01*
X011932Y014911D02*
X013975Y014911D01*
X013846Y014793D02*
X011932Y014793D01*
X011932Y014674D02*
X013796Y014674D01*
X013784Y014555D02*
X011932Y014555D01*
X011932Y014437D02*
X013804Y014437D01*
X013866Y014318D02*
X011932Y014318D01*
X011932Y014200D02*
X014024Y014200D01*
X014565Y013844D02*
X006952Y013844D01*
X006952Y013726D02*
X014534Y013726D01*
X014535Y013607D02*
X006952Y013607D01*
X006952Y013489D02*
X014585Y013489D01*
X014689Y013370D02*
X006952Y013370D01*
X006952Y013251D02*
X020224Y013251D01*
X020233Y013133D02*
X006952Y013133D01*
X006952Y013014D02*
X020016Y013014D01*
X020013Y013370D02*
X015175Y013370D01*
X015280Y013489D02*
X019894Y013489D01*
X019824Y013607D02*
X015329Y013607D01*
X015331Y013726D02*
X019775Y013726D01*
X019746Y013844D02*
X015300Y013844D01*
X015223Y013963D02*
X019746Y013963D01*
X019842Y014318D02*
X015311Y014318D01*
X015409Y014437D02*
X019938Y014437D01*
X020057Y014555D02*
X015464Y014555D01*
X015527Y014674D02*
X020332Y014674D01*
X020335Y014706D02*
X020628Y014706D01*
X020898Y014817D01*
X021104Y015024D01*
X021216Y015294D01*
X021216Y015587D01*
X021104Y015857D01*
X020898Y016064D01*
X020628Y016175D01*
X020335Y016175D01*
X020065Y016064D01*
X019858Y015857D01*
X019746Y015587D01*
X019746Y015294D01*
X019858Y015024D01*
X020065Y014817D01*
X020335Y014706D01*
X020125Y014793D02*
X015646Y014793D01*
X015764Y014911D02*
X019971Y014911D01*
X019856Y015030D02*
X015883Y015030D01*
X016002Y015148D02*
X017498Y015148D01*
X017355Y015267D02*
X016120Y015267D01*
X016239Y015385D02*
X017300Y015385D01*
X017284Y015504D02*
X016357Y015504D01*
X016476Y015622D02*
X016935Y015622D01*
X016756Y015741D02*
X016594Y015741D01*
X017179Y015622D02*
X017300Y015622D01*
X017867Y015148D02*
X019807Y015148D01*
X019758Y015267D02*
X018009Y015267D01*
X018065Y015385D02*
X019746Y015385D01*
X019746Y015504D02*
X018081Y015504D01*
X018064Y015622D02*
X019761Y015622D01*
X019810Y015741D02*
X018021Y015741D01*
X017982Y015859D02*
X019861Y015859D01*
X019979Y015978D02*
X017982Y015978D01*
X018075Y016097D02*
X020145Y016097D01*
X020375Y016334D02*
X023289Y016334D01*
X023171Y016452D02*
X020493Y016452D01*
X020612Y016571D02*
X023052Y016571D01*
X022934Y016689D02*
X020730Y016689D01*
X020849Y016808D02*
X021932Y016808D01*
X021932Y016926D02*
X020967Y016926D01*
X021072Y017045D02*
X021932Y017045D01*
X021932Y017163D02*
X021107Y017163D01*
X021107Y017282D02*
X021932Y017282D01*
X021932Y017401D02*
X021107Y017401D01*
X021107Y017519D02*
X021932Y017519D01*
X021932Y017638D02*
X021107Y017638D01*
X021107Y017756D02*
X021932Y017756D01*
X021932Y017875D02*
X021107Y017875D01*
X021107Y017993D02*
X021932Y017993D01*
X021932Y018112D02*
X021087Y018112D01*
X020818Y016097D02*
X022223Y016097D01*
X022251Y016104D02*
X022166Y016081D01*
X022084Y016047D01*
X022007Y016003D01*
X021937Y015949D01*
X021874Y015886D01*
X021821Y015816D01*
X021776Y015740D01*
X021742Y015658D01*
X021720Y015573D01*
X021710Y015500D01*
X022323Y015500D01*
X022323Y015381D01*
X021710Y015381D01*
X021720Y015309D01*
X021742Y015223D01*
X021776Y015141D01*
X021821Y015065D01*
X021874Y014995D01*
X021937Y014932D01*
X022007Y014878D01*
X022084Y014834D01*
X022166Y014800D01*
X022251Y014777D01*
X022323Y014768D01*
X022323Y015380D01*
X022443Y015380D01*
X022443Y014768D01*
X022515Y014777D01*
X022600Y014800D01*
X022682Y014834D01*
X022759Y014878D01*
X022829Y014932D01*
X022891Y014995D01*
X022945Y015065D01*
X022990Y015141D01*
X023023Y015223D01*
X023046Y015309D01*
X023056Y015381D01*
X022443Y015381D01*
X022443Y015500D01*
X023056Y015500D01*
X023046Y015573D01*
X023023Y015658D01*
X022990Y015740D01*
X022945Y015816D01*
X022891Y015886D01*
X022829Y015949D01*
X022759Y016003D01*
X022682Y016047D01*
X022600Y016081D01*
X022515Y016104D01*
X022443Y016113D01*
X022443Y015501D01*
X022323Y015501D01*
X022323Y016113D01*
X022251Y016104D01*
X022323Y016097D02*
X022443Y016097D01*
X022543Y016097D02*
X023432Y016097D01*
X023432Y015978D02*
X022791Y015978D01*
X022912Y015859D02*
X023432Y015859D01*
X023409Y015741D02*
X022989Y015741D01*
X023033Y015622D02*
X023409Y015622D01*
X023432Y015504D02*
X023055Y015504D01*
X023035Y015267D02*
X023432Y015267D01*
X023432Y015385D02*
X022443Y015385D01*
X022443Y015267D02*
X022323Y015267D01*
X022323Y015385D02*
X021216Y015385D01*
X021205Y015267D02*
X021731Y015267D01*
X021774Y015148D02*
X021156Y015148D01*
X021107Y015030D02*
X021848Y015030D01*
X021964Y014911D02*
X020991Y014911D01*
X020838Y014793D02*
X022193Y014793D01*
X022323Y014793D02*
X022443Y014793D01*
X022443Y014911D02*
X022323Y014911D01*
X022323Y015030D02*
X022443Y015030D01*
X022443Y015148D02*
X022323Y015148D01*
X022323Y015504D02*
X022443Y015504D01*
X022443Y015622D02*
X022323Y015622D01*
X022323Y015741D02*
X022443Y015741D01*
X022443Y015859D02*
X022323Y015859D01*
X022323Y015978D02*
X022443Y015978D01*
X021975Y015978D02*
X020983Y015978D01*
X021102Y015859D02*
X021854Y015859D01*
X021777Y015741D02*
X021152Y015741D01*
X021202Y015622D02*
X021733Y015622D01*
X021711Y015504D02*
X021216Y015504D01*
X020906Y014555D02*
X022104Y014555D01*
X022084Y014547D02*
X022007Y014503D01*
X021937Y014449D01*
X021874Y014386D01*
X021821Y014316D01*
X021776Y014240D01*
X021742Y014158D01*
X021720Y014073D01*
X021710Y014000D01*
X022323Y014000D01*
X022323Y013881D01*
X021710Y013881D01*
X021720Y013809D01*
X021742Y013723D01*
X021776Y013641D01*
X021821Y013565D01*
X021874Y013495D01*
X021937Y013432D01*
X022007Y013378D01*
X022084Y013334D01*
X022166Y013300D01*
X022251Y013277D01*
X022323Y013268D01*
X022323Y013880D01*
X022443Y013880D01*
X022443Y013268D01*
X022515Y013277D01*
X022600Y013300D01*
X022682Y013334D01*
X022759Y013378D01*
X022829Y013432D01*
X022891Y013495D01*
X022945Y013565D01*
X022990Y013641D01*
X023023Y013723D01*
X023046Y013809D01*
X023056Y013881D01*
X022443Y013881D01*
X022443Y014000D01*
X023056Y014000D01*
X023046Y014073D01*
X023023Y014158D01*
X022990Y014240D01*
X022945Y014316D01*
X022891Y014386D01*
X022829Y014449D01*
X022759Y014503D01*
X022682Y014547D01*
X022600Y014581D01*
X022515Y014604D01*
X022443Y014613D01*
X022443Y014001D01*
X022323Y014001D01*
X022323Y014613D01*
X022251Y014604D01*
X022166Y014581D01*
X022084Y014547D01*
X021925Y014437D02*
X021024Y014437D01*
X021120Y014318D02*
X021822Y014318D01*
X021760Y014200D02*
X021169Y014200D01*
X021216Y014081D02*
X021722Y014081D01*
X021715Y013844D02*
X021216Y013844D01*
X021216Y013963D02*
X022323Y013963D01*
X022323Y014081D02*
X022443Y014081D01*
X022443Y013963D02*
X023432Y013963D01*
X023432Y014081D02*
X023044Y014081D01*
X023006Y014200D02*
X023432Y014200D01*
X023432Y014318D02*
X022944Y014318D01*
X022841Y014437D02*
X023432Y014437D01*
X023432Y014555D02*
X022662Y014555D01*
X022443Y014555D02*
X022323Y014555D01*
X022323Y014437D02*
X022443Y014437D01*
X022443Y014318D02*
X022323Y014318D01*
X022323Y014200D02*
X022443Y014200D01*
X022443Y013844D02*
X022323Y013844D01*
X022323Y013726D02*
X022443Y013726D01*
X022443Y013607D02*
X022323Y013607D01*
X022323Y013489D02*
X022443Y013489D01*
X022443Y013370D02*
X022323Y013370D01*
X022021Y013370D02*
X020950Y013370D01*
X021069Y013489D02*
X021880Y013489D01*
X021796Y013607D02*
X021139Y013607D01*
X021188Y013726D02*
X021742Y013726D01*
X022134Y013133D02*
X020730Y013133D01*
X020738Y013251D02*
X023432Y013251D01*
X023432Y013133D02*
X022632Y013133D01*
X022848Y013014D02*
X023432Y013014D01*
X023432Y013370D02*
X022745Y013370D01*
X022886Y013489D02*
X023432Y013489D01*
X023411Y013607D02*
X022970Y013607D01*
X023024Y013726D02*
X023409Y013726D01*
X023432Y013844D02*
X023051Y013844D01*
X023432Y014674D02*
X020631Y014674D01*
X020947Y013014D02*
X021917Y013014D01*
X022572Y014793D02*
X023432Y014793D01*
X023432Y014911D02*
X022802Y014911D01*
X022918Y015030D02*
X023432Y015030D01*
X023432Y015148D02*
X022992Y015148D01*
X023408Y016215D02*
X018194Y016215D01*
X016905Y017401D02*
X014682Y017401D01*
X014682Y017519D02*
X017024Y017519D01*
X017143Y017638D02*
X014682Y017638D01*
X014682Y017756D02*
X017261Y017756D01*
X016787Y017282D02*
X014682Y017282D01*
X014682Y017163D02*
X016668Y017163D01*
X016550Y017045D02*
X014682Y017045D01*
X014682Y016926D02*
X016431Y016926D01*
X016313Y016808D02*
X014682Y016808D01*
X014682Y017875D02*
X019195Y017875D01*
X019195Y017993D02*
X014682Y017993D01*
X014682Y018112D02*
X019195Y018112D01*
X014641Y013963D02*
X006952Y013963D01*
X006952Y012896D02*
X019182Y012896D01*
X019182Y012777D02*
X006952Y012777D01*
X006952Y012659D02*
X010139Y012659D01*
X010185Y012678D02*
X010075Y012632D01*
X009990Y012548D01*
X009553Y012110D01*
X009507Y012000D01*
X009507Y011881D01*
X009507Y011600D01*
X009451Y011442D01*
X009435Y011395D01*
X009409Y011332D01*
X009409Y011174D01*
X009469Y011027D01*
X009581Y010915D01*
X009728Y010855D01*
X009886Y010855D01*
X010033Y010915D01*
X010145Y011027D01*
X010206Y011174D01*
X010206Y011332D01*
X010179Y011396D01*
X010173Y011413D01*
X010107Y011600D01*
X010107Y011816D01*
X010369Y012078D01*
X011577Y012078D01*
X011585Y012078D01*
X011767Y012014D01*
X011791Y012005D01*
X011853Y011980D01*
X012011Y011980D01*
X012158Y012040D01*
X012270Y012152D01*
X012331Y012299D01*
X012331Y012457D01*
X012270Y012604D01*
X012158Y012716D01*
X012011Y012776D01*
X011853Y012776D01*
X011790Y012750D01*
X011754Y012738D01*
X011585Y012678D01*
X011577Y012678D01*
X010185Y012678D01*
X009983Y012540D02*
X006952Y012540D01*
X006952Y012422D02*
X009864Y012422D01*
X009746Y012303D02*
X006952Y012303D01*
X006952Y012185D02*
X009627Y012185D01*
X009534Y012066D02*
X006952Y012066D01*
X006952Y011948D02*
X009507Y011948D01*
X009507Y011829D02*
X006952Y011829D01*
X006952Y011710D02*
X009507Y011710D01*
X009504Y011592D02*
X006952Y011592D01*
X006952Y011473D02*
X009463Y011473D01*
X009451Y011442D02*
X009451Y011442D01*
X009418Y011355D02*
X006952Y011355D01*
X006952Y011236D02*
X009409Y011236D01*
X009432Y011118D02*
X006952Y011118D01*
X006952Y010999D02*
X009498Y010999D01*
X009665Y010881D02*
X006952Y010881D01*
X006952Y010762D02*
X019182Y010762D01*
X019182Y010881D02*
X009949Y010881D01*
X010117Y010999D02*
X012556Y010999D01*
X012603Y010980D02*
X012761Y010980D01*
X012908Y011040D01*
X013020Y011152D01*
X013081Y011299D01*
X013081Y011457D01*
X013020Y011604D01*
X012908Y011716D01*
X012761Y011776D01*
X012603Y011776D01*
X012456Y011716D01*
X012344Y011604D01*
X012284Y011457D01*
X012284Y011299D01*
X012344Y011152D01*
X012456Y011040D01*
X012603Y010980D01*
X012809Y010999D02*
X013681Y010999D01*
X013728Y010980D02*
X013886Y010980D01*
X014033Y011040D01*
X014145Y011152D01*
X014206Y011299D01*
X014206Y011457D01*
X014145Y011604D01*
X014033Y011716D01*
X013886Y011776D01*
X013728Y011776D01*
X013582Y011716D01*
X013469Y011604D01*
X013409Y011457D01*
X013409Y011299D01*
X013469Y011152D01*
X013582Y011040D01*
X013728Y010980D01*
X013934Y010999D02*
X019182Y010999D01*
X019182Y011118D02*
X014110Y011118D01*
X014180Y011236D02*
X019182Y011236D01*
X019182Y011355D02*
X014206Y011355D01*
X014199Y011473D02*
X019182Y011473D01*
X019182Y011592D02*
X014150Y011592D01*
X014038Y011710D02*
X019182Y011710D01*
X019182Y011829D02*
X010120Y011829D01*
X010107Y011710D02*
X012451Y011710D01*
X012340Y011592D02*
X010110Y011592D01*
X010152Y011473D02*
X012290Y011473D01*
X012284Y011355D02*
X010196Y011355D01*
X010206Y011236D02*
X012310Y011236D01*
X012379Y011118D02*
X010182Y011118D01*
X010238Y011948D02*
X019182Y011948D01*
X019182Y012066D02*
X012184Y012066D01*
X012283Y012185D02*
X019182Y012185D01*
X019182Y012303D02*
X012331Y012303D01*
X012331Y012422D02*
X019182Y012422D01*
X019182Y012540D02*
X012296Y012540D01*
X012215Y012659D02*
X019182Y012659D01*
X019229Y010644D02*
X006952Y010644D01*
X006952Y010525D02*
X019348Y010525D01*
X019466Y010406D02*
X006952Y010406D01*
X006952Y010288D02*
X019585Y010288D01*
X019682Y010169D02*
X006952Y010169D01*
X006952Y010051D02*
X019682Y010051D01*
X019682Y009932D02*
X019072Y009932D01*
X019033Y009949D02*
X018831Y009949D01*
X018644Y009871D01*
X018502Y009728D01*
X018424Y009542D01*
X018424Y009339D01*
X018502Y009153D01*
X018644Y009010D01*
X018831Y008933D01*
X019033Y008933D01*
X019220Y009010D01*
X019363Y009153D01*
X019440Y009339D01*
X019440Y009542D01*
X019363Y009728D01*
X019220Y009871D01*
X019033Y009949D01*
X018792Y009932D02*
X016167Y009932D01*
X016240Y009902D02*
X016040Y009985D01*
X015824Y009985D01*
X015624Y009902D01*
X015471Y009749D01*
X015398Y009573D01*
X015381Y009626D01*
X015346Y009694D01*
X015301Y009756D01*
X015247Y009810D01*
X015186Y009854D01*
X015118Y009889D01*
X015046Y009913D01*
X014970Y009925D01*
X014962Y009925D01*
X014962Y009471D01*
X014902Y009471D01*
X014902Y009925D01*
X014894Y009925D01*
X014819Y009913D01*
X014746Y009889D01*
X014679Y009854D01*
X014617Y009810D01*
X014563Y009756D01*
X014518Y009694D01*
X014484Y009626D01*
X014466Y009573D01*
X014393Y009749D01*
X014240Y009902D01*
X014040Y009985D01*
X013824Y009985D01*
X013624Y009902D01*
X013471Y009749D01*
X013398Y009573D01*
X013381Y009626D01*
X013346Y009694D01*
X013301Y009756D01*
X013247Y009810D01*
X013186Y009854D01*
X013118Y009889D01*
X013046Y009913D01*
X012970Y009925D01*
X012962Y009925D01*
X012962Y009471D01*
X012902Y009471D01*
X012902Y009925D01*
X012894Y009925D01*
X012819Y009913D01*
X012746Y009889D01*
X012679Y009854D01*
X012617Y009810D01*
X012563Y009756D01*
X012518Y009694D01*
X012484Y009626D01*
X012460Y009554D01*
X012448Y009479D01*
X012448Y009471D01*
X012902Y009471D01*
X012902Y009410D01*
X012448Y009410D01*
X012448Y009402D01*
X012460Y009327D01*
X012484Y009255D01*
X012518Y009187D01*
X012563Y009125D01*
X012617Y009071D01*
X012679Y009027D01*
X012746Y008992D01*
X012800Y008975D01*
X012624Y008902D01*
X012471Y008749D01*
X012432Y008655D01*
X012393Y008749D01*
X012240Y008902D01*
X012064Y008975D01*
X012118Y008992D01*
X012186Y009027D01*
X012247Y009071D01*
X012301Y009125D01*
X012346Y009187D01*
X012381Y009255D01*
X012404Y009327D01*
X012416Y009402D01*
X012416Y009410D01*
X011962Y009410D01*
X011962Y009471D01*
X011902Y009471D01*
X011902Y009925D01*
X011894Y009925D01*
X011819Y009913D01*
X011746Y009889D01*
X011679Y009854D01*
X011617Y009810D01*
X011563Y009756D01*
X011518Y009694D01*
X011484Y009626D01*
X011466Y009573D01*
X011393Y009749D01*
X011240Y009902D01*
X011040Y009985D01*
X010824Y009985D01*
X010624Y009902D01*
X010471Y009749D01*
X010388Y009549D01*
X010388Y009332D01*
X010471Y009132D01*
X010624Y008979D01*
X010718Y008941D01*
X010624Y008902D01*
X010471Y008749D01*
X010388Y008549D01*
X010388Y008332D01*
X010471Y008132D01*
X010624Y007979D01*
X010824Y007897D01*
X011040Y007897D01*
X011240Y007979D01*
X011393Y008132D01*
X011432Y008226D01*
X011471Y008132D01*
X011624Y007979D01*
X011824Y007897D01*
X012040Y007897D01*
X012240Y007979D01*
X012393Y008132D01*
X012432Y008226D01*
X012471Y008132D01*
X012624Y007979D01*
X012824Y007897D01*
X013040Y007897D01*
X013240Y007979D01*
X013393Y008132D01*
X013411Y008174D01*
X013437Y008110D01*
X013601Y007945D01*
X013816Y007857D01*
X014048Y007857D01*
X014263Y007945D01*
X014427Y008110D01*
X014432Y008122D01*
X014437Y008110D01*
X014601Y007945D01*
X014816Y007857D01*
X015048Y007857D01*
X015263Y007945D01*
X015427Y008110D01*
X015432Y008122D01*
X015437Y008110D01*
X015601Y007945D01*
X015816Y007857D01*
X016048Y007857D01*
X016263Y007945D01*
X016427Y008110D01*
X016432Y008122D01*
X016437Y008110D01*
X016601Y007945D01*
X016816Y007857D01*
X017048Y007857D01*
X017263Y007945D01*
X017427Y008110D01*
X017516Y008324D01*
X017516Y008557D01*
X017427Y008771D01*
X017263Y008936D01*
X017122Y008994D01*
X017186Y009027D01*
X017247Y009071D01*
X017301Y009125D01*
X017346Y009187D01*
X017381Y009255D01*
X017404Y009327D01*
X017416Y009402D01*
X017416Y009410D01*
X016962Y009410D01*
X016962Y009471D01*
X016902Y009471D01*
X016902Y009925D01*
X016894Y009925D01*
X016819Y009913D01*
X016746Y009889D01*
X016679Y009854D01*
X016617Y009810D01*
X016563Y009756D01*
X016518Y009694D01*
X016484Y009626D01*
X016466Y009573D01*
X016393Y009749D01*
X016240Y009902D01*
X016328Y009814D02*
X016622Y009814D01*
X016519Y009695D02*
X016416Y009695D01*
X016465Y009577D02*
X016468Y009577D01*
X016902Y009577D02*
X016962Y009577D01*
X016962Y009471D02*
X016962Y009925D01*
X016970Y009925D01*
X017046Y009913D01*
X017118Y009889D01*
X017186Y009854D01*
X017247Y009810D01*
X017301Y009756D01*
X017346Y009694D01*
X017381Y009626D01*
X017404Y009554D01*
X017416Y009479D01*
X017416Y009471D01*
X016962Y009471D01*
X016962Y009458D02*
X017912Y009458D01*
X017912Y009461D02*
X017912Y009420D01*
X017952Y009420D01*
X017952Y008993D01*
X017967Y008993D01*
X018037Y009004D01*
X018104Y009025D01*
X018167Y009057D01*
X018224Y009099D01*
X018274Y009149D01*
X018315Y009206D01*
X018347Y009269D01*
X018369Y009336D01*
X018380Y009405D01*
X018380Y009420D01*
X017952Y009420D01*
X017952Y009461D01*
X017912Y009461D01*
X017912Y009889D01*
X017897Y009889D01*
X017827Y009877D01*
X017760Y009856D01*
X017697Y009824D01*
X017640Y009782D01*
X017590Y009732D01*
X017549Y009675D01*
X017517Y009613D01*
X017495Y009545D01*
X017484Y009476D01*
X017484Y009461D01*
X017912Y009461D01*
X017952Y009461D02*
X017952Y009889D01*
X017967Y009889D01*
X018037Y009877D01*
X018104Y009856D01*
X018167Y009824D01*
X018224Y009782D01*
X018274Y009732D01*
X018315Y009675D01*
X018347Y009613D01*
X018369Y009545D01*
X018380Y009476D01*
X018380Y009461D01*
X017952Y009461D01*
X017952Y009458D02*
X018424Y009458D01*
X018424Y009340D02*
X018370Y009340D01*
X018323Y009221D02*
X018473Y009221D01*
X018552Y009102D02*
X018228Y009102D01*
X017952Y009102D02*
X017912Y009102D01*
X017912Y008993D02*
X017912Y009420D01*
X017484Y009420D01*
X017484Y009405D01*
X017495Y009336D01*
X017517Y009269D01*
X017549Y009206D01*
X017590Y009149D01*
X017640Y009099D01*
X017697Y009057D01*
X017760Y009025D01*
X017827Y009004D01*
X017897Y008993D01*
X017912Y008993D01*
X017912Y009221D02*
X017952Y009221D01*
X017952Y009340D02*
X017912Y009340D01*
X017912Y009577D02*
X017952Y009577D01*
X017952Y009695D02*
X017912Y009695D01*
X017912Y009814D02*
X017952Y009814D01*
X018181Y009814D02*
X018587Y009814D01*
X018488Y009695D02*
X018301Y009695D01*
X018359Y009577D02*
X018439Y009577D01*
X018707Y008984D02*
X017146Y008984D01*
X017279Y009102D02*
X017637Y009102D01*
X017541Y009221D02*
X017364Y009221D01*
X017406Y009340D02*
X017495Y009340D01*
X017505Y009577D02*
X017397Y009577D01*
X017345Y009695D02*
X017564Y009695D01*
X017684Y009814D02*
X017242Y009814D01*
X016962Y009814D02*
X016902Y009814D01*
X016902Y009695D02*
X016962Y009695D01*
X017333Y008865D02*
X019682Y008865D01*
X019682Y008747D02*
X017437Y008747D01*
X017487Y008628D02*
X019682Y008628D01*
X019682Y008510D02*
X017516Y008510D01*
X017516Y008391D02*
X019682Y008391D01*
X019682Y008273D02*
X017495Y008273D01*
X017446Y008154D02*
X019682Y008154D01*
X019682Y008036D02*
X017353Y008036D01*
X017194Y007917D02*
X019682Y007917D01*
X019682Y007799D02*
X006952Y007799D01*
X006952Y007917D02*
X010774Y007917D01*
X010568Y008036D02*
X006952Y008036D01*
X006952Y008154D02*
X010462Y008154D01*
X010413Y008273D02*
X006952Y008273D01*
X006952Y008391D02*
X010388Y008391D01*
X010388Y008510D02*
X006952Y008510D01*
X006952Y008628D02*
X010421Y008628D01*
X010470Y008747D02*
X006952Y008747D01*
X006952Y008865D02*
X010588Y008865D01*
X010619Y008984D02*
X006952Y008984D01*
X006952Y009102D02*
X010501Y009102D01*
X010434Y009221D02*
X006952Y009221D01*
X006952Y009340D02*
X010388Y009340D01*
X010388Y009458D02*
X006952Y009458D01*
X006952Y009577D02*
X010400Y009577D01*
X010449Y009695D02*
X006952Y009695D01*
X006952Y009814D02*
X010536Y009814D01*
X010698Y009932D02*
X006952Y009932D01*
X006952Y007680D02*
X019682Y007680D01*
X019682Y007561D02*
X006952Y007561D01*
X006952Y007443D02*
X019682Y007443D01*
X019682Y007324D02*
X006952Y007324D01*
X006952Y007206D02*
X019682Y007206D01*
X019682Y007087D02*
X006952Y007087D01*
X006952Y006969D02*
X019682Y006969D01*
X019682Y006850D02*
X006952Y006850D01*
X006952Y006732D02*
X019682Y006732D01*
X019682Y006613D02*
X006952Y006613D01*
X006952Y006495D02*
X019682Y006495D01*
X019682Y006376D02*
X006952Y006376D01*
X006997Y006257D02*
X019682Y006257D01*
X019682Y006139D02*
X007116Y006139D01*
X007234Y006020D02*
X019682Y006020D01*
X019682Y005902D02*
X007353Y005902D01*
X007471Y005783D02*
X019682Y005783D01*
X019682Y005665D02*
X007590Y005665D01*
X007708Y005546D02*
X019682Y005546D01*
X016670Y007917D02*
X016194Y007917D01*
X016353Y008036D02*
X016511Y008036D01*
X015670Y007917D02*
X015194Y007917D01*
X015353Y008036D02*
X015511Y008036D01*
X014670Y007917D02*
X014194Y007917D01*
X014353Y008036D02*
X014511Y008036D01*
X013670Y007917D02*
X013090Y007917D01*
X013297Y008036D02*
X013511Y008036D01*
X013419Y008154D02*
X013402Y008154D01*
X012774Y007917D02*
X012090Y007917D01*
X012297Y008036D02*
X012568Y008036D01*
X012462Y008154D02*
X012402Y008154D01*
X012394Y008747D02*
X012470Y008747D01*
X012588Y008865D02*
X012277Y008865D01*
X012093Y008984D02*
X012771Y008984D01*
X012586Y009102D02*
X012279Y009102D01*
X012364Y009221D02*
X012501Y009221D01*
X012458Y009340D02*
X012406Y009340D01*
X012416Y009471D02*
X012416Y009479D01*
X012404Y009554D01*
X012381Y009626D01*
X012346Y009694D01*
X012301Y009756D01*
X012247Y009810D01*
X012186Y009854D01*
X012118Y009889D01*
X012046Y009913D01*
X011970Y009925D01*
X011962Y009925D01*
X011962Y009471D01*
X012416Y009471D01*
X012397Y009577D02*
X012468Y009577D01*
X012519Y009695D02*
X012345Y009695D01*
X012242Y009814D02*
X012622Y009814D01*
X012902Y009814D02*
X012962Y009814D01*
X012962Y009695D02*
X012902Y009695D01*
X012902Y009577D02*
X012962Y009577D01*
X012902Y009458D02*
X011962Y009458D01*
X011962Y009577D02*
X011902Y009577D01*
X011902Y009695D02*
X011962Y009695D01*
X011962Y009814D02*
X011902Y009814D01*
X011622Y009814D02*
X011328Y009814D01*
X011416Y009695D02*
X011519Y009695D01*
X011468Y009577D02*
X011465Y009577D01*
X011167Y009932D02*
X013698Y009932D01*
X013536Y009814D02*
X013242Y009814D01*
X013345Y009695D02*
X013449Y009695D01*
X013400Y009577D02*
X013397Y009577D01*
X014167Y009932D02*
X015698Y009932D01*
X015536Y009814D02*
X015242Y009814D01*
X015345Y009695D02*
X015449Y009695D01*
X015400Y009577D02*
X015397Y009577D01*
X014962Y009577D02*
X014902Y009577D01*
X014902Y009695D02*
X014962Y009695D01*
X014962Y009814D02*
X014902Y009814D01*
X014622Y009814D02*
X014328Y009814D01*
X014416Y009695D02*
X014519Y009695D01*
X014468Y009577D02*
X014465Y009577D01*
X013504Y011118D02*
X012985Y011118D01*
X013055Y011236D02*
X013435Y011236D01*
X013409Y011355D02*
X013081Y011355D01*
X013074Y011473D02*
X013415Y011473D01*
X013465Y011592D02*
X013025Y011592D01*
X012913Y011710D02*
X013576Y011710D01*
X011619Y012066D02*
X010357Y012066D01*
X011402Y008154D02*
X011462Y008154D01*
X011568Y008036D02*
X011297Y008036D01*
X011090Y007917D02*
X011774Y007917D01*
X019157Y008984D02*
X019682Y008984D01*
X019682Y009102D02*
X019313Y009102D01*
X019391Y009221D02*
X019682Y009221D01*
X019682Y009340D02*
X019440Y009340D01*
X019440Y009458D02*
X019682Y009458D01*
X019682Y009577D02*
X019426Y009577D01*
X019377Y009695D02*
X019682Y009695D01*
X019682Y009814D02*
X019277Y009814D01*
X018807Y029816D02*
X018807Y029941D01*
M02*
