G75*
G70*
%OFA0B0*%
%FSLAX24Y24*%
%IPPOS*%
%LPD*%
%AMOC8*
5,1,8,0,0,1.08239X$1,22.5*
%
%ADD10C,0.0080*%
%ADD11C,0.0050*%
%ADD12C,0.0040*%
%ADD13R,0.0340X0.0300*%
%ADD14R,0.0300X0.0340*%
%ADD15C,0.0236*%
D10*
X009460Y013462D02*
X011405Y013462D01*
X011405Y014919D01*
X009460Y014919D01*
X009460Y013462D01*
X012460Y015962D02*
X014405Y015962D01*
X014405Y017419D01*
X012460Y017419D01*
X012460Y015962D01*
X015460Y017462D02*
X015460Y018919D01*
X017405Y018919D01*
X017405Y017462D01*
X015460Y017462D01*
X018730Y018113D02*
X020105Y016738D01*
X021135Y017768D01*
X019760Y019143D01*
X018730Y018113D01*
X027110Y019151D02*
X029470Y019150D01*
X029470Y021731D01*
X027110Y021731D01*
X031608Y025388D02*
X031888Y025388D01*
X031608Y025668D01*
X031608Y025738D01*
X031678Y025808D01*
X031818Y025808D01*
X031888Y025738D01*
X032068Y025738D02*
X032138Y025808D01*
X032278Y025808D01*
X032348Y025738D01*
X032348Y025458D01*
X032278Y025388D01*
X032138Y025388D01*
X032068Y025458D01*
X016472Y037181D02*
X016472Y039541D01*
X013892Y039541D01*
X013892Y037181D01*
X012482Y038019D02*
X012412Y037949D01*
X012272Y037949D01*
X012202Y038019D01*
X012021Y038019D02*
X011951Y037949D01*
X011811Y037949D01*
X011741Y038019D01*
X011741Y038299D01*
X011811Y038369D01*
X011951Y038369D01*
X012021Y038299D01*
X012021Y038229D01*
X011951Y038159D01*
X011741Y038159D01*
X012202Y038299D02*
X012272Y038369D01*
X012412Y038369D01*
X012482Y038299D01*
X012482Y038019D01*
X011159Y038650D02*
X010879Y038650D01*
X010699Y038650D02*
X010418Y038650D01*
X010558Y038650D02*
X010558Y039070D01*
X010699Y038930D01*
X011159Y039070D02*
X011159Y038650D01*
X011060Y039449D02*
X010920Y039449D01*
X010849Y039519D01*
X010669Y039449D02*
X010389Y039449D01*
X010529Y039449D02*
X010529Y039869D01*
X010669Y039729D01*
X010849Y039799D02*
X010920Y039869D01*
X011060Y039869D01*
X011130Y039799D01*
X011130Y039519D01*
X011060Y039449D01*
X010209Y039519D02*
X009929Y039799D01*
X009929Y039519D01*
X009999Y039449D01*
X010139Y039449D01*
X010209Y039519D01*
X010209Y039799D01*
X010139Y039869D01*
X009999Y039869D01*
X009929Y039799D01*
X009142Y038713D02*
X009142Y038293D01*
X008862Y038293D01*
X008682Y038293D02*
X008402Y038573D01*
X008402Y038643D01*
X008472Y038713D01*
X008612Y038713D01*
X008682Y038643D01*
X008682Y038293D02*
X008402Y038293D01*
X008264Y035681D02*
X008124Y035681D01*
X008054Y035611D01*
X008054Y035541D01*
X008124Y035471D01*
X008264Y035471D01*
X008334Y035541D01*
X008334Y035611D01*
X008264Y035681D01*
X008264Y035471D02*
X008334Y035401D01*
X008334Y035331D01*
X008264Y035261D01*
X008124Y035261D01*
X008054Y035331D01*
X008054Y035401D01*
X008124Y035471D01*
X008514Y035331D02*
X008584Y035261D01*
X008724Y035261D01*
X008794Y035331D01*
X008794Y035611D01*
X008724Y035681D01*
X008584Y035681D01*
X008514Y035611D01*
X008513Y033745D02*
X008653Y033745D01*
X008723Y033675D01*
X008723Y033395D01*
X008653Y033325D01*
X008513Y033325D01*
X008443Y033395D01*
X008263Y033395D02*
X008263Y033325D01*
X008263Y033395D02*
X007983Y033675D01*
X007983Y033745D01*
X008263Y033745D01*
X008443Y033675D02*
X008513Y033745D01*
X011131Y033992D02*
X011131Y032889D01*
X012233Y032889D01*
X012233Y033992D01*
X011131Y033992D01*
X011879Y033756D02*
X012115Y033756D01*
X012113Y033776D01*
X012108Y033796D01*
X012099Y033815D01*
X012087Y033832D01*
X012073Y033846D01*
X012056Y033858D01*
X012037Y033867D01*
X012017Y033872D01*
X011997Y033874D01*
X011977Y033872D01*
X011957Y033867D01*
X011938Y033858D01*
X011921Y033846D01*
X011907Y033832D01*
X011895Y033815D01*
X011886Y033796D01*
X011881Y033776D01*
X011879Y033756D01*
X014441Y034801D02*
X014511Y034731D01*
X014652Y034731D01*
X014722Y034801D01*
X014652Y034941D02*
X014441Y034941D01*
X014441Y034801D02*
X014441Y035081D01*
X014511Y035151D01*
X014652Y035151D01*
X014722Y035081D01*
X014722Y035011D01*
X014652Y034941D01*
X014902Y035011D02*
X014902Y035081D01*
X014972Y035151D01*
X015112Y035151D01*
X015182Y035081D01*
X015362Y035081D02*
X015432Y035151D01*
X015572Y035151D01*
X015642Y035081D01*
X015642Y034801D01*
X015572Y034731D01*
X015432Y034731D01*
X015362Y034801D01*
X015182Y034731D02*
X014902Y034731D01*
X015182Y034731D02*
X014902Y035011D01*
D11*
X008986Y008241D02*
X008686Y008241D01*
X008686Y008541D02*
X008686Y008616D01*
X008761Y008691D01*
X008911Y008691D01*
X008986Y008616D01*
X009147Y008616D02*
X009147Y008466D01*
X009222Y008391D01*
X009447Y008391D01*
X009447Y008241D02*
X009447Y008691D01*
X009222Y008691D01*
X009147Y008616D01*
X008986Y008241D02*
X008686Y008541D01*
X008686Y009241D02*
X008986Y009241D01*
X008836Y009241D02*
X008836Y009691D01*
X008986Y009541D01*
X009147Y009616D02*
X009147Y009466D01*
X009222Y009391D01*
X009447Y009391D01*
X009447Y009241D02*
X009447Y009691D01*
X009222Y009691D01*
X009147Y009616D01*
X009607Y009691D02*
X009907Y009691D01*
X009757Y009691D02*
X009757Y009241D01*
X009757Y008691D02*
X009757Y008241D01*
X009907Y008691D02*
X009607Y008691D01*
X010290Y032203D02*
X010290Y032653D01*
X010515Y032428D01*
X010215Y032428D01*
X010675Y032278D02*
X010750Y032203D01*
X010900Y032203D01*
X010975Y032278D01*
X010975Y032578D01*
X010900Y032653D01*
X010750Y032653D01*
X010675Y032578D01*
X011132Y032653D02*
X011282Y032653D01*
X011207Y032653D02*
X011207Y032203D01*
X011282Y032203D02*
X011132Y032203D01*
D12*
X012912Y031796D02*
X013219Y031796D01*
X013219Y031566D01*
X013065Y031642D01*
X012989Y031642D01*
X012912Y031566D01*
X012912Y031412D01*
X012989Y031336D01*
X013142Y031336D01*
X013219Y031412D01*
X013372Y031412D02*
X013449Y031336D01*
X013602Y031336D01*
X013679Y031412D01*
X013372Y031719D01*
X013372Y031412D01*
X013679Y031412D02*
X013679Y031719D01*
X013602Y031796D01*
X013449Y031796D01*
X013372Y031719D01*
X013833Y031336D02*
X014139Y031336D01*
X013986Y031336D02*
X013986Y031796D01*
X014139Y031642D01*
X014293Y031566D02*
X014370Y031489D01*
X014600Y031489D01*
X014600Y031336D02*
X014600Y031796D01*
X014370Y031796D01*
X014293Y031719D01*
X014293Y031566D01*
X014446Y031489D02*
X014293Y031336D01*
X014418Y032461D02*
X014418Y032921D01*
X014188Y032921D01*
X014111Y032844D01*
X014111Y032691D01*
X014188Y032614D01*
X014418Y032614D01*
X014265Y032614D02*
X014111Y032461D01*
X013958Y032461D02*
X013651Y032461D01*
X013805Y032461D02*
X013805Y032921D01*
X013958Y032767D01*
X013498Y032767D02*
X013498Y032844D01*
X013421Y032921D01*
X013268Y032921D01*
X013191Y032844D01*
X013191Y032767D01*
X013268Y032691D01*
X013421Y032691D01*
X013498Y032767D01*
X013421Y032691D02*
X013498Y032614D01*
X013498Y032537D01*
X013421Y032461D01*
X013268Y032461D01*
X013191Y032537D01*
X013191Y032614D01*
X013268Y032691D01*
X013873Y033961D02*
X013873Y034037D01*
X013566Y034344D01*
X013566Y034421D01*
X013873Y034421D01*
X014180Y034421D02*
X014180Y033961D01*
X014333Y033961D02*
X014026Y033961D01*
X014333Y034267D02*
X014180Y034421D01*
X014486Y034344D02*
X014486Y034191D01*
X014563Y034114D01*
X014793Y034114D01*
X014640Y034114D02*
X014486Y033961D01*
X014793Y033961D02*
X014793Y034421D01*
X014563Y034421D01*
X014486Y034344D01*
X013537Y035287D02*
X013461Y035211D01*
X013307Y035211D01*
X013230Y035287D01*
X013077Y035211D02*
X012770Y035211D01*
X012923Y035211D02*
X012923Y035671D01*
X013077Y035517D01*
X013230Y035594D02*
X013307Y035671D01*
X013461Y035671D01*
X013537Y035594D01*
X013537Y035287D01*
X012616Y035287D02*
X012540Y035211D01*
X012386Y035211D01*
X012310Y035287D01*
X012310Y035594D01*
X012616Y035287D01*
X012616Y035594D01*
X012540Y035671D01*
X012386Y035671D01*
X012310Y035594D01*
X012156Y035594D02*
X012079Y035671D01*
X011926Y035671D01*
X011849Y035594D01*
X012156Y035287D01*
X012079Y035211D01*
X011926Y035211D01*
X011849Y035287D01*
X011849Y035594D01*
X012156Y035594D02*
X012156Y035287D01*
X012148Y034608D02*
X012225Y034532D01*
X012225Y034225D01*
X012148Y034148D01*
X011995Y034148D01*
X011918Y034225D01*
X011764Y034225D02*
X011688Y034148D01*
X011534Y034148D01*
X011457Y034225D01*
X011457Y034301D01*
X011534Y034378D01*
X011611Y034378D01*
X011534Y034378D02*
X011457Y034455D01*
X011457Y034532D01*
X011534Y034608D01*
X011688Y034608D01*
X011764Y034532D01*
X011918Y034532D02*
X011995Y034608D01*
X012148Y034608D01*
X011304Y034532D02*
X011304Y034225D01*
X010997Y034532D01*
X010997Y034225D01*
X011074Y034148D01*
X011227Y034148D01*
X011304Y034225D01*
X011304Y034532D02*
X011227Y034608D01*
X011074Y034608D01*
X010997Y034532D01*
X011580Y036398D02*
X011503Y036475D01*
X011503Y036782D01*
X011580Y036858D01*
X011733Y036858D01*
X011810Y036782D01*
X011810Y036705D01*
X011733Y036628D01*
X011503Y036628D01*
X011580Y036398D02*
X011733Y036398D01*
X011810Y036475D01*
X011964Y036475D02*
X012040Y036398D01*
X012194Y036398D01*
X012271Y036475D01*
X012424Y036475D02*
X012501Y036398D01*
X012654Y036398D01*
X012731Y036475D01*
X012731Y036782D01*
X012654Y036858D01*
X012501Y036858D01*
X012424Y036782D01*
X012271Y036782D02*
X012194Y036858D01*
X012040Y036858D01*
X011964Y036782D01*
X011964Y036705D01*
X012040Y036628D01*
X011964Y036551D01*
X011964Y036475D01*
X012040Y036628D02*
X012117Y036628D01*
X013029Y037711D02*
X012952Y037787D01*
X012952Y037941D01*
X013029Y038017D01*
X013182Y038171D02*
X013182Y038478D01*
X013029Y038631D02*
X013336Y038938D01*
X013029Y038938D01*
X012952Y038861D01*
X012952Y038708D01*
X013029Y038631D01*
X013336Y038631D01*
X013413Y038708D01*
X013413Y038861D01*
X013336Y038938D01*
X013413Y038401D02*
X013182Y038171D01*
X013336Y038017D02*
X013413Y037941D01*
X013413Y037787D01*
X013336Y037711D01*
X013029Y037711D01*
X012952Y038401D02*
X013413Y038401D01*
X013341Y040454D02*
X013265Y040531D01*
X013265Y040685D01*
X013341Y040761D01*
X013495Y040915D02*
X013495Y041222D01*
X013495Y041375D02*
X013495Y041682D01*
X013725Y041605D02*
X013495Y041375D01*
X013725Y041145D02*
X013495Y040915D01*
X013648Y040761D02*
X013725Y040685D01*
X013725Y040531D01*
X013648Y040454D01*
X013341Y040454D01*
X013094Y040534D02*
X013017Y040457D01*
X012710Y040457D01*
X012634Y040534D01*
X012634Y040687D01*
X012710Y040764D01*
X012864Y040917D02*
X012864Y041224D01*
X013017Y041378D02*
X013094Y041454D01*
X013094Y041608D01*
X013017Y041684D01*
X012941Y041684D01*
X012864Y041608D01*
X012787Y041684D01*
X012710Y041684D01*
X012634Y041608D01*
X012634Y041454D01*
X012710Y041378D01*
X012864Y041531D02*
X012864Y041608D01*
X013265Y041605D02*
X013725Y041605D01*
X013725Y041145D02*
X013265Y041145D01*
X013094Y041147D02*
X012864Y040917D01*
X013017Y040764D02*
X013094Y040687D01*
X013094Y040534D01*
X013094Y041147D02*
X012634Y041147D01*
X015128Y041412D02*
X015205Y041336D01*
X015359Y041336D01*
X015435Y041412D01*
X015435Y041566D02*
X015282Y041642D01*
X015205Y041642D01*
X015128Y041566D01*
X015128Y041412D01*
X015435Y041566D02*
X015435Y041796D01*
X015128Y041796D01*
X015589Y041566D02*
X015896Y041566D01*
X015665Y041796D01*
X015665Y041336D01*
X016049Y041412D02*
X016126Y041336D01*
X016279Y041336D01*
X016356Y041412D01*
X016356Y041719D01*
X016279Y041796D01*
X016126Y041796D01*
X016049Y041719D01*
X018310Y040157D02*
X018386Y040233D01*
X018540Y040233D01*
X018616Y040157D01*
X018770Y040157D02*
X018847Y040233D01*
X019000Y040233D01*
X019077Y040157D01*
X019077Y040080D01*
X019000Y040003D01*
X018770Y040003D01*
X018770Y039850D02*
X018770Y040157D01*
X018770Y039850D02*
X018847Y039773D01*
X019000Y039773D01*
X019077Y039850D01*
X019230Y039773D02*
X019384Y039926D01*
X019307Y039926D02*
X019537Y039926D01*
X019537Y039773D02*
X019537Y040233D01*
X019307Y040233D01*
X019230Y040157D01*
X019230Y040003D01*
X019307Y039926D01*
X019410Y039537D02*
X019641Y039307D01*
X019334Y039307D01*
X019180Y039460D02*
X019104Y039537D01*
X018950Y039537D01*
X018873Y039460D01*
X018873Y039384D01*
X019180Y039077D01*
X018873Y039077D01*
X018616Y039773D02*
X018310Y039773D01*
X018616Y039773D02*
X018310Y040080D01*
X018310Y040157D01*
X019410Y039537D02*
X019410Y039077D01*
X019794Y039153D02*
X019871Y039077D01*
X020024Y039077D01*
X020101Y039153D01*
X020101Y039460D01*
X020024Y039537D01*
X019871Y039537D01*
X019794Y039460D01*
X021503Y037719D02*
X021503Y037642D01*
X021580Y037566D01*
X021733Y037566D01*
X021810Y037642D01*
X021810Y037719D01*
X021733Y037796D01*
X021580Y037796D01*
X021503Y037719D01*
X021580Y037566D02*
X021503Y037489D01*
X021503Y037412D01*
X021580Y037336D01*
X021733Y037336D01*
X021810Y037412D01*
X021810Y037489D01*
X021733Y037566D01*
X021964Y037566D02*
X022194Y037566D01*
X022271Y037642D01*
X022271Y037719D01*
X022194Y037796D01*
X022040Y037796D01*
X021964Y037719D01*
X021964Y037412D01*
X022040Y037336D01*
X022194Y037336D01*
X022271Y037412D01*
X022424Y037412D02*
X022501Y037336D01*
X022654Y037336D01*
X022731Y037412D01*
X022731Y037719D01*
X022654Y037796D01*
X022501Y037796D01*
X022424Y037719D01*
X022893Y036296D02*
X022816Y036219D01*
X022816Y035912D01*
X022893Y035836D01*
X023046Y035836D01*
X023123Y035912D01*
X023276Y035912D02*
X023276Y036219D01*
X023353Y036296D01*
X023506Y036296D01*
X023583Y036219D01*
X023583Y036142D01*
X023506Y036066D01*
X023276Y036066D01*
X023276Y035912D02*
X023353Y035836D01*
X023506Y035836D01*
X023583Y035912D01*
X023736Y035912D02*
X023813Y035836D01*
X023967Y035836D01*
X024043Y035912D01*
X024043Y036219D01*
X023967Y036296D01*
X023813Y036296D01*
X023736Y036219D01*
X023123Y036219D02*
X023123Y036142D01*
X023046Y036066D01*
X022816Y036066D01*
X022893Y036296D02*
X023046Y036296D01*
X023123Y036219D01*
X022955Y032671D02*
X023185Y032441D01*
X022878Y032441D01*
X022955Y032211D02*
X022955Y032671D01*
X023339Y032594D02*
X023415Y032671D01*
X023569Y032671D01*
X023645Y032594D01*
X023799Y032594D02*
X023799Y032441D01*
X023876Y032364D01*
X024106Y032364D01*
X024106Y032211D02*
X024106Y032671D01*
X023876Y032671D01*
X023799Y032594D01*
X023952Y032364D02*
X023799Y032211D01*
X023645Y032211D02*
X023339Y032517D01*
X023339Y032594D01*
X023339Y032211D02*
X023645Y032211D01*
X023586Y029546D02*
X023509Y029469D01*
X023509Y029316D01*
X023586Y029239D01*
X023816Y029239D01*
X023663Y029239D02*
X023509Y029086D01*
X023356Y029086D02*
X023049Y029086D01*
X023202Y029086D02*
X023202Y029546D01*
X023356Y029392D01*
X023586Y029546D02*
X023816Y029546D01*
X023816Y029086D01*
X022896Y029162D02*
X022589Y029469D01*
X022589Y029162D01*
X022665Y029086D01*
X022819Y029086D01*
X022896Y029162D01*
X022896Y029469D01*
X022819Y029546D01*
X022665Y029546D01*
X022589Y029469D01*
X022435Y029392D02*
X022282Y029546D01*
X022282Y029086D01*
X022435Y029086D02*
X022128Y029086D01*
X018912Y028733D02*
X018912Y028273D01*
X018912Y028426D02*
X018682Y028426D01*
X018605Y028503D01*
X018605Y028657D01*
X018682Y028733D01*
X018912Y028733D01*
X018759Y028426D02*
X018605Y028273D01*
X018452Y028350D02*
X018375Y028273D01*
X018222Y028273D01*
X018145Y028350D01*
X018145Y028657D01*
X018222Y028733D01*
X018375Y028733D01*
X018452Y028657D01*
X018452Y028580D01*
X018375Y028503D01*
X018145Y028503D01*
X017991Y028350D02*
X017991Y028273D01*
X017991Y028350D02*
X017685Y028657D01*
X017685Y028733D01*
X017991Y028733D01*
X014225Y029461D02*
X014225Y029921D01*
X013995Y029921D01*
X013918Y029844D01*
X013918Y029691D01*
X013995Y029614D01*
X014225Y029614D01*
X014071Y029614D02*
X013918Y029461D01*
X013764Y029537D02*
X013764Y029614D01*
X013688Y029691D01*
X013534Y029691D01*
X013457Y029614D01*
X013457Y029537D01*
X013534Y029461D01*
X013688Y029461D01*
X013764Y029537D01*
X013688Y029691D02*
X013764Y029767D01*
X013764Y029844D01*
X013688Y029921D01*
X013534Y029921D01*
X013457Y029844D01*
X013457Y029767D01*
X013534Y029691D01*
X013304Y029767D02*
X013304Y029844D01*
X013227Y029921D01*
X013074Y029921D01*
X012997Y029844D01*
X012997Y029767D01*
X013074Y029691D01*
X013227Y029691D01*
X013304Y029767D01*
X013227Y029691D02*
X013304Y029614D01*
X013304Y029537D01*
X013227Y029461D01*
X013074Y029461D01*
X012997Y029537D01*
X012997Y029614D01*
X013074Y029691D01*
X012787Y025171D02*
X012557Y025171D01*
X012480Y025094D01*
X012480Y024941D01*
X012557Y024864D01*
X012787Y024864D01*
X012634Y024864D02*
X012480Y024711D01*
X012327Y024787D02*
X012250Y024711D01*
X012097Y024711D01*
X012020Y024787D01*
X012020Y025094D01*
X012097Y025171D01*
X012250Y025171D01*
X012327Y025094D01*
X012327Y025017D01*
X012250Y024941D01*
X012020Y024941D01*
X011866Y025094D02*
X011790Y025171D01*
X011636Y025171D01*
X011560Y025094D01*
X011560Y025017D01*
X011636Y024941D01*
X011560Y024864D01*
X011560Y024787D01*
X011636Y024711D01*
X011790Y024711D01*
X011866Y024787D01*
X011713Y024941D02*
X011636Y024941D01*
X012787Y024711D02*
X012787Y025171D01*
X012751Y023421D02*
X012674Y023344D01*
X012674Y023191D01*
X012751Y023114D01*
X012981Y023114D01*
X012981Y022961D02*
X012981Y023421D01*
X012751Y023421D01*
X012827Y023114D02*
X012674Y022961D01*
X012520Y023037D02*
X012444Y022961D01*
X012290Y022961D01*
X012214Y023037D01*
X012214Y023114D01*
X012290Y023191D01*
X012520Y023191D01*
X012520Y023037D01*
X012520Y023191D02*
X012367Y023344D01*
X012214Y023421D01*
X012060Y023421D02*
X011753Y023421D01*
X011753Y023344D01*
X012060Y023037D01*
X012060Y022961D01*
X013452Y021549D02*
X013529Y021626D01*
X013836Y021626D01*
X013913Y021549D01*
X013913Y021395D01*
X013836Y021319D01*
X013759Y021319D01*
X013682Y021395D01*
X013682Y021626D01*
X013452Y021549D02*
X013452Y021395D01*
X013529Y021319D01*
X013529Y021165D02*
X013452Y021089D01*
X013452Y020935D01*
X013529Y020858D01*
X013452Y020705D02*
X013606Y020551D01*
X013606Y020628D02*
X013606Y020398D01*
X013452Y020398D02*
X013913Y020398D01*
X013913Y020628D01*
X013836Y020705D01*
X013682Y020705D01*
X013606Y020628D01*
X013836Y020858D02*
X013913Y020935D01*
X013913Y021089D01*
X013836Y021165D01*
X013759Y021165D01*
X013682Y021089D01*
X013606Y021165D01*
X013529Y021165D01*
X013682Y021089D02*
X013682Y021012D01*
X012788Y020674D02*
X012711Y020751D01*
X012634Y020751D01*
X012557Y020674D01*
X012481Y020751D01*
X012404Y020751D01*
X012327Y020674D01*
X012327Y020520D01*
X012404Y020444D01*
X012557Y020597D02*
X012557Y020674D01*
X012788Y020674D02*
X012788Y020520D01*
X012711Y020444D01*
X012557Y020290D02*
X012557Y019983D01*
X012788Y020214D01*
X012327Y020214D01*
X012327Y019830D02*
X012481Y019676D01*
X012481Y019753D02*
X012481Y019523D01*
X012327Y019523D02*
X012788Y019523D01*
X012788Y019753D01*
X012711Y019830D01*
X012557Y019830D01*
X012481Y019753D01*
X011731Y019344D02*
X011731Y019037D01*
X011654Y018961D01*
X011501Y018961D01*
X011424Y019037D01*
X011271Y019037D02*
X011271Y018961D01*
X011271Y019037D02*
X010964Y019344D01*
X010964Y019421D01*
X011271Y019421D01*
X011424Y019344D02*
X011501Y019421D01*
X011654Y019421D01*
X011731Y019344D01*
X010810Y019191D02*
X010580Y019191D01*
X010503Y019114D01*
X010503Y019037D01*
X010580Y018961D01*
X010733Y018961D01*
X010810Y019037D01*
X010810Y019191D01*
X010657Y019344D01*
X010503Y019421D01*
X009981Y018233D02*
X009751Y018233D01*
X009674Y018157D01*
X009674Y018003D01*
X009751Y017926D01*
X009981Y017926D01*
X009981Y017773D02*
X009981Y018233D01*
X009827Y017926D02*
X009674Y017773D01*
X009521Y017850D02*
X009444Y017773D01*
X009290Y017773D01*
X009214Y017850D01*
X009214Y018003D01*
X009290Y018080D01*
X009367Y018080D01*
X009521Y018003D01*
X009521Y018233D01*
X009214Y018233D01*
X009060Y018157D02*
X008983Y018233D01*
X008830Y018233D01*
X008753Y018157D01*
X008753Y018080D01*
X008830Y018003D01*
X008753Y017926D01*
X008753Y017850D01*
X008830Y017773D01*
X008983Y017773D01*
X009060Y017850D01*
X008907Y018003D02*
X008830Y018003D01*
X008912Y018961D02*
X008912Y019421D01*
X008682Y019421D01*
X008605Y019344D01*
X008605Y019191D01*
X008682Y019114D01*
X008912Y019114D01*
X008759Y019114D02*
X008605Y018961D01*
X008452Y018961D02*
X008452Y019037D01*
X008145Y019344D01*
X008145Y019421D01*
X008452Y019421D01*
X007991Y019191D02*
X007685Y019191D01*
X007761Y018961D02*
X007761Y019421D01*
X007991Y019191D01*
X008449Y020461D02*
X008372Y020537D01*
X008372Y020691D01*
X008449Y020767D01*
X008526Y020767D01*
X008679Y020691D01*
X008679Y020921D01*
X008372Y020921D01*
X008832Y020921D02*
X008986Y020844D01*
X009139Y020691D01*
X008909Y020691D01*
X008832Y020614D01*
X008832Y020537D01*
X008909Y020461D01*
X009063Y020461D01*
X009139Y020537D01*
X009139Y020691D01*
X009293Y020691D02*
X009370Y020614D01*
X009600Y020614D01*
X009600Y020461D02*
X009600Y020921D01*
X009370Y020921D01*
X009293Y020844D01*
X009293Y020691D01*
X009446Y020614D02*
X009293Y020461D01*
X008679Y020537D02*
X008602Y020461D01*
X008449Y020461D01*
X011195Y017926D02*
X011195Y017465D01*
X011042Y017465D02*
X011349Y017465D01*
X011502Y017465D02*
X011809Y017465D01*
X011656Y017465D02*
X011656Y017926D01*
X011809Y017772D01*
X011962Y017849D02*
X012039Y017926D01*
X012193Y017926D01*
X012269Y017849D01*
X012269Y017542D01*
X012193Y017465D01*
X012039Y017465D01*
X011962Y017542D01*
X012423Y017465D02*
X012576Y017465D01*
X012500Y017465D02*
X012500Y017926D01*
X012576Y017926D02*
X012423Y017926D01*
X012162Y016983D02*
X011932Y016983D01*
X011855Y016907D01*
X011855Y016753D01*
X011932Y016676D01*
X012162Y016676D01*
X012162Y016523D02*
X012162Y016983D01*
X012009Y016676D02*
X011855Y016523D01*
X011904Y016376D02*
X012211Y016376D01*
X012288Y016299D01*
X012288Y016145D01*
X012211Y016069D01*
X012134Y016069D01*
X012057Y016145D01*
X012057Y016376D01*
X011904Y016376D02*
X011827Y016299D01*
X011827Y016145D01*
X011904Y016069D01*
X012211Y015915D02*
X011904Y015608D01*
X011827Y015608D01*
X011904Y015455D02*
X011827Y015378D01*
X011827Y015225D01*
X011904Y015148D01*
X012211Y015148D01*
X012288Y015225D01*
X012288Y015378D01*
X012211Y015455D01*
X012288Y015608D02*
X012288Y015915D01*
X012211Y015915D01*
X011625Y016523D02*
X011702Y016600D01*
X011625Y016523D02*
X011472Y016523D01*
X011395Y016600D01*
X011395Y016753D01*
X011472Y016830D01*
X011548Y016830D01*
X011702Y016753D01*
X011702Y016983D01*
X011395Y016983D01*
X011241Y016753D02*
X010935Y016753D01*
X011011Y016523D02*
X011011Y016983D01*
X011241Y016753D01*
X011349Y017772D02*
X011195Y017926D01*
X013128Y018719D02*
X013435Y018412D01*
X013435Y018336D01*
X013589Y018719D02*
X013896Y018412D01*
X013896Y018336D01*
X014049Y018412D02*
X014126Y018336D01*
X014279Y018336D01*
X014356Y018412D01*
X014356Y018719D01*
X014279Y018796D01*
X014126Y018796D01*
X014049Y018719D01*
X013896Y018796D02*
X013589Y018796D01*
X013589Y018719D01*
X013435Y018796D02*
X013128Y018796D01*
X013128Y018719D01*
X014140Y018898D02*
X014600Y018898D01*
X014600Y019128D01*
X014523Y019205D01*
X014370Y019205D01*
X014293Y019128D01*
X014293Y018898D01*
X014293Y019052D02*
X014140Y019205D01*
X014370Y019358D02*
X014370Y019665D01*
X014370Y019819D02*
X014370Y020126D01*
X014600Y020049D02*
X014370Y019819D01*
X014140Y020049D02*
X014600Y020049D01*
X014885Y019784D02*
X014885Y019477D01*
X015192Y019784D01*
X015268Y019784D01*
X015345Y019707D01*
X015345Y019553D01*
X015268Y019477D01*
X015345Y019170D02*
X014885Y019170D01*
X014885Y019323D02*
X014885Y019016D01*
X014961Y018863D02*
X014885Y018786D01*
X014885Y018633D01*
X014961Y018556D01*
X015268Y018556D01*
X015345Y018633D01*
X015345Y018786D01*
X015268Y018863D01*
X015192Y019016D02*
X015345Y019170D01*
X015345Y018402D02*
X015345Y018249D01*
X015345Y018326D02*
X014885Y018326D01*
X014885Y018402D02*
X014885Y018249D01*
X014841Y017938D02*
X014765Y017861D01*
X014765Y017708D01*
X014841Y017631D01*
X014995Y017631D02*
X015072Y017785D01*
X015072Y017861D01*
X014995Y017938D01*
X014841Y017938D01*
X014995Y017631D02*
X015225Y017631D01*
X015225Y017938D01*
X015225Y017478D02*
X015148Y017478D01*
X014841Y017171D01*
X014765Y017171D01*
X014841Y017017D02*
X014765Y016941D01*
X014765Y016787D01*
X014841Y016711D01*
X015148Y016711D01*
X015225Y016787D01*
X015225Y016941D01*
X015148Y017017D01*
X015225Y017171D02*
X015225Y017478D01*
X015949Y016733D02*
X015872Y016657D01*
X015872Y016580D01*
X016179Y016273D01*
X015872Y016273D01*
X015949Y016733D02*
X016102Y016733D01*
X016179Y016657D01*
X016332Y016503D02*
X016639Y016503D01*
X016409Y016733D01*
X016409Y016273D01*
X016793Y016273D02*
X016946Y016426D01*
X016870Y016426D02*
X017100Y016426D01*
X017100Y016273D02*
X017100Y016733D01*
X016870Y016733D01*
X016793Y016657D01*
X016793Y016503D01*
X016870Y016426D01*
X016770Y015671D02*
X016464Y015671D01*
X016464Y015594D01*
X016770Y015287D01*
X016770Y015211D01*
X016924Y015287D02*
X017001Y015211D01*
X017154Y015211D01*
X017231Y015287D01*
X017231Y015594D01*
X017154Y015671D01*
X017001Y015671D01*
X016924Y015594D01*
X017001Y015046D02*
X016924Y014969D01*
X016924Y014816D01*
X017001Y014739D01*
X017231Y014739D01*
X017231Y014586D02*
X017231Y015046D01*
X017001Y015046D01*
X017077Y014739D02*
X016924Y014586D01*
X016771Y014816D02*
X016540Y015046D01*
X016540Y014586D01*
X016464Y014816D02*
X016771Y014816D01*
X016310Y014969D02*
X016233Y015046D01*
X016080Y015046D01*
X016003Y014969D01*
X016310Y014662D01*
X016233Y014586D01*
X016080Y014586D01*
X016003Y014662D01*
X016003Y014969D01*
X016080Y015211D02*
X016080Y015671D01*
X016310Y015441D01*
X016003Y015441D01*
X016310Y014969D02*
X016310Y014662D01*
X016580Y013733D02*
X016503Y013657D01*
X016503Y013580D01*
X016580Y013503D01*
X016503Y013426D01*
X016503Y013350D01*
X016580Y013273D01*
X016733Y013273D01*
X016810Y013350D01*
X016964Y013350D02*
X016964Y013426D01*
X017040Y013503D01*
X017270Y013503D01*
X017270Y013350D01*
X017194Y013273D01*
X017040Y013273D01*
X016964Y013350D01*
X017270Y013503D02*
X017117Y013657D01*
X016964Y013733D01*
X016810Y013657D02*
X016733Y013733D01*
X016580Y013733D01*
X016580Y013503D02*
X016657Y013503D01*
X017424Y013503D02*
X017501Y013426D01*
X017731Y013426D01*
X017731Y013273D02*
X017731Y013733D01*
X017501Y013733D01*
X017424Y013657D01*
X017424Y013503D01*
X017577Y013426D02*
X017424Y013273D01*
X019128Y011671D02*
X019282Y011594D01*
X019435Y011441D01*
X019205Y011441D01*
X019128Y011364D01*
X019128Y011287D01*
X019205Y011211D01*
X019359Y011211D01*
X019435Y011287D01*
X019435Y011441D01*
X019589Y011441D02*
X019819Y011441D01*
X019896Y011517D01*
X019896Y011594D01*
X019819Y011671D01*
X019665Y011671D01*
X019589Y011594D01*
X019589Y011287D01*
X019665Y011211D01*
X019819Y011211D01*
X019896Y011287D01*
X020049Y011287D02*
X020126Y011211D01*
X020279Y011211D01*
X020356Y011287D01*
X020356Y011594D01*
X020279Y011671D01*
X020126Y011671D01*
X020049Y011594D01*
X022311Y010975D02*
X022618Y010975D01*
X022618Y010744D01*
X022464Y010821D01*
X022388Y010821D01*
X022311Y010744D01*
X022311Y010591D01*
X022388Y010514D01*
X022541Y010514D01*
X022618Y010591D01*
X022771Y010591D02*
X022771Y010898D01*
X022848Y010975D01*
X023001Y010975D01*
X023078Y010898D01*
X023078Y010821D01*
X023001Y010744D01*
X022771Y010744D01*
X022771Y010591D02*
X022848Y010514D01*
X023001Y010514D01*
X023078Y010591D01*
X023232Y010591D02*
X023308Y010514D01*
X023462Y010514D01*
X023538Y010591D01*
X023538Y010898D01*
X023462Y010975D01*
X023308Y010975D01*
X023232Y010898D01*
X020254Y008407D02*
X020254Y008100D01*
X020177Y008023D01*
X020024Y008023D01*
X019947Y008100D01*
X019793Y008023D02*
X019486Y008023D01*
X019640Y008023D02*
X019640Y008483D01*
X019793Y008330D01*
X019947Y008407D02*
X020024Y008483D01*
X020177Y008483D01*
X020254Y008407D01*
X019333Y008407D02*
X019333Y008100D01*
X019026Y008407D01*
X019026Y008100D01*
X019103Y008023D01*
X019256Y008023D01*
X019333Y008100D01*
X019333Y008407D02*
X019256Y008483D01*
X019103Y008483D01*
X019026Y008407D01*
X018873Y008330D02*
X018719Y008483D01*
X018719Y008023D01*
X018566Y008023D02*
X018873Y008023D01*
X015981Y010711D02*
X015981Y011171D01*
X015751Y011171D01*
X015674Y011094D01*
X015674Y010941D01*
X015751Y010864D01*
X015981Y010864D01*
X015827Y010864D02*
X015674Y010711D01*
X015521Y010787D02*
X015444Y010711D01*
X015290Y010711D01*
X015214Y010787D01*
X015214Y011094D01*
X015290Y011171D01*
X015444Y011171D01*
X015521Y011094D01*
X015521Y011017D01*
X015444Y010941D01*
X015214Y010941D01*
X015060Y010941D02*
X014753Y010941D01*
X014830Y011171D02*
X015060Y010941D01*
X014830Y010711D02*
X014830Y011171D01*
X013543Y012773D02*
X013543Y013233D01*
X013313Y013233D01*
X013236Y013157D01*
X013236Y013003D01*
X013313Y012926D01*
X013543Y012926D01*
X013390Y012926D02*
X013236Y012773D01*
X013083Y013003D02*
X012776Y013003D01*
X012623Y012926D02*
X012546Y013003D01*
X012393Y013003D01*
X012316Y012926D01*
X012316Y012850D01*
X012393Y012773D01*
X012546Y012773D01*
X012623Y012850D01*
X012623Y012926D01*
X012546Y013003D02*
X012623Y013080D01*
X012623Y013157D01*
X012546Y013233D01*
X012393Y013233D01*
X012316Y013157D01*
X012316Y013080D01*
X012393Y013003D01*
X012853Y012773D02*
X012853Y013233D01*
X013083Y013003D01*
X013580Y013711D02*
X013733Y013711D01*
X013810Y013787D01*
X013810Y013941D02*
X013657Y014017D01*
X013580Y014017D01*
X013503Y013941D01*
X013503Y013787D01*
X013580Y013711D01*
X013810Y013941D02*
X013810Y014171D01*
X013503Y014171D01*
X013580Y014336D02*
X013733Y014336D01*
X013810Y014412D01*
X013810Y014489D01*
X013733Y014566D01*
X013580Y014566D01*
X013503Y014489D01*
X013503Y014412D01*
X013580Y014336D01*
X013580Y014566D02*
X013503Y014642D01*
X013503Y014719D01*
X013580Y014796D01*
X013733Y014796D01*
X013810Y014719D01*
X013810Y014642D01*
X013733Y014566D01*
X013964Y014719D02*
X014271Y014412D01*
X014271Y014336D01*
X014424Y014412D02*
X014501Y014336D01*
X014654Y014336D01*
X014731Y014412D01*
X014731Y014719D01*
X014654Y014796D01*
X014501Y014796D01*
X014424Y014719D01*
X014271Y014796D02*
X013964Y014796D01*
X013964Y014719D01*
X014040Y014171D02*
X014271Y013941D01*
X013964Y013941D01*
X014040Y013711D02*
X014040Y014171D01*
X014424Y014094D02*
X014424Y013941D01*
X014501Y013864D01*
X014731Y013864D01*
X014731Y013711D02*
X014731Y014171D01*
X014501Y014171D01*
X014424Y014094D01*
X014577Y013864D02*
X014424Y013711D01*
X011287Y011796D02*
X011287Y011336D01*
X011287Y011489D02*
X011057Y011489D01*
X010980Y011566D01*
X010980Y011719D01*
X011057Y011796D01*
X011287Y011796D01*
X011134Y011489D02*
X010980Y011336D01*
X010827Y011412D02*
X010750Y011336D01*
X010597Y011336D01*
X010520Y011412D01*
X010520Y011566D01*
X010597Y011642D01*
X010673Y011642D01*
X010827Y011566D01*
X010827Y011796D01*
X010520Y011796D01*
X010366Y011796D02*
X010366Y011566D01*
X010213Y011642D01*
X010136Y011642D01*
X010060Y011566D01*
X010060Y011412D01*
X010136Y011336D01*
X010290Y011336D01*
X010366Y011412D01*
X010366Y011796D02*
X010060Y011796D01*
X008856Y012287D02*
X008779Y012211D01*
X008626Y012211D01*
X008549Y012287D01*
X008396Y012287D02*
X008396Y012364D01*
X008319Y012441D01*
X008165Y012441D01*
X008089Y012364D01*
X008089Y012287D01*
X008165Y012211D01*
X008319Y012211D01*
X008396Y012287D01*
X008319Y012441D02*
X008396Y012517D01*
X008396Y012594D01*
X008319Y012671D01*
X008165Y012671D01*
X008089Y012594D01*
X008089Y012517D01*
X008165Y012441D01*
X007935Y012287D02*
X007628Y012594D01*
X007628Y012671D01*
X007935Y012671D01*
X007935Y012287D02*
X007935Y012211D01*
X007978Y012046D02*
X007901Y011969D01*
X007901Y011892D01*
X007978Y011816D01*
X008131Y011816D01*
X008208Y011892D01*
X008208Y011969D01*
X008131Y012046D01*
X007978Y012046D01*
X007978Y011816D02*
X007901Y011739D01*
X007901Y011662D01*
X007978Y011586D01*
X008131Y011586D01*
X008208Y011662D01*
X008208Y011739D01*
X008131Y011816D01*
X008361Y011969D02*
X008438Y012046D01*
X008592Y012046D01*
X008668Y011969D01*
X008668Y011662D01*
X008592Y011586D01*
X008438Y011586D01*
X008361Y011662D01*
X007748Y011662D02*
X007671Y011586D01*
X007518Y011586D01*
X007441Y011662D01*
X007441Y011739D01*
X007518Y011816D01*
X007748Y011816D01*
X007748Y011662D01*
X007748Y011816D02*
X007594Y011969D01*
X007441Y012046D01*
X007503Y011046D02*
X007657Y010969D01*
X007810Y010816D01*
X007580Y010816D01*
X007503Y010739D01*
X007503Y010662D01*
X007580Y010586D01*
X007733Y010586D01*
X007810Y010662D01*
X007810Y010816D01*
X007964Y010816D02*
X007964Y010662D01*
X008040Y010586D01*
X008194Y010586D01*
X008270Y010662D01*
X008270Y010816D02*
X008117Y010892D01*
X008040Y010892D01*
X007964Y010816D01*
X007964Y011046D02*
X008270Y011046D01*
X008270Y010816D01*
X008424Y010816D02*
X008501Y010739D01*
X008731Y010739D01*
X008731Y010586D02*
X008731Y011046D01*
X008501Y011046D01*
X008424Y010969D01*
X008424Y010816D01*
X008577Y010739D02*
X008424Y010586D01*
X008856Y012287D02*
X008856Y012594D01*
X008779Y012671D01*
X008626Y012671D01*
X008549Y012594D01*
X008822Y013499D02*
X008822Y013652D01*
X008822Y013576D02*
X009283Y013576D01*
X009283Y013652D02*
X009283Y013499D01*
X009206Y013806D02*
X008899Y013806D01*
X008822Y013883D01*
X008822Y014036D01*
X008899Y014113D01*
X008822Y014266D02*
X008822Y014573D01*
X008822Y014420D02*
X009283Y014420D01*
X009129Y014266D01*
X009206Y014113D02*
X009283Y014036D01*
X009283Y013883D01*
X009206Y013806D01*
X009052Y014727D02*
X009052Y015034D01*
X008822Y014957D02*
X009283Y014957D01*
X009052Y014727D01*
X008592Y015711D02*
X008438Y015711D01*
X008361Y015787D01*
X008208Y015787D02*
X008208Y015864D01*
X008131Y015941D01*
X007978Y015941D01*
X007901Y015864D01*
X007901Y015787D01*
X007978Y015711D01*
X008131Y015711D01*
X008208Y015787D01*
X008131Y015941D02*
X008208Y016017D01*
X008208Y016094D01*
X008131Y016171D01*
X007978Y016171D01*
X007901Y016094D01*
X007901Y016017D01*
X007978Y015941D01*
X007748Y015941D02*
X007748Y016171D01*
X007441Y016171D01*
X007518Y016017D02*
X007441Y015941D01*
X007441Y015787D01*
X007518Y015711D01*
X007671Y015711D01*
X007748Y015787D01*
X007748Y015941D02*
X007594Y016017D01*
X007518Y016017D01*
X007518Y016461D02*
X007518Y016921D01*
X007748Y016691D01*
X007441Y016691D01*
X007901Y016767D02*
X007978Y016691D01*
X008131Y016691D01*
X008208Y016767D01*
X008208Y016844D01*
X008131Y016921D01*
X007978Y016921D01*
X007901Y016844D01*
X007901Y016767D01*
X007978Y016691D02*
X007901Y016614D01*
X007901Y016537D01*
X007978Y016461D01*
X008131Y016461D01*
X008208Y016537D01*
X008208Y016614D01*
X008131Y016691D01*
X008361Y016844D02*
X008438Y016921D01*
X008592Y016921D01*
X008668Y016844D01*
X008668Y016537D01*
X008592Y016461D01*
X008438Y016461D01*
X008361Y016537D01*
X008438Y016171D02*
X008592Y016171D01*
X008668Y016094D01*
X008668Y015787D01*
X008592Y015711D01*
X008361Y016094D02*
X008438Y016171D01*
X014140Y019589D02*
X014600Y019589D01*
X014370Y019358D01*
X015341Y020898D02*
X015265Y020975D01*
X015265Y021128D01*
X015341Y021205D01*
X015341Y021358D02*
X015265Y021358D01*
X015341Y021358D02*
X015648Y021665D01*
X015725Y021665D01*
X015725Y021358D01*
X015648Y021205D02*
X015725Y021128D01*
X015725Y020975D01*
X015648Y020898D01*
X015341Y020898D01*
X015935Y020773D02*
X016242Y020773D01*
X016088Y020773D02*
X016088Y021233D01*
X016242Y021080D01*
X016395Y021003D02*
X016702Y021003D01*
X016472Y021233D01*
X016472Y020773D01*
X016855Y020773D02*
X017009Y020926D01*
X016932Y020926D02*
X017162Y020926D01*
X017162Y020773D02*
X017162Y021233D01*
X016932Y021233D01*
X016855Y021157D01*
X016855Y021003D01*
X016932Y020926D01*
X016938Y020171D02*
X016861Y020094D01*
X016938Y020171D02*
X017092Y020171D01*
X017168Y020094D01*
X017168Y019787D01*
X017092Y019711D01*
X016938Y019711D01*
X016861Y019787D01*
X016708Y019787D02*
X016708Y019711D01*
X016708Y019787D02*
X016401Y020094D01*
X016401Y020171D01*
X016708Y020171D01*
X016248Y020094D02*
X016171Y020171D01*
X016017Y020171D01*
X015941Y020094D01*
X015941Y020017D01*
X016017Y019941D01*
X015941Y019864D01*
X015941Y019787D01*
X016017Y019711D01*
X016171Y019711D01*
X016248Y019787D01*
X016094Y019941D02*
X016017Y019941D01*
X017532Y019159D02*
X017532Y019051D01*
X017966Y019051D01*
X017966Y018942D01*
X017858Y018834D01*
X017749Y018834D01*
X017532Y019051D01*
X017532Y019159D02*
X017641Y019268D01*
X017749Y019268D01*
X017966Y019051D01*
X018075Y019159D02*
X018021Y019213D01*
X018021Y019322D01*
X018183Y019485D01*
X018292Y019376D01*
X018292Y019268D01*
X018183Y019159D01*
X018075Y019159D01*
X017966Y019485D02*
X018183Y019485D01*
X017966Y019485D02*
X017804Y019430D01*
X018183Y019702D02*
X018183Y019810D01*
X018292Y019919D01*
X018400Y019919D01*
X018617Y019702D01*
X018617Y019593D01*
X018509Y019485D01*
X018400Y019485D01*
X018691Y019725D02*
X018767Y019648D01*
X018921Y019648D01*
X018998Y019725D01*
X019151Y019725D02*
X019228Y019648D01*
X019381Y019648D01*
X019458Y019725D01*
X019479Y019669D02*
X019371Y019560D01*
X019371Y019452D01*
X019371Y019235D02*
X019208Y019072D01*
X019208Y018963D01*
X019262Y018909D01*
X019371Y018909D01*
X019479Y019018D01*
X019479Y019126D01*
X019371Y019235D01*
X019154Y019235D01*
X018991Y019180D01*
X018991Y018963D02*
X018774Y018963D01*
X019100Y018638D01*
X019208Y018746D02*
X018991Y018529D01*
X019588Y019235D02*
X019696Y019235D01*
X019805Y019343D01*
X019805Y019452D01*
X019588Y019669D01*
X019479Y019669D01*
X019611Y019725D02*
X019688Y019648D01*
X019842Y019648D01*
X019918Y019725D01*
X019918Y020032D01*
X019842Y020108D01*
X019688Y020108D01*
X019611Y020032D01*
X019458Y020108D02*
X019458Y019878D01*
X019305Y019955D01*
X019228Y019955D01*
X019151Y019878D01*
X019151Y019725D01*
X018921Y019878D02*
X018691Y019878D01*
X018691Y019725D02*
X018691Y020032D01*
X018767Y020108D01*
X018921Y020108D01*
X018998Y020032D01*
X018998Y019955D01*
X018921Y019878D01*
X019151Y020108D02*
X019458Y020108D01*
X019412Y020836D02*
X019412Y021296D01*
X019182Y021296D01*
X019105Y021219D01*
X019105Y021066D01*
X019182Y020989D01*
X019412Y020989D01*
X019259Y020989D02*
X019105Y020836D01*
X018952Y020836D02*
X018645Y020836D01*
X018798Y020836D02*
X018798Y021296D01*
X018952Y021142D01*
X018492Y021219D02*
X018415Y021296D01*
X018261Y021296D01*
X018185Y021219D01*
X018185Y021142D01*
X018261Y021066D01*
X018185Y020989D01*
X018185Y020912D01*
X018261Y020836D01*
X018415Y020836D01*
X018492Y020912D01*
X018338Y021066D02*
X018261Y021066D01*
X017231Y022336D02*
X017231Y022796D01*
X017001Y022796D01*
X016924Y022719D01*
X016924Y022566D01*
X017001Y022489D01*
X017231Y022489D01*
X017077Y022489D02*
X016924Y022336D01*
X016771Y022412D02*
X016694Y022336D01*
X016540Y022336D01*
X016464Y022412D01*
X016464Y022489D01*
X016540Y022566D01*
X016771Y022566D01*
X016771Y022412D01*
X016771Y022566D02*
X016617Y022719D01*
X016464Y022796D01*
X016310Y022566D02*
X016080Y022566D01*
X016003Y022489D01*
X016003Y022412D01*
X016080Y022336D01*
X016233Y022336D01*
X016310Y022412D01*
X016310Y022566D01*
X016157Y022719D01*
X016003Y022796D01*
X015648Y022126D02*
X015725Y022049D01*
X015725Y021895D01*
X015648Y021819D01*
X015648Y022126D02*
X015572Y022126D01*
X015265Y021819D01*
X015265Y022126D01*
X019952Y021924D02*
X019952Y021770D01*
X020029Y021694D01*
X020106Y021694D01*
X020182Y021770D01*
X020182Y021924D01*
X020106Y022001D01*
X020029Y022001D01*
X019952Y021924D01*
X020182Y021924D02*
X020259Y022001D01*
X020336Y022001D01*
X020413Y021924D01*
X020413Y021770D01*
X020336Y021694D01*
X020259Y021694D01*
X020182Y021770D01*
X020182Y021540D02*
X020029Y021540D01*
X019952Y021464D01*
X019952Y021310D01*
X020029Y021233D01*
X020029Y021080D02*
X019952Y021003D01*
X019952Y020850D01*
X020029Y020773D01*
X020336Y020773D01*
X020413Y020850D01*
X020413Y021003D01*
X020336Y021080D01*
X020413Y021233D02*
X020182Y021233D01*
X020259Y021387D01*
X020259Y021464D01*
X020182Y021540D01*
X020413Y021540D02*
X020413Y021233D01*
X020566Y021191D02*
X020796Y021191D01*
X020873Y021267D01*
X020873Y021344D01*
X020796Y021421D01*
X020642Y021421D01*
X020566Y021344D01*
X020566Y021037D01*
X020642Y020961D01*
X020796Y020961D01*
X020873Y021037D01*
X021026Y021037D02*
X021103Y020961D01*
X021256Y020961D01*
X021333Y021037D01*
X021333Y021191D02*
X021180Y021267D01*
X021103Y021267D01*
X021026Y021191D01*
X021026Y021037D01*
X021333Y021191D02*
X021333Y021421D01*
X021026Y021421D01*
X021486Y021344D02*
X021486Y021191D01*
X021563Y021114D01*
X021793Y021114D01*
X021640Y021114D02*
X021486Y020961D01*
X021793Y020961D02*
X021793Y021421D01*
X021563Y021421D01*
X021486Y021344D01*
X022316Y022037D02*
X022316Y022344D01*
X022392Y022421D01*
X022546Y022421D01*
X022623Y022344D01*
X022623Y022267D01*
X022546Y022191D01*
X022316Y022191D01*
X022316Y022037D02*
X022392Y021961D01*
X022546Y021961D01*
X022623Y022037D01*
X022776Y022037D02*
X022776Y022114D01*
X022853Y022191D01*
X023083Y022191D01*
X023083Y022037D01*
X023006Y021961D01*
X022853Y021961D01*
X022776Y022037D01*
X022930Y022344D02*
X023083Y022191D01*
X023236Y022191D02*
X023313Y022114D01*
X023543Y022114D01*
X023390Y022114D02*
X023236Y021961D01*
X023236Y022191D02*
X023236Y022344D01*
X023313Y022421D01*
X023543Y022421D01*
X023543Y021961D01*
X022930Y022344D02*
X022776Y022421D01*
X023002Y020983D02*
X022784Y020766D01*
X022785Y020658D01*
X022893Y020549D01*
X023001Y020549D01*
X023110Y020441D02*
X023327Y020658D01*
X023436Y020658D01*
X023544Y020549D01*
X023544Y020441D01*
X023490Y020386D01*
X023381Y020386D01*
X023219Y020549D01*
X023110Y020441D02*
X023110Y020332D01*
X023219Y020224D01*
X023327Y020224D01*
X023381Y020061D02*
X023598Y020061D01*
X023544Y020115D02*
X023707Y019952D01*
X023598Y019844D02*
X023924Y020169D01*
X023761Y020332D01*
X023653Y020332D01*
X023544Y020224D01*
X023544Y020115D01*
X023164Y020712D02*
X023056Y020712D01*
X022893Y020875D01*
X023002Y020983D02*
X023110Y020983D01*
X023219Y020875D01*
X023219Y020766D01*
X023164Y020712D01*
X025191Y022273D02*
X025498Y022273D01*
X025344Y022273D02*
X025344Y022733D01*
X025498Y022580D01*
X025651Y022657D02*
X025958Y022350D01*
X025958Y022273D01*
X026111Y022273D02*
X026265Y022426D01*
X026188Y022426D02*
X026418Y022426D01*
X026418Y022273D02*
X026418Y022733D01*
X026188Y022733D01*
X026111Y022657D01*
X026111Y022503D01*
X026188Y022426D01*
X025958Y022733D02*
X025651Y022733D01*
X025651Y022657D01*
X025646Y024273D02*
X025646Y024350D01*
X025339Y024657D01*
X025339Y024733D01*
X025646Y024733D01*
X025799Y024657D02*
X025799Y024503D01*
X025876Y024426D01*
X026106Y024426D01*
X026106Y024273D02*
X026106Y024733D01*
X025876Y024733D01*
X025799Y024657D01*
X025952Y024426D02*
X025799Y024273D01*
X025185Y024273D02*
X024878Y024580D01*
X024878Y024657D01*
X024955Y024733D01*
X025109Y024733D01*
X025185Y024657D01*
X025185Y024273D02*
X024878Y024273D01*
X024191Y024273D02*
X024191Y024733D01*
X023961Y024733D01*
X023884Y024657D01*
X023884Y024503D01*
X023961Y024427D01*
X024191Y024427D01*
X024038Y024427D02*
X023884Y024273D01*
X023731Y024273D02*
X023424Y024273D01*
X023577Y024273D02*
X023577Y024733D01*
X023731Y024580D01*
X023271Y024657D02*
X023271Y024350D01*
X022964Y024657D01*
X022964Y024350D01*
X023040Y024273D01*
X023194Y024273D01*
X023271Y024350D01*
X023271Y024657D02*
X023194Y024733D01*
X023040Y024733D01*
X022964Y024657D01*
X022810Y024657D02*
X022810Y024350D01*
X022503Y024657D01*
X022503Y024350D01*
X022580Y024273D01*
X022734Y024273D01*
X022810Y024350D01*
X022810Y024657D02*
X022734Y024733D01*
X022580Y024733D01*
X022503Y024657D01*
X027128Y024657D02*
X027128Y024580D01*
X027205Y024503D01*
X027128Y024426D01*
X027128Y024350D01*
X027205Y024273D01*
X027358Y024273D01*
X027435Y024350D01*
X027282Y024503D02*
X027205Y024503D01*
X027128Y024657D02*
X027205Y024733D01*
X027358Y024733D01*
X027435Y024657D01*
X027589Y024657D02*
X027896Y024350D01*
X027896Y024273D01*
X028049Y024273D02*
X028202Y024426D01*
X028126Y024426D02*
X028356Y024426D01*
X028356Y024273D02*
X028356Y024733D01*
X028126Y024733D01*
X028049Y024657D01*
X028049Y024503D01*
X028126Y024426D01*
X027896Y024733D02*
X027589Y024733D01*
X027589Y024657D01*
X028602Y022421D02*
X028526Y022344D01*
X028526Y022267D01*
X028602Y022191D01*
X028526Y022114D01*
X028526Y022037D01*
X028602Y021961D01*
X028756Y021961D01*
X028832Y022037D01*
X028986Y022037D02*
X029063Y021961D01*
X029216Y021961D01*
X029293Y022037D01*
X029293Y022344D01*
X029216Y022421D01*
X029063Y022421D01*
X028986Y022344D01*
X028832Y022344D02*
X028756Y022421D01*
X028602Y022421D01*
X028602Y022191D02*
X028679Y022191D01*
X029446Y022421D02*
X029600Y022421D01*
X029523Y022421D02*
X029523Y021961D01*
X029600Y021961D02*
X029446Y021961D01*
X031265Y021878D02*
X031265Y021725D01*
X031341Y021648D01*
X031648Y021648D01*
X031725Y021725D01*
X031725Y021878D01*
X031648Y021955D01*
X031572Y022108D02*
X031725Y022262D01*
X031265Y022262D01*
X031265Y022415D02*
X031265Y022108D01*
X031341Y021955D02*
X031265Y021878D01*
X031341Y022569D02*
X031265Y022645D01*
X031265Y022799D01*
X031341Y022876D01*
X031418Y022876D01*
X031495Y022799D01*
X031495Y022569D01*
X031341Y022569D01*
X031495Y022569D02*
X031648Y022722D01*
X031725Y022876D01*
X033188Y021603D02*
X033495Y021603D01*
X033495Y021372D01*
X033342Y021449D01*
X033265Y021449D01*
X033188Y021372D01*
X033188Y021219D01*
X033265Y021142D01*
X033419Y021142D01*
X033495Y021219D01*
X033649Y021142D02*
X033956Y021142D01*
X033802Y021142D02*
X033802Y021603D01*
X033956Y021449D01*
X034109Y021526D02*
X034186Y021603D01*
X034339Y021603D01*
X034416Y021526D01*
X034416Y021219D01*
X034339Y021142D01*
X034186Y021142D01*
X034109Y021219D01*
X034424Y019437D02*
X034424Y019130D01*
X034654Y019360D01*
X034193Y019360D01*
X034193Y018977D02*
X034193Y018670D01*
X034193Y018823D02*
X034654Y018823D01*
X034500Y018670D01*
X034577Y018516D02*
X034654Y018439D01*
X034654Y018286D01*
X034577Y018209D01*
X034270Y018209D01*
X034193Y018286D01*
X034193Y018439D01*
X034270Y018516D01*
X032600Y018370D02*
X032600Y018063D01*
X032370Y018063D01*
X032447Y018216D01*
X032447Y018293D01*
X032370Y018370D01*
X032216Y018370D01*
X032140Y018293D01*
X032140Y018139D01*
X032216Y018063D01*
X032216Y017909D02*
X032140Y017832D01*
X032140Y017679D01*
X032216Y017602D01*
X032216Y017449D02*
X032140Y017372D01*
X032140Y017219D01*
X032216Y017142D01*
X032523Y017142D01*
X032600Y017219D01*
X032600Y017372D01*
X032523Y017449D01*
X032523Y017602D02*
X032600Y017679D01*
X032600Y017832D01*
X032523Y017909D01*
X032447Y017909D01*
X032370Y017832D01*
X032293Y017909D01*
X032216Y017909D01*
X032370Y017832D02*
X032370Y017756D01*
X031850Y017832D02*
X031773Y017909D01*
X031697Y017909D01*
X031620Y017832D01*
X031543Y017909D01*
X031466Y017909D01*
X031390Y017832D01*
X031390Y017679D01*
X031466Y017602D01*
X031466Y017449D02*
X031390Y017372D01*
X031390Y017219D01*
X031466Y017142D01*
X031773Y017142D01*
X031850Y017219D01*
X031850Y017372D01*
X031773Y017449D01*
X031773Y017602D02*
X031850Y017679D01*
X031850Y017832D01*
X031620Y017832D02*
X031620Y017756D01*
X031620Y018063D02*
X031620Y018293D01*
X031543Y018369D01*
X031466Y018369D01*
X031390Y018293D01*
X031390Y018139D01*
X031466Y018063D01*
X031620Y018063D01*
X031773Y018216D01*
X031850Y018369D01*
X028412Y018046D02*
X028412Y017586D01*
X028412Y017739D02*
X028182Y017739D01*
X028105Y017816D01*
X028105Y017969D01*
X028182Y018046D01*
X028412Y018046D01*
X028259Y017739D02*
X028105Y017586D01*
X027952Y017816D02*
X027645Y017816D01*
X027722Y018046D02*
X027952Y017816D01*
X027722Y017586D02*
X027722Y018046D01*
X027701Y015963D02*
X027777Y015886D01*
X027777Y015809D01*
X027701Y015733D01*
X027470Y015733D01*
X027470Y015886D02*
X027547Y015963D01*
X027701Y015963D01*
X027931Y015886D02*
X027931Y015809D01*
X028007Y015733D01*
X028161Y015733D01*
X028238Y015809D01*
X028238Y015886D01*
X028161Y015963D01*
X028007Y015963D01*
X027931Y015886D01*
X028007Y015733D02*
X027931Y015656D01*
X027931Y015579D01*
X028007Y015502D01*
X028161Y015502D01*
X028238Y015579D01*
X028238Y015656D01*
X028161Y015733D01*
X028391Y015733D02*
X028468Y015656D01*
X028698Y015656D01*
X028544Y015656D02*
X028391Y015502D01*
X028391Y015733D02*
X028391Y015886D01*
X028468Y015963D01*
X028698Y015963D01*
X028698Y015502D01*
X027777Y015579D02*
X027701Y015502D01*
X027547Y015502D01*
X027470Y015579D01*
X027470Y015886D01*
X021663Y015751D02*
X021663Y015444D01*
X021586Y015290D02*
X021663Y015214D01*
X021663Y015060D01*
X021586Y014983D01*
X021509Y014983D01*
X021432Y015060D01*
X021432Y015290D01*
X021279Y015290D02*
X021586Y015290D01*
X021279Y015290D02*
X021202Y015214D01*
X021202Y015060D01*
X021279Y014983D01*
X021279Y014830D02*
X021202Y014753D01*
X021202Y014600D01*
X021279Y014523D01*
X021586Y014523D01*
X021663Y014600D01*
X021663Y014753D01*
X021586Y014830D01*
X021279Y015444D02*
X021202Y015444D01*
X021279Y015444D02*
X021586Y015751D01*
X021663Y015751D01*
X020781Y016544D02*
X020890Y016653D01*
X020890Y016761D01*
X020998Y016870D02*
X021107Y016870D01*
X021215Y016978D01*
X021215Y017087D01*
X020998Y017304D01*
X020890Y017304D01*
X020781Y017195D01*
X020781Y017087D01*
X020673Y016978D02*
X020727Y016924D01*
X020727Y016816D01*
X020564Y016653D01*
X020456Y016761D02*
X020456Y016870D01*
X020564Y016978D01*
X020673Y016978D01*
X020456Y016761D02*
X020673Y016544D01*
X020781Y016544D01*
X021378Y017141D02*
X021486Y017250D01*
X021432Y017195D02*
X021107Y017521D01*
X021161Y017575D02*
X021052Y017467D01*
X018663Y016855D02*
X018586Y016932D01*
X018509Y016932D01*
X018432Y016855D01*
X018432Y016702D01*
X018509Y016625D01*
X018586Y016625D01*
X018663Y016702D01*
X018663Y016855D01*
X018432Y016855D02*
X018356Y016932D01*
X018279Y016932D01*
X018202Y016855D01*
X018202Y016702D01*
X018279Y016625D01*
X018356Y016625D01*
X018432Y016702D01*
X018509Y016472D02*
X018202Y016165D01*
X018202Y016472D01*
X018509Y016472D02*
X018586Y016472D01*
X018663Y016395D01*
X018663Y016241D01*
X018586Y016165D01*
X018586Y016011D02*
X018432Y016011D01*
X018356Y015935D01*
X018356Y015704D01*
X018356Y015858D02*
X018202Y016011D01*
X018202Y015704D02*
X018663Y015704D01*
X018663Y015935D01*
X018586Y016011D01*
X015543Y007733D02*
X015313Y007733D01*
X015236Y007657D01*
X015236Y007503D01*
X015313Y007426D01*
X015543Y007426D01*
X015543Y007273D02*
X015543Y007733D01*
X015390Y007426D02*
X015236Y007273D01*
X015083Y007350D02*
X015006Y007273D01*
X014853Y007273D01*
X014776Y007350D01*
X014776Y007657D01*
X014853Y007733D01*
X015006Y007733D01*
X015083Y007657D01*
X015083Y007580D01*
X015006Y007503D01*
X014776Y007503D01*
X014623Y007503D02*
X014469Y007580D01*
X014393Y007580D01*
X014316Y007503D01*
X014316Y007350D01*
X014393Y007273D01*
X014546Y007273D01*
X014623Y007350D01*
X014623Y007503D02*
X014623Y007733D01*
X014316Y007733D01*
X013662Y007046D02*
X013432Y007046D01*
X013355Y006969D01*
X013355Y006816D01*
X013432Y006739D01*
X013662Y006739D01*
X013509Y006739D02*
X013355Y006586D01*
X013202Y006662D02*
X013125Y006586D01*
X012972Y006586D01*
X012895Y006662D01*
X012895Y006739D01*
X012972Y006816D01*
X013202Y006816D01*
X013202Y006662D01*
X013202Y006816D02*
X013048Y006969D01*
X012895Y007046D01*
X012083Y007273D02*
X012083Y007733D01*
X011853Y007733D01*
X011776Y007657D01*
X011776Y007503D01*
X011853Y007426D01*
X012083Y007426D01*
X011930Y007426D02*
X011776Y007273D01*
X011623Y007273D02*
X011623Y007350D01*
X011316Y007657D01*
X011316Y007733D01*
X011623Y007733D01*
X013662Y007046D02*
X013662Y006586D01*
X024185Y006219D02*
X024261Y006296D01*
X024415Y006296D01*
X024492Y006219D01*
X024645Y006219D02*
X024722Y006296D01*
X024875Y006296D01*
X024952Y006219D01*
X024952Y006142D01*
X024875Y006066D01*
X024645Y006066D01*
X024645Y006219D02*
X024645Y005912D01*
X024722Y005836D01*
X024875Y005836D01*
X024952Y005912D01*
X025105Y005912D02*
X025182Y005836D01*
X025336Y005836D01*
X025412Y005912D01*
X025412Y006219D01*
X025336Y006296D01*
X025182Y006296D01*
X025105Y006219D01*
X024492Y005836D02*
X024185Y006142D01*
X024185Y006219D01*
X024185Y005836D02*
X024492Y005836D01*
X010066Y024211D02*
X010066Y024671D01*
X009836Y024671D01*
X009759Y024594D01*
X009759Y024441D01*
X009836Y024364D01*
X010066Y024364D01*
X009913Y024364D02*
X009759Y024211D01*
X009606Y024211D02*
X009299Y024211D01*
X009452Y024211D02*
X009452Y024671D01*
X009606Y024517D01*
X009146Y024594D02*
X009146Y024287D01*
X008839Y024594D01*
X008839Y024287D01*
X008915Y024211D01*
X009069Y024211D01*
X009146Y024287D01*
X009146Y024594D02*
X009069Y024671D01*
X008915Y024671D01*
X008839Y024594D01*
X008685Y024441D02*
X008378Y024441D01*
X008455Y024211D02*
X008455Y024671D01*
X008685Y024441D01*
X016702Y036983D02*
X016702Y037136D01*
X016702Y037060D02*
X017163Y037060D01*
X017163Y037136D02*
X017163Y036983D01*
X017086Y037290D02*
X016779Y037290D01*
X016702Y037366D01*
X016702Y037520D01*
X016779Y037597D01*
X016779Y037750D02*
X016702Y037750D01*
X016779Y037750D02*
X017086Y038057D01*
X017163Y038057D01*
X017163Y037750D01*
X017086Y037597D02*
X017163Y037520D01*
X017163Y037366D01*
X017086Y037290D01*
X029441Y035211D02*
X029748Y035211D01*
X029594Y035211D02*
X029594Y035671D01*
X029748Y035517D01*
X029901Y035517D02*
X029978Y035441D01*
X029901Y035364D01*
X029901Y035287D01*
X029978Y035211D01*
X030131Y035211D01*
X030208Y035287D01*
X030361Y035211D02*
X030515Y035364D01*
X030438Y035364D02*
X030668Y035364D01*
X030668Y035211D02*
X030668Y035671D01*
X030438Y035671D01*
X030361Y035594D01*
X030361Y035441D01*
X030438Y035364D01*
X030208Y035594D02*
X030131Y035671D01*
X029978Y035671D01*
X029901Y035594D01*
X029901Y035517D01*
X029978Y035441D02*
X030055Y035441D01*
X030017Y028733D02*
X030248Y028503D01*
X029941Y028503D01*
X030017Y028273D02*
X030017Y028733D01*
X030401Y028733D02*
X030555Y028657D01*
X030708Y028503D01*
X030478Y028503D01*
X030401Y028426D01*
X030401Y028350D01*
X030478Y028273D01*
X030631Y028273D01*
X030708Y028350D01*
X030708Y028503D01*
X030861Y028503D02*
X030861Y028657D01*
X030938Y028733D01*
X031168Y028733D01*
X031168Y028273D01*
X031168Y028426D02*
X030938Y028426D01*
X030861Y028503D01*
X031015Y028426D02*
X030861Y028273D01*
D13*
X015182Y039731D03*
D14*
X029660Y020441D03*
D15*
X019765Y018692D03*
X015783Y018604D03*
X012783Y017104D03*
X009783Y014604D03*
M02*
