G75*
G70*
%OFA0B0*%
%FSLAX24Y24*%
%IPPOS*%
%LPD*%
%AMOC8*
5,1,8,0,0,1.08239X$1,22.5*
%
%ADD10R,0.0474X0.0513*%
%ADD11R,0.0592X0.0671*%
%ADD12R,0.0513X0.0474*%
%ADD13C,0.0656*%
%ADD14R,0.0671X0.0592*%
%ADD15R,0.0434X0.0356*%
%ADD16R,0.0592X0.0178*%
%ADD17R,0.0800X0.0800*%
%ADD18OC8,0.0800*%
%ADD19C,0.0434*%
%ADD20R,0.0356X0.0434*%
%ADD21OC8,0.0728*%
%ADD22C,0.0580*%
%ADD23C,0.0728*%
%ADD24C,0.0740*%
%ADD25OC8,0.1000*%
%ADD26C,0.0749*%
%ADD27R,0.0710X0.0631*%
%ADD28R,0.0505X0.0493*%
%ADD29R,0.2363X0.2521*%
%ADD30R,0.0710X0.1261*%
%ADD31R,0.0631X0.0710*%
%ADD32R,0.0493X0.0505*%
%ADD33R,0.2521X0.2363*%
%ADD34R,0.1261X0.0710*%
%ADD35R,0.0790X0.0710*%
%ADD36R,0.0257X0.0789*%
%ADD37C,0.0789*%
%ADD38OC8,0.1340*%
%ADD39C,0.0800*%
%ADD40R,0.1110X0.1110*%
%ADD41OC8,0.1110*%
%ADD42R,0.0789X0.0789*%
%ADD43OC8,0.0789*%
%ADD44OC8,0.0656*%
%ADD45C,0.0690*%
%ADD46R,0.1025X0.1182*%
D10*
X011785Y006816D03*
X012348Y007503D03*
X012454Y006816D03*
X013017Y007503D03*
X012454Y013628D03*
X011785Y013628D03*
X014910Y015191D03*
X015579Y015191D03*
X018598Y020503D03*
X019267Y020503D03*
X016829Y023191D03*
X016160Y023191D03*
X013829Y023191D03*
X013160Y023191D03*
X010829Y024441D03*
X010160Y024441D03*
X009829Y019191D03*
X009160Y019191D03*
X008910Y017441D03*
X009579Y017441D03*
X018098Y027941D03*
X018767Y027941D03*
X014392Y031003D03*
X013723Y031003D03*
X009120Y033231D03*
X009120Y033900D03*
X009120Y035168D03*
X009120Y035838D03*
X013557Y039543D03*
X013557Y040213D03*
X015370Y040231D03*
X015370Y040900D03*
X029973Y027941D03*
X030642Y027941D03*
X032057Y026838D03*
X032057Y026168D03*
X027954Y023941D03*
X027285Y023941D03*
X025892Y023941D03*
X025223Y023941D03*
X024892Y022503D03*
X024223Y022503D03*
X022579Y021191D03*
X021910Y021191D03*
G36*
X022459Y020838D02*
X022794Y020503D01*
X022433Y020142D01*
X022098Y020477D01*
X022459Y020838D01*
G37*
G36*
X022932Y020364D02*
X023267Y020029D01*
X022906Y019668D01*
X022571Y020003D01*
X022932Y020364D01*
G37*
X031620Y019525D03*
X031620Y018856D03*
X032370Y018856D03*
X032370Y019525D03*
D11*
X012119Y038878D03*
X011371Y038878D03*
D12*
X011329Y038191D03*
X010660Y038191D03*
X011410Y039628D03*
X012079Y039628D03*
X012848Y037441D03*
X013517Y037441D03*
X013142Y034816D03*
X012473Y034816D03*
X021745Y029650D03*
X021745Y028981D03*
X022057Y024650D03*
X022057Y023981D03*
X021932Y022525D03*
X021932Y021856D03*
X020454Y020503D03*
X019785Y020503D03*
G36*
X018704Y018878D02*
X018343Y018517D01*
X018008Y018852D01*
X018369Y019213D01*
X018704Y018878D01*
G37*
G36*
X018231Y018404D02*
X017870Y018043D01*
X017535Y018378D01*
X017896Y018739D01*
X018231Y018404D01*
G37*
X017870Y017275D03*
X017870Y016606D03*
X015579Y015816D03*
X014910Y015816D03*
X012454Y014253D03*
X011785Y014253D03*
X009579Y016628D03*
X008910Y016628D03*
X011973Y019191D03*
X012642Y019191D03*
X011995Y019856D03*
X011995Y020525D03*
X014245Y020668D03*
X014910Y020628D03*
X015579Y020628D03*
X014245Y021338D03*
X008995Y021231D03*
X008995Y021900D03*
X017932Y013838D03*
X017932Y013168D03*
X009579Y011816D03*
X008910Y011816D03*
X008932Y011150D03*
X008932Y010481D03*
X028912Y015389D03*
X028912Y016058D03*
D13*
X009807Y033241D03*
X009807Y035141D03*
D14*
X009557Y038129D03*
X009557Y038877D03*
D15*
X014995Y035759D03*
X014995Y035247D03*
X014495Y029946D03*
X014495Y029435D03*
X022370Y036560D03*
X022370Y037071D03*
X022932Y037071D03*
X022932Y036560D03*
X030870Y035696D03*
X030870Y035185D03*
X031495Y021384D03*
X031495Y020872D03*
X021307Y014446D03*
X021307Y013935D03*
X013932Y007759D03*
X013932Y007247D03*
X013057Y013810D03*
X013057Y014321D03*
X013807Y019122D03*
X013807Y019634D03*
D16*
X012514Y033047D03*
X012514Y033244D03*
X012514Y033441D03*
X012514Y033637D03*
X012514Y033834D03*
X010850Y033834D03*
X010850Y033637D03*
X010850Y033441D03*
X010850Y033244D03*
X010850Y033047D03*
D17*
X031932Y034191D03*
D18*
X032932Y034191D03*
X032932Y033191D03*
X032932Y032191D03*
X031932Y032191D03*
X031932Y033191D03*
X031932Y031191D03*
X032932Y031191D03*
X032932Y030191D03*
X031932Y030191D03*
X029745Y030191D03*
X029745Y031191D03*
X028745Y031191D03*
X027745Y031191D03*
X026745Y031191D03*
X025745Y031191D03*
X025745Y030191D03*
X026745Y030191D03*
X027745Y030191D03*
X028745Y030191D03*
D19*
X011798Y040441D03*
X010066Y040441D03*
D20*
X012926Y036816D03*
X013438Y036816D03*
X013126Y034191D03*
X012614Y034191D03*
X013739Y033691D03*
X013489Y033253D03*
X014001Y033253D03*
X014251Y033691D03*
X017551Y040003D03*
X018063Y040003D03*
X021989Y032503D03*
X022501Y032503D03*
X012313Y024378D03*
X011801Y024378D03*
X015051Y020003D03*
X015563Y020003D03*
X016176Y020441D03*
X016688Y020441D03*
G36*
X018830Y018282D02*
X018578Y018030D01*
X018272Y018336D01*
X018524Y018588D01*
X018830Y018282D01*
G37*
G36*
X018468Y017920D02*
X018216Y017668D01*
X017910Y017974D01*
X018162Y018226D01*
X018468Y017920D01*
G37*
X020051Y019878D03*
X020563Y019878D03*
X016563Y016003D03*
X016051Y016003D03*
X015563Y016441D03*
X015051Y016441D03*
X012501Y014878D03*
X011989Y014878D03*
X010688Y016628D03*
X010176Y016628D03*
X009501Y016003D03*
X008989Y016003D03*
X012239Y018566D03*
X012751Y018566D03*
X010688Y012128D03*
X010176Y012128D03*
X009501Y012441D03*
X008989Y012441D03*
X014926Y011441D03*
X015438Y011441D03*
X020489Y011378D03*
X021001Y011378D03*
X025676Y006066D03*
X026188Y006066D03*
D21*
X016932Y008441D03*
X016932Y009441D03*
X015932Y009441D03*
X014932Y009441D03*
X013932Y009441D03*
X012932Y009441D03*
X011932Y009441D03*
X011932Y008441D03*
X012932Y008441D03*
X013932Y008441D03*
X014932Y008441D03*
X015932Y008441D03*
X010932Y008441D03*
X010932Y009441D03*
D22*
X010182Y008441D03*
X010182Y009441D03*
D23*
X015358Y024691D02*
X016006Y024691D01*
X016006Y025691D02*
X015358Y025691D01*
X026932Y037367D02*
X026932Y038015D01*
X027932Y038015D02*
X027932Y037367D01*
X028932Y037367D02*
X028932Y038015D01*
D24*
X024552Y040618D03*
X023552Y040618D03*
X022552Y040618D03*
X021552Y040618D03*
X020552Y040618D03*
X019552Y040618D03*
X018552Y040618D03*
X017552Y040618D03*
X017552Y025263D03*
X018552Y025263D03*
X019552Y025263D03*
X020552Y025263D03*
X021552Y025263D03*
X022552Y025263D03*
X023552Y025263D03*
X024552Y025263D03*
D25*
X011995Y032253D03*
D26*
X030932Y009574D03*
X030932Y006819D03*
D27*
X021710Y010753D03*
X020529Y010753D03*
X018335Y039378D03*
X017154Y039378D03*
D28*
X012932Y039534D03*
X012932Y040223D03*
D29*
X015182Y037754D03*
D30*
X014285Y040580D03*
X016080Y040580D03*
D31*
X033745Y019531D03*
X033745Y018350D03*
D32*
X032777Y021378D03*
X032088Y021378D03*
D33*
X027683Y020441D03*
D34*
X030509Y021338D03*
X030509Y019543D03*
D35*
X028932Y018375D03*
X028932Y017256D03*
D36*
G36*
X021112Y017702D02*
X020931Y017883D01*
X021488Y018440D01*
X021669Y018259D01*
X021112Y017702D01*
G37*
G36*
X020935Y017878D02*
X020754Y018059D01*
X021311Y018616D01*
X021492Y018435D01*
X020935Y017878D01*
G37*
G36*
X020758Y018055D02*
X020577Y018236D01*
X021134Y018793D01*
X021315Y018612D01*
X020758Y018055D01*
G37*
G36*
X020581Y018232D02*
X020400Y018413D01*
X020957Y018970D01*
X021138Y018789D01*
X020581Y018232D01*
G37*
G36*
X020405Y018409D02*
X020224Y018590D01*
X020781Y019147D01*
X020962Y018966D01*
X020405Y018409D01*
G37*
G36*
X020228Y018586D02*
X020047Y018767D01*
X020604Y019324D01*
X020785Y019143D01*
X020228Y018586D01*
G37*
G36*
X020051Y018762D02*
X019870Y018943D01*
X020427Y019500D01*
X020608Y019319D01*
X020051Y018762D01*
G37*
G36*
X019874Y018939D02*
X019693Y019120D01*
X020250Y019677D01*
X020431Y019496D01*
X019874Y018939D01*
G37*
G36*
X018377Y017441D02*
X018196Y017622D01*
X018753Y018179D01*
X018934Y017998D01*
X018377Y017441D01*
G37*
G36*
X018553Y017265D02*
X018372Y017446D01*
X018929Y018003D01*
X019110Y017822D01*
X018553Y017265D01*
G37*
G36*
X018730Y017088D02*
X018549Y017269D01*
X019106Y017826D01*
X019287Y017645D01*
X018730Y017088D01*
G37*
G36*
X018907Y016911D02*
X018726Y017092D01*
X019283Y017649D01*
X019464Y017468D01*
X018907Y016911D01*
G37*
G36*
X019084Y016734D02*
X018903Y016915D01*
X019460Y017472D01*
X019641Y017291D01*
X019084Y016734D01*
G37*
G36*
X019261Y016557D02*
X019080Y016738D01*
X019637Y017295D01*
X019818Y017114D01*
X019261Y016557D01*
G37*
G36*
X019437Y016381D02*
X019256Y016562D01*
X019813Y017119D01*
X019994Y016938D01*
X019437Y016381D01*
G37*
G36*
X019614Y016204D02*
X019433Y016385D01*
X019990Y016942D01*
X020171Y016761D01*
X019614Y016204D01*
G37*
X017307Y017131D03*
X017057Y017131D03*
X016807Y017131D03*
X016557Y017131D03*
X016307Y017131D03*
X016057Y017131D03*
X015807Y017131D03*
X015557Y017131D03*
X014307Y017750D03*
X014057Y017750D03*
X013807Y017750D03*
X013557Y017750D03*
X013307Y017750D03*
X013057Y017750D03*
X012807Y017750D03*
X012557Y017750D03*
X012557Y015631D03*
X012807Y015631D03*
X013057Y015631D03*
X013307Y015631D03*
X013557Y015631D03*
X013807Y015631D03*
X014057Y015631D03*
X014307Y015631D03*
X011307Y015250D03*
X011057Y015250D03*
X010807Y015250D03*
X010557Y015250D03*
X010307Y015250D03*
X010057Y015250D03*
X009807Y015250D03*
X009557Y015250D03*
X009557Y013131D03*
X009807Y013131D03*
X010057Y013131D03*
X010307Y013131D03*
X010557Y013131D03*
X010807Y013131D03*
X011057Y013131D03*
X011307Y013131D03*
X015557Y019250D03*
X015807Y019250D03*
X016057Y019250D03*
X016307Y019250D03*
X016557Y019250D03*
X016807Y019250D03*
X017057Y019250D03*
X017307Y019250D03*
D37*
X025198Y007066D03*
X026182Y007066D03*
X027166Y007066D03*
D38*
X028151Y008365D03*
X024214Y008365D03*
D39*
X011072Y022801D02*
X011072Y023521D01*
X011072Y025361D02*
X011072Y026081D01*
X009292Y026081D02*
X009292Y025361D01*
X009292Y023521D02*
X009292Y022801D01*
X009292Y028301D02*
X009292Y029021D01*
X011072Y029021D02*
X011072Y028301D01*
X011072Y030861D02*
X011072Y031581D01*
X009292Y031581D02*
X009292Y030861D01*
X031042Y026547D02*
X031042Y025827D01*
X031042Y023987D02*
X031042Y023267D01*
X032822Y023267D02*
X032822Y023987D01*
X032822Y025827D02*
X032822Y026547D01*
D40*
X020481Y012441D03*
D41*
X020481Y013941D03*
X020481Y015441D03*
X022383Y015441D03*
X022383Y013941D03*
X022383Y012441D03*
X022432Y007441D03*
X020432Y007441D03*
D42*
X031682Y037691D03*
D43*
X031682Y036691D03*
X031682Y035691D03*
X031682Y039691D03*
D44*
X031432Y027941D03*
X032432Y027941D03*
X018432Y023191D03*
X017432Y023191D03*
X015432Y023191D03*
X014432Y023191D03*
X010682Y021941D03*
X009682Y021941D03*
X017932Y009441D03*
X018932Y009441D03*
D45*
X011182Y019941D03*
X010182Y019941D03*
X009182Y019941D03*
X009182Y027441D03*
X010182Y027441D03*
X011182Y027441D03*
X019932Y023191D03*
X020932Y023191D03*
X021932Y023191D03*
X022932Y023191D03*
X023932Y023191D03*
X024932Y023191D03*
X025932Y023191D03*
X026932Y023191D03*
X027932Y023191D03*
D46*
X022922Y009191D03*
X020442Y009191D03*
M02*
