G75*
G70*
%OFA0B0*%
%FSLAX24Y24*%
%IPPOS*%
%LPD*%
%AMOC8*
5,1,8,0,0,1.08239X$1,22.5*
%
%ADD10C,0.0100*%
%ADD11C,0.0000*%
D10*
X006682Y006191D02*
X007682Y005191D01*
X034422Y005191D01*
X035422Y006191D01*
X035422Y041198D01*
X034422Y042198D01*
X007682Y042198D01*
X006682Y041198D01*
X006682Y006191D01*
D11*
X030597Y006819D02*
X030599Y006855D01*
X030605Y006891D01*
X030615Y006926D01*
X030628Y006960D01*
X030645Y006992D01*
X030665Y007022D01*
X030689Y007049D01*
X030715Y007074D01*
X030744Y007096D01*
X030775Y007115D01*
X030808Y007130D01*
X030842Y007142D01*
X030878Y007150D01*
X030914Y007154D01*
X030950Y007154D01*
X030986Y007150D01*
X031022Y007142D01*
X031056Y007130D01*
X031089Y007115D01*
X031120Y007096D01*
X031149Y007074D01*
X031175Y007049D01*
X031199Y007022D01*
X031219Y006992D01*
X031236Y006960D01*
X031249Y006926D01*
X031259Y006891D01*
X031265Y006855D01*
X031267Y006819D01*
X031265Y006783D01*
X031259Y006747D01*
X031249Y006712D01*
X031236Y006678D01*
X031219Y006646D01*
X031199Y006616D01*
X031175Y006589D01*
X031149Y006564D01*
X031120Y006542D01*
X031089Y006523D01*
X031056Y006508D01*
X031022Y006496D01*
X030986Y006488D01*
X030950Y006484D01*
X030914Y006484D01*
X030878Y006488D01*
X030842Y006496D01*
X030808Y006508D01*
X030775Y006523D01*
X030744Y006542D01*
X030715Y006564D01*
X030689Y006589D01*
X030665Y006616D01*
X030645Y006646D01*
X030628Y006678D01*
X030615Y006712D01*
X030605Y006747D01*
X030599Y006783D01*
X030597Y006819D01*
X030597Y009574D02*
X030599Y009610D01*
X030605Y009646D01*
X030615Y009681D01*
X030628Y009715D01*
X030645Y009747D01*
X030665Y009777D01*
X030689Y009804D01*
X030715Y009829D01*
X030744Y009851D01*
X030775Y009870D01*
X030808Y009885D01*
X030842Y009897D01*
X030878Y009905D01*
X030914Y009909D01*
X030950Y009909D01*
X030986Y009905D01*
X031022Y009897D01*
X031056Y009885D01*
X031089Y009870D01*
X031120Y009851D01*
X031149Y009829D01*
X031175Y009804D01*
X031199Y009777D01*
X031219Y009747D01*
X031236Y009715D01*
X031249Y009681D01*
X031259Y009646D01*
X031265Y009610D01*
X031267Y009574D01*
X031265Y009538D01*
X031259Y009502D01*
X031249Y009467D01*
X031236Y009433D01*
X031219Y009401D01*
X031199Y009371D01*
X031175Y009344D01*
X031149Y009319D01*
X031120Y009297D01*
X031089Y009278D01*
X031056Y009263D01*
X031022Y009251D01*
X030986Y009243D01*
X030950Y009239D01*
X030914Y009239D01*
X030878Y009243D01*
X030842Y009251D01*
X030808Y009263D01*
X030775Y009278D01*
X030744Y009297D01*
X030715Y009319D01*
X030689Y009344D01*
X030665Y009371D01*
X030645Y009401D01*
X030628Y009433D01*
X030615Y009467D01*
X030605Y009502D01*
X030599Y009538D01*
X030597Y009574D01*
X011621Y040441D02*
X011623Y040467D01*
X011629Y040493D01*
X011639Y040518D01*
X011652Y040541D01*
X011668Y040561D01*
X011688Y040579D01*
X011710Y040594D01*
X011733Y040606D01*
X011759Y040614D01*
X011785Y040618D01*
X011811Y040618D01*
X011837Y040614D01*
X011863Y040606D01*
X011887Y040594D01*
X011908Y040579D01*
X011928Y040561D01*
X011944Y040541D01*
X011957Y040518D01*
X011967Y040493D01*
X011973Y040467D01*
X011975Y040441D01*
X011973Y040415D01*
X011967Y040389D01*
X011957Y040364D01*
X011944Y040341D01*
X011928Y040321D01*
X011908Y040303D01*
X011886Y040288D01*
X011863Y040276D01*
X011837Y040268D01*
X011811Y040264D01*
X011785Y040264D01*
X011759Y040268D01*
X011733Y040276D01*
X011709Y040288D01*
X011688Y040303D01*
X011668Y040321D01*
X011652Y040341D01*
X011639Y040364D01*
X011629Y040389D01*
X011623Y040415D01*
X011621Y040441D01*
X009889Y040441D02*
X009891Y040467D01*
X009897Y040493D01*
X009907Y040518D01*
X009920Y040541D01*
X009936Y040561D01*
X009956Y040579D01*
X009978Y040594D01*
X010001Y040606D01*
X010027Y040614D01*
X010053Y040618D01*
X010079Y040618D01*
X010105Y040614D01*
X010131Y040606D01*
X010155Y040594D01*
X010176Y040579D01*
X010196Y040561D01*
X010212Y040541D01*
X010225Y040518D01*
X010235Y040493D01*
X010241Y040467D01*
X010243Y040441D01*
X010241Y040415D01*
X010235Y040389D01*
X010225Y040364D01*
X010212Y040341D01*
X010196Y040321D01*
X010176Y040303D01*
X010154Y040288D01*
X010131Y040276D01*
X010105Y040268D01*
X010079Y040264D01*
X010053Y040264D01*
X010027Y040268D01*
X010001Y040276D01*
X009977Y040288D01*
X009956Y040303D01*
X009936Y040321D01*
X009920Y040341D01*
X009907Y040364D01*
X009897Y040389D01*
X009891Y040415D01*
X009889Y040441D01*
M02*
