G75*
G70*
%OFA0B0*%
%FSLAX24Y24*%
%IPPOS*%
%LPD*%
%AMOC8*
5,1,8,0,0,1.08239X$1,22.5*
%
%ADD10C,0.0576*%
%ADD11C,0.0720*%
%ADD12C,0.0648*%
%ADD13C,0.0567*%
%ADD14C,0.0920*%
%ADD15C,0.0709*%
%ADD16C,0.1227*%
%ADD17C,0.1030*%
%ADD18C,0.0357*%
%ADD19C,0.0160*%
%ADD20C,0.0320*%
%ADD21C,0.0240*%
%ADD22C,0.0100*%
%ADD23C,0.0120*%
%ADD24C,0.0500*%
D10*
X017932Y009441D03*
X018932Y009441D03*
X010682Y021941D03*
X009682Y021941D03*
X014432Y023191D03*
X015432Y023191D03*
X017432Y023191D03*
X018432Y023191D03*
X009807Y033241D03*
X009807Y035141D03*
X031432Y027941D03*
X032432Y027941D03*
D11*
X032822Y026187D03*
X031042Y026187D03*
X031042Y023627D03*
X032822Y023627D03*
X032932Y030191D03*
X032932Y031191D03*
X032932Y032191D03*
X032932Y033191D03*
X032932Y034191D03*
X031932Y034191D03*
X031932Y033191D03*
X031932Y032191D03*
X031932Y031191D03*
X031932Y030191D03*
X029745Y030191D03*
X029745Y031191D03*
X028745Y031191D03*
X027745Y031191D03*
X026745Y031191D03*
X025745Y031191D03*
X025745Y030191D03*
X026745Y030191D03*
X027745Y030191D03*
X028745Y030191D03*
X011072Y031221D03*
X009292Y031221D03*
X009292Y028661D03*
X011072Y028661D03*
X011072Y025721D03*
X009292Y025721D03*
X009292Y023161D03*
X011072Y023161D03*
D12*
X015682Y024691D03*
X015682Y025691D03*
X026932Y037691D03*
X027932Y037691D03*
X028932Y037691D03*
X016932Y009441D03*
X015932Y009441D03*
X014932Y009441D03*
X013932Y009441D03*
X012932Y009441D03*
X011932Y009441D03*
X011932Y008441D03*
X012932Y008441D03*
X013932Y008441D03*
X014932Y008441D03*
X015932Y008441D03*
X016932Y008441D03*
X010932Y008441D03*
X010932Y009441D03*
D13*
X011182Y019941D03*
X010182Y019941D03*
X009182Y019941D03*
X009182Y027441D03*
X010182Y027441D03*
X011182Y027441D03*
X017552Y025263D03*
X018552Y025263D03*
X019552Y025263D03*
X020552Y025263D03*
X021552Y025263D03*
X022552Y025263D03*
X023552Y025263D03*
X024552Y025263D03*
X024932Y023191D03*
X023932Y023191D03*
X022932Y023191D03*
X021932Y023191D03*
X020932Y023191D03*
X019932Y023191D03*
X025932Y023191D03*
X026932Y023191D03*
X027932Y023191D03*
X024552Y040618D03*
X023552Y040618D03*
X022552Y040618D03*
X021552Y040618D03*
X020552Y040618D03*
X019552Y040618D03*
X018552Y040618D03*
X017552Y040618D03*
D14*
X011995Y032253D03*
D15*
X031682Y035691D03*
X031682Y036691D03*
X031682Y037691D03*
X031682Y039691D03*
X027166Y007066D03*
X026182Y007066D03*
X025198Y007066D03*
D16*
X024214Y008365D03*
X028151Y008365D03*
D17*
X022432Y007441D03*
X020432Y007441D03*
X020481Y012441D03*
X020481Y013941D03*
X020481Y015441D03*
X022383Y015441D03*
X022383Y013941D03*
X022383Y012441D03*
D18*
X023807Y011691D03*
X024682Y011707D03*
X026432Y011770D03*
X024682Y013707D03*
X023807Y013691D03*
X023807Y015691D03*
X024682Y015707D03*
X025182Y017520D03*
X023807Y017503D03*
X022807Y018503D03*
X023807Y019441D03*
X025682Y019316D03*
X026307Y018707D03*
X026182Y020066D03*
X026182Y021316D03*
X026870Y022253D03*
X027495Y022191D03*
X028057Y022253D03*
X029682Y022753D03*
X029620Y023878D03*
X029932Y024253D03*
X030432Y024253D03*
X029620Y026941D03*
X030245Y027128D03*
X029620Y028691D03*
X030932Y030753D03*
X034995Y030441D03*
X034995Y034191D03*
X034995Y037941D03*
X032682Y037941D03*
X029932Y036941D03*
X029807Y034878D03*
X025120Y033816D03*
X024807Y032941D03*
X024745Y032191D03*
X024745Y031628D03*
X023932Y029941D03*
X022745Y030441D03*
X021432Y030628D03*
X021120Y031628D03*
X021557Y032503D03*
X021370Y033128D03*
X022745Y033566D03*
X024182Y034191D03*
X024432Y036753D03*
X021870Y037066D03*
X021120Y036316D03*
X020620Y036066D03*
X020557Y035566D03*
X019557Y035441D03*
X018995Y035441D03*
X018432Y036191D03*
X017120Y035878D03*
X015557Y035691D03*
X014495Y035753D03*
X013432Y036316D03*
X014307Y037441D03*
X012557Y038191D03*
X012245Y037128D03*
X011307Y037441D03*
X010307Y037503D03*
X010182Y038191D03*
X010307Y036691D03*
X010432Y034753D03*
X010432Y034253D03*
X009120Y034566D03*
X007120Y034128D03*
X007120Y030378D03*
X007120Y026628D03*
X010182Y026003D03*
X011807Y028503D03*
X013182Y030503D03*
X014307Y028878D03*
X014995Y029378D03*
X014995Y029941D03*
X014932Y031003D03*
X015495Y031503D03*
X014682Y032003D03*
X014682Y032816D03*
X014682Y033691D03*
X016120Y032316D03*
X018682Y033253D03*
X019557Y034691D03*
X021495Y034878D03*
X019557Y032066D03*
X018495Y030503D03*
X018807Y029878D03*
X017932Y030066D03*
X017807Y029128D03*
X017557Y027941D03*
X017682Y026878D03*
X018057Y024753D03*
X018495Y024253D03*
X021057Y024691D03*
X022932Y023878D03*
X020932Y022441D03*
X021245Y020753D03*
X021245Y020066D03*
X019682Y021066D03*
X017932Y020753D03*
X017057Y021316D03*
X014932Y021253D03*
X014932Y021878D03*
X014245Y021878D03*
X013870Y022253D03*
X011995Y021066D03*
X011370Y018503D03*
X010620Y017128D03*
X008370Y018191D03*
X007120Y019128D03*
X008370Y021253D03*
X007120Y022878D03*
X013182Y023941D03*
X013870Y023941D03*
X019620Y029316D03*
X020870Y029628D03*
X021745Y028066D03*
X021307Y027441D03*
X020245Y026691D03*
X023370Y026691D03*
X025370Y027441D03*
X026370Y028691D03*
X026245Y024691D03*
X024557Y021691D03*
X023432Y021566D03*
X020370Y017878D03*
X020432Y017378D03*
X019932Y018128D03*
X019745Y018628D03*
X017057Y016003D03*
X017682Y015503D03*
X015057Y014628D03*
X014620Y014253D03*
X014182Y014566D03*
X014932Y013691D03*
X016932Y012441D03*
X013807Y011378D03*
X012682Y011378D03*
X011932Y012378D03*
X011932Y012941D03*
X010557Y014566D03*
X008057Y013878D03*
X007120Y015316D03*
X009807Y011253D03*
X010182Y010816D03*
X008057Y009753D03*
X008057Y005628D03*
X011807Y005628D03*
X015557Y005628D03*
X019307Y005628D03*
X019307Y007316D03*
X023807Y005628D03*
X026182Y008441D03*
X026432Y009332D03*
X028057Y009707D03*
X029557Y012457D03*
X027932Y014020D03*
X027432Y016378D03*
X028307Y016628D03*
X027432Y017191D03*
X027682Y018707D03*
X028932Y016628D03*
X029620Y016753D03*
X030557Y017503D03*
X030807Y017066D03*
X031682Y016770D03*
X031682Y017503D03*
X032370Y017441D03*
X032682Y016457D03*
X033682Y017270D03*
X034432Y017270D03*
X034995Y016707D03*
X034995Y014707D03*
X034995Y012707D03*
X034995Y010707D03*
X034995Y008707D03*
X034995Y006707D03*
X034057Y005645D03*
X033120Y005645D03*
X032432Y007441D03*
X030932Y007832D03*
X031057Y005645D03*
X029057Y005645D03*
X028745Y006395D03*
X027995Y005628D03*
X024682Y009707D03*
X023807Y009691D03*
X029932Y015582D03*
X031370Y014707D03*
X030557Y018378D03*
X032120Y020441D03*
X032620Y020441D03*
X033745Y022503D03*
X034995Y022566D03*
X034995Y024066D03*
X033495Y024066D03*
X034995Y026566D03*
X034995Y020636D03*
X034995Y018707D03*
X022245Y038316D03*
X021057Y038753D03*
X021932Y040003D03*
X018182Y038191D03*
X017620Y038378D03*
X017245Y038753D03*
X015370Y039691D03*
X016745Y041003D03*
X013995Y041816D03*
X010932Y041691D03*
X010932Y040378D03*
X009182Y040378D03*
X007807Y041691D03*
X008307Y037878D03*
X007120Y037878D03*
X011682Y033441D03*
X027932Y041191D03*
X028932Y040191D03*
X034307Y041691D03*
D19*
X034397Y041814D02*
X007708Y041814D01*
X007802Y041908D02*
X034302Y041908D01*
X035132Y041078D01*
X035132Y023231D01*
X033274Y023231D01*
X033331Y023287D01*
X033422Y023508D01*
X033422Y023746D01*
X033331Y023967D01*
X033162Y024136D01*
X032942Y024227D01*
X032703Y024227D01*
X032482Y024136D01*
X032314Y023967D01*
X032222Y023746D01*
X032222Y023508D01*
X032314Y023287D01*
X032466Y023135D01*
X032436Y023105D01*
X032392Y022998D01*
X032392Y022883D01*
X032392Y022311D01*
X031562Y021481D01*
X028124Y021481D01*
X028018Y021436D01*
X027936Y021355D01*
X023936Y017355D01*
X023892Y017248D01*
X023892Y017133D01*
X023892Y009155D01*
X023730Y009088D01*
X023490Y008848D01*
X023360Y008534D01*
X023360Y008195D01*
X023490Y007881D01*
X023730Y007641D01*
X024044Y007511D01*
X024383Y007511D01*
X024697Y007641D01*
X024937Y007881D01*
X025067Y008195D01*
X025067Y008534D01*
X025019Y008651D01*
X027345Y008651D01*
X027297Y008534D01*
X027297Y008195D01*
X027427Y007881D01*
X027667Y007641D01*
X027981Y007511D01*
X028142Y007511D01*
X028142Y005481D01*
X019982Y005481D01*
X019982Y005791D01*
X020853Y005791D01*
X021012Y005791D01*
X021159Y005851D01*
X021771Y006464D01*
X021832Y006611D01*
X021832Y006770D01*
X021832Y007090D01*
X021853Y007054D01*
X021909Y006981D01*
X021973Y006917D01*
X022045Y006861D01*
X022124Y006816D01*
X022208Y006781D01*
X022296Y006757D01*
X022355Y006750D01*
X022355Y007363D01*
X022510Y007363D01*
X022510Y007518D01*
X023123Y007518D01*
X023115Y007576D01*
X023092Y007664D01*
X023057Y007749D01*
X023011Y007827D01*
X022956Y007900D01*
X022891Y007964D01*
X022819Y008020D01*
X022740Y008065D01*
X022656Y008100D01*
X022568Y008124D01*
X022510Y008131D01*
X022510Y007518D01*
X022355Y007518D01*
X022355Y008131D01*
X022296Y008124D01*
X022208Y008100D01*
X022124Y008065D01*
X022045Y008020D01*
X021973Y007964D01*
X021909Y007900D01*
X021853Y007827D01*
X021832Y007791D01*
X021832Y010361D01*
X021832Y010520D01*
X021771Y010667D01*
X020881Y011557D01*
X020881Y011789D01*
X020909Y011801D01*
X021121Y012013D01*
X021236Y012290D01*
X021236Y012591D01*
X021216Y012641D01*
X021717Y012641D01*
X021700Y012576D01*
X021692Y012518D01*
X022305Y012518D01*
X022305Y012363D01*
X021692Y012363D01*
X021700Y012305D01*
X021724Y012217D01*
X021758Y012132D01*
X021804Y012054D01*
X021859Y011981D01*
X021924Y011917D01*
X021996Y011861D01*
X022075Y011816D01*
X022159Y011781D01*
X022247Y011757D01*
X022305Y011750D01*
X022305Y012363D01*
X022460Y012363D01*
X022460Y011750D01*
X022519Y011757D01*
X022607Y011781D01*
X022691Y011816D01*
X022770Y011861D01*
X022842Y011917D01*
X022907Y011981D01*
X022962Y012054D01*
X023008Y012132D01*
X023042Y012217D01*
X023066Y012305D01*
X023074Y012363D01*
X022461Y012363D01*
X022461Y012518D01*
X023074Y012518D01*
X023066Y012576D01*
X023049Y012641D01*
X023372Y012641D01*
X023492Y012641D01*
X023602Y012686D01*
X023686Y012771D01*
X023732Y012881D01*
X023732Y017131D01*
X023732Y017250D01*
X023686Y017360D01*
X023186Y017860D01*
X023102Y017945D01*
X022992Y017991D01*
X020776Y017991D01*
X020724Y018115D01*
X020607Y018233D01*
X020453Y018296D01*
X020315Y018296D01*
X020287Y018365D01*
X020169Y018483D01*
X020142Y018494D01*
X020163Y018545D01*
X020163Y018711D01*
X020099Y018865D01*
X019982Y018983D01*
X019828Y019046D01*
X019661Y019046D01*
X019508Y018983D01*
X019390Y018865D01*
X019326Y018711D01*
X019326Y018545D01*
X019390Y018391D01*
X019508Y018273D01*
X019535Y018262D01*
X019514Y018211D01*
X019514Y018045D01*
X019536Y017991D01*
X017304Y017991D01*
X017185Y017991D01*
X017075Y017945D01*
X016990Y017860D01*
X016945Y017750D01*
X016945Y017241D01*
X014367Y017241D01*
X014247Y017241D01*
X014137Y017195D01*
X014053Y017110D01*
X014007Y017000D01*
X014007Y015491D01*
X011804Y015491D01*
X011685Y015491D01*
X011575Y015445D01*
X011490Y015360D01*
X011445Y015250D01*
X011445Y014491D01*
X008032Y014491D01*
X008082Y014611D01*
X008082Y014770D01*
X008082Y017791D01*
X008242Y017791D01*
X008286Y017772D01*
X008453Y017772D01*
X008607Y017836D01*
X008724Y017954D01*
X008743Y017998D01*
X008848Y018103D01*
X011242Y018103D01*
X011286Y018085D01*
X011352Y018085D01*
X011382Y018079D01*
X011382Y018079D01*
X011412Y018085D01*
X011453Y018085D01*
X011492Y018101D01*
X011503Y018103D01*
X011585Y018103D01*
X011915Y018103D01*
X012074Y018103D01*
X014165Y018103D01*
X014324Y018103D01*
X015790Y018103D01*
X015949Y018103D01*
X016096Y018164D01*
X017223Y019291D01*
X019353Y019291D01*
X019512Y019291D01*
X019659Y019351D01*
X020660Y020353D01*
X020941Y020353D01*
X020890Y020303D01*
X020826Y020149D01*
X020826Y019982D01*
X020890Y019829D01*
X021008Y019711D01*
X021161Y019647D01*
X021328Y019647D01*
X021482Y019711D01*
X021599Y019829D01*
X021663Y019982D01*
X021663Y020149D01*
X021599Y020303D01*
X021493Y020409D01*
X021599Y020516D01*
X021663Y020670D01*
X021663Y020836D01*
X021599Y020990D01*
X021482Y021108D01*
X021328Y021171D01*
X021161Y021171D01*
X021117Y021153D01*
X020415Y021153D01*
X020268Y021092D01*
X020156Y020980D01*
X019266Y020091D01*
X017457Y020091D01*
X017457Y021188D01*
X017476Y021232D01*
X017476Y021399D01*
X017412Y021553D01*
X017294Y021670D01*
X017140Y021734D01*
X016974Y021734D01*
X016820Y021670D01*
X016702Y021553D01*
X016639Y021399D01*
X016639Y021232D01*
X016657Y021188D01*
X016657Y019856D01*
X015704Y018903D01*
X014645Y018903D01*
X014645Y020949D01*
X014695Y020898D01*
X014849Y020835D01*
X015015Y020835D01*
X015169Y020898D01*
X015287Y021016D01*
X015314Y021082D01*
X015406Y021274D01*
X016252Y022121D01*
X020573Y022121D01*
X020582Y022121D01*
X020783Y022049D01*
X020849Y022022D01*
X021015Y022022D01*
X021169Y022086D01*
X021287Y022204D01*
X021351Y022357D01*
X021351Y022524D01*
X021287Y022678D01*
X021172Y022793D01*
X021175Y022794D01*
X021234Y022837D01*
X021286Y022889D01*
X021329Y022948D01*
X021362Y023013D01*
X021384Y023082D01*
X021396Y023154D01*
X021396Y023190D01*
X020933Y023190D01*
X020933Y023191D01*
X021396Y023191D01*
X021396Y023227D01*
X021384Y023299D01*
X021362Y023368D01*
X021329Y023433D01*
X021286Y023492D01*
X021234Y023544D01*
X021175Y023587D01*
X021110Y023620D01*
X021041Y023643D01*
X020969Y023654D01*
X020932Y023654D01*
X020896Y023654D01*
X020824Y023643D01*
X020754Y023620D01*
X020689Y023587D01*
X020630Y023544D01*
X020579Y023492D01*
X020536Y023433D01*
X020503Y023368D01*
X020480Y023299D01*
X020469Y023227D01*
X020469Y023191D01*
X020932Y023191D01*
X020932Y023654D01*
X020932Y023191D01*
X020932Y023191D01*
X020932Y023190D01*
X020469Y023190D01*
X020469Y023154D01*
X020480Y023082D01*
X020503Y023013D01*
X020536Y022948D01*
X020579Y022889D01*
X020630Y022837D01*
X020685Y022797D01*
X020582Y022761D01*
X020573Y022761D01*
X020242Y022761D01*
X020376Y022894D01*
X020456Y023086D01*
X020456Y023295D01*
X020376Y023487D01*
X020229Y023634D01*
X020036Y023714D01*
X019828Y023714D01*
X019636Y023634D01*
X019488Y023487D01*
X019409Y023295D01*
X019409Y023086D01*
X019488Y022894D01*
X019622Y022761D01*
X018619Y022761D01*
X018677Y022790D01*
X018737Y022834D01*
X018789Y022886D01*
X018832Y022945D01*
X018866Y023011D01*
X018889Y023081D01*
X018900Y023154D01*
X018900Y023190D01*
X018433Y023190D01*
X018433Y023191D01*
X018900Y023191D01*
X018900Y023227D01*
X018889Y023300D01*
X018866Y023370D01*
X018832Y023436D01*
X018789Y023495D01*
X018737Y023547D01*
X018677Y023591D01*
X018612Y023624D01*
X018542Y023647D01*
X018469Y023659D01*
X018432Y023659D01*
X018395Y023659D01*
X018323Y023647D01*
X018253Y023624D01*
X018187Y023591D01*
X018127Y023547D01*
X018075Y023495D01*
X018032Y023436D01*
X017999Y023370D01*
X017976Y023300D01*
X017964Y023227D01*
X017964Y023191D01*
X018432Y023191D01*
X018432Y023659D01*
X018432Y023191D01*
X018432Y023191D01*
X018432Y023190D01*
X017964Y023190D01*
X017964Y023154D01*
X017976Y023081D01*
X017999Y023011D01*
X018032Y022945D01*
X018075Y022886D01*
X018127Y022834D01*
X018187Y022790D01*
X018245Y022761D01*
X017749Y022761D01*
X017880Y022891D01*
X017960Y023086D01*
X017960Y023296D01*
X017880Y023490D01*
X017731Y023638D01*
X017537Y023719D01*
X017327Y023719D01*
X017133Y023638D01*
X016985Y023490D01*
X016904Y023296D01*
X016904Y023086D01*
X016985Y022891D01*
X017116Y022761D01*
X016056Y022761D01*
X015938Y022712D01*
X015848Y022622D01*
X014954Y021727D01*
X014762Y021635D01*
X014695Y021608D01*
X014645Y021557D01*
X014645Y021750D01*
X014663Y021795D01*
X014663Y021961D01*
X014599Y022115D01*
X014482Y022233D01*
X014328Y022296D01*
X014288Y022296D01*
X014288Y022336D01*
X014224Y022490D01*
X014107Y022608D01*
X013953Y022671D01*
X013786Y022671D01*
X013633Y022608D01*
X013515Y022490D01*
X013451Y022336D01*
X013451Y022170D01*
X013515Y022016D01*
X013633Y021898D01*
X013786Y021835D01*
X013826Y021835D01*
X013826Y021795D01*
X013845Y021750D01*
X013845Y018903D01*
X012395Y018903D01*
X012395Y020938D01*
X012413Y020982D01*
X012413Y021149D01*
X012349Y021303D01*
X012232Y021420D01*
X012078Y021484D01*
X011911Y021484D01*
X011758Y021420D01*
X011640Y021303D01*
X011576Y021149D01*
X011576Y020982D01*
X011595Y020938D01*
X011595Y020268D01*
X011479Y020384D01*
X011286Y020464D01*
X011078Y020464D01*
X010886Y020384D01*
X010738Y020237D01*
X010659Y020045D01*
X010659Y019836D01*
X010738Y019644D01*
X010886Y019497D01*
X011078Y019417D01*
X011286Y019417D01*
X011479Y019497D01*
X011595Y019613D01*
X011595Y018903D01*
X011585Y018903D01*
X011503Y018903D01*
X011492Y018905D01*
X011453Y018921D01*
X011411Y018921D01*
X011382Y018927D01*
X011352Y018921D01*
X011286Y018921D01*
X011242Y018903D01*
X008762Y018903D01*
X008603Y018903D01*
X008456Y018842D01*
X008204Y018591D01*
X008082Y018591D01*
X008082Y020949D01*
X008133Y020898D01*
X008286Y020835D01*
X008453Y020835D01*
X008607Y020898D01*
X008616Y020907D01*
X008745Y020929D01*
X008755Y020927D01*
X008781Y020933D01*
X011058Y020933D01*
X011176Y020982D01*
X011266Y021072D01*
X012453Y022259D01*
X012502Y022377D01*
X012502Y022504D01*
X012502Y024308D01*
X015815Y027621D01*
X017181Y027621D01*
X017213Y027621D01*
X017304Y027602D01*
X017320Y027586D01*
X017474Y027522D01*
X017640Y027522D01*
X017794Y027586D01*
X017912Y027704D01*
X018666Y027704D01*
X018507Y027862D02*
X017976Y027862D01*
X017976Y027857D02*
X017976Y028024D01*
X017912Y028178D01*
X017794Y028295D01*
X017640Y028359D01*
X017474Y028359D01*
X017320Y028295D01*
X017304Y028279D01*
X017213Y028261D01*
X017181Y028261D01*
X015746Y028261D01*
X015619Y028261D01*
X015501Y028212D01*
X012001Y024712D01*
X011911Y024622D01*
X011862Y024504D01*
X011862Y022573D01*
X011142Y021853D01*
X011150Y021904D01*
X011150Y021940D01*
X010683Y021940D01*
X010683Y021941D01*
X011150Y021941D01*
X011150Y021977D01*
X011139Y022050D01*
X011116Y022120D01*
X011082Y022186D01*
X011039Y022245D01*
X010987Y022297D01*
X010927Y022341D01*
X010862Y022374D01*
X010792Y022397D01*
X010719Y022409D01*
X010682Y022409D01*
X010645Y022409D01*
X010573Y022397D01*
X010503Y022374D01*
X010437Y022341D01*
X010377Y022297D01*
X010325Y022245D01*
X010282Y022186D01*
X010249Y022120D01*
X010226Y022050D01*
X010214Y021977D01*
X010214Y021941D01*
X010682Y021941D01*
X010682Y022409D01*
X010682Y021941D01*
X010682Y021941D01*
X010682Y021940D01*
X010214Y021940D01*
X010214Y021904D01*
X010226Y021831D01*
X010249Y021761D01*
X010282Y021695D01*
X010325Y021636D01*
X010377Y021584D01*
X010392Y021573D01*
X010061Y021573D01*
X010130Y021641D01*
X010210Y021836D01*
X010210Y022046D01*
X010130Y022240D01*
X009981Y022388D01*
X009787Y022469D01*
X009577Y022469D01*
X009383Y022388D01*
X009235Y022240D01*
X009154Y022046D01*
X009154Y021836D01*
X009235Y021641D01*
X009303Y021573D01*
X008781Y021573D01*
X008755Y021579D01*
X008745Y021577D01*
X008615Y021599D01*
X008607Y021608D01*
X008453Y021671D01*
X008286Y021671D01*
X008133Y021608D01*
X008082Y021557D01*
X008082Y025361D01*
X008700Y025361D01*
X008850Y025278D01*
X008932Y025128D01*
X008932Y023753D01*
X008807Y023524D01*
X008784Y023500D01*
X008750Y023420D01*
X008731Y023386D01*
X008730Y023371D01*
X008692Y023280D01*
X008692Y023041D01*
X008784Y022821D01*
X008952Y022652D01*
X009173Y022561D01*
X009412Y022561D01*
X009632Y022652D01*
X009801Y022821D01*
X009892Y023041D01*
X009892Y023280D01*
X009854Y023371D01*
X009853Y023386D01*
X009834Y023420D01*
X009801Y023500D01*
X009777Y023524D01*
X009652Y023753D01*
X009652Y025128D01*
X009777Y025357D01*
X009801Y025381D01*
X009834Y025461D01*
X009853Y025495D01*
X009853Y025495D01*
X009854Y025510D01*
X009892Y025601D01*
X009892Y025840D01*
X009801Y026060D01*
X009632Y026229D01*
X009412Y026321D01*
X009173Y026321D01*
X009082Y026283D01*
X009067Y026281D01*
X009067Y026281D01*
X009067Y026281D01*
X009032Y026262D01*
X008952Y026229D01*
X008929Y026206D01*
X008700Y026081D01*
X008082Y026081D01*
X008082Y030861D01*
X008700Y030861D01*
X008850Y030778D01*
X008932Y030628D01*
X008932Y029253D01*
X008807Y029024D01*
X008784Y029000D01*
X008750Y028920D01*
X008731Y028886D01*
X008730Y028871D01*
X008692Y028780D01*
X008692Y028541D01*
X008784Y028321D01*
X008952Y028152D01*
X009173Y028061D01*
X009412Y028061D01*
X009632Y028152D01*
X009801Y028321D01*
X009892Y028541D01*
X009892Y028780D01*
X009854Y028871D01*
X009853Y028886D01*
X009834Y028920D01*
X009801Y029000D01*
X009777Y029024D01*
X009652Y029253D01*
X009652Y030628D01*
X009777Y030857D01*
X009801Y030881D01*
X009834Y030961D01*
X009853Y030995D01*
X009853Y030995D01*
X009854Y031010D01*
X009892Y031101D01*
X009892Y031340D01*
X009801Y031560D01*
X009632Y031729D01*
X009412Y031821D01*
X009173Y031821D01*
X009082Y031783D01*
X009067Y031781D01*
X009067Y031781D01*
X009067Y031781D01*
X009033Y031762D01*
X008952Y031729D01*
X008929Y031706D01*
X008700Y031581D01*
X008082Y031581D01*
X008082Y039775D01*
X008910Y040603D01*
X009682Y040603D01*
X009649Y040524D01*
X009649Y040358D01*
X009712Y040204D01*
X009830Y040087D01*
X009983Y040023D01*
X010149Y040023D01*
X010302Y040087D01*
X010420Y040204D01*
X010483Y040358D01*
X010483Y040524D01*
X010450Y040603D01*
X011414Y040603D01*
X011381Y040524D01*
X011381Y040358D01*
X011445Y040204D01*
X011562Y040087D01*
X011715Y040023D01*
X011881Y040023D01*
X012035Y040087D01*
X012152Y040204D01*
X012215Y040358D01*
X012215Y040524D01*
X012183Y040603D01*
X016345Y040603D01*
X016345Y039520D01*
X016345Y037591D01*
X015853Y037591D01*
X015706Y037530D01*
X015593Y037417D01*
X014302Y036126D01*
X014258Y036108D01*
X014140Y035990D01*
X014076Y035836D01*
X014076Y035670D01*
X014140Y035516D01*
X014258Y035398D01*
X014411Y035335D01*
X014578Y035335D01*
X014732Y035398D01*
X014849Y035516D01*
X014868Y035561D01*
X016098Y036791D01*
X016345Y036791D01*
X016345Y035958D01*
X016345Y035798D01*
X016345Y035770D01*
X016345Y034231D01*
X016343Y034230D01*
X015075Y032961D01*
X015037Y033053D01*
X014919Y033170D01*
X014765Y033234D01*
X014599Y033234D01*
X014445Y033170D01*
X014327Y033053D01*
X014264Y032899D01*
X014264Y032732D01*
X014327Y032579D01*
X014445Y032461D01*
X014536Y032423D01*
X014490Y032376D01*
X014445Y032358D01*
X014327Y032240D01*
X014264Y032086D01*
X014264Y031920D01*
X014327Y031766D01*
X014445Y031648D01*
X014599Y031585D01*
X014765Y031585D01*
X014919Y031648D01*
X015037Y031766D01*
X015055Y031811D01*
X016713Y033469D01*
X017804Y032378D01*
X016456Y031030D01*
X016343Y030917D01*
X016282Y030770D01*
X016282Y029611D01*
X016343Y029464D01*
X016456Y029351D01*
X017018Y028789D01*
X017165Y028728D01*
X017324Y028728D01*
X017641Y028728D01*
X019156Y027214D01*
X019268Y027101D01*
X019415Y027041D01*
X020266Y027041D01*
X021520Y025787D01*
X021448Y025787D01*
X021256Y025707D01*
X021109Y025560D01*
X021052Y025424D01*
X020996Y025560D01*
X020849Y025707D01*
X020656Y025787D01*
X020448Y025787D01*
X020256Y025707D01*
X020109Y025560D01*
X020052Y025424D01*
X019996Y025560D01*
X019849Y025707D01*
X019656Y025787D01*
X019448Y025787D01*
X019256Y025707D01*
X019109Y025560D01*
X019052Y025424D01*
X018996Y025560D01*
X018849Y025707D01*
X018656Y025787D01*
X018448Y025787D01*
X018256Y025707D01*
X018109Y025560D01*
X018052Y025424D01*
X017996Y025560D01*
X017849Y025707D01*
X017656Y025787D01*
X017448Y025787D01*
X017256Y025707D01*
X017109Y025560D01*
X017029Y025368D01*
X017029Y025159D01*
X017109Y024967D01*
X017256Y024820D01*
X017448Y024740D01*
X017656Y024740D01*
X017849Y024820D01*
X017996Y024967D01*
X018052Y025103D01*
X018109Y024967D01*
X018256Y024820D01*
X018448Y024740D01*
X018656Y024740D01*
X018849Y024820D01*
X018996Y024967D01*
X019052Y025103D01*
X019109Y024967D01*
X019256Y024820D01*
X019448Y024740D01*
X019656Y024740D01*
X019849Y024820D01*
X019996Y024967D01*
X020052Y025103D01*
X020109Y024967D01*
X020256Y024820D01*
X020448Y024740D01*
X020639Y024740D01*
X020639Y024607D01*
X020702Y024454D01*
X020820Y024336D01*
X020974Y024272D01*
X021140Y024272D01*
X021294Y024336D01*
X021412Y024454D01*
X021476Y024607D01*
X021476Y024740D01*
X021656Y024740D01*
X021849Y024820D01*
X021996Y024967D01*
X022052Y025103D01*
X022109Y024967D01*
X022256Y024820D01*
X022448Y024740D01*
X022612Y024740D01*
X022612Y024627D01*
X022612Y024228D01*
X022559Y024078D01*
X022541Y024027D01*
X022514Y023961D01*
X022514Y023795D01*
X022577Y023641D01*
X022610Y023609D01*
X022488Y023487D01*
X022432Y023351D01*
X022376Y023487D01*
X022229Y023634D01*
X022036Y023714D01*
X021828Y023714D01*
X021636Y023634D01*
X021488Y023487D01*
X021409Y023295D01*
X021409Y023086D01*
X021488Y022894D01*
X021636Y022747D01*
X021828Y022667D01*
X022036Y022667D01*
X022229Y022747D01*
X022376Y022894D01*
X022432Y023030D01*
X022488Y022894D01*
X022636Y022747D01*
X022828Y022667D01*
X023036Y022667D01*
X023229Y022747D01*
X023376Y022894D01*
X023456Y023086D01*
X023456Y023295D01*
X023376Y023487D01*
X023254Y023609D01*
X023287Y023641D01*
X023351Y023795D01*
X023351Y023961D01*
X023323Y024028D01*
X023252Y024228D01*
X023252Y024558D01*
X023328Y024634D01*
X023377Y024752D01*
X023377Y024769D01*
X023448Y024740D01*
X023656Y024740D01*
X023849Y024820D01*
X023996Y024967D01*
X024076Y025159D01*
X024076Y025368D01*
X023996Y025560D01*
X023849Y025707D01*
X023656Y025787D01*
X023448Y025787D01*
X023376Y025757D01*
X023328Y025872D01*
X023238Y025962D01*
X021787Y027413D01*
X021781Y027419D01*
X021690Y027610D01*
X021674Y027647D01*
X021828Y027647D01*
X021894Y027674D01*
X021944Y027692D01*
X022095Y027746D01*
X022925Y027746D01*
X025112Y025558D01*
X025112Y023683D01*
X025036Y023714D01*
X024828Y023714D01*
X024636Y023634D01*
X024488Y023487D01*
X024409Y023295D01*
X024409Y023086D01*
X024488Y022894D01*
X024636Y022747D01*
X024828Y022667D01*
X025036Y022667D01*
X025112Y022699D01*
X025112Y022698D01*
X024579Y022164D01*
X024387Y022073D01*
X024320Y022045D01*
X024202Y021928D01*
X024139Y021774D01*
X024139Y021607D01*
X024202Y021454D01*
X024320Y021336D01*
X024474Y021272D01*
X024640Y021272D01*
X024794Y021336D01*
X024912Y021454D01*
X024939Y021520D01*
X025031Y021712D01*
X025703Y022384D01*
X025752Y022502D01*
X025752Y022629D01*
X025752Y022699D01*
X025828Y022667D01*
X026036Y022667D01*
X026229Y022747D01*
X026376Y022894D01*
X026456Y023086D01*
X026456Y023295D01*
X026376Y023487D01*
X026229Y023634D01*
X026036Y023714D01*
X025828Y023714D01*
X025752Y023683D01*
X025752Y025754D01*
X025703Y025872D01*
X025613Y025962D01*
X023328Y028247D01*
X023238Y028337D01*
X023121Y028386D01*
X022095Y028386D01*
X021895Y028456D01*
X021828Y028484D01*
X021661Y028484D01*
X021508Y028420D01*
X021390Y028303D01*
X021326Y028149D01*
X021326Y027982D01*
X021377Y027859D01*
X021224Y027859D01*
X021070Y027795D01*
X020952Y027678D01*
X020896Y027542D01*
X020771Y027667D01*
X020659Y027780D01*
X020512Y027841D01*
X019660Y027841D01*
X019380Y028121D01*
X020869Y028121D01*
X020996Y028121D01*
X021113Y028169D01*
X021815Y028871D01*
X022119Y028871D01*
X022246Y028871D01*
X024175Y028871D01*
X029140Y023906D01*
X029146Y023899D01*
X025752Y023899D01*
X025752Y024057D02*
X028988Y024057D01*
X029146Y023899D02*
X029223Y023737D01*
X029238Y023707D01*
X029265Y023641D01*
X029383Y023523D01*
X029536Y023460D01*
X029703Y023460D01*
X029857Y023523D01*
X029974Y023641D01*
X030038Y023795D01*
X030038Y023801D01*
X030182Y023860D01*
X030341Y023795D01*
X030523Y023795D01*
X030530Y023797D01*
X030516Y023754D01*
X030502Y023670D01*
X030502Y023647D01*
X031022Y023647D01*
X031022Y023607D01*
X030502Y023607D01*
X030502Y023585D01*
X030516Y023501D01*
X030542Y023420D01*
X030580Y023344D01*
X030630Y023275D01*
X030690Y023215D01*
X030759Y023165D01*
X030835Y023127D01*
X030916Y023100D01*
X031000Y023087D01*
X031022Y023087D01*
X031022Y023607D01*
X031062Y023607D01*
X031062Y023087D01*
X031085Y023087D01*
X031169Y023100D01*
X031249Y023127D01*
X031325Y023165D01*
X031394Y023215D01*
X031454Y023275D01*
X031504Y023344D01*
X031543Y023420D01*
X031569Y023501D01*
X031582Y023585D01*
X031582Y023607D01*
X031062Y023607D01*
X031062Y023647D01*
X031022Y023647D01*
X031022Y024167D01*
X031000Y024167D01*
X030916Y024154D01*
X030883Y024143D01*
X030891Y024162D01*
X030891Y024344D01*
X030821Y024513D01*
X030692Y024642D01*
X030523Y024711D01*
X030341Y024711D01*
X030182Y024646D01*
X030023Y024711D01*
X029841Y024711D01*
X029672Y024642D01*
X029544Y024513D01*
X029513Y024438D01*
X024488Y029462D01*
X024371Y029511D01*
X024243Y029511D01*
X022502Y029511D01*
X022502Y030091D01*
X022508Y030086D01*
X022661Y030022D01*
X022828Y030022D01*
X022982Y030086D01*
X023099Y030204D01*
X023163Y030357D01*
X023163Y030524D01*
X023099Y030678D01*
X022982Y030795D01*
X022828Y030859D01*
X022661Y030859D01*
X022508Y030795D01*
X022502Y030790D01*
X022502Y031058D01*
X024065Y032621D01*
X024448Y032621D01*
X024457Y032621D01*
X024526Y032596D01*
X024485Y032579D01*
X024356Y032450D01*
X024286Y032282D01*
X024286Y032099D01*
X024356Y031931D01*
X024378Y031909D01*
X024356Y031888D01*
X024286Y031719D01*
X024286Y031537D01*
X024356Y031368D01*
X024485Y031239D01*
X024560Y031208D01*
X024501Y031149D01*
X024411Y031059D01*
X024362Y030942D01*
X024362Y029877D01*
X024411Y029759D01*
X024501Y029669D01*
X025161Y029009D01*
X025251Y028919D01*
X025369Y028871D01*
X028050Y028871D01*
X029765Y027156D01*
X029771Y027149D01*
X029848Y026987D01*
X029863Y026957D01*
X029890Y026891D01*
X030008Y026773D01*
X030161Y026710D01*
X030328Y026710D01*
X030482Y026773D01*
X030599Y026891D01*
X030663Y027045D01*
X030663Y027211D01*
X030599Y027365D01*
X030482Y027483D01*
X030415Y027511D01*
X030223Y027602D01*
X030217Y027608D01*
X028364Y029462D01*
X028246Y029511D01*
X028119Y029511D01*
X025565Y029511D01*
X025002Y030073D01*
X025002Y030745D01*
X025198Y030942D01*
X025236Y030851D01*
X025396Y030691D01*
X025236Y030530D01*
X025145Y030310D01*
X025145Y030071D01*
X025236Y029851D01*
X025405Y029682D01*
X025625Y029591D01*
X025864Y029591D01*
X026085Y029682D01*
X026245Y029842D01*
X026405Y029682D01*
X026625Y029591D01*
X026864Y029591D01*
X027085Y029682D01*
X027245Y029842D01*
X027405Y029682D01*
X027625Y029591D01*
X027864Y029591D01*
X028085Y029682D01*
X028245Y029842D01*
X028405Y029682D01*
X028625Y029591D01*
X028864Y029591D01*
X029085Y029682D01*
X029253Y029851D01*
X029280Y029914D01*
X029283Y029908D01*
X029333Y029839D01*
X029393Y029779D01*
X029462Y029729D01*
X029537Y029690D01*
X029618Y029664D01*
X029702Y029651D01*
X029725Y029651D01*
X029725Y030170D01*
X029765Y030170D01*
X029765Y029651D01*
X029787Y029651D01*
X029871Y029664D01*
X029952Y029690D01*
X030028Y029729D01*
X030097Y029779D01*
X030157Y029839D01*
X030207Y029908D01*
X030245Y029983D01*
X030271Y030064D01*
X030285Y030148D01*
X030285Y030171D01*
X029765Y030171D01*
X029765Y030211D01*
X030285Y030211D01*
X030285Y030233D01*
X030271Y030317D01*
X030245Y030398D01*
X030207Y030474D01*
X030157Y030542D01*
X030097Y030602D01*
X030028Y030652D01*
X030021Y030656D01*
X030085Y030682D01*
X030253Y030851D01*
X030345Y031071D01*
X030345Y031310D01*
X030278Y031471D01*
X030277Y031474D01*
X030276Y031476D01*
X030253Y031530D01*
X030210Y031574D01*
X030206Y031579D01*
X030065Y031789D01*
X030065Y032814D01*
X030065Y032942D01*
X030016Y033059D01*
X025203Y037872D01*
X025113Y037962D01*
X024996Y038011D01*
X024524Y038011D01*
X022929Y039606D01*
X022957Y039673D01*
X022957Y039833D01*
X022952Y039844D01*
X022952Y040277D01*
X022996Y040321D01*
X023052Y040457D01*
X023109Y040321D01*
X023256Y040174D01*
X023448Y040094D01*
X023656Y040094D01*
X023849Y040174D01*
X023996Y040321D01*
X024076Y040514D01*
X024076Y040722D01*
X023996Y040914D01*
X023849Y041061D01*
X023656Y041141D01*
X023448Y041141D01*
X023256Y041061D01*
X023109Y040914D01*
X023052Y040778D01*
X022996Y040914D01*
X022849Y041061D01*
X022656Y041141D01*
X022448Y041141D01*
X022256Y041061D01*
X022109Y040914D01*
X022052Y040778D01*
X021996Y040914D01*
X021849Y041061D01*
X021656Y041141D01*
X021448Y041141D01*
X021256Y041061D01*
X021109Y040914D01*
X021052Y040778D01*
X020996Y040914D01*
X020849Y041061D01*
X020656Y041141D01*
X020448Y041141D01*
X020256Y041061D01*
X020109Y040914D01*
X020052Y040778D01*
X019996Y040914D01*
X019849Y041061D01*
X019656Y041141D01*
X019448Y041141D01*
X019256Y041061D01*
X019109Y040914D01*
X019052Y040778D01*
X018996Y040914D01*
X018849Y041061D01*
X018656Y041141D01*
X018448Y041141D01*
X018256Y041061D01*
X018109Y040914D01*
X018052Y040778D01*
X017996Y040914D01*
X017849Y041061D01*
X017656Y041141D01*
X017448Y041141D01*
X017256Y041061D01*
X017163Y040969D01*
X017163Y041086D01*
X017099Y041240D01*
X016982Y041358D01*
X016828Y041421D01*
X016661Y041421D01*
X016617Y041403D01*
X008824Y041403D01*
X008665Y041403D01*
X008518Y041342D01*
X007456Y040280D01*
X007456Y040280D01*
X007343Y040167D01*
X007282Y040020D01*
X007282Y031111D01*
X007282Y025611D01*
X007282Y018270D01*
X007282Y018111D01*
X007282Y014856D01*
X006972Y014546D01*
X006972Y041078D01*
X007802Y041908D01*
X007549Y041656D02*
X034555Y041656D01*
X034714Y041497D02*
X007391Y041497D01*
X007232Y041338D02*
X008514Y041338D01*
X008356Y041180D02*
X007074Y041180D01*
X006972Y041021D02*
X008197Y041021D01*
X008039Y040863D02*
X006972Y040863D01*
X006972Y040704D02*
X007880Y040704D01*
X007722Y040546D02*
X006972Y040546D01*
X006972Y040387D02*
X007563Y040387D01*
X007405Y040229D02*
X006972Y040229D01*
X006972Y040070D02*
X007303Y040070D01*
X007282Y039912D02*
X006972Y039912D01*
X006972Y039753D02*
X007282Y039753D01*
X007282Y039594D02*
X006972Y039594D01*
X006972Y039436D02*
X007282Y039436D01*
X007282Y039277D02*
X006972Y039277D01*
X006972Y039119D02*
X007282Y039119D01*
X007282Y038960D02*
X006972Y038960D01*
X006972Y038802D02*
X007282Y038802D01*
X007282Y038643D02*
X006972Y038643D01*
X006972Y038485D02*
X007282Y038485D01*
X007282Y038326D02*
X006972Y038326D01*
X006972Y038168D02*
X007282Y038168D01*
X007282Y038009D02*
X006972Y038009D01*
X006972Y037850D02*
X007282Y037850D01*
X007282Y037692D02*
X006972Y037692D01*
X006972Y037533D02*
X007282Y037533D01*
X007282Y037375D02*
X006972Y037375D01*
X006972Y037216D02*
X007282Y037216D01*
X007282Y037058D02*
X006972Y037058D01*
X006972Y036899D02*
X007282Y036899D01*
X007282Y036741D02*
X006972Y036741D01*
X006972Y036582D02*
X007282Y036582D01*
X007282Y036424D02*
X006972Y036424D01*
X006972Y036265D02*
X007282Y036265D01*
X007282Y036106D02*
X006972Y036106D01*
X006972Y035948D02*
X007282Y035948D01*
X007282Y035789D02*
X006972Y035789D01*
X006972Y035631D02*
X007282Y035631D01*
X007282Y035472D02*
X006972Y035472D01*
X006972Y035314D02*
X007282Y035314D01*
X007282Y035155D02*
X006972Y035155D01*
X006972Y034997D02*
X007282Y034997D01*
X007282Y034838D02*
X006972Y034838D01*
X006972Y034680D02*
X007282Y034680D01*
X007282Y034521D02*
X006972Y034521D01*
X006972Y034363D02*
X007282Y034363D01*
X007282Y034204D02*
X006972Y034204D01*
X006972Y034045D02*
X007282Y034045D01*
X007282Y033887D02*
X006972Y033887D01*
X006972Y033728D02*
X007282Y033728D01*
X007282Y033570D02*
X006972Y033570D01*
X006972Y033411D02*
X007282Y033411D01*
X007282Y033253D02*
X006972Y033253D01*
X006972Y033094D02*
X007282Y033094D01*
X007282Y032936D02*
X006972Y032936D01*
X006972Y032777D02*
X007282Y032777D01*
X007282Y032619D02*
X006972Y032619D01*
X006972Y032460D02*
X007282Y032460D01*
X007282Y032301D02*
X006972Y032301D01*
X006972Y032143D02*
X007282Y032143D01*
X007282Y031984D02*
X006972Y031984D01*
X006972Y031826D02*
X007282Y031826D01*
X007282Y031667D02*
X006972Y031667D01*
X006972Y031509D02*
X007282Y031509D01*
X007282Y031350D02*
X006972Y031350D01*
X006972Y031192D02*
X007282Y031192D01*
X007282Y031033D02*
X006972Y031033D01*
X006972Y030875D02*
X007282Y030875D01*
X007282Y030716D02*
X006972Y030716D01*
X006972Y030557D02*
X007282Y030557D01*
X007282Y030399D02*
X006972Y030399D01*
X006972Y030240D02*
X007282Y030240D01*
X007282Y030082D02*
X006972Y030082D01*
X006972Y029923D02*
X007282Y029923D01*
X007282Y029765D02*
X006972Y029765D01*
X006972Y029606D02*
X007282Y029606D01*
X007282Y029448D02*
X006972Y029448D01*
X006972Y029289D02*
X007282Y029289D01*
X007282Y029131D02*
X006972Y029131D01*
X006972Y028972D02*
X007282Y028972D01*
X007282Y028814D02*
X006972Y028814D01*
X006972Y028655D02*
X007282Y028655D01*
X007282Y028496D02*
X006972Y028496D01*
X006972Y028338D02*
X007282Y028338D01*
X007282Y028179D02*
X006972Y028179D01*
X006972Y028021D02*
X007282Y028021D01*
X007282Y027862D02*
X006972Y027862D01*
X006972Y027704D02*
X007282Y027704D01*
X007282Y027545D02*
X006972Y027545D01*
X006972Y027387D02*
X007282Y027387D01*
X007282Y027228D02*
X006972Y027228D01*
X006972Y027070D02*
X007282Y027070D01*
X007282Y026911D02*
X006972Y026911D01*
X006972Y026752D02*
X007282Y026752D01*
X007282Y026594D02*
X006972Y026594D01*
X006972Y026435D02*
X007282Y026435D01*
X007282Y026277D02*
X006972Y026277D01*
X006972Y026118D02*
X007282Y026118D01*
X007282Y025960D02*
X006972Y025960D01*
X006972Y025801D02*
X007282Y025801D01*
X007282Y025643D02*
X006972Y025643D01*
X006972Y025484D02*
X007282Y025484D01*
X007282Y025326D02*
X006972Y025326D01*
X006972Y025167D02*
X007282Y025167D01*
X007282Y025008D02*
X006972Y025008D01*
X006972Y024850D02*
X007282Y024850D01*
X007282Y024691D02*
X006972Y024691D01*
X006972Y024533D02*
X007282Y024533D01*
X007282Y024374D02*
X006972Y024374D01*
X006972Y024216D02*
X007282Y024216D01*
X007282Y024057D02*
X006972Y024057D01*
X006972Y023899D02*
X007282Y023899D01*
X007282Y023740D02*
X006972Y023740D01*
X006972Y023582D02*
X007282Y023582D01*
X007282Y023423D02*
X006972Y023423D01*
X006972Y023264D02*
X007282Y023264D01*
X007282Y023106D02*
X006972Y023106D01*
X006972Y022947D02*
X007282Y022947D01*
X007282Y022789D02*
X006972Y022789D01*
X006972Y022630D02*
X007282Y022630D01*
X007282Y022472D02*
X006972Y022472D01*
X006972Y022313D02*
X007282Y022313D01*
X007282Y022155D02*
X006972Y022155D01*
X006972Y021996D02*
X007282Y021996D01*
X007282Y021838D02*
X006972Y021838D01*
X006972Y021679D02*
X007282Y021679D01*
X007282Y021521D02*
X006972Y021521D01*
X006972Y021362D02*
X007282Y021362D01*
X007282Y021203D02*
X006972Y021203D01*
X006972Y021045D02*
X007282Y021045D01*
X007282Y020886D02*
X006972Y020886D01*
X006972Y020728D02*
X007282Y020728D01*
X007282Y020569D02*
X006972Y020569D01*
X006972Y020411D02*
X007282Y020411D01*
X007282Y020252D02*
X006972Y020252D01*
X006972Y020094D02*
X007282Y020094D01*
X007282Y019935D02*
X006972Y019935D01*
X006972Y019777D02*
X007282Y019777D01*
X007282Y019618D02*
X006972Y019618D01*
X006972Y019459D02*
X007282Y019459D01*
X007282Y019301D02*
X006972Y019301D01*
X006972Y019142D02*
X007282Y019142D01*
X007282Y018984D02*
X006972Y018984D01*
X006972Y018825D02*
X007282Y018825D01*
X007282Y018667D02*
X006972Y018667D01*
X006972Y018508D02*
X007282Y018508D01*
X007282Y018350D02*
X006972Y018350D01*
X006972Y018191D02*
X007282Y018191D01*
X007282Y018033D02*
X006972Y018033D01*
X006972Y017874D02*
X007282Y017874D01*
X007282Y017715D02*
X006972Y017715D01*
X006972Y017557D02*
X007282Y017557D01*
X007282Y017398D02*
X006972Y017398D01*
X006972Y017240D02*
X007282Y017240D01*
X007282Y017081D02*
X006972Y017081D01*
X006972Y016923D02*
X007282Y016923D01*
X007282Y016764D02*
X006972Y016764D01*
X006972Y016606D02*
X007282Y016606D01*
X007282Y016447D02*
X006972Y016447D01*
X006972Y016289D02*
X007282Y016289D01*
X007282Y016130D02*
X006972Y016130D01*
X006972Y015971D02*
X007282Y015971D01*
X007282Y015813D02*
X006972Y015813D01*
X006972Y015654D02*
X007282Y015654D01*
X007282Y015496D02*
X006972Y015496D01*
X006972Y015337D02*
X007282Y015337D01*
X007282Y015179D02*
X006972Y015179D01*
X006972Y015020D02*
X007282Y015020D01*
X007282Y014862D02*
X006972Y014862D01*
X006972Y014703D02*
X007129Y014703D01*
X008055Y014545D02*
X011445Y014545D01*
X011445Y014703D02*
X008082Y014703D01*
X008082Y014862D02*
X011445Y014862D01*
X011445Y015020D02*
X008082Y015020D01*
X008082Y015179D02*
X011445Y015179D01*
X011481Y015337D02*
X008082Y015337D01*
X008082Y015496D02*
X014007Y015496D01*
X014007Y015654D02*
X008082Y015654D01*
X008082Y015813D02*
X014007Y015813D01*
X014007Y015971D02*
X008082Y015971D01*
X008082Y016130D02*
X014007Y016130D01*
X014007Y016289D02*
X008082Y016289D01*
X008082Y016447D02*
X014007Y016447D01*
X014007Y016606D02*
X008082Y016606D01*
X008082Y016764D02*
X010405Y016764D01*
X010383Y016773D02*
X010536Y016710D01*
X010703Y016710D01*
X010857Y016773D01*
X010974Y016891D01*
X011038Y017045D01*
X011038Y017211D01*
X010974Y017365D01*
X010857Y017483D01*
X010703Y017546D01*
X010536Y017546D01*
X010383Y017483D01*
X010265Y017365D01*
X010201Y017211D01*
X010201Y017045D01*
X010265Y016891D01*
X010383Y016773D01*
X010252Y016923D02*
X008082Y016923D01*
X008082Y017081D02*
X010201Y017081D01*
X010213Y017240D02*
X008082Y017240D01*
X008082Y017398D02*
X010298Y017398D01*
X010835Y016764D02*
X014007Y016764D01*
X014007Y016923D02*
X010988Y016923D01*
X011038Y017081D02*
X014041Y017081D01*
X014246Y017240D02*
X011026Y017240D01*
X010941Y017398D02*
X016945Y017398D01*
X016945Y017557D02*
X008082Y017557D01*
X008082Y017715D02*
X016945Y017715D01*
X017004Y017874D02*
X008645Y017874D01*
X008777Y018033D02*
X019519Y018033D01*
X019514Y018191D02*
X016123Y018191D01*
X016282Y018350D02*
X019431Y018350D01*
X019341Y018508D02*
X016441Y018508D01*
X016599Y018667D02*
X019326Y018667D01*
X019374Y018825D02*
X016758Y018825D01*
X016916Y018984D02*
X019510Y018984D01*
X019537Y019301D02*
X025882Y019301D01*
X025724Y019142D02*
X017075Y019142D01*
X016419Y019618D02*
X014645Y019618D01*
X014645Y019459D02*
X016260Y019459D01*
X016102Y019301D02*
X014645Y019301D01*
X014645Y019142D02*
X015943Y019142D01*
X015785Y018984D02*
X014645Y018984D01*
X014645Y019777D02*
X016578Y019777D01*
X016657Y019935D02*
X014645Y019935D01*
X014645Y020094D02*
X016657Y020094D01*
X016657Y020252D02*
X014645Y020252D01*
X014645Y020411D02*
X016657Y020411D01*
X016657Y020569D02*
X014645Y020569D01*
X014645Y020728D02*
X016657Y020728D01*
X016657Y020886D02*
X015140Y020886D01*
X015299Y021045D02*
X016657Y021045D01*
X016651Y021203D02*
X015372Y021203D01*
X015494Y021362D02*
X016639Y021362D01*
X016689Y021521D02*
X015652Y021521D01*
X015811Y021679D02*
X016842Y021679D01*
X017273Y021679D02*
X022983Y021679D01*
X022974Y021657D02*
X022974Y021474D01*
X023044Y021306D01*
X023173Y021177D01*
X023341Y021107D01*
X023523Y021107D01*
X023692Y021177D01*
X023821Y021306D01*
X023891Y021474D01*
X023891Y021657D01*
X023821Y021825D01*
X023692Y021954D01*
X023523Y022024D01*
X023341Y022024D01*
X023173Y021954D01*
X023044Y021825D01*
X022974Y021657D01*
X022974Y021521D02*
X017425Y021521D01*
X017476Y021362D02*
X023020Y021362D01*
X023146Y021203D02*
X017464Y021203D01*
X017457Y021045D02*
X020221Y021045D01*
X020062Y020886D02*
X017457Y020886D01*
X017457Y020728D02*
X019904Y020728D01*
X019745Y020569D02*
X017457Y020569D01*
X017457Y020411D02*
X019587Y020411D01*
X019428Y020252D02*
X017457Y020252D01*
X017457Y020094D02*
X019270Y020094D01*
X019767Y019459D02*
X026041Y019459D01*
X026200Y019618D02*
X019925Y019618D01*
X020084Y019777D02*
X020942Y019777D01*
X020846Y019935D02*
X020242Y019935D01*
X020401Y020094D02*
X020826Y020094D01*
X020869Y020252D02*
X020559Y020252D01*
X021494Y020411D02*
X026992Y020411D01*
X027151Y020569D02*
X021621Y020569D01*
X021663Y020728D02*
X027309Y020728D01*
X027468Y020886D02*
X021642Y020886D01*
X021545Y021045D02*
X027626Y021045D01*
X027785Y021203D02*
X023718Y021203D01*
X023844Y021362D02*
X024294Y021362D01*
X024175Y021521D02*
X023891Y021521D01*
X023881Y021679D02*
X024139Y021679D01*
X024165Y021838D02*
X023808Y021838D01*
X023590Y021996D02*
X024271Y021996D01*
X024515Y021779D02*
X024557Y021691D01*
X024646Y021648D01*
X024766Y021899D01*
X024515Y021779D01*
X024557Y021691D02*
X024766Y021899D01*
X025432Y022566D01*
X025432Y025691D01*
X023057Y028066D01*
X022040Y028066D01*
X021778Y027973D01*
X021745Y028066D01*
X021778Y028158D01*
X022040Y028066D01*
X021745Y028066D01*
X021425Y028338D02*
X021282Y028338D01*
X021339Y028179D02*
X021124Y028179D01*
X021326Y028021D02*
X019480Y028021D01*
X019639Y027862D02*
X021376Y027862D01*
X021396Y027483D02*
X021307Y027441D01*
X021265Y027352D01*
X021516Y027232D01*
X021396Y027483D01*
X021307Y027441D02*
X021516Y027232D01*
X023057Y025691D01*
X023057Y024816D01*
X022932Y024691D01*
X022932Y024173D01*
X023025Y023911D01*
X022932Y023878D01*
X022839Y023911D01*
X022932Y024173D01*
X022932Y023878D01*
X022514Y023899D02*
X018789Y023899D01*
X018754Y023864D02*
X018883Y023993D01*
X018953Y024162D01*
X018953Y024344D01*
X018883Y024513D01*
X018754Y024642D01*
X018586Y024711D01*
X018404Y024711D01*
X018235Y024642D01*
X018106Y024513D01*
X018036Y024344D01*
X018036Y024162D01*
X018106Y023993D01*
X018235Y023864D01*
X018404Y023795D01*
X018586Y023795D01*
X018754Y023864D01*
X018910Y024057D02*
X022552Y024057D01*
X022608Y024216D02*
X018953Y024216D01*
X018941Y024374D02*
X020782Y024374D01*
X020670Y024533D02*
X018863Y024533D01*
X018634Y024691D02*
X020639Y024691D01*
X020225Y024850D02*
X019879Y024850D01*
X020013Y025008D02*
X020091Y025008D01*
X020077Y025484D02*
X020027Y025484D01*
X019913Y025643D02*
X020191Y025643D01*
X020872Y026435D02*
X016130Y026435D01*
X016252Y026558D02*
X015903Y026209D01*
X016002Y026169D01*
X016160Y026010D01*
X016246Y025803D01*
X016246Y025578D01*
X016160Y025371D01*
X016002Y025212D01*
X015949Y025191D01*
X016002Y025169D01*
X016160Y025010D01*
X016246Y024803D01*
X016246Y024578D01*
X016160Y024371D01*
X016002Y024212D01*
X015794Y024127D01*
X015570Y024127D01*
X015363Y024212D01*
X015204Y024371D01*
X015118Y024578D01*
X015118Y024803D01*
X015204Y025010D01*
X015363Y025169D01*
X015416Y025191D01*
X015363Y025212D01*
X015204Y025371D01*
X015163Y025469D01*
X013686Y023992D01*
X013590Y023831D01*
X013537Y023704D01*
X013419Y023586D01*
X013265Y023522D01*
X013099Y023522D01*
X012945Y023586D01*
X012827Y023704D01*
X012764Y023857D01*
X012764Y024024D01*
X012827Y024178D01*
X012945Y024295D01*
X013073Y024348D01*
X013234Y024445D01*
X015938Y027149D01*
X016056Y027198D01*
X016183Y027198D01*
X017306Y027198D01*
X017338Y027198D01*
X017429Y027216D01*
X017445Y027233D01*
X017599Y027296D01*
X017765Y027296D01*
X017919Y027233D01*
X018037Y027115D01*
X018101Y026961D01*
X018101Y026795D01*
X018037Y026641D01*
X017919Y026523D01*
X017765Y026460D01*
X017599Y026460D01*
X017445Y026523D01*
X017429Y026540D01*
X017338Y026558D01*
X017306Y026558D01*
X016252Y026558D01*
X016120Y026878D02*
X013432Y024191D01*
X013245Y023878D01*
X013182Y023941D01*
X013120Y024003D01*
X013432Y024191D01*
X013182Y023941D01*
X012866Y024216D02*
X012502Y024216D01*
X012502Y024057D02*
X012778Y024057D01*
X012764Y023899D02*
X012502Y023899D01*
X012502Y023740D02*
X012812Y023740D01*
X012955Y023582D02*
X012502Y023582D01*
X012502Y023423D02*
X013957Y023423D01*
X013985Y023490D02*
X013904Y023296D01*
X013904Y023086D01*
X013985Y022891D01*
X014133Y022743D01*
X014327Y022663D01*
X014537Y022663D01*
X014731Y022743D01*
X014880Y022891D01*
X014960Y023086D01*
X014960Y023296D01*
X014880Y023490D01*
X014731Y023638D01*
X014537Y023719D01*
X014327Y023719D01*
X014133Y023638D01*
X013985Y023490D01*
X014077Y023582D02*
X013409Y023582D01*
X013552Y023740D02*
X022536Y023740D01*
X022583Y023582D02*
X022281Y023582D01*
X022402Y023423D02*
X022462Y023423D01*
X022466Y022947D02*
X022398Y022947D01*
X022271Y022789D02*
X022594Y022789D01*
X023271Y022789D02*
X023700Y022789D01*
X023689Y022794D02*
X023754Y022761D01*
X023824Y022739D01*
X023896Y022727D01*
X023932Y022727D01*
X023932Y023190D01*
X023932Y023190D01*
X023932Y022727D01*
X023969Y022727D01*
X024041Y022739D01*
X024110Y022761D01*
X024175Y022794D01*
X024234Y022837D01*
X024286Y022889D01*
X024329Y022948D01*
X024362Y023013D01*
X024384Y023082D01*
X024396Y023154D01*
X024396Y023190D01*
X023933Y023190D01*
X023933Y023191D01*
X024396Y023191D01*
X024396Y023227D01*
X024384Y023299D01*
X024362Y023368D01*
X024329Y023433D01*
X024286Y023492D01*
X024234Y023544D01*
X024175Y023587D01*
X024110Y023620D01*
X024041Y023643D01*
X023969Y023654D01*
X023932Y023654D01*
X023896Y023654D01*
X023824Y023643D01*
X023754Y023620D01*
X023689Y023587D01*
X023630Y023544D01*
X023579Y023492D01*
X023536Y023433D01*
X023503Y023368D01*
X023480Y023299D01*
X023469Y023227D01*
X023469Y023191D01*
X023932Y023191D01*
X023932Y023654D01*
X023932Y023191D01*
X023932Y023191D01*
X023932Y023190D01*
X023469Y023190D01*
X023469Y023154D01*
X023480Y023082D01*
X023503Y023013D01*
X023536Y022948D01*
X023579Y022889D01*
X023630Y022837D01*
X023689Y022794D01*
X023536Y022947D02*
X023398Y022947D01*
X023456Y023106D02*
X023476Y023106D01*
X023475Y023264D02*
X023456Y023264D01*
X023402Y023423D02*
X023531Y023423D01*
X023682Y023582D02*
X023281Y023582D01*
X023328Y023740D02*
X025112Y023740D01*
X025112Y023899D02*
X023351Y023899D01*
X023313Y024057D02*
X025112Y024057D01*
X025112Y024216D02*
X023257Y024216D01*
X023252Y024374D02*
X025112Y024374D01*
X025112Y024533D02*
X023252Y024533D01*
X023352Y024691D02*
X025112Y024691D01*
X025112Y024850D02*
X024762Y024850D01*
X024730Y024834D02*
X024795Y024867D01*
X024854Y024910D01*
X024906Y024961D01*
X024949Y025020D01*
X024982Y025085D01*
X025004Y025155D01*
X025016Y025227D01*
X025016Y025263D01*
X024553Y025263D01*
X024553Y025264D01*
X025016Y025264D01*
X025016Y025300D01*
X025004Y025372D01*
X024982Y025441D01*
X024949Y025506D01*
X024906Y025565D01*
X024854Y025617D01*
X024795Y025660D01*
X024730Y025693D01*
X024661Y025715D01*
X024589Y025727D01*
X024552Y025727D01*
X024516Y025727D01*
X024444Y025715D01*
X024374Y025693D01*
X024309Y025660D01*
X024250Y025617D01*
X024199Y025565D01*
X024156Y025506D01*
X024123Y025441D01*
X024100Y025372D01*
X024089Y025300D01*
X024089Y025264D01*
X024552Y025264D01*
X024552Y025727D01*
X024552Y025264D01*
X024552Y025264D01*
X024552Y025263D01*
X024552Y025263D01*
X024552Y024800D01*
X024516Y024800D01*
X024444Y024811D01*
X024374Y024834D01*
X024309Y024867D01*
X024250Y024910D01*
X024199Y024961D01*
X024156Y025020D01*
X024123Y025085D01*
X024100Y025155D01*
X024089Y025227D01*
X024089Y025263D01*
X024552Y025263D01*
X024552Y024800D01*
X024589Y024800D01*
X024661Y024811D01*
X024730Y024834D01*
X024552Y024850D02*
X024552Y024850D01*
X024552Y025008D02*
X024552Y025008D01*
X024552Y025167D02*
X024552Y025167D01*
X024552Y025326D02*
X024552Y025326D01*
X024552Y025484D02*
X024552Y025484D01*
X024552Y025643D02*
X024552Y025643D01*
X024286Y025643D02*
X023913Y025643D01*
X024027Y025484D02*
X024145Y025484D01*
X024093Y025326D02*
X024076Y025326D01*
X024076Y025167D02*
X024098Y025167D01*
X024165Y025008D02*
X024013Y025008D01*
X023879Y024850D02*
X024343Y024850D01*
X024940Y025008D02*
X025112Y025008D01*
X025112Y025167D02*
X025006Y025167D01*
X025012Y025326D02*
X025112Y025326D01*
X025112Y025484D02*
X024960Y025484D01*
X025028Y025643D02*
X024819Y025643D01*
X024869Y025801D02*
X023358Y025801D01*
X023241Y025960D02*
X024710Y025960D01*
X024552Y026118D02*
X023082Y026118D01*
X023238Y025962D02*
X023238Y025962D01*
X022923Y026277D02*
X024393Y026277D01*
X024235Y026435D02*
X022765Y026435D01*
X022606Y026594D02*
X024076Y026594D01*
X023918Y026752D02*
X022448Y026752D01*
X022289Y026911D02*
X023759Y026911D01*
X023601Y027070D02*
X022131Y027070D01*
X021972Y027228D02*
X023442Y027228D01*
X023284Y027387D02*
X021814Y027387D01*
X021787Y027413D02*
X021787Y027413D01*
X021721Y027545D02*
X023125Y027545D01*
X022966Y027704D02*
X021977Y027704D01*
X021441Y028496D02*
X024549Y028496D01*
X024707Y028338D02*
X023236Y028338D01*
X023328Y028247D02*
X023328Y028247D01*
X023396Y028179D02*
X024866Y028179D01*
X025024Y028021D02*
X023554Y028021D01*
X023713Y027862D02*
X025183Y027862D01*
X025341Y027704D02*
X023872Y027704D01*
X024030Y027545D02*
X025500Y027545D01*
X025659Y027387D02*
X024189Y027387D01*
X024347Y027228D02*
X025817Y027228D01*
X025976Y027070D02*
X024506Y027070D01*
X024664Y026911D02*
X026134Y026911D01*
X026293Y026752D02*
X024823Y026752D01*
X024981Y026594D02*
X026451Y026594D01*
X026610Y026435D02*
X025140Y026435D01*
X025298Y026277D02*
X026768Y026277D01*
X026927Y026118D02*
X025457Y026118D01*
X025613Y025962D02*
X025613Y025962D01*
X025616Y025960D02*
X027085Y025960D01*
X027244Y025801D02*
X025733Y025801D01*
X025752Y025643D02*
X027402Y025643D01*
X027561Y025484D02*
X025752Y025484D01*
X025752Y025326D02*
X027720Y025326D01*
X027878Y025167D02*
X025752Y025167D01*
X025752Y025008D02*
X028037Y025008D01*
X028195Y024850D02*
X025752Y024850D01*
X025752Y024691D02*
X028354Y024691D01*
X028512Y024533D02*
X025752Y024533D01*
X025752Y024374D02*
X028671Y024374D01*
X028829Y024216D02*
X025752Y024216D01*
X025752Y023740D02*
X029222Y023740D01*
X029324Y023582D02*
X028281Y023582D01*
X028229Y023634D02*
X028036Y023714D01*
X027828Y023714D01*
X027636Y023634D01*
X027488Y023487D01*
X027409Y023295D01*
X027409Y023086D01*
X027488Y022894D01*
X027636Y022747D01*
X027828Y022667D01*
X028036Y022667D01*
X028229Y022747D01*
X028376Y022894D01*
X028456Y023086D01*
X028456Y023295D01*
X028376Y023487D01*
X028229Y023634D01*
X028402Y023423D02*
X030541Y023423D01*
X030503Y023582D02*
X029915Y023582D01*
X030015Y023740D02*
X030513Y023740D01*
X030641Y023264D02*
X028456Y023264D01*
X028456Y023106D02*
X029443Y023106D01*
X029445Y023108D02*
X029327Y022990D01*
X029264Y022836D01*
X029264Y022670D01*
X029327Y022516D01*
X029445Y022398D01*
X029599Y022335D01*
X029765Y022335D01*
X029919Y022398D01*
X030037Y022516D01*
X030101Y022670D01*
X030101Y022836D01*
X030037Y022990D01*
X029919Y023108D01*
X029765Y023171D01*
X029599Y023171D01*
X029445Y023108D01*
X029310Y022947D02*
X028398Y022947D01*
X028271Y022789D02*
X029264Y022789D01*
X029280Y022630D02*
X027052Y022630D01*
X027107Y022608D02*
X027213Y022501D01*
X027258Y022545D01*
X027411Y022609D01*
X027578Y022609D01*
X027732Y022545D01*
X027849Y022428D01*
X027913Y022274D01*
X027913Y022107D01*
X027849Y021954D01*
X027732Y021836D01*
X027578Y021772D01*
X027411Y021772D01*
X027258Y021836D01*
X027151Y021943D01*
X027107Y021898D01*
X026953Y021835D01*
X026786Y021835D01*
X026633Y021898D01*
X026515Y022016D01*
X026451Y022170D01*
X026451Y022336D01*
X026515Y022490D01*
X026633Y022608D01*
X026786Y022671D01*
X026953Y022671D01*
X027107Y022608D01*
X027041Y022739D02*
X027110Y022761D01*
X027175Y022794D01*
X027234Y022837D01*
X027286Y022889D01*
X027329Y022948D01*
X027362Y023013D01*
X027384Y023082D01*
X027396Y023154D01*
X027396Y023190D01*
X026933Y023190D01*
X026933Y023191D01*
X027396Y023191D01*
X027396Y023227D01*
X027384Y023299D01*
X027362Y023368D01*
X027329Y023433D01*
X027286Y023492D01*
X027234Y023544D01*
X027175Y023587D01*
X027110Y023620D01*
X027041Y023643D01*
X026969Y023654D01*
X026932Y023654D01*
X026896Y023654D01*
X026824Y023643D01*
X026754Y023620D01*
X026689Y023587D01*
X026630Y023544D01*
X026579Y023492D01*
X026536Y023433D01*
X026503Y023368D01*
X026480Y023299D01*
X026469Y023227D01*
X026469Y023191D01*
X026932Y023191D01*
X026932Y023654D01*
X026932Y023191D01*
X026932Y023191D01*
X026932Y023190D01*
X026932Y023190D01*
X026932Y022727D01*
X026896Y022727D01*
X026824Y022739D01*
X026754Y022761D01*
X026689Y022794D01*
X026630Y022837D01*
X026579Y022889D01*
X026536Y022948D01*
X026503Y023013D01*
X026480Y023082D01*
X026469Y023154D01*
X026469Y023190D01*
X026932Y023190D01*
X026932Y022727D01*
X026969Y022727D01*
X027041Y022739D01*
X026932Y022789D02*
X026932Y022789D01*
X026932Y022947D02*
X026932Y022947D01*
X026932Y023106D02*
X026932Y023106D01*
X026932Y023264D02*
X026932Y023264D01*
X026932Y023423D02*
X026932Y023423D01*
X026932Y023582D02*
X026932Y023582D01*
X026682Y023582D02*
X026281Y023582D01*
X026402Y023423D02*
X026531Y023423D01*
X026475Y023264D02*
X026456Y023264D01*
X026456Y023106D02*
X026476Y023106D01*
X026536Y022947D02*
X026398Y022947D01*
X026271Y022789D02*
X026700Y022789D01*
X026687Y022630D02*
X025752Y022630D01*
X025740Y022472D02*
X026507Y022472D01*
X026451Y022313D02*
X025632Y022313D01*
X025474Y022155D02*
X026458Y022155D01*
X026535Y021996D02*
X025315Y021996D01*
X025157Y021838D02*
X026779Y021838D01*
X026960Y021838D02*
X027256Y021838D01*
X027734Y021838D02*
X031919Y021838D01*
X032078Y021996D02*
X027867Y021996D01*
X027913Y022155D02*
X032236Y022155D01*
X032392Y022313D02*
X027897Y022313D01*
X027805Y022472D02*
X029372Y022472D01*
X029993Y022472D02*
X032392Y022472D01*
X032392Y022630D02*
X030084Y022630D01*
X030101Y022789D02*
X032392Y022789D01*
X032392Y022947D02*
X030055Y022947D01*
X029921Y023106D02*
X030899Y023106D01*
X031022Y023106D02*
X031062Y023106D01*
X031186Y023106D02*
X032438Y023106D01*
X032336Y023264D02*
X031443Y023264D01*
X031544Y023423D02*
X032257Y023423D01*
X032222Y023582D02*
X031582Y023582D01*
X031582Y023647D02*
X031582Y023670D01*
X031569Y023754D01*
X031543Y023834D01*
X031504Y023910D01*
X031454Y023979D01*
X031394Y024039D01*
X031325Y024089D01*
X031249Y024127D01*
X031169Y024154D01*
X031085Y024167D01*
X031062Y024167D01*
X031062Y023647D01*
X031582Y023647D01*
X031571Y023740D02*
X032222Y023740D01*
X032285Y023899D02*
X031510Y023899D01*
X031369Y024057D02*
X032404Y024057D01*
X032676Y024216D02*
X030891Y024216D01*
X030878Y024374D02*
X035132Y024374D01*
X035132Y024216D02*
X032969Y024216D01*
X033241Y024057D02*
X035132Y024057D01*
X035132Y023899D02*
X033359Y023899D01*
X033422Y023740D02*
X035132Y023740D01*
X035132Y023582D02*
X033422Y023582D01*
X033387Y023423D02*
X035132Y023423D01*
X035132Y023264D02*
X033308Y023264D01*
X035132Y024533D02*
X030801Y024533D01*
X030572Y024691D02*
X035132Y024691D01*
X035132Y024850D02*
X029100Y024850D01*
X028942Y025008D02*
X035132Y025008D01*
X035132Y025167D02*
X028783Y025167D01*
X028625Y025326D02*
X035132Y025326D01*
X035132Y025484D02*
X028466Y025484D01*
X028308Y025643D02*
X032569Y025643D01*
X032482Y025678D02*
X032703Y025587D01*
X032942Y025587D01*
X033162Y025678D01*
X033331Y025847D01*
X033422Y026068D01*
X033422Y026306D01*
X033331Y026527D01*
X033162Y026696D01*
X032942Y026787D01*
X032703Y026787D01*
X032482Y026696D01*
X032314Y026527D01*
X032222Y026306D01*
X032222Y026068D01*
X032314Y025847D01*
X032482Y025678D01*
X032360Y025801D02*
X031420Y025801D01*
X031394Y025775D02*
X031454Y025835D01*
X031504Y025904D01*
X031543Y025980D01*
X031569Y026061D01*
X031582Y026145D01*
X031582Y026167D01*
X031062Y026167D01*
X031062Y025647D01*
X031085Y025647D01*
X031169Y025660D01*
X031249Y025687D01*
X031325Y025725D01*
X031394Y025775D01*
X031532Y025960D02*
X032267Y025960D01*
X032222Y026118D02*
X031578Y026118D01*
X031582Y026207D02*
X031582Y026230D01*
X031569Y026314D01*
X031543Y026394D01*
X031504Y026470D01*
X031454Y026539D01*
X031394Y026599D01*
X031325Y026649D01*
X031249Y026687D01*
X031169Y026714D01*
X031085Y026727D01*
X031062Y026727D01*
X031062Y026207D01*
X031022Y026207D01*
X031022Y026167D01*
X030502Y026167D01*
X030502Y026145D01*
X030516Y026061D01*
X030542Y025980D01*
X030580Y025904D01*
X030630Y025835D01*
X030690Y025775D01*
X030759Y025725D01*
X030835Y025687D01*
X030916Y025660D01*
X031000Y025647D01*
X031022Y025647D01*
X031022Y026167D01*
X031062Y026167D01*
X031062Y026207D01*
X031582Y026207D01*
X031575Y026277D02*
X032222Y026277D01*
X032276Y026435D02*
X031522Y026435D01*
X031399Y026594D02*
X032381Y026594D01*
X032619Y026752D02*
X030431Y026752D01*
X030608Y026911D02*
X035132Y026911D01*
X035132Y026752D02*
X033025Y026752D01*
X033264Y026594D02*
X035132Y026594D01*
X035132Y026435D02*
X033369Y026435D01*
X033422Y026277D02*
X035132Y026277D01*
X035132Y026118D02*
X033422Y026118D01*
X033377Y025960D02*
X035132Y025960D01*
X035132Y025801D02*
X033285Y025801D01*
X033076Y025643D02*
X035132Y025643D01*
X035132Y027070D02*
X030663Y027070D01*
X030656Y027228D02*
X035132Y027228D01*
X035132Y027387D02*
X030578Y027387D01*
X030342Y027545D02*
X031081Y027545D01*
X031133Y027493D02*
X030985Y027641D01*
X030904Y027836D01*
X030904Y028046D01*
X030985Y028240D01*
X031133Y028388D01*
X031327Y028469D01*
X031537Y028469D01*
X031731Y028388D01*
X031880Y028240D01*
X031960Y028046D01*
X031960Y027836D01*
X031880Y027641D01*
X031731Y027493D01*
X031537Y027413D01*
X031327Y027413D01*
X031133Y027493D01*
X030959Y027704D02*
X030122Y027704D01*
X029963Y027862D02*
X030904Y027862D01*
X030904Y028021D02*
X029805Y028021D01*
X029646Y028179D02*
X030960Y028179D01*
X031083Y028338D02*
X029487Y028338D01*
X029329Y028496D02*
X035132Y028496D01*
X035132Y028338D02*
X032681Y028338D01*
X032677Y028341D02*
X032612Y028374D01*
X032542Y028397D01*
X032469Y028409D01*
X032432Y028409D01*
X032395Y028409D01*
X032323Y028397D01*
X032253Y028374D01*
X032187Y028341D01*
X032127Y028297D01*
X032075Y028245D01*
X032032Y028186D01*
X031999Y028120D01*
X031976Y028050D01*
X031964Y027977D01*
X031964Y027941D01*
X032432Y027941D01*
X032432Y028409D01*
X032432Y027941D01*
X032432Y027941D01*
X032432Y027940D01*
X032432Y027940D01*
X032432Y027473D01*
X032395Y027473D01*
X032323Y027484D01*
X032253Y027507D01*
X032187Y027540D01*
X032127Y027584D01*
X032075Y027636D01*
X032032Y027695D01*
X031999Y027761D01*
X031976Y027831D01*
X031964Y027904D01*
X031964Y027940D01*
X032432Y027940D01*
X032432Y027473D01*
X032469Y027473D01*
X032542Y027484D01*
X032612Y027507D01*
X032677Y027540D01*
X032737Y027584D01*
X032789Y027636D01*
X032832Y027695D01*
X032866Y027761D01*
X032889Y027831D01*
X032900Y027904D01*
X032900Y027940D01*
X032433Y027940D01*
X032433Y027941D01*
X032900Y027941D01*
X032900Y027977D01*
X032889Y028050D01*
X032866Y028120D01*
X032832Y028186D01*
X032789Y028245D01*
X032737Y028297D01*
X032677Y028341D01*
X032836Y028179D02*
X035132Y028179D01*
X035132Y028021D02*
X032893Y028021D01*
X032894Y027862D02*
X035132Y027862D01*
X035132Y027704D02*
X032837Y027704D01*
X032684Y027545D02*
X035132Y027545D01*
X035132Y028655D02*
X029170Y028655D01*
X029012Y028814D02*
X035132Y028814D01*
X035132Y028972D02*
X028853Y028972D01*
X028695Y029131D02*
X035132Y029131D01*
X035132Y029289D02*
X028536Y029289D01*
X028378Y029448D02*
X035132Y029448D01*
X035132Y029606D02*
X032089Y029606D01*
X032052Y029591D02*
X032272Y029682D01*
X032441Y029851D01*
X032467Y029914D01*
X032470Y029908D01*
X032520Y029839D01*
X032580Y029779D01*
X032649Y029729D01*
X032725Y029690D01*
X032806Y029664D01*
X032890Y029651D01*
X032912Y029651D01*
X032912Y030170D01*
X032952Y030170D01*
X032952Y029651D01*
X032975Y029651D01*
X033059Y029664D01*
X033139Y029690D01*
X033215Y029729D01*
X033284Y029779D01*
X033344Y029839D01*
X033394Y029908D01*
X033433Y029983D01*
X033459Y030064D01*
X033472Y030148D01*
X033472Y030170D01*
X032952Y030170D01*
X032952Y030211D01*
X033472Y030211D01*
X033472Y030233D01*
X033459Y030317D01*
X033433Y030398D01*
X033394Y030474D01*
X033344Y030542D01*
X033284Y030602D01*
X033215Y030652D01*
X033209Y030656D01*
X033272Y030682D01*
X033441Y030851D01*
X033532Y031071D01*
X033532Y031310D01*
X033441Y031530D01*
X033281Y031691D01*
X033441Y031851D01*
X033532Y032071D01*
X033532Y032310D01*
X033441Y032530D01*
X033281Y032691D01*
X033441Y032851D01*
X033532Y033071D01*
X033532Y033310D01*
X033441Y033530D01*
X033272Y033699D01*
X033209Y033725D01*
X033215Y033729D01*
X033284Y033779D01*
X033344Y033839D01*
X033394Y033908D01*
X033433Y033983D01*
X033459Y034064D01*
X033472Y034148D01*
X033472Y034170D01*
X032952Y034170D01*
X032952Y034211D01*
X032912Y034211D01*
X032912Y034731D01*
X032890Y034731D01*
X032806Y034717D01*
X032725Y034691D01*
X032649Y034652D01*
X032580Y034602D01*
X032520Y034542D01*
X032470Y034474D01*
X032467Y034467D01*
X032441Y034530D01*
X032272Y034699D01*
X032052Y034791D01*
X031813Y034791D01*
X031592Y034699D01*
X031424Y034530D01*
X031332Y034310D01*
X031332Y034071D01*
X031424Y033851D01*
X031584Y033691D01*
X031424Y033530D01*
X031332Y033310D01*
X031332Y033071D01*
X031424Y032851D01*
X031584Y032691D01*
X031424Y032530D01*
X031332Y032310D01*
X031332Y032071D01*
X031424Y031851D01*
X031584Y031691D01*
X031424Y031530D01*
X031332Y031310D01*
X031332Y031071D01*
X031424Y030851D01*
X031584Y030691D01*
X031424Y030530D01*
X031332Y030310D01*
X031332Y030071D01*
X031424Y029851D01*
X031592Y029682D01*
X031813Y029591D01*
X032052Y029591D01*
X031775Y029606D02*
X028902Y029606D01*
X029167Y029765D02*
X029412Y029765D01*
X029725Y029765D02*
X029765Y029765D01*
X029765Y029923D02*
X029725Y029923D01*
X029725Y030082D02*
X029765Y030082D01*
X030077Y029765D02*
X031509Y029765D01*
X031393Y029923D02*
X030215Y029923D01*
X030274Y030082D02*
X031332Y030082D01*
X031332Y030240D02*
X030284Y030240D01*
X030245Y030399D02*
X030695Y030399D01*
X030695Y030398D02*
X030849Y030335D01*
X031015Y030335D01*
X031169Y030398D01*
X031287Y030516D01*
X031351Y030670D01*
X031351Y030836D01*
X031287Y030990D01*
X031169Y031108D01*
X031015Y031171D01*
X030849Y031171D01*
X030695Y031108D01*
X030577Y030990D01*
X030514Y030836D01*
X030514Y030670D01*
X030577Y030516D01*
X030695Y030398D01*
X030560Y030557D02*
X030141Y030557D01*
X030119Y030716D02*
X030514Y030716D01*
X030530Y030875D02*
X030263Y030875D01*
X030329Y031033D02*
X030621Y031033D01*
X030345Y031192D02*
X031332Y031192D01*
X031349Y031350D02*
X030328Y031350D01*
X030262Y031509D02*
X031415Y031509D01*
X031560Y031667D02*
X030147Y031667D01*
X030206Y031579D02*
X030206Y031579D01*
X030065Y031826D02*
X031448Y031826D01*
X031368Y031984D02*
X030065Y031984D01*
X030065Y032143D02*
X031332Y032143D01*
X031332Y032301D02*
X030065Y032301D01*
X030065Y032460D02*
X031394Y032460D01*
X031512Y032619D02*
X030065Y032619D01*
X030065Y032777D02*
X031497Y032777D01*
X031388Y032936D02*
X030065Y032936D01*
X029981Y033094D02*
X031332Y033094D01*
X031332Y033253D02*
X029823Y033253D01*
X029664Y033411D02*
X031374Y033411D01*
X031463Y033570D02*
X029505Y033570D01*
X029347Y033728D02*
X031546Y033728D01*
X031409Y033887D02*
X029188Y033887D01*
X029030Y034045D02*
X031343Y034045D01*
X031332Y034204D02*
X028871Y034204D01*
X028713Y034363D02*
X031354Y034363D01*
X031420Y034521D02*
X030039Y034521D01*
X030044Y034523D02*
X030162Y034641D01*
X030226Y034795D01*
X030226Y034961D01*
X030162Y035115D01*
X030044Y035233D01*
X029890Y035296D01*
X029724Y035296D01*
X029570Y035233D01*
X029452Y035115D01*
X029389Y034961D01*
X029389Y034795D01*
X029452Y034641D01*
X029570Y034523D01*
X029724Y034460D01*
X029890Y034460D01*
X030044Y034523D01*
X030178Y034680D02*
X031573Y034680D01*
X031556Y035056D02*
X031808Y035056D01*
X032041Y035153D01*
X032220Y035331D01*
X032316Y035564D01*
X032316Y035817D01*
X032220Y036050D01*
X032051Y036219D01*
X032186Y036354D01*
X032276Y036572D01*
X032276Y036809D01*
X032186Y037027D01*
X032051Y037162D01*
X032220Y037331D01*
X032316Y037564D01*
X032316Y037817D01*
X032220Y038050D01*
X032041Y038228D01*
X031808Y038325D01*
X031556Y038325D01*
X031323Y038228D01*
X031144Y038050D01*
X031048Y037817D01*
X031048Y037564D01*
X031144Y037331D01*
X031313Y037162D01*
X031178Y037027D01*
X031088Y036809D01*
X031088Y036572D01*
X031178Y036354D01*
X031313Y036219D01*
X031144Y036050D01*
X031048Y035817D01*
X031048Y035564D01*
X031144Y035331D01*
X031323Y035153D01*
X031556Y035056D01*
X031320Y035155D02*
X030122Y035155D01*
X030211Y034997D02*
X035132Y034997D01*
X035132Y035155D02*
X032044Y035155D01*
X032202Y035314D02*
X035132Y035314D01*
X035132Y035472D02*
X032278Y035472D01*
X032316Y035631D02*
X035132Y035631D01*
X035132Y035789D02*
X032316Y035789D01*
X032262Y035948D02*
X035132Y035948D01*
X035132Y036106D02*
X032163Y036106D01*
X032097Y036265D02*
X035132Y036265D01*
X035132Y036424D02*
X032215Y036424D01*
X032276Y036582D02*
X035132Y036582D01*
X035132Y036741D02*
X032276Y036741D01*
X032239Y036899D02*
X035132Y036899D01*
X035132Y037058D02*
X032155Y037058D01*
X032105Y037216D02*
X035132Y037216D01*
X035132Y037375D02*
X032238Y037375D01*
X032304Y037533D02*
X035132Y037533D01*
X035132Y037692D02*
X032316Y037692D01*
X032303Y037850D02*
X035132Y037850D01*
X035132Y038009D02*
X032237Y038009D01*
X032102Y038168D02*
X035132Y038168D01*
X035132Y038326D02*
X024209Y038326D01*
X024367Y038168D02*
X026612Y038168D01*
X026613Y038169D02*
X026454Y038010D01*
X026368Y037803D01*
X026368Y037578D01*
X026454Y037371D01*
X026613Y037212D01*
X026820Y037127D01*
X027044Y037127D01*
X027252Y037212D01*
X027410Y037371D01*
X027464Y037501D01*
X027465Y037497D01*
X027501Y037426D01*
X027548Y037362D01*
X027604Y037306D01*
X027668Y037259D01*
X027739Y037223D01*
X027814Y037199D01*
X027893Y037187D01*
X027922Y037187D01*
X027922Y037680D01*
X027942Y037680D01*
X027942Y037187D01*
X027972Y037187D01*
X028050Y037199D01*
X028126Y037223D01*
X028196Y037259D01*
X028261Y037306D01*
X028317Y037362D01*
X028363Y037426D01*
X028399Y037497D01*
X028400Y037501D01*
X028454Y037371D01*
X028613Y037212D01*
X028820Y037127D01*
X029044Y037127D01*
X029252Y037212D01*
X029410Y037371D01*
X029496Y037578D01*
X029496Y037803D01*
X029410Y038010D01*
X029252Y038169D01*
X029044Y038255D01*
X028820Y038255D01*
X028613Y038169D01*
X028454Y038010D01*
X028400Y037880D01*
X028399Y037884D01*
X028363Y037955D01*
X028317Y038019D01*
X028261Y038075D01*
X028196Y038122D01*
X028126Y038158D01*
X028050Y038182D01*
X027972Y038195D01*
X027942Y038195D01*
X027942Y037701D01*
X027922Y037701D01*
X027922Y038195D01*
X027893Y038195D01*
X027814Y038182D01*
X027739Y038158D01*
X027668Y038122D01*
X027604Y038075D01*
X027548Y038019D01*
X027501Y037955D01*
X027465Y037884D01*
X027464Y037880D01*
X027410Y038010D01*
X027252Y038169D01*
X027044Y038255D01*
X026820Y038255D01*
X026613Y038169D01*
X026454Y038009D02*
X024999Y038009D01*
X025225Y037850D02*
X026388Y037850D01*
X026368Y037692D02*
X025383Y037692D01*
X025542Y037533D02*
X026387Y037533D01*
X026452Y037375D02*
X025700Y037375D01*
X025859Y037216D02*
X026609Y037216D01*
X026176Y036899D02*
X031125Y036899D01*
X031088Y036741D02*
X026335Y036741D01*
X026493Y036582D02*
X031088Y036582D01*
X031149Y036424D02*
X026652Y036424D01*
X026810Y036265D02*
X031267Y036265D01*
X031201Y036106D02*
X026969Y036106D01*
X027127Y035948D02*
X031102Y035948D01*
X031048Y035789D02*
X027286Y035789D01*
X027444Y035631D02*
X031048Y035631D01*
X031086Y035472D02*
X027603Y035472D01*
X027761Y035314D02*
X031162Y035314D01*
X030226Y034838D02*
X035132Y034838D01*
X035132Y034680D02*
X033162Y034680D01*
X033139Y034691D02*
X033059Y034717D01*
X032975Y034731D01*
X032952Y034731D01*
X032952Y034211D01*
X033472Y034211D01*
X033472Y034233D01*
X033459Y034317D01*
X033433Y034398D01*
X033394Y034474D01*
X033344Y034542D01*
X033284Y034602D01*
X033215Y034652D01*
X033139Y034691D01*
X032952Y034680D02*
X032912Y034680D01*
X032912Y034521D02*
X032952Y034521D01*
X032952Y034363D02*
X032912Y034363D01*
X032952Y034204D02*
X035132Y034204D01*
X035132Y034363D02*
X033444Y034363D01*
X033360Y034521D02*
X035132Y034521D01*
X035132Y034045D02*
X033453Y034045D01*
X033379Y033887D02*
X035132Y033887D01*
X035132Y033728D02*
X033214Y033728D01*
X033401Y033570D02*
X035132Y033570D01*
X035132Y033411D02*
X033490Y033411D01*
X033532Y033253D02*
X035132Y033253D01*
X035132Y033094D02*
X033532Y033094D01*
X033476Y032936D02*
X035132Y032936D01*
X035132Y032777D02*
X033367Y032777D01*
X033353Y032619D02*
X035132Y032619D01*
X035132Y032460D02*
X033470Y032460D01*
X033532Y032301D02*
X035132Y032301D01*
X035132Y032143D02*
X033532Y032143D01*
X033496Y031984D02*
X035132Y031984D01*
X035132Y031826D02*
X033416Y031826D01*
X033304Y031667D02*
X035132Y031667D01*
X035132Y031509D02*
X033450Y031509D01*
X033515Y031350D02*
X035132Y031350D01*
X035132Y031192D02*
X033532Y031192D01*
X033516Y031033D02*
X035132Y031033D01*
X035132Y030875D02*
X033451Y030875D01*
X033306Y030716D02*
X035132Y030716D01*
X035132Y030557D02*
X033329Y030557D01*
X033432Y030399D02*
X035132Y030399D01*
X035132Y030240D02*
X033471Y030240D01*
X033462Y030082D02*
X035132Y030082D01*
X035132Y029923D02*
X033402Y029923D01*
X033265Y029765D02*
X035132Y029765D01*
X032952Y029765D02*
X032912Y029765D01*
X032912Y029923D02*
X032952Y029923D01*
X032952Y030082D02*
X032912Y030082D01*
X032599Y029765D02*
X032355Y029765D01*
X031369Y030399D02*
X031170Y030399D01*
X031304Y030557D02*
X031451Y030557D01*
X031351Y030716D02*
X031558Y030716D01*
X031414Y030875D02*
X031335Y030875D01*
X031348Y031033D02*
X031244Y031033D01*
X029977Y031347D02*
X029745Y031191D01*
X029513Y031347D01*
X029745Y031691D01*
X029977Y031347D01*
X029745Y031191D02*
X029745Y031691D01*
X029745Y032878D01*
X024932Y037691D01*
X024392Y037691D01*
X022557Y039525D01*
X022348Y039525D01*
X022338Y039534D01*
X022079Y039841D02*
X017145Y039841D01*
X017145Y040285D01*
X017256Y040174D01*
X017448Y040094D01*
X017656Y040094D01*
X017849Y040174D01*
X017996Y040321D01*
X018052Y040457D01*
X018109Y040321D01*
X018256Y040174D01*
X018448Y040094D01*
X018656Y040094D01*
X018849Y040174D01*
X018996Y040321D01*
X019052Y040457D01*
X019109Y040321D01*
X019256Y040174D01*
X019448Y040094D01*
X019656Y040094D01*
X019849Y040174D01*
X019996Y040321D01*
X020052Y040457D01*
X020109Y040321D01*
X020256Y040174D01*
X020448Y040094D01*
X020656Y040094D01*
X020849Y040174D01*
X020996Y040321D01*
X021052Y040457D01*
X021109Y040321D01*
X021256Y040174D01*
X021448Y040094D01*
X021656Y040094D01*
X021849Y040174D01*
X021996Y040321D01*
X022052Y040457D01*
X022109Y040321D01*
X022152Y040277D01*
X022152Y039914D01*
X022079Y039841D01*
X022150Y039912D02*
X017145Y039912D01*
X017145Y040070D02*
X022152Y040070D01*
X022152Y040229D02*
X021903Y040229D01*
X022023Y040387D02*
X022081Y040387D01*
X022087Y040863D02*
X022017Y040863D01*
X021889Y041021D02*
X022216Y041021D01*
X022889Y041021D02*
X023216Y041021D01*
X023087Y040863D02*
X023017Y040863D01*
X023023Y040387D02*
X023081Y040387D01*
X023201Y040229D02*
X022952Y040229D01*
X022952Y040070D02*
X031306Y040070D01*
X031334Y040098D02*
X031275Y040039D01*
X031225Y039971D01*
X031187Y039896D01*
X031161Y039816D01*
X031148Y039733D01*
X031148Y039709D01*
X031664Y039709D01*
X031664Y040225D01*
X031640Y040225D01*
X031557Y040212D01*
X031477Y040186D01*
X031402Y040148D01*
X031334Y040098D01*
X031195Y039912D02*
X022952Y039912D01*
X022957Y039753D02*
X031151Y039753D01*
X031148Y039672D02*
X031148Y039648D01*
X031161Y039565D01*
X031187Y039485D01*
X031225Y039410D01*
X031275Y039342D01*
X031334Y039283D01*
X031402Y039234D01*
X031477Y039195D01*
X031557Y039169D01*
X031640Y039156D01*
X031664Y039156D01*
X031664Y039672D01*
X031701Y039672D01*
X031701Y039709D01*
X032216Y039709D01*
X032216Y039733D01*
X032203Y039816D01*
X032177Y039896D01*
X032139Y039971D01*
X032090Y040039D01*
X032030Y040098D01*
X031962Y040148D01*
X031887Y040186D01*
X031807Y040212D01*
X031724Y040225D01*
X031701Y040225D01*
X031701Y039709D01*
X031664Y039709D01*
X031664Y039672D01*
X031148Y039672D01*
X031156Y039594D02*
X022940Y039594D01*
X023099Y039436D02*
X031212Y039436D01*
X031342Y039277D02*
X023258Y039277D01*
X023416Y039119D02*
X035132Y039119D01*
X035132Y039277D02*
X032023Y039277D01*
X032030Y039283D02*
X032090Y039342D01*
X032139Y039410D01*
X032177Y039485D01*
X032203Y039565D01*
X032216Y039648D01*
X032216Y039672D01*
X031701Y039672D01*
X031701Y039156D01*
X031724Y039156D01*
X031807Y039169D01*
X031887Y039195D01*
X031962Y039234D01*
X032030Y039283D01*
X032152Y039436D02*
X035132Y039436D01*
X035132Y039594D02*
X032208Y039594D01*
X032213Y039753D02*
X035132Y039753D01*
X035132Y039912D02*
X032169Y039912D01*
X032058Y040070D02*
X035132Y040070D01*
X035132Y040229D02*
X024805Y040229D01*
X024795Y040221D02*
X024854Y040264D01*
X024906Y040316D01*
X024949Y040375D01*
X024982Y040440D01*
X025004Y040509D01*
X025016Y040581D01*
X025016Y040617D01*
X024553Y040617D01*
X024553Y040618D01*
X025016Y040618D01*
X025016Y040654D01*
X025004Y040726D01*
X024982Y040796D01*
X024949Y040861D01*
X024906Y040920D01*
X024854Y040971D01*
X024795Y041014D01*
X024730Y041047D01*
X024661Y041070D01*
X024589Y041081D01*
X024552Y041081D01*
X024516Y041081D01*
X024444Y041070D01*
X024374Y041047D01*
X024309Y041014D01*
X024250Y040971D01*
X024199Y040920D01*
X024156Y040861D01*
X024123Y040796D01*
X024100Y040726D01*
X024089Y040654D01*
X024089Y040618D01*
X024552Y040618D01*
X024552Y041081D01*
X024552Y040618D01*
X024552Y040618D01*
X024552Y040617D01*
X024552Y040617D01*
X024552Y040154D01*
X024516Y040154D01*
X024444Y040166D01*
X024374Y040188D01*
X024309Y040221D01*
X024250Y040264D01*
X024199Y040316D01*
X024156Y040375D01*
X024123Y040440D01*
X024100Y040509D01*
X024089Y040581D01*
X024089Y040617D01*
X024552Y040617D01*
X024552Y040154D01*
X024589Y040154D01*
X024661Y040166D01*
X024730Y040188D01*
X024795Y040221D01*
X024955Y040387D02*
X035132Y040387D01*
X035132Y040546D02*
X025010Y040546D01*
X025008Y040704D02*
X035132Y040704D01*
X035132Y040863D02*
X024947Y040863D01*
X024781Y041021D02*
X035132Y041021D01*
X035031Y041180D02*
X017124Y041180D01*
X017163Y041021D02*
X017216Y041021D01*
X017001Y041338D02*
X034872Y041338D01*
X035132Y038960D02*
X023575Y038960D01*
X023733Y038802D02*
X035132Y038802D01*
X035132Y038643D02*
X023892Y038643D01*
X024050Y038485D02*
X035132Y038485D01*
X031701Y039277D02*
X031664Y039277D01*
X031664Y039436D02*
X031701Y039436D01*
X031701Y039594D02*
X031664Y039594D01*
X031664Y039753D02*
X031701Y039753D01*
X031701Y039912D02*
X031664Y039912D01*
X031664Y040070D02*
X031701Y040070D01*
X031262Y038168D02*
X029253Y038168D01*
X029411Y038009D02*
X031128Y038009D01*
X031062Y037850D02*
X029476Y037850D01*
X029496Y037692D02*
X031048Y037692D01*
X031061Y037533D02*
X029478Y037533D01*
X029412Y037375D02*
X031126Y037375D01*
X031259Y037216D02*
X029256Y037216D01*
X028609Y037216D02*
X028104Y037216D01*
X027942Y037216D02*
X027922Y037216D01*
X027922Y037375D02*
X027942Y037375D01*
X027942Y037533D02*
X027922Y037533D01*
X027922Y037850D02*
X027942Y037850D01*
X027942Y038009D02*
X027922Y038009D01*
X027922Y038168D02*
X027942Y038168D01*
X028095Y038168D02*
X028612Y038168D01*
X028454Y038009D02*
X028324Y038009D01*
X027769Y038168D02*
X027253Y038168D01*
X027411Y038009D02*
X027541Y038009D01*
X027539Y037375D02*
X027412Y037375D01*
X027256Y037216D02*
X027761Y037216D01*
X028326Y037375D02*
X028452Y037375D01*
X026698Y035472D02*
X026353Y035472D01*
X026511Y035314D02*
X026856Y035314D01*
X027015Y035155D02*
X026670Y035155D01*
X026829Y034997D02*
X027173Y034997D01*
X027332Y034838D02*
X026987Y034838D01*
X027146Y034680D02*
X027491Y034680D01*
X027649Y034521D02*
X027304Y034521D01*
X027463Y034363D02*
X027808Y034363D01*
X027966Y034204D02*
X027621Y034204D01*
X027613Y034212D02*
X025238Y036587D01*
X025121Y036636D01*
X024994Y036636D01*
X021470Y036636D01*
X021269Y036706D01*
X021203Y036734D01*
X021036Y036734D01*
X020883Y036670D01*
X020765Y036553D01*
X020732Y036472D01*
X020703Y036484D01*
X020536Y036484D01*
X020383Y036420D01*
X020265Y036303D01*
X020201Y036149D01*
X020201Y035982D01*
X020254Y035854D01*
X020206Y035806D01*
X019641Y036372D01*
X019551Y036462D01*
X019433Y036511D01*
X018782Y036511D01*
X018582Y036581D01*
X018515Y036609D01*
X018349Y036609D01*
X018271Y036577D01*
X018440Y036746D01*
X021511Y036746D01*
X021519Y036746D01*
X021721Y036674D01*
X021786Y036647D01*
X021953Y036647D01*
X022107Y036711D01*
X022224Y036829D01*
X022288Y036982D01*
X022288Y037149D01*
X022224Y037303D01*
X022107Y037420D01*
X021953Y037484D01*
X021786Y037484D01*
X021720Y037456D01*
X021711Y037453D01*
X021520Y037386D01*
X021511Y037386D01*
X018244Y037386D01*
X018126Y037337D01*
X018036Y037247D01*
X017751Y036962D01*
X017661Y036872D01*
X017612Y036754D01*
X017612Y034067D01*
X017612Y033939D01*
X017661Y033822D01*
X018208Y033274D01*
X018286Y033112D01*
X018300Y033082D01*
X018328Y033016D01*
X018445Y032898D01*
X018599Y032835D01*
X018765Y032835D01*
X018919Y032898D01*
X019037Y033016D01*
X019101Y033170D01*
X019101Y033336D01*
X019037Y033490D01*
X018919Y033608D01*
X018852Y033636D01*
X018661Y033727D01*
X018252Y034136D01*
X018252Y035812D01*
X018349Y035772D01*
X018515Y035772D01*
X018581Y035799D01*
X018632Y035817D01*
X018782Y035871D01*
X019237Y035871D01*
X019316Y035791D01*
X019276Y035751D01*
X019232Y035795D01*
X019078Y035859D01*
X018911Y035859D01*
X018758Y035795D01*
X018640Y035678D01*
X018576Y035524D01*
X018576Y035357D01*
X018640Y035204D01*
X018758Y035086D01*
X018911Y035022D01*
X019078Y035022D01*
X019232Y035086D01*
X019276Y035130D01*
X019320Y035086D01*
X019474Y035022D01*
X019640Y035022D01*
X019794Y035086D01*
X019908Y035200D01*
X020251Y034857D01*
X020369Y034808D01*
X020496Y034808D01*
X020619Y034808D01*
X020746Y034808D01*
X020863Y034857D01*
X020940Y034933D01*
X020984Y034933D01*
X018682Y032631D01*
X018596Y032717D01*
X017145Y034169D01*
X017145Y035460D01*
X017203Y035460D01*
X017357Y035523D01*
X017474Y035641D01*
X017538Y035795D01*
X017538Y035961D01*
X017474Y036115D01*
X017357Y036233D01*
X017203Y036296D01*
X017145Y036296D01*
X017145Y037111D01*
X017145Y037270D01*
X017145Y038342D01*
X017161Y038335D01*
X017201Y038335D01*
X017201Y038295D01*
X017265Y038141D01*
X017383Y038023D01*
X017536Y037960D01*
X017703Y037960D01*
X017807Y038003D01*
X017827Y037954D01*
X017945Y037836D01*
X018099Y037772D01*
X018265Y037772D01*
X018419Y037836D01*
X018537Y037954D01*
X018601Y038107D01*
X018601Y038274D01*
X018537Y038428D01*
X018419Y038545D01*
X018265Y038609D01*
X018099Y038609D01*
X017995Y038566D01*
X017974Y038615D01*
X017857Y038733D01*
X017703Y038796D01*
X017663Y038796D01*
X017663Y038836D01*
X017599Y038990D01*
X017549Y039041D01*
X022165Y039041D01*
X022324Y039041D01*
X022471Y039101D01*
X022500Y039130D01*
X024211Y037419D01*
X024328Y037371D01*
X024455Y037371D01*
X024800Y037371D01*
X029425Y032745D01*
X029425Y031789D01*
X029283Y031579D01*
X029280Y031574D01*
X029245Y031539D01*
X029085Y031699D01*
X028924Y031766D01*
X028921Y031768D01*
X028918Y031768D01*
X028864Y031791D01*
X028802Y031791D01*
X028548Y031840D01*
X027752Y032636D01*
X027752Y034004D01*
X027703Y034122D01*
X027613Y034212D01*
X027735Y034045D02*
X028125Y034045D01*
X028283Y033887D02*
X027752Y033887D01*
X027752Y033728D02*
X028442Y033728D01*
X028600Y033570D02*
X027752Y033570D01*
X027752Y033411D02*
X028759Y033411D01*
X028917Y033253D02*
X027752Y033253D01*
X027752Y033094D02*
X029076Y033094D01*
X029235Y032936D02*
X027752Y032936D01*
X027752Y032777D02*
X029393Y032777D01*
X029425Y032619D02*
X027769Y032619D01*
X027928Y032460D02*
X029425Y032460D01*
X029425Y032301D02*
X028086Y032301D01*
X028245Y032143D02*
X029425Y032143D01*
X029425Y031984D02*
X028404Y031984D01*
X028620Y031826D02*
X029425Y031826D01*
X029343Y031667D02*
X029117Y031667D01*
X028798Y031466D02*
X028745Y031191D01*
X028470Y031137D01*
X028391Y031544D01*
X028798Y031466D01*
X028745Y031191D02*
X028391Y031544D01*
X027432Y032503D01*
X027432Y033941D01*
X025057Y036316D01*
X021415Y036316D01*
X021153Y036223D01*
X021120Y036316D01*
X021153Y036408D01*
X021415Y036316D01*
X021120Y036316D01*
X020795Y036582D02*
X018580Y036582D01*
X018435Y036741D02*
X021533Y036741D01*
X021574Y037066D02*
X021837Y037158D01*
X021870Y037066D01*
X021837Y036973D01*
X021574Y037066D01*
X021870Y037066D01*
X021574Y037066D02*
X018307Y037066D01*
X017932Y036691D01*
X017932Y034003D01*
X018473Y033462D01*
X018725Y033342D01*
X018682Y033253D01*
X018593Y033211D01*
X018473Y033462D01*
X018682Y033253D01*
X019069Y033094D02*
X019145Y033094D01*
X019101Y033253D02*
X019304Y033253D01*
X019462Y033411D02*
X019070Y033411D01*
X018957Y033570D02*
X019621Y033570D01*
X019779Y033728D02*
X018659Y033728D01*
X018501Y033887D02*
X019938Y033887D01*
X020096Y034045D02*
X018342Y034045D01*
X018252Y034204D02*
X020255Y034204D01*
X020414Y034363D02*
X018252Y034363D01*
X018252Y034521D02*
X020572Y034521D01*
X020731Y034680D02*
X018252Y034680D01*
X018252Y034838D02*
X020296Y034838D01*
X020111Y034997D02*
X018252Y034997D01*
X018252Y035155D02*
X018688Y035155D01*
X018594Y035314D02*
X018252Y035314D01*
X018252Y035472D02*
X018576Y035472D01*
X018621Y035631D02*
X018252Y035631D01*
X018252Y035789D02*
X018307Y035789D01*
X018557Y035789D02*
X018752Y035789D01*
X018728Y036191D02*
X018465Y036098D01*
X018432Y036191D01*
X018465Y036283D01*
X018728Y036191D01*
X019370Y036191D01*
X020432Y035128D01*
X020682Y035128D01*
X020807Y035253D01*
X024620Y035253D01*
X026432Y033441D01*
X026432Y031878D01*
X026098Y031544D01*
X026020Y031137D01*
X025745Y031191D01*
X025692Y031466D01*
X026098Y031544D01*
X025745Y031191D01*
X025245Y031441D02*
X024682Y030878D01*
X024682Y029941D01*
X025432Y029191D01*
X028182Y029191D01*
X030036Y027337D01*
X030287Y027217D01*
X030245Y027128D01*
X030156Y027086D01*
X030036Y027337D01*
X030245Y027128D01*
X030058Y026752D02*
X027198Y026752D01*
X027356Y026594D02*
X030685Y026594D01*
X030690Y026599D02*
X030630Y026539D01*
X030580Y026470D01*
X030542Y026394D01*
X030516Y026314D01*
X030502Y026230D01*
X030502Y026207D01*
X031022Y026207D01*
X031022Y026727D01*
X031000Y026727D01*
X030916Y026714D01*
X030835Y026687D01*
X030759Y026649D01*
X030690Y026599D01*
X030563Y026435D02*
X027515Y026435D01*
X027673Y026277D02*
X030510Y026277D01*
X030506Y026118D02*
X027832Y026118D01*
X027991Y025960D02*
X030552Y025960D01*
X030664Y025801D02*
X028149Y025801D01*
X029259Y024691D02*
X029793Y024691D01*
X029564Y024533D02*
X029417Y024533D01*
X029411Y024087D02*
X029662Y023967D01*
X029620Y023878D01*
X029531Y023836D01*
X029411Y024087D01*
X029620Y023878D01*
X029411Y024087D02*
X024307Y029191D01*
X022182Y029191D01*
X022182Y031191D01*
X023932Y032941D01*
X024512Y032941D01*
X024774Y033033D01*
X024807Y032941D01*
X024774Y032848D01*
X024512Y032941D01*
X024807Y032941D01*
X024463Y032619D02*
X024063Y032619D01*
X023904Y032460D02*
X024366Y032460D01*
X024294Y032301D02*
X023746Y032301D01*
X023587Y032143D02*
X024286Y032143D01*
X024334Y031984D02*
X023429Y031984D01*
X023270Y031826D02*
X024330Y031826D01*
X024286Y031667D02*
X023111Y031667D01*
X022953Y031509D02*
X024298Y031509D01*
X024374Y031350D02*
X022794Y031350D01*
X022636Y031192D02*
X024543Y031192D01*
X024501Y031149D02*
X024501Y031149D01*
X024400Y031033D02*
X022502Y031033D01*
X022502Y030875D02*
X024362Y030875D01*
X024362Y030716D02*
X023061Y030716D01*
X023149Y030557D02*
X024362Y030557D01*
X024362Y030399D02*
X023163Y030399D01*
X023115Y030240D02*
X023640Y030240D01*
X023695Y030295D02*
X023577Y030178D01*
X023514Y030024D01*
X023514Y029857D01*
X023577Y029704D01*
X023695Y029586D01*
X023849Y029522D01*
X024015Y029522D01*
X024169Y029586D01*
X024287Y029704D01*
X024351Y029857D01*
X024351Y030024D01*
X024287Y030178D01*
X024169Y030295D01*
X024015Y030359D01*
X023849Y030359D01*
X023695Y030295D01*
X023538Y030082D02*
X022972Y030082D01*
X022517Y030082D02*
X022502Y030082D01*
X022502Y029923D02*
X023514Y029923D01*
X023552Y029765D02*
X022502Y029765D01*
X022502Y029606D02*
X023675Y029606D01*
X024190Y029606D02*
X024564Y029606D01*
X024501Y029669D02*
X024501Y029669D01*
X024409Y029765D02*
X024312Y029765D01*
X024351Y029923D02*
X024362Y029923D01*
X024362Y030082D02*
X024327Y030082D01*
X024362Y030240D02*
X024224Y030240D01*
X025002Y030240D02*
X025145Y030240D01*
X025145Y030082D02*
X025002Y030082D01*
X025152Y029923D02*
X025206Y029923D01*
X025311Y029765D02*
X025322Y029765D01*
X025469Y029606D02*
X025588Y029606D01*
X025902Y029606D02*
X026588Y029606D01*
X026322Y029765D02*
X026167Y029765D01*
X026902Y029606D02*
X027588Y029606D01*
X027322Y029765D02*
X027167Y029765D01*
X027902Y029606D02*
X028588Y029606D01*
X028322Y029765D02*
X028167Y029765D01*
X028107Y028814D02*
X025137Y028814D01*
X025198Y028972D02*
X024978Y028972D01*
X025040Y029131D02*
X024820Y029131D01*
X024881Y029289D02*
X024661Y029289D01*
X024722Y029448D02*
X024503Y029448D01*
X024232Y028814D02*
X021758Y028814D01*
X021599Y028655D02*
X024390Y028655D01*
X025295Y028655D02*
X028265Y028655D01*
X028424Y028496D02*
X025454Y028496D01*
X025612Y028338D02*
X028582Y028338D01*
X028741Y028179D02*
X025771Y028179D01*
X025929Y028021D02*
X028899Y028021D01*
X029058Y027862D02*
X026088Y027862D01*
X026247Y027704D02*
X029216Y027704D01*
X029375Y027545D02*
X026405Y027545D01*
X026564Y027387D02*
X029534Y027387D01*
X029692Y027228D02*
X026722Y027228D01*
X026881Y027070D02*
X029809Y027070D01*
X029882Y026911D02*
X027039Y026911D01*
X027182Y023582D02*
X027583Y023582D01*
X027462Y023423D02*
X027334Y023423D01*
X027390Y023264D02*
X027409Y023264D01*
X027409Y023106D02*
X027388Y023106D01*
X027328Y022947D02*
X027466Y022947D01*
X027594Y022789D02*
X027165Y022789D01*
X027944Y021362D02*
X024820Y021362D01*
X024940Y021521D02*
X031602Y021521D01*
X031761Y021679D02*
X025015Y021679D01*
X024558Y022155D02*
X021238Y022155D01*
X021332Y022313D02*
X024727Y022313D01*
X024886Y022472D02*
X021351Y022472D01*
X021306Y022630D02*
X025044Y022630D01*
X024594Y022789D02*
X024165Y022789D01*
X024328Y022947D02*
X024466Y022947D01*
X024409Y023106D02*
X024388Y023106D01*
X024390Y023264D02*
X024409Y023264D01*
X024462Y023423D02*
X024334Y023423D01*
X024182Y023582D02*
X024583Y023582D01*
X023932Y023582D02*
X023932Y023582D01*
X023932Y023423D02*
X023932Y023423D01*
X023932Y023264D02*
X023932Y023264D01*
X023932Y023106D02*
X023932Y023106D01*
X023932Y022947D02*
X023932Y022947D01*
X023932Y022789D02*
X023932Y022789D01*
X023274Y021996D02*
X016128Y021996D01*
X015969Y021838D02*
X023056Y021838D01*
X021594Y022789D02*
X021176Y022789D01*
X021328Y022947D02*
X021466Y022947D01*
X021409Y023106D02*
X021388Y023106D01*
X021390Y023264D02*
X021409Y023264D01*
X021462Y023423D02*
X021334Y023423D01*
X021182Y023582D02*
X021583Y023582D01*
X020932Y023582D02*
X020932Y023582D01*
X020932Y023423D02*
X020932Y023423D01*
X020932Y023264D02*
X020932Y023264D01*
X020682Y023582D02*
X020281Y023582D01*
X020402Y023423D02*
X020531Y023423D01*
X020475Y023264D02*
X020456Y023264D01*
X020456Y023106D02*
X020476Y023106D01*
X020536Y022947D02*
X020398Y022947D01*
X020271Y022789D02*
X020662Y022789D01*
X020637Y022441D02*
X020899Y022533D01*
X020932Y022441D01*
X020899Y022348D01*
X020637Y022441D01*
X020932Y022441D01*
X020637Y022441D02*
X016120Y022441D01*
X015141Y021462D01*
X015021Y021211D01*
X014932Y021253D01*
X014890Y021342D01*
X015141Y021462D01*
X014932Y021253D01*
X014724Y020886D02*
X014645Y020886D01*
X014645Y021679D02*
X014853Y021679D01*
X014663Y021838D02*
X015064Y021838D01*
X015223Y021996D02*
X014649Y021996D01*
X014560Y022155D02*
X015381Y022155D01*
X015540Y022313D02*
X014288Y022313D01*
X014232Y022472D02*
X015698Y022472D01*
X015857Y022630D02*
X014052Y022630D01*
X014087Y022789D02*
X012502Y022789D01*
X012502Y022947D02*
X013961Y022947D01*
X013904Y023106D02*
X012502Y023106D01*
X012502Y023264D02*
X013904Y023264D01*
X013687Y022630D02*
X012502Y022630D01*
X012502Y022472D02*
X013507Y022472D01*
X013451Y022313D02*
X012476Y022313D01*
X012349Y022155D02*
X013458Y022155D01*
X013535Y021996D02*
X012190Y021996D01*
X012032Y021838D02*
X013779Y021838D01*
X013845Y021679D02*
X011873Y021679D01*
X011715Y021521D02*
X013845Y021521D01*
X013845Y021362D02*
X012290Y021362D01*
X012390Y021203D02*
X013845Y021203D01*
X013845Y021045D02*
X012413Y021045D01*
X012395Y020886D02*
X013845Y020886D01*
X013845Y020728D02*
X012395Y020728D01*
X012395Y020569D02*
X013845Y020569D01*
X013845Y020411D02*
X012395Y020411D01*
X012395Y020252D02*
X013845Y020252D01*
X013845Y020094D02*
X012395Y020094D01*
X012395Y019935D02*
X013845Y019935D01*
X013845Y019777D02*
X012395Y019777D01*
X012395Y019618D02*
X013845Y019618D01*
X013845Y019459D02*
X012395Y019459D01*
X012395Y019301D02*
X013845Y019301D01*
X013845Y019142D02*
X012395Y019142D01*
X012395Y018984D02*
X013845Y018984D01*
X011595Y018984D02*
X008082Y018984D01*
X008082Y019142D02*
X011595Y019142D01*
X011595Y019301D02*
X008082Y019301D01*
X008082Y019459D02*
X008976Y019459D01*
X008886Y019497D02*
X009078Y019417D01*
X009286Y019417D01*
X009479Y019497D01*
X009626Y019644D01*
X009706Y019836D01*
X009706Y020045D01*
X009626Y020237D01*
X009479Y020384D01*
X009286Y020464D01*
X009078Y020464D01*
X008886Y020384D01*
X008738Y020237D01*
X008659Y020045D01*
X008659Y019836D01*
X008738Y019644D01*
X008886Y019497D01*
X008764Y019618D02*
X008082Y019618D01*
X008082Y019777D02*
X008684Y019777D01*
X008659Y019935D02*
X008082Y019935D01*
X008082Y020094D02*
X008679Y020094D01*
X008754Y020252D02*
X008082Y020252D01*
X008082Y020411D02*
X008949Y020411D01*
X009415Y020411D02*
X010949Y020411D01*
X010754Y020252D02*
X010526Y020252D01*
X010536Y020242D02*
X010484Y020294D01*
X010425Y020337D01*
X010360Y020370D01*
X010291Y020393D01*
X010219Y020404D01*
X010182Y020404D01*
X010146Y020404D01*
X010074Y020393D01*
X010004Y020370D01*
X009939Y020337D01*
X009880Y020294D01*
X009829Y020242D01*
X009786Y020183D01*
X009753Y020118D01*
X009730Y020049D01*
X009719Y019977D01*
X009719Y019941D01*
X010182Y019941D01*
X010182Y020404D01*
X010182Y019941D01*
X010182Y019941D01*
X010182Y019940D01*
X010182Y019940D01*
X010182Y019477D01*
X010146Y019477D01*
X010074Y019489D01*
X010004Y019511D01*
X009939Y019544D01*
X009880Y019587D01*
X009829Y019639D01*
X009786Y019698D01*
X009753Y019763D01*
X009730Y019832D01*
X009719Y019904D01*
X009719Y019940D01*
X010182Y019940D01*
X010182Y019477D01*
X010219Y019477D01*
X010291Y019489D01*
X010360Y019511D01*
X010425Y019544D01*
X010484Y019587D01*
X010536Y019639D01*
X010579Y019698D01*
X010612Y019763D01*
X010634Y019832D01*
X010646Y019904D01*
X010646Y019940D01*
X010183Y019940D01*
X010183Y019941D01*
X010646Y019941D01*
X010646Y019977D01*
X010634Y020049D01*
X010612Y020118D01*
X010579Y020183D01*
X010536Y020242D01*
X010620Y020094D02*
X010679Y020094D01*
X010659Y019935D02*
X010646Y019935D01*
X010616Y019777D02*
X010684Y019777D01*
X010764Y019618D02*
X010515Y019618D01*
X010182Y019618D02*
X010182Y019618D01*
X010182Y019777D02*
X010182Y019777D01*
X010182Y019935D02*
X010182Y019935D01*
X010182Y020094D02*
X010182Y020094D01*
X010182Y020252D02*
X010182Y020252D01*
X009838Y020252D02*
X009611Y020252D01*
X009685Y020094D02*
X009745Y020094D01*
X009719Y019935D02*
X009706Y019935D01*
X009681Y019777D02*
X009748Y019777D01*
X009849Y019618D02*
X009600Y019618D01*
X009389Y019459D02*
X010976Y019459D01*
X011389Y019459D02*
X011595Y019459D01*
X011382Y018927D02*
X011382Y018927D01*
X011382Y018927D01*
X011415Y020411D02*
X011595Y020411D01*
X011595Y020569D02*
X008082Y020569D01*
X008082Y020728D02*
X011595Y020728D01*
X011595Y020886D02*
X008578Y020886D01*
X008370Y021191D02*
X008745Y021253D01*
X008370Y021316D01*
X008370Y021253D01*
X008370Y021191D01*
X008370Y021253D02*
X008745Y021253D01*
X010995Y021253D01*
X012182Y022441D01*
X012182Y024441D01*
X015682Y027941D01*
X017245Y027941D01*
X017557Y027878D01*
X017557Y027941D01*
X017557Y028003D01*
X017245Y027941D01*
X017557Y027941D01*
X017423Y028338D02*
X014627Y028338D01*
X014627Y028496D02*
X017873Y028496D01*
X018032Y028338D02*
X017691Y028338D01*
X017910Y028179D02*
X018190Y028179D01*
X018349Y028021D02*
X017976Y028021D01*
X017976Y027857D02*
X017912Y027704D01*
X017696Y027545D02*
X018824Y027545D01*
X018983Y027387D02*
X015581Y027387D01*
X015739Y027545D02*
X017418Y027545D01*
X017440Y027228D02*
X015422Y027228D01*
X015264Y027070D02*
X015859Y027070D01*
X015700Y026911D02*
X015105Y026911D01*
X014947Y026752D02*
X015542Y026752D01*
X015383Y026594D02*
X014788Y026594D01*
X014630Y026435D02*
X015224Y026435D01*
X015066Y026277D02*
X014471Y026277D01*
X014312Y026118D02*
X014907Y026118D01*
X014749Y025960D02*
X014154Y025960D01*
X013995Y025801D02*
X014590Y025801D01*
X014432Y025643D02*
X013837Y025643D01*
X013678Y025484D02*
X014273Y025484D01*
X014115Y025326D02*
X013520Y025326D01*
X013361Y025167D02*
X013956Y025167D01*
X013798Y025008D02*
X013203Y025008D01*
X013044Y024850D02*
X013639Y024850D01*
X013481Y024691D02*
X012886Y024691D01*
X012727Y024533D02*
X013322Y024533D01*
X013117Y024374D02*
X012569Y024374D01*
X012139Y024850D02*
X009652Y024850D01*
X009652Y025008D02*
X012298Y025008D01*
X012456Y025167D02*
X011304Y025167D01*
X011352Y025187D02*
X011355Y025188D01*
X011358Y025190D01*
X011412Y025212D01*
X011456Y025256D01*
X011461Y025259D01*
X011670Y025401D01*
X012276Y025401D01*
X012393Y025449D01*
X012483Y025539D01*
X014579Y027634D01*
X014627Y027752D01*
X014627Y027879D01*
X014627Y028519D01*
X014627Y028528D01*
X014695Y028719D01*
X014698Y028729D01*
X014726Y028795D01*
X014726Y028961D01*
X014699Y029026D01*
X014735Y028989D01*
X014904Y028920D01*
X015086Y028920D01*
X015254Y028989D01*
X015383Y029118D01*
X015453Y029287D01*
X015453Y029469D01*
X015383Y029638D01*
X015362Y029659D01*
X015383Y029681D01*
X015453Y029849D01*
X015453Y030032D01*
X015383Y030200D01*
X015254Y030329D01*
X015086Y030399D01*
X014904Y030399D01*
X014735Y030329D01*
X014606Y030200D01*
X014536Y030032D01*
X014536Y029849D01*
X014606Y029681D01*
X014628Y029659D01*
X014606Y029638D01*
X014536Y029469D01*
X014536Y029287D01*
X014569Y029208D01*
X014544Y029233D01*
X014390Y029296D01*
X014224Y029296D01*
X014070Y029233D01*
X013953Y029115D01*
X013889Y028961D01*
X013889Y028795D01*
X013916Y028729D01*
X013987Y028528D01*
X013987Y028519D01*
X013987Y027948D01*
X012080Y026041D01*
X011670Y026041D01*
X011461Y026182D01*
X011456Y026185D01*
X011412Y026229D01*
X011358Y026252D01*
X011355Y026253D01*
X011352Y026254D01*
X011192Y026321D01*
X010953Y026321D01*
X010732Y026229D01*
X010564Y026060D01*
X010472Y025840D01*
X010472Y025601D01*
X010564Y025381D01*
X010732Y025212D01*
X010953Y025121D01*
X011192Y025121D01*
X011352Y025187D01*
X011559Y025326D02*
X012615Y025326D01*
X012773Y025484D02*
X012428Y025484D01*
X012587Y025643D02*
X012932Y025643D01*
X013090Y025801D02*
X012745Y025801D01*
X012904Y025960D02*
X013249Y025960D01*
X013407Y026118D02*
X013062Y026118D01*
X013221Y026277D02*
X013566Y026277D01*
X013724Y026435D02*
X013380Y026435D01*
X013538Y026594D02*
X013883Y026594D01*
X014042Y026752D02*
X013697Y026752D01*
X013855Y026911D02*
X014200Y026911D01*
X014359Y027070D02*
X014014Y027070D01*
X014172Y027228D02*
X014517Y027228D01*
X014676Y027387D02*
X014331Y027387D01*
X014489Y027545D02*
X014834Y027545D01*
X014993Y027704D02*
X014607Y027704D01*
X014627Y027862D02*
X015151Y027862D01*
X015310Y028021D02*
X014627Y028021D01*
X014627Y028179D02*
X015468Y028179D01*
X015212Y028972D02*
X016835Y028972D01*
X016994Y028814D02*
X014726Y028814D01*
X014721Y028972D02*
X014777Y028972D01*
X014672Y028655D02*
X017715Y028655D01*
X017627Y029528D02*
X017410Y029528D01*
X017082Y029856D01*
X017082Y030525D01*
X018370Y031812D01*
X019220Y030962D01*
X019220Y030708D01*
X019220Y029975D01*
X019162Y030115D01*
X019044Y030233D01*
X018890Y030296D01*
X018724Y030296D01*
X018570Y030233D01*
X018452Y030115D01*
X018389Y029961D01*
X018389Y029795D01*
X018452Y029641D01*
X018570Y029523D01*
X018724Y029460D01*
X018890Y029460D01*
X019044Y029523D01*
X019162Y029641D01*
X019220Y029781D01*
X019220Y029443D01*
X019201Y029399D01*
X019201Y029232D01*
X019265Y029079D01*
X019383Y028961D01*
X019536Y028897D01*
X019703Y028897D01*
X019857Y028961D01*
X019974Y029079D01*
X020038Y029232D01*
X020038Y029399D01*
X020020Y029443D01*
X020020Y030228D01*
X021304Y030228D01*
X021349Y030210D01*
X021515Y030210D01*
X021669Y030273D01*
X021787Y030391D01*
X021851Y030545D01*
X021851Y030711D01*
X021787Y030865D01*
X021669Y030983D01*
X021515Y031046D01*
X021349Y031046D01*
X021304Y031028D01*
X020020Y031028D01*
X020020Y031048D01*
X020020Y031208D01*
X019959Y031355D01*
X019248Y032066D01*
X021687Y034505D01*
X021732Y034523D01*
X021849Y034641D01*
X021913Y034795D01*
X021913Y034933D01*
X024487Y034933D01*
X026112Y033308D01*
X026112Y032011D01*
X025941Y031840D01*
X025687Y031791D01*
X025625Y031791D01*
X025571Y031768D01*
X025568Y031768D01*
X025566Y031766D01*
X025565Y031765D01*
X025565Y033192D01*
X025516Y033309D01*
X025426Y033399D01*
X024988Y033837D01*
X024871Y033886D01*
X024744Y033886D01*
X024525Y033886D01*
X024571Y033931D01*
X024641Y034099D01*
X024641Y034282D01*
X024571Y034450D01*
X024442Y034579D01*
X024273Y034649D01*
X024091Y034649D01*
X023923Y034579D01*
X023794Y034450D01*
X023724Y034282D01*
X023724Y034099D01*
X023794Y033931D01*
X023839Y033886D01*
X023104Y033886D01*
X023095Y033886D01*
X022894Y033956D01*
X022828Y033984D01*
X022661Y033984D01*
X022508Y033920D01*
X022390Y033803D01*
X022326Y033649D01*
X022326Y033482D01*
X022390Y033329D01*
X022508Y033211D01*
X022661Y033147D01*
X022828Y033147D01*
X022894Y033174D01*
X022944Y033192D01*
X023095Y033246D01*
X023104Y033246D01*
X023832Y033246D01*
X023751Y033212D01*
X022001Y031462D01*
X021911Y031372D01*
X021862Y031254D01*
X021862Y029511D01*
X021746Y029511D01*
X021619Y029511D01*
X021501Y029462D01*
X020800Y028761D01*
X019252Y028761D01*
X018264Y029749D01*
X018320Y029907D01*
X018323Y029916D01*
X018351Y029982D01*
X018351Y030149D01*
X018287Y030303D01*
X018169Y030420D01*
X018015Y030484D01*
X017849Y030484D01*
X017695Y030420D01*
X017577Y030303D01*
X017514Y030149D01*
X017514Y029982D01*
X017541Y029917D01*
X017612Y029715D01*
X017612Y029564D01*
X017627Y029528D01*
X017612Y029606D02*
X017332Y029606D01*
X017174Y029765D02*
X017595Y029765D01*
X017538Y029923D02*
X017082Y029923D01*
X017082Y030082D02*
X017514Y030082D01*
X017552Y030240D02*
X017082Y030240D01*
X017082Y030399D02*
X017674Y030399D01*
X017839Y030033D02*
X017932Y030066D01*
X018025Y030033D01*
X017932Y029770D01*
X017839Y030033D01*
X017932Y030066D02*
X017932Y029770D01*
X017932Y029628D01*
X019120Y028441D01*
X020932Y028441D01*
X021682Y029191D01*
X022182Y029191D01*
X021862Y029606D02*
X021288Y029606D01*
X021288Y029545D02*
X021288Y029711D01*
X021224Y029865D01*
X021107Y029983D01*
X020953Y030046D01*
X020786Y030046D01*
X020633Y029983D01*
X020515Y029865D01*
X020451Y029711D01*
X020451Y029545D01*
X020515Y029391D01*
X020633Y029273D01*
X020786Y029210D01*
X020953Y029210D01*
X021107Y029273D01*
X021224Y029391D01*
X021288Y029545D01*
X021248Y029448D02*
X021487Y029448D01*
X021328Y029289D02*
X021123Y029289D01*
X021170Y029131D02*
X019996Y029131D01*
X020038Y029289D02*
X020617Y029289D01*
X020491Y029448D02*
X020020Y029448D01*
X020020Y029606D02*
X020451Y029606D01*
X020473Y029765D02*
X020020Y029765D01*
X020020Y029923D02*
X020573Y029923D01*
X020020Y030082D02*
X021862Y030082D01*
X021862Y030240D02*
X021590Y030240D01*
X021790Y030399D02*
X021862Y030399D01*
X021851Y030557D02*
X021862Y030557D01*
X021849Y030716D02*
X021862Y030716D01*
X021862Y030875D02*
X021777Y030875D01*
X021862Y031033D02*
X021548Y031033D01*
X021317Y031033D02*
X020020Y031033D01*
X020020Y031192D02*
X021862Y031192D01*
X021902Y031350D02*
X021434Y031350D01*
X021474Y031391D02*
X021538Y031545D01*
X021538Y031711D01*
X021474Y031865D01*
X021357Y031983D01*
X021203Y032046D01*
X021036Y032046D01*
X020883Y031983D01*
X020765Y031865D01*
X020701Y031711D01*
X020701Y031545D01*
X020765Y031391D01*
X020883Y031273D01*
X021036Y031210D01*
X021203Y031210D01*
X021357Y031273D01*
X021474Y031391D01*
X021523Y031509D02*
X022048Y031509D01*
X022206Y031667D02*
X021538Y031667D01*
X021491Y031826D02*
X022365Y031826D01*
X022523Y031984D02*
X021353Y031984D01*
X021466Y032045D02*
X021298Y032114D01*
X021169Y032243D01*
X021099Y032412D01*
X021099Y032594D01*
X021167Y032759D01*
X021133Y032773D01*
X021015Y032891D01*
X020951Y033045D01*
X020951Y033211D01*
X021015Y033365D01*
X021133Y033483D01*
X021286Y033546D01*
X021453Y033546D01*
X021607Y033483D01*
X021724Y033365D01*
X021788Y033211D01*
X021788Y033045D01*
X021738Y032924D01*
X021817Y032892D01*
X021946Y032763D01*
X022016Y032594D01*
X022016Y032412D01*
X021946Y032243D01*
X021817Y032114D01*
X021648Y032045D01*
X021466Y032045D01*
X021269Y032143D02*
X019325Y032143D01*
X019329Y031984D02*
X020887Y031984D01*
X020749Y031826D02*
X019488Y031826D01*
X019646Y031667D02*
X020701Y031667D01*
X020716Y031509D02*
X019805Y031509D01*
X019961Y031350D02*
X020806Y031350D01*
X021144Y032301D02*
X019484Y032301D01*
X019642Y032460D02*
X021099Y032460D01*
X021109Y032619D02*
X019801Y032619D01*
X019959Y032777D02*
X021129Y032777D01*
X020996Y032936D02*
X020118Y032936D01*
X020276Y033094D02*
X020951Y033094D01*
X020968Y033253D02*
X020435Y033253D01*
X020594Y033411D02*
X021061Y033411D01*
X020752Y033570D02*
X022326Y033570D01*
X022356Y033411D02*
X021678Y033411D01*
X021771Y033253D02*
X022466Y033253D01*
X022778Y033473D02*
X022745Y033566D01*
X022778Y033658D01*
X023040Y033566D01*
X022778Y033473D01*
X022745Y033566D02*
X023040Y033566D01*
X024807Y033566D01*
X025245Y033128D01*
X025245Y031441D01*
X025565Y031826D02*
X025870Y031826D01*
X026086Y031984D02*
X025565Y031984D01*
X025565Y032143D02*
X026112Y032143D01*
X026112Y032301D02*
X025565Y032301D01*
X025565Y032460D02*
X026112Y032460D01*
X026112Y032619D02*
X025565Y032619D01*
X025565Y032777D02*
X026112Y032777D01*
X026112Y032936D02*
X025565Y032936D01*
X025565Y033094D02*
X026112Y033094D01*
X026112Y033253D02*
X025539Y033253D01*
X025414Y033411D02*
X026009Y033411D01*
X025850Y033570D02*
X025255Y033570D01*
X025097Y033728D02*
X025692Y033728D01*
X025533Y033887D02*
X024527Y033887D01*
X024618Y034045D02*
X025375Y034045D01*
X025216Y034204D02*
X024641Y034204D01*
X024607Y034363D02*
X025058Y034363D01*
X024899Y034521D02*
X024500Y034521D01*
X024741Y034680D02*
X021865Y034680D01*
X021913Y034838D02*
X024582Y034838D01*
X024807Y035566D02*
X026745Y033628D01*
X026745Y031691D01*
X026977Y031347D01*
X026745Y031191D01*
X026513Y031347D01*
X026745Y031691D01*
X026745Y031191D01*
X027391Y031544D02*
X027057Y031878D01*
X027057Y033816D01*
X024932Y035941D01*
X020887Y035941D01*
X020610Y035968D01*
X020620Y036066D01*
X020689Y036136D01*
X020887Y035941D01*
X020745Y035941D01*
X020620Y036066D01*
X020590Y035658D02*
X020557Y035566D01*
X020590Y035473D01*
X020853Y035566D01*
X020590Y035658D01*
X020557Y035566D02*
X020853Y035566D01*
X024807Y035566D01*
X025560Y036265D02*
X025905Y036265D01*
X025747Y036424D02*
X025402Y036424D01*
X025243Y036582D02*
X025588Y036582D01*
X025429Y036741D02*
X022137Y036741D01*
X022254Y036899D02*
X025271Y036899D01*
X025112Y037058D02*
X022288Y037058D01*
X022260Y037216D02*
X024954Y037216D01*
X024318Y037375D02*
X022152Y037375D01*
X022161Y037897D02*
X022328Y037897D01*
X022482Y037961D01*
X022599Y038079D01*
X022663Y038232D01*
X022663Y038399D01*
X022599Y038553D01*
X022482Y038670D01*
X022328Y038734D01*
X022161Y038734D01*
X022008Y038670D01*
X021890Y038553D01*
X021826Y038399D01*
X021826Y038232D01*
X021890Y038079D01*
X022008Y037961D01*
X022161Y037897D01*
X021959Y038009D02*
X018560Y038009D01*
X018601Y038168D02*
X021853Y038168D01*
X021826Y038326D02*
X018579Y038326D01*
X018480Y038485D02*
X021862Y038485D01*
X021981Y038643D02*
X017946Y038643D01*
X017663Y038802D02*
X022828Y038802D01*
X022669Y038960D02*
X017612Y038960D01*
X017201Y038326D02*
X017145Y038326D01*
X017145Y038168D02*
X017254Y038168D01*
X017145Y038009D02*
X017417Y038009D01*
X017145Y037850D02*
X017931Y037850D01*
X018434Y037850D02*
X023779Y037850D01*
X023938Y037692D02*
X017145Y037692D01*
X017145Y037533D02*
X024096Y037533D01*
X023621Y038009D02*
X022530Y038009D01*
X022636Y038168D02*
X023462Y038168D01*
X023304Y038326D02*
X022663Y038326D01*
X022628Y038485D02*
X023145Y038485D01*
X022987Y038643D02*
X022509Y038643D01*
X022489Y039119D02*
X022511Y039119D01*
X021201Y040229D02*
X020903Y040229D01*
X021023Y040387D02*
X021081Y040387D01*
X021087Y040863D02*
X021017Y040863D01*
X020889Y041021D02*
X021216Y041021D01*
X020216Y041021D02*
X019889Y041021D01*
X020017Y040863D02*
X020087Y040863D01*
X020081Y040387D02*
X020023Y040387D01*
X019903Y040229D02*
X020201Y040229D01*
X019201Y040229D02*
X018903Y040229D01*
X019023Y040387D02*
X019081Y040387D01*
X019087Y040863D02*
X019017Y040863D01*
X018889Y041021D02*
X019216Y041021D01*
X018216Y041021D02*
X017889Y041021D01*
X018017Y040863D02*
X018087Y040863D01*
X018081Y040387D02*
X018023Y040387D01*
X017903Y040229D02*
X018201Y040229D01*
X017201Y040229D02*
X017145Y040229D01*
X016345Y040229D02*
X012162Y040229D01*
X012215Y040387D02*
X016345Y040387D01*
X016345Y040546D02*
X012206Y040546D01*
X011994Y040070D02*
X016345Y040070D01*
X016345Y039912D02*
X008219Y039912D01*
X008082Y039753D02*
X016345Y039753D01*
X016345Y039594D02*
X008082Y039594D01*
X008082Y039436D02*
X016345Y039436D01*
X016345Y039277D02*
X008082Y039277D01*
X008082Y039119D02*
X016345Y039119D01*
X016345Y038960D02*
X008082Y038960D01*
X008082Y038802D02*
X016345Y038802D01*
X016345Y038643D02*
X008082Y038643D01*
X008082Y038485D02*
X009885Y038485D01*
X009827Y038428D02*
X009764Y038274D01*
X009764Y038107D01*
X009827Y037954D01*
X009945Y037836D01*
X010099Y037772D01*
X010265Y037772D01*
X010419Y037836D01*
X010537Y037954D01*
X010601Y038107D01*
X010601Y038274D01*
X010537Y038428D01*
X010419Y038545D01*
X010265Y038609D01*
X010099Y038609D01*
X009945Y038545D01*
X009827Y038428D01*
X009785Y038326D02*
X008082Y038326D01*
X008082Y038168D02*
X009764Y038168D01*
X009804Y038009D02*
X008082Y038009D01*
X008082Y037850D02*
X009931Y037850D01*
X010434Y037850D02*
X012306Y037850D01*
X012320Y037836D02*
X012474Y037772D01*
X012640Y037772D01*
X012794Y037836D01*
X012912Y037954D01*
X012976Y038107D01*
X012976Y038274D01*
X012912Y038428D01*
X012794Y038545D01*
X012640Y038609D01*
X012474Y038609D01*
X012320Y038545D01*
X012202Y038428D01*
X012139Y038274D01*
X012139Y038107D01*
X012202Y037954D01*
X012320Y037836D01*
X012179Y038009D02*
X010560Y038009D01*
X010601Y038168D02*
X012139Y038168D01*
X012160Y038326D02*
X010579Y038326D01*
X010480Y038485D02*
X012260Y038485D01*
X012855Y038485D02*
X016345Y038485D01*
X016345Y038326D02*
X012954Y038326D01*
X012976Y038168D02*
X016345Y038168D01*
X016345Y038009D02*
X012935Y038009D01*
X012809Y037850D02*
X016345Y037850D01*
X016345Y037692D02*
X008082Y037692D01*
X008082Y037533D02*
X015715Y037533D01*
X015551Y037375D02*
X008082Y037375D01*
X008082Y037216D02*
X015392Y037216D01*
X015234Y037058D02*
X008082Y037058D01*
X008082Y036899D02*
X015075Y036899D01*
X014917Y036741D02*
X008082Y036741D01*
X008082Y036582D02*
X013107Y036582D01*
X013077Y036553D02*
X013014Y036399D01*
X013014Y036232D01*
X013077Y036079D01*
X013195Y035961D01*
X013349Y035897D01*
X013515Y035897D01*
X013669Y035961D01*
X013787Y036079D01*
X013851Y036232D01*
X013851Y036399D01*
X013787Y036553D01*
X013669Y036670D01*
X013515Y036734D01*
X013349Y036734D01*
X013195Y036670D01*
X013077Y036553D01*
X013024Y036424D02*
X008082Y036424D01*
X008082Y036265D02*
X013014Y036265D01*
X013066Y036106D02*
X008082Y036106D01*
X008082Y035948D02*
X013226Y035948D01*
X013638Y035948D02*
X014123Y035948D01*
X014076Y035789D02*
X008082Y035789D01*
X008082Y035631D02*
X009611Y035631D01*
X009702Y035669D02*
X009508Y035588D01*
X009360Y035440D01*
X009279Y035246D01*
X009279Y035036D01*
X009360Y034841D01*
X009508Y034693D01*
X009702Y034613D01*
X009912Y034613D01*
X010019Y034657D01*
X010077Y034516D01*
X010090Y034503D01*
X010077Y034490D01*
X010014Y034336D01*
X010014Y034170D01*
X010077Y034016D01*
X010195Y033898D01*
X010349Y033835D01*
X010515Y033835D01*
X010669Y033898D01*
X010787Y034016D01*
X010851Y034170D01*
X010851Y034336D01*
X010787Y034490D01*
X010774Y034503D01*
X010787Y034516D01*
X010851Y034670D01*
X010851Y034836D01*
X010787Y034990D01*
X010669Y035108D01*
X010515Y035171D01*
X010349Y035171D01*
X010335Y035166D01*
X010335Y035246D01*
X010255Y035440D01*
X010106Y035588D01*
X009912Y035669D01*
X009702Y035669D01*
X010003Y035631D02*
X014092Y035631D01*
X014184Y035472D02*
X010222Y035472D01*
X010307Y035314D02*
X016345Y035314D01*
X016345Y035472D02*
X014806Y035472D01*
X014938Y035631D02*
X016345Y035631D01*
X016345Y035789D02*
X015097Y035789D01*
X015255Y035948D02*
X016345Y035948D01*
X016345Y036106D02*
X015414Y036106D01*
X015572Y036265D02*
X016345Y036265D01*
X016345Y036424D02*
X015731Y036424D01*
X015889Y036582D02*
X016345Y036582D01*
X016345Y036741D02*
X016048Y036741D01*
X017145Y036741D02*
X017612Y036741D01*
X017612Y036582D02*
X017145Y036582D01*
X017145Y036424D02*
X017612Y036424D01*
X017612Y036265D02*
X017279Y036265D01*
X017478Y036106D02*
X017612Y036106D01*
X017612Y035948D02*
X017538Y035948D01*
X017536Y035789D02*
X017612Y035789D01*
X017612Y035631D02*
X017464Y035631D01*
X017612Y035472D02*
X017234Y035472D01*
X017145Y035314D02*
X017612Y035314D01*
X017612Y035155D02*
X017145Y035155D01*
X017145Y034997D02*
X017612Y034997D01*
X017612Y034838D02*
X017145Y034838D01*
X017145Y034680D02*
X017612Y034680D01*
X017612Y034521D02*
X017145Y034521D01*
X017145Y034363D02*
X017612Y034363D01*
X017612Y034204D02*
X017145Y034204D01*
X017268Y034045D02*
X017612Y034045D01*
X017634Y033887D02*
X017426Y033887D01*
X017585Y033728D02*
X017754Y033728D01*
X017744Y033570D02*
X017913Y033570D01*
X017902Y033411D02*
X018071Y033411D01*
X018061Y033253D02*
X018219Y033253D01*
X018219Y033094D02*
X018294Y033094D01*
X018378Y032936D02*
X018408Y032936D01*
X018536Y032777D02*
X018828Y032777D01*
X018957Y032936D02*
X018987Y032936D01*
X018515Y031667D02*
X018225Y031667D01*
X018066Y031509D02*
X018673Y031509D01*
X018832Y031350D02*
X017908Y031350D01*
X017749Y031192D02*
X018990Y031192D01*
X019149Y031033D02*
X017590Y031033D01*
X017432Y030875D02*
X019220Y030875D01*
X019220Y030716D02*
X017273Y030716D01*
X017115Y030557D02*
X019220Y030557D01*
X019220Y030399D02*
X018191Y030399D01*
X018313Y030240D02*
X018589Y030240D01*
X018439Y030082D02*
X018351Y030082D01*
X018326Y029923D02*
X018389Y029923D01*
X018401Y029765D02*
X018270Y029765D01*
X018407Y029606D02*
X018487Y029606D01*
X018565Y029448D02*
X019220Y029448D01*
X019220Y029606D02*
X019127Y029606D01*
X019213Y029765D02*
X019220Y029765D01*
X019220Y030082D02*
X019176Y030082D01*
X019220Y030240D02*
X019026Y030240D01*
X019201Y029289D02*
X018724Y029289D01*
X018882Y029131D02*
X019243Y029131D01*
X019371Y028972D02*
X019041Y028972D01*
X019199Y028814D02*
X020853Y028814D01*
X021011Y028972D02*
X019868Y028972D01*
X020735Y027704D02*
X020979Y027704D01*
X020898Y027545D02*
X020893Y027545D01*
X020396Y026911D02*
X018101Y026911D01*
X018083Y026752D02*
X020555Y026752D01*
X020713Y026594D02*
X017990Y026594D01*
X017682Y026816D02*
X017682Y026878D01*
X017682Y026941D01*
X017370Y026878D01*
X017682Y026816D01*
X017682Y026878D02*
X017370Y026878D01*
X016120Y026878D01*
X015971Y026277D02*
X021030Y026277D01*
X021189Y026118D02*
X016052Y026118D01*
X016181Y025960D02*
X021347Y025960D01*
X021506Y025801D02*
X016246Y025801D01*
X016246Y025643D02*
X017191Y025643D01*
X017077Y025484D02*
X016207Y025484D01*
X016115Y025326D02*
X017029Y025326D01*
X017029Y025167D02*
X016003Y025167D01*
X016161Y025008D02*
X017091Y025008D01*
X017225Y024850D02*
X016227Y024850D01*
X016246Y024691D02*
X018355Y024691D01*
X018225Y024850D02*
X017879Y024850D01*
X018013Y025008D02*
X018091Y025008D01*
X018077Y025484D02*
X018027Y025484D01*
X017913Y025643D02*
X018191Y025643D01*
X018913Y025643D02*
X019191Y025643D01*
X019077Y025484D02*
X019027Y025484D01*
X019013Y025008D02*
X019091Y025008D01*
X019225Y024850D02*
X018879Y024850D01*
X018126Y024533D02*
X016227Y024533D01*
X016162Y024374D02*
X018049Y024374D01*
X018036Y024216D02*
X016005Y024216D01*
X015677Y023591D02*
X015612Y023624D01*
X015542Y023647D01*
X015469Y023659D01*
X015432Y023659D01*
X015395Y023659D01*
X015323Y023647D01*
X015253Y023624D01*
X015187Y023591D01*
X015127Y023547D01*
X015075Y023495D01*
X015032Y023436D01*
X014999Y023370D01*
X014976Y023300D01*
X014964Y023227D01*
X014964Y023191D01*
X015432Y023191D01*
X015432Y023659D01*
X015432Y023191D01*
X015432Y023191D01*
X015432Y023190D01*
X015432Y023190D01*
X015432Y022723D01*
X015395Y022723D01*
X015323Y022734D01*
X015253Y022757D01*
X015187Y022790D01*
X015127Y022834D01*
X015075Y022886D01*
X015032Y022945D01*
X014999Y023011D01*
X014976Y023081D01*
X014964Y023154D01*
X014964Y023190D01*
X015432Y023190D01*
X015432Y022723D01*
X015469Y022723D01*
X015542Y022734D01*
X015612Y022757D01*
X015677Y022790D01*
X015737Y022834D01*
X015789Y022886D01*
X015832Y022945D01*
X015866Y023011D01*
X015889Y023081D01*
X015900Y023154D01*
X015900Y023190D01*
X015433Y023190D01*
X015433Y023191D01*
X015900Y023191D01*
X015900Y023227D01*
X015889Y023300D01*
X015866Y023370D01*
X015832Y023436D01*
X015789Y023495D01*
X015737Y023547D01*
X015677Y023591D01*
X015690Y023582D02*
X017077Y023582D01*
X016957Y023423D02*
X015839Y023423D01*
X015894Y023264D02*
X016904Y023264D01*
X016904Y023106D02*
X015893Y023106D01*
X015834Y022947D02*
X016961Y022947D01*
X017087Y022789D02*
X015675Y022789D01*
X015432Y022789D02*
X015432Y022789D01*
X015432Y022947D02*
X015432Y022947D01*
X015432Y023106D02*
X015432Y023106D01*
X015432Y023264D02*
X015432Y023264D01*
X015432Y023423D02*
X015432Y023423D01*
X015432Y023582D02*
X015432Y023582D01*
X015174Y023582D02*
X014788Y023582D01*
X014907Y023423D02*
X015025Y023423D01*
X014970Y023264D02*
X014960Y023264D01*
X014960Y023106D02*
X014972Y023106D01*
X015031Y022947D02*
X014903Y022947D01*
X014777Y022789D02*
X015190Y022789D01*
X015359Y024216D02*
X013910Y024216D01*
X014068Y024374D02*
X015203Y024374D01*
X015137Y024533D02*
X014227Y024533D01*
X014386Y024691D02*
X015118Y024691D01*
X015138Y024850D02*
X014544Y024850D01*
X014703Y025008D02*
X015203Y025008D01*
X015361Y025167D02*
X014861Y025167D01*
X015020Y025326D02*
X015250Y025326D01*
X013751Y024057D02*
X018080Y024057D01*
X018201Y023899D02*
X013630Y023899D01*
X011980Y024691D02*
X009652Y024691D01*
X009652Y024533D02*
X011874Y024533D01*
X011862Y024374D02*
X009652Y024374D01*
X009652Y024216D02*
X011862Y024216D01*
X011862Y024057D02*
X009652Y024057D01*
X009652Y023899D02*
X011862Y023899D01*
X011862Y023740D02*
X011241Y023740D01*
X011192Y023761D02*
X010953Y023761D01*
X010732Y023669D01*
X010564Y023500D01*
X010472Y023280D01*
X010472Y023041D01*
X010564Y022821D01*
X010732Y022652D01*
X010953Y022561D01*
X011192Y022561D01*
X011412Y022652D01*
X011581Y022821D01*
X011672Y023041D01*
X011672Y023280D01*
X011581Y023500D01*
X011412Y023669D01*
X011192Y023761D01*
X010904Y023740D02*
X009659Y023740D01*
X009746Y023582D02*
X010645Y023582D01*
X010532Y023423D02*
X009833Y023423D01*
X009853Y023386D02*
X009853Y023386D01*
X009853Y023386D01*
X009892Y023264D02*
X010472Y023264D01*
X010472Y023106D02*
X009892Y023106D01*
X009853Y022947D02*
X010511Y022947D01*
X010595Y022789D02*
X009769Y022789D01*
X009580Y022630D02*
X010784Y022630D01*
X010682Y022313D02*
X010682Y022313D01*
X010682Y022155D02*
X010682Y022155D01*
X010682Y021996D02*
X010682Y021996D01*
X010399Y022313D02*
X010056Y022313D01*
X010165Y022155D02*
X010266Y022155D01*
X010217Y021996D02*
X010210Y021996D01*
X010210Y021838D02*
X010225Y021838D01*
X010294Y021679D02*
X010145Y021679D01*
X009219Y021679D02*
X008082Y021679D01*
X008082Y021838D02*
X009154Y021838D01*
X009154Y021996D02*
X008082Y021996D01*
X008082Y022155D02*
X009199Y022155D01*
X009308Y022313D02*
X008082Y022313D01*
X008082Y022472D02*
X011761Y022472D01*
X011862Y022630D02*
X011360Y022630D01*
X011549Y022789D02*
X011862Y022789D01*
X011862Y022947D02*
X011633Y022947D01*
X011672Y023106D02*
X011862Y023106D01*
X011862Y023264D02*
X011672Y023264D01*
X011613Y023423D02*
X011862Y023423D01*
X011862Y023582D02*
X011500Y023582D01*
X011602Y022313D02*
X010965Y022313D01*
X011098Y022155D02*
X011444Y022155D01*
X011285Y021996D02*
X011147Y021996D01*
X011556Y021362D02*
X011699Y021362D01*
X011599Y021203D02*
X011398Y021203D01*
X011239Y021045D02*
X011576Y021045D01*
X009004Y022630D02*
X008082Y022630D01*
X008082Y022789D02*
X008815Y022789D01*
X008731Y022947D02*
X008082Y022947D01*
X008082Y023106D02*
X008692Y023106D01*
X008692Y023264D02*
X008082Y023264D01*
X008082Y023423D02*
X008752Y023423D01*
X008839Y023582D02*
X008082Y023582D01*
X008082Y023740D02*
X008925Y023740D01*
X008932Y023899D02*
X008082Y023899D01*
X008082Y024057D02*
X008932Y024057D01*
X008932Y024216D02*
X008082Y024216D01*
X008082Y024374D02*
X008932Y024374D01*
X008932Y024533D02*
X008082Y024533D01*
X008082Y024691D02*
X008932Y024691D01*
X008932Y024850D02*
X008082Y024850D01*
X008082Y025008D02*
X008932Y025008D01*
X008911Y025167D02*
X008082Y025167D01*
X008082Y025326D02*
X008764Y025326D01*
X008769Y026118D02*
X008082Y026118D01*
X008082Y026277D02*
X009059Y026277D01*
X009517Y026277D02*
X010847Y026277D01*
X010621Y026118D02*
X009743Y026118D01*
X009843Y025960D02*
X010522Y025960D01*
X010472Y025801D02*
X009892Y025801D01*
X009892Y025643D02*
X010472Y025643D01*
X010521Y025484D02*
X009847Y025484D01*
X009853Y025495D02*
X009853Y025495D01*
X009760Y025326D02*
X010619Y025326D01*
X010841Y025167D02*
X009673Y025167D01*
X011072Y025721D02*
X011229Y025489D01*
X011572Y025721D01*
X011229Y025953D01*
X011072Y025721D01*
X011572Y025721D01*
X012212Y025721D01*
X014307Y027816D01*
X014307Y028583D01*
X014214Y028845D01*
X014307Y028878D01*
X014400Y028845D01*
X014307Y028583D01*
X014307Y028878D01*
X013968Y029131D02*
X011451Y029131D01*
X011412Y029169D02*
X011581Y029000D01*
X011672Y028780D01*
X011672Y028541D01*
X011581Y028321D01*
X011412Y028152D01*
X011192Y028061D01*
X010953Y028061D01*
X010732Y028152D01*
X010564Y028321D01*
X010472Y028541D01*
X010472Y028780D01*
X010564Y029000D01*
X010732Y029169D01*
X010953Y029261D01*
X011192Y029261D01*
X011412Y029169D01*
X011593Y028972D02*
X013893Y028972D01*
X013889Y028814D02*
X011658Y028814D01*
X011672Y028655D02*
X013942Y028655D01*
X013987Y028496D02*
X011654Y028496D01*
X011588Y028338D02*
X013987Y028338D01*
X013987Y028179D02*
X011439Y028179D01*
X011286Y027964D02*
X011078Y027964D01*
X010886Y027884D01*
X010738Y027737D01*
X010659Y027545D01*
X010635Y027545D01*
X010634Y027549D02*
X010612Y027618D01*
X010579Y027683D01*
X010536Y027742D01*
X010484Y027794D01*
X010425Y027837D01*
X010360Y027870D01*
X010291Y027893D01*
X010219Y027904D01*
X010182Y027904D01*
X010146Y027904D01*
X010074Y027893D01*
X010004Y027870D01*
X009939Y027837D01*
X009880Y027794D01*
X009829Y027742D01*
X009786Y027683D01*
X009753Y027618D01*
X009730Y027549D01*
X009719Y027477D01*
X009719Y027441D01*
X010182Y027441D01*
X010182Y027904D01*
X010182Y027441D01*
X010182Y027441D01*
X010182Y027440D01*
X010182Y027440D01*
X010182Y026977D01*
X010146Y026977D01*
X010074Y026989D01*
X010004Y027011D01*
X009939Y027044D01*
X009880Y027087D01*
X009829Y027139D01*
X009786Y027198D01*
X009753Y027263D01*
X009730Y027332D01*
X009719Y027404D01*
X009719Y027440D01*
X010182Y027440D01*
X010182Y026977D01*
X010219Y026977D01*
X010291Y026989D01*
X010360Y027011D01*
X010425Y027044D01*
X010484Y027087D01*
X010536Y027139D01*
X010579Y027198D01*
X010612Y027263D01*
X010634Y027332D01*
X010646Y027404D01*
X010646Y027440D01*
X010183Y027440D01*
X010183Y027441D01*
X010646Y027441D01*
X010646Y027477D01*
X010634Y027549D01*
X010659Y027545D02*
X010659Y027336D01*
X010738Y027144D01*
X010886Y026997D01*
X011078Y026917D01*
X011286Y026917D01*
X011479Y026997D01*
X011626Y027144D01*
X011706Y027336D01*
X011706Y027545D01*
X011626Y027737D01*
X011479Y027884D01*
X011286Y027964D01*
X011501Y027862D02*
X013901Y027862D01*
X013987Y028021D02*
X008082Y028021D01*
X008082Y028179D02*
X008925Y028179D01*
X008776Y028338D02*
X008082Y028338D01*
X008082Y028496D02*
X008711Y028496D01*
X008692Y028655D02*
X008082Y028655D01*
X008082Y028814D02*
X008706Y028814D01*
X008772Y028972D02*
X008082Y028972D01*
X008082Y029131D02*
X008865Y029131D01*
X008932Y029289D02*
X008082Y029289D01*
X008082Y029448D02*
X008932Y029448D01*
X008932Y029606D02*
X008082Y029606D01*
X008082Y029765D02*
X008932Y029765D01*
X008932Y029923D02*
X008082Y029923D01*
X008082Y030082D02*
X008932Y030082D01*
X008932Y030240D02*
X008082Y030240D01*
X008082Y030399D02*
X008932Y030399D01*
X008932Y030557D02*
X008082Y030557D01*
X008082Y030716D02*
X008884Y030716D01*
X009652Y030557D02*
X012675Y030557D01*
X012702Y030531D02*
X012708Y030524D01*
X012786Y030362D01*
X012800Y030332D01*
X012827Y030266D01*
X012945Y030148D01*
X013099Y030085D01*
X013265Y030085D01*
X013419Y030148D01*
X013537Y030266D01*
X013601Y030420D01*
X013601Y030586D01*
X013537Y030740D01*
X013419Y030858D01*
X013352Y030886D01*
X013161Y030977D01*
X013155Y030983D01*
X012646Y031492D01*
X012528Y031541D01*
X012401Y031541D01*
X011670Y031541D01*
X011461Y031682D01*
X011456Y031685D01*
X011412Y031729D01*
X011358Y031752D01*
X011355Y031753D01*
X011352Y031754D01*
X011192Y031821D01*
X010953Y031821D01*
X010732Y031729D01*
X010564Y031560D01*
X010472Y031340D01*
X010472Y031101D01*
X010564Y030881D01*
X010732Y030712D01*
X010953Y030621D01*
X011192Y030621D01*
X011352Y030687D01*
X011355Y030688D01*
X011358Y030690D01*
X011412Y030712D01*
X011456Y030756D01*
X011461Y030759D01*
X011670Y030901D01*
X012332Y030901D01*
X012702Y030531D01*
X012768Y030399D02*
X009652Y030399D01*
X009652Y030240D02*
X012853Y030240D01*
X013093Y030461D02*
X012973Y030712D01*
X013225Y030592D01*
X013182Y030503D01*
X013093Y030461D01*
X013182Y030503D02*
X012973Y030712D01*
X012465Y031221D01*
X011572Y031221D01*
X011229Y030989D01*
X011072Y031221D01*
X011229Y031453D01*
X011572Y031221D01*
X011072Y031221D01*
X010670Y031667D02*
X009694Y031667D01*
X009822Y031509D02*
X010542Y031509D01*
X010476Y031350D02*
X009888Y031350D01*
X009892Y031192D02*
X010472Y031192D01*
X010500Y031033D02*
X009864Y031033D01*
X009853Y030995D02*
X009853Y030995D01*
X009795Y030875D02*
X010570Y030875D01*
X010728Y030716D02*
X009700Y030716D01*
X009652Y030082D02*
X014557Y030082D01*
X014536Y029923D02*
X009652Y029923D01*
X009652Y029765D02*
X014571Y029765D01*
X014593Y029606D02*
X009652Y029606D01*
X009652Y029448D02*
X014536Y029448D01*
X014536Y029289D02*
X014408Y029289D01*
X014206Y029289D02*
X009652Y029289D01*
X009719Y029131D02*
X010694Y029131D01*
X010552Y028972D02*
X009813Y028972D01*
X009853Y028886D02*
X009853Y028886D01*
X009853Y028886D01*
X009878Y028814D02*
X010486Y028814D01*
X010472Y028655D02*
X009892Y028655D01*
X009874Y028496D02*
X010491Y028496D01*
X010556Y028338D02*
X009808Y028338D01*
X009659Y028179D02*
X010705Y028179D01*
X010864Y027862D02*
X010375Y027862D01*
X010182Y027862D02*
X010182Y027862D01*
X010182Y027704D02*
X010182Y027704D01*
X010182Y027545D02*
X010182Y027545D01*
X010182Y027387D02*
X010182Y027387D01*
X010182Y027228D02*
X010182Y027228D01*
X010182Y027070D02*
X010182Y027070D01*
X009904Y027070D02*
X009551Y027070D01*
X009479Y026997D02*
X009626Y027144D01*
X009706Y027336D01*
X009706Y027545D01*
X009626Y027737D01*
X009479Y027884D01*
X009286Y027964D01*
X009078Y027964D01*
X008886Y027884D01*
X008738Y027737D01*
X008659Y027545D01*
X008082Y027545D01*
X008082Y027387D02*
X008659Y027387D01*
X008659Y027336D02*
X008738Y027144D01*
X008886Y026997D01*
X009078Y026917D01*
X009286Y026917D01*
X009479Y026997D01*
X009661Y027228D02*
X009770Y027228D01*
X009721Y027387D02*
X009706Y027387D01*
X009705Y027545D02*
X009730Y027545D01*
X009801Y027704D02*
X009640Y027704D01*
X009501Y027862D02*
X009989Y027862D01*
X010564Y027704D02*
X010725Y027704D01*
X010659Y027387D02*
X010643Y027387D01*
X010594Y027228D02*
X010704Y027228D01*
X010813Y027070D02*
X010460Y027070D01*
X011551Y027070D02*
X013109Y027070D01*
X013267Y027228D02*
X011661Y027228D01*
X011706Y027387D02*
X013426Y027387D01*
X013584Y027545D02*
X011705Y027545D01*
X011640Y027704D02*
X013743Y027704D01*
X012950Y026911D02*
X008082Y026911D01*
X008082Y026752D02*
X012792Y026752D01*
X012633Y026594D02*
X008082Y026594D01*
X008082Y026435D02*
X012474Y026435D01*
X012316Y026277D02*
X011297Y026277D01*
X011461Y026182D02*
X011461Y026182D01*
X011555Y026118D02*
X012157Y026118D01*
X015388Y029131D02*
X016676Y029131D01*
X016518Y029289D02*
X015453Y029289D01*
X015453Y029448D02*
X016359Y029448D01*
X016284Y029606D02*
X015396Y029606D01*
X015418Y029765D02*
X016282Y029765D01*
X016282Y029923D02*
X015453Y029923D01*
X015432Y030082D02*
X016282Y030082D01*
X016282Y030240D02*
X015343Y030240D01*
X015169Y030648D02*
X015015Y030585D01*
X014849Y030585D01*
X014695Y030648D01*
X014577Y030766D01*
X014514Y030920D01*
X014514Y031086D01*
X014577Y031240D01*
X014695Y031358D01*
X014849Y031421D01*
X015015Y031421D01*
X015088Y031391D01*
X015076Y031420D01*
X015076Y031586D01*
X015140Y031740D01*
X015258Y031858D01*
X015411Y031921D01*
X015578Y031921D01*
X015732Y031858D01*
X015849Y031740D01*
X015913Y031586D01*
X015913Y031420D01*
X015849Y031266D01*
X015732Y031148D01*
X015578Y031085D01*
X015411Y031085D01*
X015339Y031115D01*
X015351Y031086D01*
X015351Y030920D01*
X015287Y030766D01*
X015169Y030648D01*
X015237Y030716D02*
X016282Y030716D01*
X016282Y030557D02*
X013601Y030557D01*
X013592Y030399D02*
X016282Y030399D01*
X016326Y030875D02*
X015332Y030875D01*
X015351Y031033D02*
X016459Y031033D01*
X016618Y031192D02*
X015775Y031192D01*
X015884Y031350D02*
X016776Y031350D01*
X016935Y031509D02*
X015913Y031509D01*
X015880Y031667D02*
X017093Y031667D01*
X017252Y031826D02*
X015764Y031826D01*
X015388Y032143D02*
X017569Y032143D01*
X017727Y032301D02*
X015546Y032301D01*
X015705Y032460D02*
X017722Y032460D01*
X017564Y032619D02*
X015863Y032619D01*
X016022Y032777D02*
X017405Y032777D01*
X017246Y032936D02*
X016180Y032936D01*
X016339Y033094D02*
X017088Y033094D01*
X016929Y033253D02*
X016497Y033253D01*
X016656Y033411D02*
X016771Y033411D01*
X016159Y034045D02*
X014919Y034045D01*
X014765Y034109D01*
X014599Y034109D01*
X014445Y034045D01*
X014327Y033928D01*
X014264Y033774D01*
X014264Y033607D01*
X014327Y033454D01*
X014445Y033336D01*
X014599Y033272D01*
X014765Y033272D01*
X014919Y033336D01*
X015037Y033454D01*
X015101Y033607D01*
X015101Y033774D01*
X015037Y033928D01*
X014919Y034045D01*
X015054Y033887D02*
X016000Y033887D01*
X015842Y033728D02*
X015101Y033728D01*
X015085Y033570D02*
X015683Y033570D01*
X015525Y033411D02*
X014995Y033411D01*
X014995Y033094D02*
X015208Y033094D01*
X015366Y033253D02*
X010335Y033253D01*
X010335Y033346D02*
X010255Y033540D01*
X010106Y033688D01*
X009912Y033769D01*
X009702Y033769D01*
X009508Y033688D01*
X009360Y033540D01*
X009279Y033346D01*
X009279Y033136D01*
X009360Y032941D01*
X009508Y032793D01*
X009702Y032713D01*
X009912Y032713D01*
X010106Y032793D01*
X010255Y032941D01*
X010335Y033136D01*
X010335Y033346D01*
X010308Y033411D02*
X014370Y033411D01*
X014279Y033570D02*
X010225Y033570D01*
X010009Y033728D02*
X014264Y033728D01*
X014311Y033887D02*
X010642Y033887D01*
X010799Y034045D02*
X014446Y034045D01*
X014369Y033094D02*
X010318Y033094D01*
X010249Y032936D02*
X011813Y032936D01*
X011855Y032953D02*
X011598Y032846D01*
X011401Y032650D01*
X011295Y032392D01*
X011295Y032114D01*
X011401Y031857D01*
X011598Y031660D01*
X011855Y031553D01*
X012134Y031553D01*
X012391Y031660D01*
X012588Y031857D01*
X012695Y032114D01*
X012695Y032392D01*
X012588Y032650D01*
X012391Y032846D01*
X012134Y032953D01*
X011855Y032953D01*
X012176Y032936D02*
X014279Y032936D01*
X014264Y032777D02*
X012461Y032777D01*
X012601Y032619D02*
X014311Y032619D01*
X014447Y032460D02*
X012667Y032460D01*
X012695Y032301D02*
X014389Y032301D01*
X014287Y032143D02*
X012695Y032143D01*
X012641Y031984D02*
X014264Y031984D01*
X014303Y031826D02*
X012557Y031826D01*
X012399Y031667D02*
X014426Y031667D01*
X014688Y031350D02*
X012788Y031350D01*
X012946Y031192D02*
X014557Y031192D01*
X014514Y031033D02*
X013105Y031033D01*
X013379Y030875D02*
X014532Y030875D01*
X014627Y030716D02*
X013547Y030716D01*
X013511Y030240D02*
X014646Y030240D01*
X015076Y031509D02*
X012605Y031509D01*
X012358Y030875D02*
X011632Y030875D01*
X011416Y030716D02*
X012517Y030716D01*
X011591Y031667D02*
X011483Y031667D01*
X011461Y031682D02*
X011461Y031682D01*
X011432Y031826D02*
X008082Y031826D01*
X008082Y031984D02*
X011348Y031984D01*
X011295Y032143D02*
X008082Y032143D01*
X008082Y032301D02*
X011295Y032301D01*
X011323Y032460D02*
X008082Y032460D01*
X008082Y032619D02*
X011388Y032619D01*
X011529Y032777D02*
X010068Y032777D01*
X009546Y032777D02*
X008082Y032777D01*
X008082Y032936D02*
X009365Y032936D01*
X009296Y033094D02*
X008082Y033094D01*
X008082Y033253D02*
X009279Y033253D01*
X009306Y033411D02*
X008082Y033411D01*
X008082Y033570D02*
X009390Y033570D01*
X009605Y033728D02*
X008082Y033728D01*
X008082Y033887D02*
X010223Y033887D01*
X010065Y034045D02*
X008082Y034045D01*
X008082Y034204D02*
X010014Y034204D01*
X010025Y034363D02*
X008082Y034363D01*
X008082Y034521D02*
X010075Y034521D01*
X009540Y034680D02*
X008082Y034680D01*
X008082Y034838D02*
X009363Y034838D01*
X009295Y034997D02*
X008082Y034997D01*
X008082Y035155D02*
X009279Y035155D01*
X009307Y035314D02*
X008082Y035314D01*
X008082Y035472D02*
X009392Y035472D01*
X010555Y035155D02*
X016345Y035155D01*
X016345Y034997D02*
X010780Y034997D01*
X010850Y034838D02*
X016345Y034838D01*
X016345Y034680D02*
X010851Y034680D01*
X010789Y034521D02*
X016345Y034521D01*
X016345Y034363D02*
X010840Y034363D01*
X010851Y034204D02*
X016317Y034204D01*
X015229Y031984D02*
X017410Y031984D01*
X015226Y031826D02*
X015071Y031826D01*
X015110Y031667D02*
X014938Y031667D01*
X014256Y036106D02*
X013798Y036106D01*
X013851Y036265D02*
X014441Y036265D01*
X014600Y036424D02*
X013840Y036424D01*
X013757Y036582D02*
X014758Y036582D01*
X017145Y036899D02*
X017688Y036899D01*
X017847Y037058D02*
X017145Y037058D01*
X017145Y037216D02*
X018005Y037216D01*
X018218Y037375D02*
X017145Y037375D01*
X018276Y036582D02*
X018284Y036582D01*
X018432Y036191D02*
X018728Y036191D01*
X019238Y035789D02*
X019314Y035789D01*
X019748Y036265D02*
X020249Y036265D01*
X020201Y036106D02*
X019906Y036106D01*
X020065Y035948D02*
X020216Y035948D01*
X020391Y036424D02*
X019589Y036424D01*
X019641Y036372D02*
X019641Y036372D01*
X019864Y035155D02*
X019952Y035155D01*
X020818Y034838D02*
X020889Y034838D01*
X021545Y034363D02*
X023757Y034363D01*
X023724Y034204D02*
X021386Y034204D01*
X021228Y034045D02*
X023746Y034045D01*
X023838Y033887D02*
X023091Y033887D01*
X022474Y033887D02*
X021069Y033887D01*
X020911Y033728D02*
X022359Y033728D01*
X021726Y034521D02*
X023864Y034521D01*
X023633Y033094D02*
X021788Y033094D01*
X021743Y032936D02*
X023475Y032936D01*
X023316Y032777D02*
X021931Y032777D01*
X022006Y032619D02*
X023158Y032619D01*
X022999Y032460D02*
X022016Y032460D01*
X021970Y032301D02*
X022841Y032301D01*
X022682Y032143D02*
X021845Y032143D01*
X021862Y029923D02*
X021166Y029923D01*
X021266Y029765D02*
X021862Y029765D01*
X019345Y027070D02*
X018056Y027070D01*
X017924Y027228D02*
X019141Y027228D01*
X020913Y025643D02*
X021191Y025643D01*
X021077Y025484D02*
X021027Y025484D01*
X021476Y024691D02*
X022612Y024691D01*
X022612Y024533D02*
X021445Y024533D01*
X021333Y024374D02*
X022612Y024374D01*
X022225Y024850D02*
X021879Y024850D01*
X022013Y025008D02*
X022091Y025008D01*
X019583Y023582D02*
X018690Y023582D01*
X018839Y023423D02*
X019462Y023423D01*
X019409Y023264D02*
X018894Y023264D01*
X018893Y023106D02*
X019409Y023106D01*
X019466Y022947D02*
X018834Y022947D01*
X018675Y022789D02*
X019594Y022789D01*
X018432Y023264D02*
X018432Y023264D01*
X018432Y023423D02*
X018432Y023423D01*
X018432Y023582D02*
X018432Y023582D01*
X018174Y023582D02*
X017788Y023582D01*
X017907Y023423D02*
X018025Y023423D01*
X017970Y023264D02*
X017960Y023264D01*
X017960Y023106D02*
X017972Y023106D01*
X018031Y022947D02*
X017903Y022947D01*
X017777Y022789D02*
X018190Y022789D01*
X019979Y018984D02*
X025565Y018984D01*
X025407Y018825D02*
X023077Y018825D01*
X023044Y018858D02*
X022890Y018921D01*
X022724Y018921D01*
X022570Y018858D01*
X022452Y018740D01*
X022389Y018586D01*
X022389Y018420D01*
X022452Y018266D01*
X022570Y018148D01*
X022724Y018085D01*
X022890Y018085D01*
X023044Y018148D01*
X023162Y018266D01*
X023226Y018420D01*
X023226Y018586D01*
X023162Y018740D01*
X023044Y018858D01*
X023192Y018667D02*
X025248Y018667D01*
X025090Y018508D02*
X023226Y018508D01*
X023196Y018350D02*
X024931Y018350D01*
X024773Y018191D02*
X023087Y018191D01*
X023173Y017874D02*
X024456Y017874D01*
X024614Y018033D02*
X020759Y018033D01*
X020648Y018191D02*
X022527Y018191D01*
X022418Y018350D02*
X020293Y018350D01*
X020148Y018508D02*
X022389Y018508D01*
X022422Y018667D02*
X020163Y018667D01*
X020116Y018825D02*
X022538Y018825D01*
X023331Y017715D02*
X024297Y017715D01*
X024138Y017557D02*
X023490Y017557D01*
X023649Y017398D02*
X023980Y017398D01*
X023892Y017240D02*
X023732Y017240D01*
X023732Y017081D02*
X023892Y017081D01*
X023892Y016923D02*
X023732Y016923D01*
X023732Y016764D02*
X023892Y016764D01*
X023892Y016606D02*
X023732Y016606D01*
X023732Y016447D02*
X023892Y016447D01*
X023892Y016289D02*
X023732Y016289D01*
X023732Y016130D02*
X023892Y016130D01*
X023892Y015971D02*
X023732Y015971D01*
X023732Y015813D02*
X023892Y015813D01*
X023892Y015654D02*
X023732Y015654D01*
X023732Y015496D02*
X023892Y015496D01*
X023892Y015337D02*
X023732Y015337D01*
X023732Y015179D02*
X023892Y015179D01*
X023892Y015020D02*
X023732Y015020D01*
X023732Y014862D02*
X023892Y014862D01*
X023892Y014703D02*
X023732Y014703D01*
X023732Y014545D02*
X023892Y014545D01*
X023892Y014386D02*
X023732Y014386D01*
X023732Y014228D02*
X023892Y014228D01*
X023892Y014069D02*
X023732Y014069D01*
X023732Y013910D02*
X023892Y013910D01*
X023892Y013752D02*
X023732Y013752D01*
X023732Y013593D02*
X023892Y013593D01*
X023892Y013435D02*
X023732Y013435D01*
X023732Y013276D02*
X023892Y013276D01*
X023892Y013118D02*
X023732Y013118D01*
X023732Y012959D02*
X023892Y012959D01*
X023892Y012801D02*
X023699Y012801D01*
X023892Y012642D02*
X023496Y012642D01*
X023892Y012484D02*
X022461Y012484D01*
X022305Y012484D02*
X021236Y012484D01*
X021236Y012325D02*
X021697Y012325D01*
X021744Y012166D02*
X021185Y012166D01*
X021116Y012008D02*
X021839Y012008D01*
X022017Y011849D02*
X020958Y011849D01*
X020881Y011691D02*
X023892Y011691D01*
X023892Y011849D02*
X022749Y011849D01*
X022927Y012008D02*
X023892Y012008D01*
X023892Y012166D02*
X023022Y012166D01*
X023069Y012325D02*
X023892Y012325D01*
X023892Y011532D02*
X020906Y011532D01*
X021065Y011374D02*
X023892Y011374D01*
X023892Y011215D02*
X021223Y011215D01*
X021382Y011057D02*
X023892Y011057D01*
X023892Y010898D02*
X021540Y010898D01*
X021699Y010740D02*
X023892Y010740D01*
X023892Y010581D02*
X021807Y010581D01*
X021832Y010422D02*
X023892Y010422D01*
X023892Y010264D02*
X021832Y010264D01*
X021832Y010105D02*
X023892Y010105D01*
X023892Y009947D02*
X021832Y009947D01*
X021832Y009788D02*
X023892Y009788D01*
X023892Y009630D02*
X021832Y009630D01*
X021832Y009471D02*
X023892Y009471D01*
X023892Y009313D02*
X021832Y009313D01*
X021832Y009154D02*
X023890Y009154D01*
X023638Y008996D02*
X021832Y008996D01*
X021832Y008837D02*
X023486Y008837D01*
X023420Y008679D02*
X021832Y008679D01*
X021832Y008520D02*
X023360Y008520D01*
X023360Y008361D02*
X021832Y008361D01*
X021832Y008203D02*
X023360Y008203D01*
X023423Y008044D02*
X022776Y008044D01*
X022966Y007886D02*
X023488Y007886D01*
X023644Y007727D02*
X023066Y007727D01*
X023116Y007569D02*
X023906Y007569D01*
X024522Y007569D02*
X025017Y007569D01*
X024993Y007561D02*
X024918Y007523D01*
X024850Y007473D01*
X024790Y007414D01*
X024741Y007346D01*
X024703Y007271D01*
X024677Y007191D01*
X024664Y007108D01*
X024664Y007084D01*
X025179Y007084D01*
X025179Y007047D01*
X024664Y007047D01*
X024664Y007023D01*
X024677Y006940D01*
X024703Y006860D01*
X024741Y006785D01*
X024790Y006717D01*
X024850Y006658D01*
X024918Y006609D01*
X024993Y006570D01*
X025073Y006544D01*
X025156Y006531D01*
X025179Y006531D01*
X025179Y007047D01*
X025216Y007047D01*
X025216Y006531D01*
X025240Y006531D01*
X025323Y006544D01*
X025403Y006570D01*
X025478Y006609D01*
X025546Y006658D01*
X025605Y006717D01*
X025655Y006785D01*
X025655Y006786D01*
X025678Y006729D01*
X025846Y006562D01*
X026064Y006471D01*
X026300Y006471D01*
X026519Y006562D01*
X026674Y006717D01*
X026830Y006562D01*
X027048Y006471D01*
X027285Y006471D01*
X027503Y006562D01*
X027670Y006729D01*
X027761Y006947D01*
X027761Y007184D01*
X027670Y007402D01*
X027503Y007569D01*
X027285Y007660D01*
X027048Y007660D01*
X026830Y007569D01*
X026674Y007414D01*
X026519Y007569D01*
X026300Y007660D01*
X026064Y007660D01*
X025846Y007569D01*
X025678Y007402D01*
X025655Y007346D01*
X025605Y007414D01*
X025546Y007473D01*
X025478Y007523D01*
X025403Y007561D01*
X025323Y007587D01*
X025240Y007600D01*
X025216Y007600D01*
X025216Y007084D01*
X025179Y007084D01*
X025179Y007600D01*
X025156Y007600D01*
X025073Y007587D01*
X024993Y007561D01*
X025179Y007569D02*
X025216Y007569D01*
X025216Y007410D02*
X025179Y007410D01*
X025179Y007252D02*
X025216Y007252D01*
X025216Y007093D02*
X025179Y007093D01*
X025179Y006935D02*
X025216Y006935D01*
X025216Y006776D02*
X025179Y006776D01*
X025179Y006617D02*
X025216Y006617D01*
X025490Y006617D02*
X025790Y006617D01*
X025659Y006776D02*
X025648Y006776D01*
X025655Y007346D02*
X025655Y007346D01*
X025686Y007410D02*
X025608Y007410D01*
X025378Y007569D02*
X025845Y007569D01*
X026520Y007569D02*
X026829Y007569D01*
X027297Y008203D02*
X025067Y008203D01*
X025067Y008361D02*
X027297Y008361D01*
X027297Y008520D02*
X025067Y008520D01*
X025005Y008044D02*
X027360Y008044D01*
X027425Y007886D02*
X024939Y007886D01*
X024783Y007727D02*
X027581Y007727D01*
X027504Y007569D02*
X027843Y007569D01*
X027662Y007410D02*
X028142Y007410D01*
X028142Y007252D02*
X027733Y007252D01*
X027761Y007093D02*
X028142Y007093D01*
X028142Y006935D02*
X027755Y006935D01*
X027690Y006776D02*
X028142Y006776D01*
X028142Y006617D02*
X027559Y006617D01*
X028142Y006459D02*
X021766Y006459D01*
X021832Y006617D02*
X024906Y006617D01*
X024748Y006776D02*
X022637Y006776D01*
X022656Y006781D02*
X022740Y006816D01*
X022819Y006861D01*
X022891Y006917D01*
X022956Y006981D01*
X023011Y007054D01*
X023057Y007132D01*
X023092Y007217D01*
X023115Y007305D01*
X023123Y007363D01*
X022510Y007363D01*
X022510Y006750D01*
X022568Y006757D01*
X022656Y006781D01*
X022510Y006776D02*
X022355Y006776D01*
X022227Y006776D02*
X021832Y006776D01*
X021832Y006935D02*
X021955Y006935D01*
X022355Y006935D02*
X022510Y006935D01*
X022510Y007093D02*
X022355Y007093D01*
X022355Y007252D02*
X022510Y007252D01*
X022510Y007410D02*
X024788Y007410D01*
X024697Y007252D02*
X023101Y007252D01*
X023034Y007093D02*
X024664Y007093D01*
X024679Y006935D02*
X022909Y006935D01*
X022510Y007569D02*
X022355Y007569D01*
X022355Y007727D02*
X022510Y007727D01*
X022510Y007886D02*
X022355Y007886D01*
X022355Y008044D02*
X022510Y008044D01*
X022088Y008044D02*
X021832Y008044D01*
X021832Y007886D02*
X021898Y007886D01*
X021032Y007886D02*
X020966Y007886D01*
X020956Y007900D02*
X020891Y007964D01*
X020819Y008020D01*
X020740Y008065D01*
X020656Y008100D01*
X020568Y008124D01*
X020510Y008131D01*
X020510Y007518D01*
X020355Y007518D01*
X020355Y008131D01*
X020296Y008124D01*
X020208Y008100D01*
X020124Y008065D01*
X020045Y008020D01*
X019982Y007971D01*
X019982Y008425D01*
X020284Y008726D01*
X020396Y008839D01*
X020448Y008965D01*
X020457Y008986D01*
X020457Y009145D01*
X020457Y010236D01*
X020457Y010395D01*
X020396Y010542D01*
X019582Y011356D01*
X019582Y012416D01*
X019726Y012561D01*
X019726Y012290D01*
X019841Y012013D01*
X020054Y011801D01*
X020081Y011789D01*
X020081Y011312D01*
X020142Y011165D01*
X020255Y011052D01*
X021032Y010275D01*
X021032Y007791D01*
X021011Y007827D01*
X020956Y007900D01*
X021032Y008044D02*
X020776Y008044D01*
X020510Y008044D02*
X020355Y008044D01*
X020355Y007886D02*
X020510Y007886D01*
X020510Y007727D02*
X020355Y007727D01*
X020355Y007569D02*
X020510Y007569D01*
X020510Y007363D02*
X020510Y006750D01*
X020568Y006757D01*
X020656Y006781D01*
X020740Y006816D01*
X020819Y006861D01*
X020891Y006917D01*
X020956Y006981D01*
X021011Y007054D01*
X021032Y007090D01*
X021032Y006856D01*
X020766Y006591D01*
X019982Y006591D01*
X019982Y006910D01*
X020045Y006861D01*
X020124Y006816D01*
X020208Y006781D01*
X020296Y006757D01*
X020355Y006750D01*
X020355Y007363D01*
X020510Y007363D01*
X020510Y007252D02*
X020355Y007252D01*
X020355Y007093D02*
X020510Y007093D01*
X020510Y006935D02*
X020355Y006935D01*
X020355Y006776D02*
X020510Y006776D01*
X020637Y006776D02*
X020952Y006776D01*
X020909Y006935D02*
X021032Y006935D01*
X020793Y006617D02*
X019982Y006617D01*
X019982Y006776D02*
X020227Y006776D01*
X020088Y008044D02*
X019982Y008044D01*
X019982Y008203D02*
X021032Y008203D01*
X021032Y008361D02*
X019982Y008361D01*
X020077Y008520D02*
X021032Y008520D01*
X021032Y008679D02*
X020236Y008679D01*
X020284Y008726D02*
X020284Y008726D01*
X020394Y008837D02*
X021032Y008837D01*
X021032Y008996D02*
X020457Y008996D01*
X020457Y009154D02*
X021032Y009154D01*
X021032Y009313D02*
X020457Y009313D01*
X020457Y009471D02*
X021032Y009471D01*
X021032Y009630D02*
X020457Y009630D01*
X020457Y009788D02*
X021032Y009788D01*
X021032Y009947D02*
X020457Y009947D01*
X020457Y010105D02*
X021032Y010105D01*
X021032Y010264D02*
X020457Y010264D01*
X020446Y010422D02*
X020885Y010422D01*
X020726Y010581D02*
X020357Y010581D01*
X020199Y010740D02*
X020567Y010740D01*
X020409Y010898D02*
X020040Y010898D01*
X019882Y011057D02*
X020250Y011057D01*
X020255Y011052D02*
X020255Y011052D01*
X020121Y011215D02*
X019723Y011215D01*
X019582Y011374D02*
X020081Y011374D01*
X020081Y011532D02*
X019582Y011532D01*
X019582Y011691D02*
X020081Y011691D01*
X020005Y011849D02*
X019582Y011849D01*
X019582Y012008D02*
X019846Y012008D01*
X019778Y012166D02*
X019582Y012166D01*
X019582Y012325D02*
X019726Y012325D01*
X019726Y012484D02*
X019649Y012484D01*
X022305Y012325D02*
X022460Y012325D01*
X022460Y012166D02*
X022305Y012166D01*
X022305Y012008D02*
X022460Y012008D01*
X022460Y011849D02*
X022305Y011849D01*
X021608Y006300D02*
X028142Y006300D01*
X028142Y006142D02*
X021449Y006142D01*
X021291Y005983D02*
X028142Y005983D01*
X028142Y005825D02*
X021094Y005825D01*
X019982Y005666D02*
X028142Y005666D01*
X028142Y005508D02*
X019982Y005508D01*
X026575Y006617D02*
X026774Y006617D01*
X026358Y019777D02*
X021547Y019777D01*
X021644Y019935D02*
X026517Y019935D01*
X026675Y020094D02*
X021663Y020094D01*
X021620Y020252D02*
X026834Y020252D01*
X030072Y024691D02*
X030293Y024691D01*
X031022Y024057D02*
X031062Y024057D01*
X031062Y023899D02*
X031022Y023899D01*
X031022Y023740D02*
X031062Y023740D01*
X031062Y023582D02*
X031022Y023582D01*
X031022Y023423D02*
X031062Y023423D01*
X031062Y023264D02*
X031022Y023264D01*
X031022Y025801D02*
X031062Y025801D01*
X031062Y025960D02*
X031022Y025960D01*
X031022Y026118D02*
X031062Y026118D01*
X031062Y026277D02*
X031022Y026277D01*
X031022Y026435D02*
X031062Y026435D01*
X031062Y026594D02*
X031022Y026594D01*
X031783Y027545D02*
X032180Y027545D01*
X032028Y027704D02*
X031906Y027704D01*
X031960Y027862D02*
X031971Y027862D01*
X031960Y028021D02*
X031971Y028021D01*
X032029Y028179D02*
X031905Y028179D01*
X031781Y028338D02*
X032183Y028338D01*
X032432Y028338D02*
X032432Y028338D01*
X032432Y028179D02*
X032432Y028179D01*
X032432Y028021D02*
X032432Y028021D01*
X032432Y027862D02*
X032432Y027862D01*
X032432Y027704D02*
X032432Y027704D01*
X032432Y027545D02*
X032432Y027545D01*
X027745Y031191D02*
X027798Y031466D01*
X027391Y031544D01*
X027470Y031137D01*
X027745Y031191D01*
X027391Y031544D01*
X025371Y030716D02*
X025002Y030716D01*
X025002Y030557D02*
X025263Y030557D01*
X025182Y030399D02*
X025002Y030399D01*
X025131Y030875D02*
X025226Y030875D01*
X028554Y034521D02*
X029576Y034521D01*
X029436Y034680D02*
X028396Y034680D01*
X028237Y034838D02*
X029389Y034838D01*
X029403Y034997D02*
X028079Y034997D01*
X027920Y035155D02*
X029493Y035155D01*
X031209Y037058D02*
X026018Y037058D01*
X026064Y036106D02*
X025719Y036106D01*
X025877Y035948D02*
X026222Y035948D01*
X026381Y035789D02*
X026036Y035789D01*
X026194Y035631D02*
X026539Y035631D01*
X024552Y040229D02*
X024552Y040229D01*
X024552Y040387D02*
X024552Y040387D01*
X024552Y040546D02*
X024552Y040546D01*
X024552Y040704D02*
X024552Y040704D01*
X024552Y040863D02*
X024552Y040863D01*
X024552Y041021D02*
X024552Y041021D01*
X024324Y041021D02*
X023889Y041021D01*
X024017Y040863D02*
X024158Y040863D01*
X024097Y040704D02*
X024076Y040704D01*
X024076Y040546D02*
X024094Y040546D01*
X024150Y040387D02*
X024023Y040387D01*
X023903Y040229D02*
X024299Y040229D01*
X032292Y034680D02*
X032703Y034680D01*
X032505Y034521D02*
X032445Y034521D01*
X011603Y040070D02*
X010262Y040070D01*
X010430Y040229D02*
X011435Y040229D01*
X011381Y040387D02*
X010483Y040387D01*
X010474Y040546D02*
X011390Y040546D01*
X009870Y040070D02*
X008377Y040070D01*
X008536Y040229D02*
X009702Y040229D01*
X009649Y040387D02*
X008694Y040387D01*
X008853Y040546D02*
X009658Y040546D01*
X008859Y031667D02*
X008082Y031667D01*
X008082Y027862D02*
X008864Y027862D01*
X008725Y027704D02*
X008082Y027704D01*
X008082Y027228D02*
X008704Y027228D01*
X008659Y027336D02*
X008659Y027545D01*
X008813Y027070D02*
X008082Y027070D01*
X008082Y020886D02*
X008162Y020886D01*
X008082Y018825D02*
X008439Y018825D01*
X008280Y018667D02*
X008082Y018667D01*
D20*
X008370Y018191D02*
X007682Y018191D01*
X007682Y025691D01*
X007682Y031191D01*
X007682Y039941D01*
X008745Y041003D01*
X016745Y041003D01*
X016745Y039941D01*
X016745Y039441D02*
X022245Y039441D01*
X022338Y039534D01*
X022557Y039753D01*
X022552Y039758D01*
X022552Y040618D01*
X021495Y034878D02*
X018682Y032066D01*
X019620Y031128D01*
X019620Y030628D01*
X021432Y030628D01*
X019620Y030628D02*
X019620Y029316D01*
X017807Y029128D02*
X019495Y027441D01*
X020432Y027441D01*
X022552Y025320D01*
X022552Y025263D01*
X021245Y020753D02*
X020495Y020753D01*
X019432Y019691D01*
X017057Y019691D01*
X017057Y021316D01*
X017057Y019691D02*
X015870Y018503D01*
X011665Y018503D01*
X011370Y018503D01*
X008682Y018503D01*
X008370Y018191D01*
X007682Y018191D02*
X007682Y014691D01*
X007182Y014191D01*
X007182Y008691D01*
X009682Y006191D01*
X020932Y006191D01*
X021432Y006691D01*
X021432Y010441D01*
X020481Y011391D01*
X020481Y012441D01*
X019182Y012641D02*
X020481Y013941D01*
X019182Y012641D02*
X019182Y011191D01*
X020057Y010316D01*
X020057Y009066D01*
X018682Y007691D01*
X010682Y007691D01*
X010182Y008191D01*
X010182Y009941D01*
X011620Y011378D01*
X012682Y011378D01*
X013807Y011378D01*
X014932Y012503D01*
X014932Y013691D01*
X014245Y018503D02*
X014245Y021878D01*
X011995Y021066D02*
X011995Y018503D01*
X011932Y008441D02*
X011932Y007753D01*
X017245Y029128D02*
X016682Y029691D01*
X016682Y030691D01*
X018338Y032347D01*
X018370Y032378D02*
X018682Y032066D01*
X018370Y032378D02*
X016745Y034003D01*
X016682Y034003D01*
X014682Y032003D01*
X016745Y034003D02*
X016745Y035691D01*
X016745Y037191D01*
X015932Y037191D01*
X014495Y035753D01*
X016745Y035878D02*
X017120Y035878D01*
X016745Y037191D02*
X016745Y039441D01*
X016745Y041003D01*
X017245Y029128D02*
X017807Y029128D01*
D21*
X019620Y031128D02*
X019620Y031128D01*
X018682Y032066D02*
X018682Y032066D01*
X018401Y032347D02*
X018338Y032347D01*
X018370Y032378D01*
X016745Y035691D02*
X016745Y035878D01*
X009503Y031105D02*
X009292Y031221D01*
X009177Y031431D01*
X008792Y031221D01*
X009177Y031010D01*
X009292Y031221D01*
X009082Y031105D01*
X009292Y030721D01*
X009503Y031105D01*
X009292Y031221D02*
X008792Y031221D01*
X007712Y031221D01*
X007682Y031191D01*
X009292Y031221D02*
X009292Y030721D01*
X009292Y029161D01*
X009503Y028776D01*
X009292Y028661D01*
X009082Y028776D01*
X009292Y029161D01*
X009292Y028661D01*
X009177Y025931D02*
X008792Y025721D01*
X009177Y025510D01*
X009292Y025721D01*
X009177Y025931D01*
X009292Y025721D02*
X009082Y025605D01*
X009292Y025221D01*
X009503Y025605D01*
X009292Y025721D01*
X008792Y025721D01*
X007712Y025721D01*
X007682Y025691D01*
X009292Y025721D02*
X009292Y025221D01*
X009292Y023661D01*
X009503Y023276D01*
X009292Y023161D01*
X009082Y023276D01*
X009292Y023661D01*
X009292Y023161D01*
X011381Y018560D02*
X011370Y018503D01*
X011381Y018446D01*
X011665Y018503D01*
X011381Y018560D01*
X011665Y018503D02*
X011995Y018503D01*
X014245Y018503D02*
X015870Y018503D01*
X010182Y008191D02*
X010620Y007753D01*
X011932Y007753D01*
D22*
X024182Y009191D02*
X024182Y017191D01*
X028182Y021191D01*
X031682Y021191D01*
X032682Y022191D01*
X032682Y022941D01*
X035202Y022941D01*
X035202Y006282D01*
X034331Y005411D01*
X028432Y005411D01*
X028432Y007633D01*
X028594Y007701D01*
X028815Y007921D01*
X028934Y008209D01*
X028934Y008521D01*
X028815Y008809D01*
X028594Y009029D01*
X028307Y009148D01*
X027995Y009148D01*
X027707Y009029D01*
X027619Y008941D01*
X024746Y008941D01*
X024657Y009029D01*
X024370Y009148D01*
X024225Y009148D01*
X024182Y009191D01*
X024182Y009231D02*
X030562Y009231D01*
X030504Y009289D02*
X030646Y009147D01*
X030832Y009070D01*
X031033Y009070D01*
X031218Y009147D01*
X031360Y009289D01*
X031437Y009474D01*
X031437Y009675D01*
X031360Y009860D01*
X031218Y010002D01*
X031033Y010079D01*
X030832Y010079D01*
X030646Y010002D01*
X030504Y009860D01*
X030428Y009675D01*
X030428Y009474D01*
X030504Y009289D01*
X030487Y009329D02*
X024182Y009329D01*
X024182Y009428D02*
X030447Y009428D01*
X030428Y009526D02*
X024182Y009526D01*
X024182Y009625D02*
X030428Y009625D01*
X030448Y009724D02*
X024182Y009724D01*
X024182Y009822D02*
X030489Y009822D01*
X030565Y009921D02*
X024182Y009921D01*
X024182Y010019D02*
X030687Y010019D01*
X031177Y010019D02*
X035202Y010019D01*
X035202Y009921D02*
X031300Y009921D01*
X031376Y009822D02*
X035202Y009822D01*
X035202Y009724D02*
X031417Y009724D01*
X031437Y009625D02*
X035202Y009625D01*
X035202Y009526D02*
X031437Y009526D01*
X031418Y009428D02*
X035202Y009428D01*
X035202Y009329D02*
X031377Y009329D01*
X031302Y009231D02*
X035202Y009231D01*
X035202Y009132D02*
X031184Y009132D01*
X030681Y009132D02*
X028345Y009132D01*
X028583Y009034D02*
X035202Y009034D01*
X035202Y008935D02*
X028688Y008935D01*
X028787Y008837D02*
X035202Y008837D01*
X035202Y008738D02*
X028844Y008738D01*
X028885Y008640D02*
X035202Y008640D01*
X035202Y008541D02*
X028926Y008541D01*
X028934Y008442D02*
X035202Y008442D01*
X035202Y008344D02*
X028934Y008344D01*
X028934Y008245D02*
X035202Y008245D01*
X035202Y008147D02*
X028908Y008147D01*
X028868Y008048D02*
X035202Y008048D01*
X035202Y007950D02*
X028827Y007950D01*
X028745Y007851D02*
X035202Y007851D01*
X035202Y007753D02*
X032589Y007753D01*
X032630Y007736D02*
X032501Y007789D01*
X032363Y007789D01*
X032235Y007736D01*
X032137Y007638D01*
X032084Y007510D01*
X032084Y007371D01*
X032137Y007243D01*
X032235Y007145D01*
X032363Y007092D01*
X032501Y007092D01*
X032630Y007145D01*
X032728Y007243D01*
X032781Y007371D01*
X032781Y007510D01*
X032728Y007638D01*
X032630Y007736D01*
X032711Y007654D02*
X035202Y007654D01*
X035202Y007556D02*
X032762Y007556D01*
X032781Y007457D02*
X035202Y007457D01*
X035202Y007359D02*
X032775Y007359D01*
X032734Y007260D02*
X035202Y007260D01*
X035202Y007161D02*
X032646Y007161D01*
X032219Y007161D02*
X031303Y007161D01*
X031360Y007104D02*
X031218Y007246D01*
X031033Y007323D01*
X030832Y007323D01*
X030646Y007246D01*
X030504Y007104D01*
X030428Y006919D01*
X030428Y006718D01*
X030504Y006533D01*
X030646Y006391D01*
X030832Y006314D01*
X031033Y006314D01*
X031218Y006391D01*
X031360Y006533D01*
X031437Y006718D01*
X031437Y006919D01*
X031360Y007104D01*
X031377Y007063D02*
X035202Y007063D01*
X035202Y006964D02*
X031418Y006964D01*
X031437Y006866D02*
X035202Y006866D01*
X035202Y006767D02*
X031437Y006767D01*
X031416Y006669D02*
X035202Y006669D01*
X035202Y006570D02*
X031376Y006570D01*
X031299Y006472D02*
X035202Y006472D01*
X035202Y006373D02*
X031176Y006373D01*
X030689Y006373D02*
X028432Y006373D01*
X028432Y006275D02*
X035195Y006275D01*
X035097Y006176D02*
X028432Y006176D01*
X028432Y006077D02*
X034998Y006077D01*
X034900Y005979D02*
X028432Y005979D01*
X028432Y005880D02*
X034801Y005880D01*
X034703Y005782D02*
X028432Y005782D01*
X028432Y005683D02*
X034604Y005683D01*
X034505Y005585D02*
X028432Y005585D01*
X028432Y005486D02*
X034407Y005486D01*
X032130Y007260D02*
X031185Y007260D01*
X030679Y007260D02*
X028432Y007260D01*
X028432Y007359D02*
X032089Y007359D01*
X032084Y007457D02*
X028432Y007457D01*
X028432Y007556D02*
X032103Y007556D01*
X032153Y007654D02*
X028482Y007654D01*
X028646Y007753D02*
X032275Y007753D01*
X030561Y007161D02*
X028432Y007161D01*
X028432Y007063D02*
X030487Y007063D01*
X030446Y006964D02*
X028432Y006964D01*
X028432Y006866D02*
X030428Y006866D01*
X030428Y006767D02*
X028432Y006767D01*
X028432Y006669D02*
X030448Y006669D01*
X030489Y006570D02*
X028432Y006570D01*
X028432Y006472D02*
X030565Y006472D01*
X027957Y009132D02*
X024408Y009132D01*
X024646Y009034D02*
X027719Y009034D01*
X024182Y010118D02*
X035202Y010118D01*
X035202Y010216D02*
X024182Y010216D01*
X024182Y010315D02*
X035202Y010315D01*
X035202Y010413D02*
X024182Y010413D01*
X024182Y010512D02*
X035202Y010512D01*
X035202Y010610D02*
X024182Y010610D01*
X024182Y010709D02*
X035202Y010709D01*
X035202Y010808D02*
X024182Y010808D01*
X024182Y010906D02*
X035202Y010906D01*
X035202Y011005D02*
X024182Y011005D01*
X024182Y011103D02*
X035202Y011103D01*
X035202Y011202D02*
X024182Y011202D01*
X024182Y011300D02*
X035202Y011300D01*
X035202Y011399D02*
X024182Y011399D01*
X024182Y011497D02*
X035202Y011497D01*
X035202Y011596D02*
X024182Y011596D01*
X024182Y011694D02*
X035202Y011694D01*
X035202Y011793D02*
X024182Y011793D01*
X024182Y011891D02*
X035202Y011891D01*
X035202Y011990D02*
X024182Y011990D01*
X024182Y012089D02*
X035202Y012089D01*
X035202Y012187D02*
X024182Y012187D01*
X024182Y012286D02*
X035202Y012286D01*
X035202Y012384D02*
X024182Y012384D01*
X024182Y012483D02*
X035202Y012483D01*
X035202Y012581D02*
X024182Y012581D01*
X024182Y012680D02*
X035202Y012680D01*
X035202Y012778D02*
X024182Y012778D01*
X024182Y012877D02*
X035202Y012877D01*
X035202Y012975D02*
X024182Y012975D01*
X024182Y013074D02*
X035202Y013074D01*
X035202Y013173D02*
X024182Y013173D01*
X024182Y013271D02*
X035202Y013271D01*
X035202Y013370D02*
X024182Y013370D01*
X024182Y013468D02*
X035202Y013468D01*
X035202Y013567D02*
X024182Y013567D01*
X024182Y013665D02*
X035202Y013665D01*
X035202Y013764D02*
X024182Y013764D01*
X024182Y013862D02*
X035202Y013862D01*
X035202Y013961D02*
X024182Y013961D01*
X024182Y014059D02*
X035202Y014059D01*
X035202Y014158D02*
X024182Y014158D01*
X024182Y014257D02*
X035202Y014257D01*
X035202Y014355D02*
X024182Y014355D01*
X024182Y014454D02*
X035202Y014454D01*
X035202Y014552D02*
X024182Y014552D01*
X024182Y014651D02*
X035202Y014651D01*
X035202Y014749D02*
X024182Y014749D01*
X024182Y014848D02*
X035202Y014848D01*
X035202Y014946D02*
X024182Y014946D01*
X024182Y015045D02*
X035202Y015045D01*
X035202Y015143D02*
X024182Y015143D01*
X024182Y015242D02*
X035202Y015242D01*
X035202Y015341D02*
X024182Y015341D01*
X024182Y015439D02*
X035202Y015439D01*
X035202Y015538D02*
X024182Y015538D01*
X024182Y015636D02*
X035202Y015636D01*
X035202Y015735D02*
X024182Y015735D01*
X024182Y015833D02*
X035202Y015833D01*
X035202Y015932D02*
X024182Y015932D01*
X024182Y016030D02*
X035202Y016030D01*
X035202Y016129D02*
X024182Y016129D01*
X024182Y016227D02*
X035202Y016227D01*
X035202Y016326D02*
X024182Y016326D01*
X024182Y016424D02*
X029502Y016424D01*
X029550Y016405D02*
X029689Y016405D01*
X029817Y016458D01*
X029915Y016556D01*
X029968Y016684D01*
X029968Y016822D01*
X029915Y016950D01*
X029817Y017048D01*
X029689Y017101D01*
X029550Y017101D01*
X029422Y017048D01*
X029324Y016950D01*
X029271Y016822D01*
X029271Y016684D01*
X029324Y016556D01*
X029422Y016458D01*
X029550Y016405D01*
X029737Y016424D02*
X035202Y016424D01*
X035202Y016523D02*
X029882Y016523D01*
X029942Y016622D02*
X035202Y016622D01*
X035202Y016720D02*
X029968Y016720D01*
X029968Y016819D02*
X035202Y016819D01*
X035202Y016917D02*
X029929Y016917D01*
X029850Y017016D02*
X035202Y017016D01*
X035202Y017114D02*
X024182Y017114D01*
X024182Y017016D02*
X029390Y017016D01*
X029311Y016917D02*
X024182Y016917D01*
X024182Y016819D02*
X029271Y016819D01*
X029271Y016720D02*
X024182Y016720D01*
X024182Y016622D02*
X029297Y016622D01*
X029357Y016523D02*
X024182Y016523D01*
X024204Y017213D02*
X031480Y017213D01*
X031485Y017208D02*
X031613Y017155D01*
X031752Y017155D01*
X031880Y017208D01*
X031978Y017306D01*
X032031Y017434D01*
X032031Y017572D01*
X031978Y017700D01*
X031880Y017798D01*
X031752Y017851D01*
X031613Y017851D01*
X031485Y017798D01*
X031387Y017700D01*
X031334Y017572D01*
X031334Y017434D01*
X031387Y017306D01*
X031485Y017208D01*
X031384Y017311D02*
X024303Y017311D01*
X024402Y017410D02*
X031344Y017410D01*
X031334Y017508D02*
X024500Y017508D01*
X024599Y017607D02*
X031348Y017607D01*
X031392Y017706D02*
X024697Y017706D01*
X024796Y017804D02*
X031499Y017804D01*
X031866Y017804D02*
X035202Y017804D01*
X035202Y017706D02*
X031972Y017706D01*
X032016Y017607D02*
X035202Y017607D01*
X035202Y017508D02*
X032031Y017508D01*
X032021Y017410D02*
X035202Y017410D01*
X035202Y017311D02*
X031980Y017311D01*
X031885Y017213D02*
X035202Y017213D01*
X035202Y017903D02*
X024894Y017903D01*
X024993Y018001D02*
X035202Y018001D01*
X035202Y018100D02*
X025091Y018100D01*
X025190Y018198D02*
X035202Y018198D01*
X035202Y018297D02*
X025288Y018297D01*
X025387Y018395D02*
X035202Y018395D01*
X035202Y018494D02*
X025486Y018494D01*
X025584Y018592D02*
X035202Y018592D01*
X035202Y018691D02*
X025683Y018691D01*
X025781Y018790D02*
X035202Y018790D01*
X035202Y018888D02*
X025880Y018888D01*
X025978Y018987D02*
X035202Y018987D01*
X035202Y019085D02*
X026077Y019085D01*
X026175Y019184D02*
X035202Y019184D01*
X035202Y019282D02*
X026274Y019282D01*
X026372Y019381D02*
X035202Y019381D01*
X035202Y019479D02*
X026471Y019479D01*
X026570Y019578D02*
X035202Y019578D01*
X035202Y019676D02*
X026668Y019676D01*
X026767Y019775D02*
X035202Y019775D01*
X035202Y019874D02*
X026865Y019874D01*
X026964Y019972D02*
X035202Y019972D01*
X035202Y020071D02*
X027062Y020071D01*
X027161Y020169D02*
X035202Y020169D01*
X035202Y020268D02*
X027259Y020268D01*
X027358Y020366D02*
X035202Y020366D01*
X035202Y020465D02*
X027456Y020465D01*
X027555Y020563D02*
X035202Y020563D01*
X035202Y020662D02*
X027654Y020662D01*
X027752Y020760D02*
X035202Y020760D01*
X035202Y020859D02*
X027851Y020859D01*
X027949Y020957D02*
X035202Y020957D01*
X035202Y021056D02*
X028048Y021056D01*
X028146Y021155D02*
X035202Y021155D01*
X035202Y021253D02*
X031745Y021253D01*
X031843Y021352D02*
X035202Y021352D01*
X035202Y021450D02*
X031942Y021450D01*
X032040Y021549D02*
X035202Y021549D01*
X035202Y021647D02*
X032139Y021647D01*
X032237Y021746D02*
X035202Y021746D01*
X035202Y021844D02*
X032336Y021844D01*
X032435Y021943D02*
X035202Y021943D01*
X035202Y022041D02*
X032533Y022041D01*
X032632Y022140D02*
X035202Y022140D01*
X035202Y022239D02*
X033973Y022239D01*
X033942Y022208D02*
X034040Y022306D01*
X034093Y022434D01*
X034093Y022572D01*
X034040Y022700D01*
X033942Y022798D01*
X033814Y022851D01*
X033675Y022851D01*
X033547Y022798D01*
X033449Y022700D01*
X033396Y022572D01*
X033396Y022434D01*
X033449Y022306D01*
X033547Y022208D01*
X033675Y022155D01*
X033814Y022155D01*
X033942Y022208D01*
X034053Y022337D02*
X035202Y022337D01*
X035202Y022436D02*
X034093Y022436D01*
X034093Y022534D02*
X035202Y022534D01*
X035202Y022633D02*
X034068Y022633D01*
X034009Y022731D02*
X035202Y022731D01*
X035202Y022830D02*
X033866Y022830D01*
X033623Y022830D02*
X032682Y022830D01*
X032682Y022928D02*
X035202Y022928D01*
X033480Y022731D02*
X032682Y022731D01*
X032682Y022633D02*
X033421Y022633D01*
X033396Y022534D02*
X032682Y022534D01*
X032682Y022436D02*
X033396Y022436D01*
X033436Y022337D02*
X032682Y022337D01*
X032682Y022239D02*
X033516Y022239D01*
D23*
X006952Y008383D02*
X006952Y006302D01*
X007794Y005461D01*
X019682Y005461D01*
X019682Y005811D01*
X009607Y005811D01*
X009467Y005868D01*
X009360Y005975D01*
X006967Y008368D01*
X006967Y008368D01*
X006952Y008383D01*
X006952Y008273D02*
X007063Y008273D01*
X006952Y008154D02*
X007181Y008154D01*
X007300Y008036D02*
X006952Y008036D01*
X006952Y007917D02*
X007418Y007917D01*
X007537Y007799D02*
X006952Y007799D01*
X006952Y007680D02*
X007655Y007680D01*
X007774Y007561D02*
X006952Y007561D01*
X006952Y007443D02*
X007892Y007443D01*
X008011Y007324D02*
X006952Y007324D01*
X006952Y007206D02*
X008130Y007206D01*
X008248Y007087D02*
X006952Y007087D01*
X006952Y006969D02*
X008367Y006969D01*
X008485Y006850D02*
X006952Y006850D01*
X006952Y006732D02*
X008604Y006732D01*
X008722Y006613D02*
X006952Y006613D01*
X006952Y006495D02*
X008841Y006495D01*
X008959Y006376D02*
X006952Y006376D01*
X006997Y006257D02*
X009078Y006257D01*
X009196Y006139D02*
X007116Y006139D01*
X007234Y006020D02*
X009315Y006020D01*
X009434Y005902D02*
X007353Y005902D01*
X007471Y005783D02*
X019682Y005783D01*
X019682Y005665D02*
X007590Y005665D01*
X007708Y005546D02*
X019682Y005546D01*
X019682Y006571D02*
X009840Y006571D01*
X007562Y008848D01*
X007562Y014033D01*
X007720Y014191D01*
X010422Y014191D01*
X010478Y014167D01*
X010636Y014167D01*
X010693Y014191D01*
X011745Y014191D01*
X011745Y015191D01*
X014307Y015191D01*
X014307Y016941D01*
X017245Y016941D01*
X017245Y017691D01*
X020016Y017691D01*
X020032Y017652D01*
X020090Y017594D01*
X020034Y017457D01*
X020034Y017299D01*
X020094Y017152D01*
X020206Y017040D01*
X020353Y016980D01*
X020511Y016980D01*
X020658Y017040D01*
X020770Y017152D01*
X020831Y017299D01*
X020831Y017457D01*
X020770Y017604D01*
X020711Y017662D01*
X020723Y017691D01*
X022932Y017691D01*
X023432Y017191D01*
X023432Y015826D01*
X023409Y015770D01*
X023409Y015611D01*
X023432Y015555D01*
X023432Y013826D01*
X023409Y013770D01*
X023409Y013611D01*
X023432Y013555D01*
X023432Y012941D01*
X022922Y012941D01*
X022799Y013064D01*
X022529Y013175D01*
X022237Y013175D01*
X021967Y013064D01*
X021844Y012941D01*
X021021Y012941D01*
X020898Y013064D01*
X020628Y013175D01*
X020335Y013175D01*
X020196Y013118D01*
X020299Y013221D01*
X020335Y013206D01*
X020628Y013206D01*
X020898Y013317D01*
X021104Y013524D01*
X021216Y013794D01*
X021216Y014087D01*
X021104Y014357D01*
X020951Y014510D01*
X020951Y014871D01*
X021104Y015024D01*
X021216Y015294D01*
X021216Y015587D01*
X021104Y015857D01*
X020898Y016064D01*
X020628Y016175D01*
X020335Y016175D01*
X020065Y016064D01*
X019858Y015857D01*
X019746Y015587D01*
X019746Y015294D01*
X019858Y015024D01*
X020011Y014871D01*
X020011Y014510D01*
X019858Y014357D01*
X019746Y014087D01*
X019746Y013794D01*
X019762Y013758D01*
X018967Y012963D01*
X018860Y012857D01*
X018802Y012717D01*
X018802Y011115D01*
X018860Y010975D01*
X018967Y010868D01*
X019677Y010158D01*
X019677Y009223D01*
X018525Y008071D01*
X017388Y008071D01*
X017427Y008110D01*
X017516Y008324D01*
X017516Y008557D01*
X017427Y008771D01*
X017263Y008936D01*
X017122Y008994D01*
X017186Y009027D01*
X017247Y009071D01*
X017301Y009125D01*
X017346Y009187D01*
X017381Y009255D01*
X017404Y009327D01*
X017416Y009402D01*
X017416Y009410D01*
X016962Y009410D01*
X016962Y009471D01*
X016902Y009471D01*
X016902Y009925D01*
X016894Y009925D01*
X016819Y009913D01*
X016746Y009889D01*
X016679Y009854D01*
X016617Y009810D01*
X016563Y009756D01*
X016518Y009694D01*
X016484Y009626D01*
X016466Y009573D01*
X016393Y009749D01*
X016240Y009902D01*
X016040Y009985D01*
X015824Y009985D01*
X015624Y009902D01*
X015471Y009749D01*
X015398Y009573D01*
X015381Y009626D01*
X015346Y009694D01*
X015301Y009756D01*
X015247Y009810D01*
X015186Y009854D01*
X015118Y009889D01*
X015046Y009913D01*
X014970Y009925D01*
X014962Y009925D01*
X014962Y009471D01*
X014902Y009471D01*
X014902Y009925D01*
X014894Y009925D01*
X014819Y009913D01*
X014746Y009889D01*
X014679Y009854D01*
X014617Y009810D01*
X014563Y009756D01*
X014518Y009694D01*
X014484Y009626D01*
X014466Y009573D01*
X014393Y009749D01*
X014240Y009902D01*
X014040Y009985D01*
X013824Y009985D01*
X013624Y009902D01*
X013471Y009749D01*
X013398Y009573D01*
X013381Y009626D01*
X013346Y009694D01*
X013301Y009756D01*
X013247Y009810D01*
X013186Y009854D01*
X013118Y009889D01*
X013046Y009913D01*
X012970Y009925D01*
X012962Y009925D01*
X012962Y009471D01*
X012902Y009471D01*
X012902Y009925D01*
X012894Y009925D01*
X012819Y009913D01*
X012746Y009889D01*
X012679Y009854D01*
X012617Y009810D01*
X012563Y009756D01*
X012518Y009694D01*
X012484Y009626D01*
X012460Y009554D01*
X012448Y009479D01*
X012448Y009471D01*
X012902Y009471D01*
X012902Y009410D01*
X012448Y009410D01*
X012448Y009402D01*
X012460Y009327D01*
X012484Y009255D01*
X012518Y009187D01*
X012563Y009125D01*
X012617Y009071D01*
X012679Y009027D01*
X012746Y008992D01*
X012800Y008975D01*
X012624Y008902D01*
X012471Y008749D01*
X012432Y008655D01*
X012393Y008749D01*
X012240Y008902D01*
X012064Y008975D01*
X012118Y008992D01*
X012186Y009027D01*
X012247Y009071D01*
X012301Y009125D01*
X012346Y009187D01*
X012381Y009255D01*
X012404Y009327D01*
X012416Y009402D01*
X012416Y009410D01*
X011962Y009410D01*
X011962Y009471D01*
X011902Y009471D01*
X011902Y009925D01*
X011894Y009925D01*
X011819Y009913D01*
X011746Y009889D01*
X011679Y009854D01*
X011617Y009810D01*
X011563Y009756D01*
X011518Y009694D01*
X011484Y009626D01*
X011466Y009573D01*
X011393Y009749D01*
X011240Y009902D01*
X011040Y009985D01*
X010824Y009985D01*
X010721Y009942D01*
X011777Y010998D01*
X012558Y010998D01*
X012603Y010980D01*
X012761Y010980D01*
X012806Y010998D01*
X013684Y010998D01*
X013728Y010980D01*
X013886Y010980D01*
X014033Y011040D01*
X014145Y011152D01*
X014163Y011197D01*
X015254Y012288D01*
X015312Y012427D01*
X015312Y012579D01*
X015312Y013567D01*
X015331Y013611D01*
X015331Y013770D01*
X015270Y013916D01*
X015158Y014028D01*
X015011Y014089D01*
X014853Y014089D01*
X014706Y014028D01*
X014594Y013916D01*
X014534Y013770D01*
X014534Y013611D01*
X014552Y013567D01*
X014552Y012660D01*
X013650Y011758D01*
X012806Y011758D01*
X012761Y011776D01*
X012603Y011776D01*
X012558Y011758D01*
X011695Y011758D01*
X011544Y011758D01*
X011404Y011700D01*
X009860Y010156D01*
X009802Y010016D01*
X009802Y009865D01*
X009802Y008266D01*
X009802Y008115D01*
X009860Y007975D01*
X010360Y007475D01*
X010467Y007368D01*
X010607Y007311D01*
X018607Y007311D01*
X018758Y007311D01*
X018897Y007368D01*
X018920Y007391D01*
X019004Y007475D01*
X019682Y008153D01*
X019682Y006571D01*
X019682Y006613D02*
X009797Y006613D01*
X009679Y006732D02*
X019682Y006732D01*
X019682Y006850D02*
X009560Y006850D01*
X009441Y006969D02*
X019682Y006969D01*
X019682Y007087D02*
X009323Y007087D01*
X009204Y007206D02*
X019682Y007206D01*
X019682Y007324D02*
X018791Y007324D01*
X018972Y007443D02*
X019682Y007443D01*
X019682Y007561D02*
X019090Y007561D01*
X019209Y007680D02*
X019682Y007680D01*
X019682Y007799D02*
X019328Y007799D01*
X019446Y007917D02*
X019682Y007917D01*
X019682Y008036D02*
X019565Y008036D01*
X019083Y008628D02*
X017487Y008628D01*
X017516Y008510D02*
X018964Y008510D01*
X018845Y008391D02*
X017516Y008391D01*
X017495Y008273D02*
X018727Y008273D01*
X018608Y008154D02*
X017446Y008154D01*
X017437Y008747D02*
X019201Y008747D01*
X019320Y008865D02*
X017333Y008865D01*
X017146Y008984D02*
X018707Y008984D01*
X018644Y009010D02*
X018831Y008933D01*
X019033Y008933D01*
X019220Y009010D01*
X019363Y009153D01*
X019440Y009339D01*
X019440Y009542D01*
X019363Y009728D01*
X019220Y009871D01*
X019033Y009949D01*
X018831Y009949D01*
X018644Y009871D01*
X018502Y009728D01*
X018424Y009542D01*
X018424Y009339D01*
X018502Y009153D01*
X018644Y009010D01*
X018552Y009102D02*
X018228Y009102D01*
X018224Y009099D02*
X018274Y009149D01*
X018315Y009206D01*
X018347Y009269D01*
X018369Y009336D01*
X018380Y009405D01*
X018380Y009420D01*
X017952Y009420D01*
X017952Y008993D01*
X017967Y008993D01*
X018037Y009004D01*
X018104Y009025D01*
X018167Y009057D01*
X018224Y009099D01*
X018323Y009221D02*
X018473Y009221D01*
X018424Y009340D02*
X018370Y009340D01*
X018380Y009461D02*
X018380Y009476D01*
X018369Y009545D01*
X018347Y009613D01*
X018315Y009675D01*
X018274Y009732D01*
X018224Y009782D01*
X018167Y009824D01*
X018104Y009856D01*
X018037Y009877D01*
X017967Y009889D01*
X017952Y009889D01*
X017952Y009461D01*
X017912Y009461D01*
X017912Y009889D01*
X017897Y009889D01*
X017827Y009877D01*
X017760Y009856D01*
X017697Y009824D01*
X017640Y009782D01*
X017590Y009732D01*
X017549Y009675D01*
X017517Y009613D01*
X017495Y009545D01*
X017484Y009476D01*
X017484Y009461D01*
X017912Y009461D01*
X017912Y009420D01*
X017952Y009420D01*
X017952Y009461D01*
X018380Y009461D01*
X018424Y009458D02*
X017952Y009458D01*
X017912Y009458D02*
X016962Y009458D01*
X016962Y009471D02*
X017416Y009471D01*
X017416Y009479D01*
X017404Y009554D01*
X017381Y009626D01*
X017346Y009694D01*
X017301Y009756D01*
X017247Y009810D01*
X017186Y009854D01*
X017118Y009889D01*
X017046Y009913D01*
X016970Y009925D01*
X016962Y009925D01*
X016962Y009471D01*
X016962Y009577D02*
X016902Y009577D01*
X016902Y009695D02*
X016962Y009695D01*
X016962Y009814D02*
X016902Y009814D01*
X016622Y009814D02*
X016328Y009814D01*
X016416Y009695D02*
X016519Y009695D01*
X016468Y009577D02*
X016465Y009577D01*
X016167Y009932D02*
X018792Y009932D01*
X018587Y009814D02*
X018181Y009814D01*
X018301Y009695D02*
X018488Y009695D01*
X018439Y009577D02*
X018359Y009577D01*
X017952Y009577D02*
X017912Y009577D01*
X017912Y009695D02*
X017952Y009695D01*
X017952Y009814D02*
X017912Y009814D01*
X017684Y009814D02*
X017242Y009814D01*
X017345Y009695D02*
X017564Y009695D01*
X017505Y009577D02*
X017397Y009577D01*
X017484Y009420D02*
X017484Y009405D01*
X017495Y009336D01*
X017517Y009269D01*
X017549Y009206D01*
X017590Y009149D01*
X017640Y009099D01*
X017697Y009057D01*
X017760Y009025D01*
X017827Y009004D01*
X017897Y008993D01*
X017912Y008993D01*
X017912Y009420D01*
X017484Y009420D01*
X017495Y009340D02*
X017406Y009340D01*
X017364Y009221D02*
X017541Y009221D01*
X017637Y009102D02*
X017279Y009102D01*
X017912Y009102D02*
X017952Y009102D01*
X017952Y009221D02*
X017912Y009221D01*
X017912Y009340D02*
X017952Y009340D01*
X019157Y008984D02*
X019438Y008984D01*
X019557Y009102D02*
X019313Y009102D01*
X019391Y009221D02*
X019675Y009221D01*
X019677Y009340D02*
X019440Y009340D01*
X019440Y009458D02*
X019677Y009458D01*
X019677Y009577D02*
X019426Y009577D01*
X019377Y009695D02*
X019677Y009695D01*
X019677Y009814D02*
X019277Y009814D01*
X019072Y009932D02*
X019677Y009932D01*
X019677Y010051D02*
X010830Y010051D01*
X010948Y010169D02*
X019666Y010169D01*
X019547Y010288D02*
X011067Y010288D01*
X011185Y010406D02*
X019429Y010406D01*
X019310Y010525D02*
X011304Y010525D01*
X011423Y010644D02*
X019192Y010644D01*
X019073Y010762D02*
X011541Y010762D01*
X011660Y010881D02*
X018955Y010881D01*
X018850Y010999D02*
X013934Y010999D01*
X014110Y011118D02*
X018802Y011118D01*
X018802Y011236D02*
X014203Y011236D01*
X014321Y011355D02*
X018802Y011355D01*
X018802Y011473D02*
X014440Y011473D01*
X014558Y011592D02*
X018802Y011592D01*
X018802Y011710D02*
X014677Y011710D01*
X014796Y011829D02*
X018802Y011829D01*
X018802Y011948D02*
X014914Y011948D01*
X015033Y012066D02*
X018802Y012066D01*
X018802Y012185D02*
X015151Y012185D01*
X015261Y012303D02*
X018802Y012303D01*
X018802Y012422D02*
X015310Y012422D01*
X015312Y012540D02*
X018802Y012540D01*
X018802Y012659D02*
X015312Y012659D01*
X015312Y012777D02*
X018827Y012777D01*
X018899Y012896D02*
X015312Y012896D01*
X015312Y013014D02*
X019018Y013014D01*
X018967Y012963D02*
X018967Y012963D01*
X019136Y013133D02*
X015312Y013133D01*
X015312Y013251D02*
X019255Y013251D01*
X019374Y013370D02*
X015312Y013370D01*
X015312Y013489D02*
X019492Y013489D01*
X019611Y013607D02*
X015329Y013607D01*
X015331Y013726D02*
X019729Y013726D01*
X019746Y013844D02*
X015300Y013844D01*
X015223Y013963D02*
X019746Y013963D01*
X019746Y014081D02*
X015030Y014081D01*
X014978Y014230D02*
X015136Y014230D01*
X015283Y014290D01*
X015395Y014402D01*
X015456Y014549D01*
X015456Y014707D01*
X015395Y014854D01*
X015283Y014966D01*
X015136Y015026D01*
X014978Y015026D01*
X014831Y014966D01*
X014719Y014854D01*
X014659Y014707D01*
X014659Y014549D01*
X014719Y014402D01*
X014831Y014290D01*
X014978Y014230D01*
X014803Y014318D02*
X014498Y014318D01*
X014520Y014340D02*
X014581Y014486D01*
X014581Y014645D01*
X014520Y014791D01*
X014408Y014903D01*
X014261Y014964D01*
X014103Y014964D01*
X013956Y014903D01*
X013844Y014791D01*
X013784Y014645D01*
X013784Y014486D01*
X013844Y014340D01*
X013956Y014228D01*
X014103Y014167D01*
X014261Y014167D01*
X014408Y014228D01*
X014520Y014340D01*
X014560Y014437D02*
X014705Y014437D01*
X014659Y014555D02*
X014581Y014555D01*
X014569Y014674D02*
X014659Y014674D01*
X014694Y014793D02*
X014519Y014793D01*
X014389Y014911D02*
X014777Y014911D01*
X015338Y014911D02*
X019971Y014911D01*
X020011Y014793D02*
X015420Y014793D01*
X015456Y014674D02*
X020011Y014674D01*
X020011Y014555D02*
X015456Y014555D01*
X015409Y014437D02*
X019938Y014437D01*
X019842Y014318D02*
X015311Y014318D01*
X014834Y014081D02*
X007610Y014081D01*
X007562Y013963D02*
X014641Y013963D01*
X014565Y013844D02*
X007562Y013844D01*
X007562Y013726D02*
X014534Y013726D01*
X014535Y013607D02*
X007562Y013607D01*
X007562Y013489D02*
X014552Y013489D01*
X014552Y013370D02*
X007562Y013370D01*
X007562Y013251D02*
X014552Y013251D01*
X014552Y013133D02*
X007562Y013133D01*
X007562Y013014D02*
X014552Y013014D01*
X014552Y012896D02*
X007562Y012896D01*
X007562Y012777D02*
X014552Y012777D01*
X014551Y012659D02*
X012215Y012659D01*
X012270Y012604D02*
X012158Y012716D01*
X012011Y012776D01*
X011853Y012776D01*
X011706Y012716D01*
X011594Y012604D01*
X011534Y012457D01*
X011534Y012299D01*
X011594Y012152D01*
X011706Y012040D01*
X011853Y011980D01*
X012011Y011980D01*
X012158Y012040D01*
X012270Y012152D01*
X012331Y012299D01*
X012331Y012457D01*
X012270Y012604D01*
X012296Y012540D02*
X014432Y012540D01*
X014313Y012422D02*
X012331Y012422D01*
X012331Y012303D02*
X014195Y012303D01*
X014076Y012185D02*
X012283Y012185D01*
X012184Y012066D02*
X013958Y012066D01*
X013839Y011948D02*
X007562Y011948D01*
X007562Y012066D02*
X011681Y012066D01*
X011581Y012185D02*
X007562Y012185D01*
X007562Y012303D02*
X011534Y012303D01*
X011534Y012422D02*
X007562Y012422D01*
X007562Y012540D02*
X011568Y012540D01*
X011649Y012659D02*
X007562Y012659D01*
X007562Y011829D02*
X013721Y011829D01*
X013698Y009932D02*
X011167Y009932D01*
X011328Y009814D02*
X011622Y009814D01*
X011519Y009695D02*
X011416Y009695D01*
X011465Y009577D02*
X011468Y009577D01*
X011902Y009577D02*
X011962Y009577D01*
X011962Y009471D02*
X011962Y009925D01*
X011970Y009925D01*
X012046Y009913D01*
X012118Y009889D01*
X012186Y009854D01*
X012247Y009810D01*
X012301Y009756D01*
X012346Y009694D01*
X012381Y009626D01*
X012404Y009554D01*
X012416Y009479D01*
X012416Y009471D01*
X011962Y009471D01*
X011962Y009458D02*
X012902Y009458D01*
X012902Y009577D02*
X012962Y009577D01*
X012962Y009695D02*
X012902Y009695D01*
X012902Y009814D02*
X012962Y009814D01*
X013242Y009814D02*
X013536Y009814D01*
X013449Y009695D02*
X013345Y009695D01*
X013397Y009577D02*
X013400Y009577D01*
X012622Y009814D02*
X012242Y009814D01*
X012345Y009695D02*
X012519Y009695D01*
X012468Y009577D02*
X012397Y009577D01*
X012406Y009340D02*
X012458Y009340D01*
X012501Y009221D02*
X012364Y009221D01*
X012279Y009102D02*
X012586Y009102D01*
X012771Y008984D02*
X012093Y008984D01*
X012277Y008865D02*
X012588Y008865D01*
X012470Y008747D02*
X012394Y008747D01*
X011962Y009695D02*
X011902Y009695D01*
X011902Y009814D02*
X011962Y009814D01*
X010703Y010999D02*
X010117Y010999D01*
X010145Y011027D02*
X010206Y011174D01*
X010206Y011332D01*
X010145Y011479D01*
X010033Y011591D01*
X009886Y011651D01*
X009728Y011651D01*
X009581Y011591D01*
X009469Y011479D01*
X009409Y011332D01*
X009409Y011174D01*
X009469Y011027D01*
X009581Y010915D01*
X009728Y010855D01*
X009886Y010855D01*
X010033Y010915D01*
X010145Y011027D01*
X010182Y011118D02*
X010822Y011118D01*
X010941Y011236D02*
X010206Y011236D01*
X010196Y011355D02*
X011059Y011355D01*
X011178Y011473D02*
X010147Y011473D01*
X010030Y011592D02*
X011296Y011592D01*
X011429Y011710D02*
X007562Y011710D01*
X007562Y011592D02*
X009584Y011592D01*
X009467Y011473D02*
X007562Y011473D01*
X007562Y011355D02*
X009418Y011355D01*
X009409Y011236D02*
X007562Y011236D01*
X007562Y011118D02*
X009432Y011118D01*
X009498Y010999D02*
X007562Y010999D01*
X007562Y010881D02*
X009665Y010881D01*
X009949Y010881D02*
X010585Y010881D01*
X010466Y010762D02*
X007562Y010762D01*
X007562Y010644D02*
X010348Y010644D01*
X010229Y010525D02*
X007562Y010525D01*
X007562Y010406D02*
X010111Y010406D01*
X009992Y010288D02*
X007562Y010288D01*
X007562Y010169D02*
X009874Y010169D01*
X009817Y010051D02*
X007562Y010051D01*
X007562Y009932D02*
X009802Y009932D01*
X009802Y009814D02*
X007562Y009814D01*
X007562Y009695D02*
X009802Y009695D01*
X009802Y009577D02*
X007562Y009577D01*
X007562Y009458D02*
X009802Y009458D01*
X009802Y009340D02*
X007562Y009340D01*
X007562Y009221D02*
X009802Y009221D01*
X009802Y009102D02*
X007562Y009102D01*
X007562Y008984D02*
X009802Y008984D01*
X009802Y008865D02*
X007562Y008865D01*
X007663Y008747D02*
X009802Y008747D01*
X009802Y008628D02*
X007782Y008628D01*
X007900Y008510D02*
X009802Y008510D01*
X009802Y008391D02*
X008019Y008391D01*
X008137Y008273D02*
X009802Y008273D01*
X009802Y008154D02*
X008256Y008154D01*
X008375Y008036D02*
X009835Y008036D01*
X009918Y007917D02*
X008493Y007917D01*
X008612Y007799D02*
X010037Y007799D01*
X010155Y007680D02*
X008730Y007680D01*
X008849Y007561D02*
X010274Y007561D01*
X010392Y007443D02*
X008967Y007443D01*
X009086Y007324D02*
X010573Y007324D01*
X014167Y009932D02*
X015698Y009932D01*
X015536Y009814D02*
X015242Y009814D01*
X015345Y009695D02*
X015449Y009695D01*
X015400Y009577D02*
X015397Y009577D01*
X014962Y009577D02*
X014902Y009577D01*
X014902Y009695D02*
X014962Y009695D01*
X014962Y009814D02*
X014902Y009814D01*
X014622Y009814D02*
X014328Y009814D01*
X014416Y009695D02*
X014519Y009695D01*
X014468Y009577D02*
X014465Y009577D01*
X014340Y014200D02*
X019793Y014200D01*
X019856Y015030D02*
X011745Y015030D01*
X011745Y015148D02*
X017498Y015148D01*
X017456Y015165D02*
X017603Y015105D01*
X017761Y015105D01*
X017908Y015165D01*
X018020Y015277D01*
X018081Y015424D01*
X018081Y015582D01*
X018020Y015729D01*
X017908Y015841D01*
X017761Y015901D01*
X017603Y015901D01*
X017456Y015841D01*
X017396Y015780D01*
X017456Y015924D01*
X017456Y016082D01*
X017395Y016229D01*
X017283Y016341D01*
X017136Y016401D01*
X016978Y016401D01*
X016831Y016341D01*
X016719Y016229D01*
X016659Y016082D01*
X016659Y015924D01*
X016719Y015777D01*
X016831Y015665D01*
X016978Y015605D01*
X017136Y015605D01*
X017283Y015665D01*
X017343Y015726D01*
X017284Y015582D01*
X017284Y015424D01*
X017344Y015277D01*
X017456Y015165D01*
X017355Y015267D02*
X014307Y015267D01*
X014307Y015385D02*
X017300Y015385D01*
X017284Y015504D02*
X014307Y015504D01*
X014307Y015622D02*
X016935Y015622D01*
X016756Y015741D02*
X014307Y015741D01*
X014307Y015859D02*
X016685Y015859D01*
X016659Y015978D02*
X014307Y015978D01*
X014307Y016097D02*
X016665Y016097D01*
X016714Y016215D02*
X014307Y016215D01*
X014307Y016334D02*
X016824Y016334D01*
X017290Y016334D02*
X023432Y016334D01*
X023432Y016452D02*
X014307Y016452D01*
X014307Y016571D02*
X023432Y016571D01*
X023432Y016689D02*
X014307Y016689D01*
X014307Y016808D02*
X023432Y016808D01*
X023432Y016926D02*
X014307Y016926D01*
X013975Y014911D02*
X011745Y014911D01*
X011745Y014793D02*
X013846Y014793D01*
X013796Y014674D02*
X011745Y014674D01*
X011745Y014555D02*
X013784Y014555D01*
X013804Y014437D02*
X011745Y014437D01*
X011745Y014318D02*
X013866Y014318D01*
X014024Y014200D02*
X011745Y014200D01*
X017179Y015622D02*
X017300Y015622D01*
X017429Y015859D02*
X017502Y015859D01*
X017456Y015978D02*
X019979Y015978D01*
X019861Y015859D02*
X017863Y015859D01*
X018008Y015741D02*
X019810Y015741D01*
X019761Y015622D02*
X018064Y015622D01*
X018081Y015504D02*
X019746Y015504D01*
X019746Y015385D02*
X018065Y015385D01*
X018009Y015267D02*
X019758Y015267D01*
X019807Y015148D02*
X017867Y015148D01*
X017450Y016097D02*
X020145Y016097D01*
X020818Y016097D02*
X022223Y016097D01*
X022251Y016104D02*
X022166Y016081D01*
X022084Y016047D01*
X022007Y016003D01*
X021937Y015949D01*
X021874Y015886D01*
X021821Y015816D01*
X021776Y015740D01*
X021742Y015658D01*
X021720Y015573D01*
X021710Y015500D01*
X022323Y015500D01*
X022323Y015381D01*
X021710Y015381D01*
X021720Y015309D01*
X021742Y015223D01*
X021776Y015141D01*
X021821Y015065D01*
X021874Y014995D01*
X021937Y014932D01*
X022007Y014878D01*
X022084Y014834D01*
X022166Y014800D01*
X022251Y014777D01*
X022323Y014768D01*
X022323Y015380D01*
X022443Y015380D01*
X022443Y014768D01*
X022515Y014777D01*
X022600Y014800D01*
X022682Y014834D01*
X022759Y014878D01*
X022829Y014932D01*
X022891Y014995D01*
X022945Y015065D01*
X022990Y015141D01*
X023023Y015223D01*
X023046Y015309D01*
X023056Y015381D01*
X022443Y015381D01*
X022443Y015500D01*
X023056Y015500D01*
X023046Y015573D01*
X023023Y015658D01*
X022990Y015740D01*
X022945Y015816D01*
X022891Y015886D01*
X022829Y015949D01*
X022759Y016003D01*
X022682Y016047D01*
X022600Y016081D01*
X022515Y016104D01*
X022443Y016113D01*
X022443Y015501D01*
X022323Y015501D01*
X022323Y016113D01*
X022251Y016104D01*
X022323Y016097D02*
X022443Y016097D01*
X022543Y016097D02*
X023432Y016097D01*
X023432Y016215D02*
X017401Y016215D01*
X017245Y017045D02*
X020202Y017045D01*
X020090Y017163D02*
X017245Y017163D01*
X017245Y017282D02*
X020041Y017282D01*
X020034Y017401D02*
X017245Y017401D01*
X017245Y017519D02*
X020059Y017519D01*
X020047Y017638D02*
X017245Y017638D01*
X020662Y017045D02*
X023432Y017045D01*
X023432Y017163D02*
X020774Y017163D01*
X020824Y017282D02*
X023341Y017282D01*
X023222Y017401D02*
X020831Y017401D01*
X020805Y017519D02*
X023104Y017519D01*
X022985Y017638D02*
X020736Y017638D01*
X020983Y015978D02*
X021975Y015978D01*
X021854Y015859D02*
X021102Y015859D01*
X021152Y015741D02*
X021777Y015741D01*
X021733Y015622D02*
X021202Y015622D01*
X021216Y015504D02*
X021711Y015504D01*
X021731Y015267D02*
X021205Y015267D01*
X021216Y015385D02*
X022323Y015385D01*
X022323Y015267D02*
X022443Y015267D01*
X022443Y015385D02*
X023432Y015385D01*
X023432Y015267D02*
X023035Y015267D01*
X022992Y015148D02*
X023432Y015148D01*
X023432Y015030D02*
X022918Y015030D01*
X022802Y014911D02*
X023432Y014911D01*
X023432Y014793D02*
X022572Y014793D01*
X022443Y014793D02*
X022323Y014793D01*
X022323Y014911D02*
X022443Y014911D01*
X022443Y015030D02*
X022323Y015030D01*
X022323Y015148D02*
X022443Y015148D01*
X022443Y015504D02*
X022323Y015504D01*
X022323Y015622D02*
X022443Y015622D01*
X022443Y015741D02*
X022323Y015741D01*
X022323Y015859D02*
X022443Y015859D01*
X022443Y015978D02*
X022323Y015978D01*
X022791Y015978D02*
X023432Y015978D01*
X023432Y015859D02*
X022912Y015859D01*
X022989Y015741D02*
X023409Y015741D01*
X023409Y015622D02*
X023033Y015622D01*
X023055Y015504D02*
X023432Y015504D01*
X023432Y014674D02*
X020951Y014674D01*
X020951Y014793D02*
X022193Y014793D01*
X022251Y014604D02*
X022166Y014581D01*
X022084Y014547D01*
X022007Y014503D01*
X021937Y014449D01*
X021874Y014386D01*
X021821Y014316D01*
X021776Y014240D01*
X021742Y014158D01*
X021720Y014073D01*
X021710Y014000D01*
X022323Y014000D01*
X022323Y013881D01*
X021710Y013881D01*
X021720Y013809D01*
X021742Y013723D01*
X021776Y013641D01*
X021821Y013565D01*
X021874Y013495D01*
X021937Y013432D01*
X022007Y013378D01*
X022084Y013334D01*
X022166Y013300D01*
X022251Y013277D01*
X022323Y013268D01*
X022323Y013880D01*
X022443Y013880D01*
X022443Y013268D01*
X022515Y013277D01*
X022600Y013300D01*
X022682Y013334D01*
X022759Y013378D01*
X022829Y013432D01*
X022891Y013495D01*
X022945Y013565D01*
X022990Y013641D01*
X023023Y013723D01*
X023046Y013809D01*
X023056Y013881D01*
X022443Y013881D01*
X022443Y014000D01*
X023056Y014000D01*
X023046Y014073D01*
X023023Y014158D01*
X022990Y014240D01*
X022945Y014316D01*
X022891Y014386D01*
X022829Y014449D01*
X022759Y014503D01*
X022682Y014547D01*
X022600Y014581D01*
X022515Y014604D01*
X022443Y014613D01*
X022443Y014001D01*
X022323Y014001D01*
X022323Y014613D01*
X022251Y014604D01*
X022323Y014555D02*
X022443Y014555D01*
X022443Y014437D02*
X022323Y014437D01*
X022323Y014318D02*
X022443Y014318D01*
X022443Y014200D02*
X022323Y014200D01*
X022323Y014081D02*
X022443Y014081D01*
X022443Y013963D02*
X023432Y013963D01*
X023432Y014081D02*
X023044Y014081D01*
X023006Y014200D02*
X023432Y014200D01*
X023432Y014318D02*
X022944Y014318D01*
X022841Y014437D02*
X023432Y014437D01*
X023432Y014555D02*
X022662Y014555D01*
X022104Y014555D02*
X020951Y014555D01*
X021024Y014437D02*
X021925Y014437D01*
X021822Y014318D02*
X021120Y014318D01*
X021169Y014200D02*
X021760Y014200D01*
X021722Y014081D02*
X021216Y014081D01*
X021216Y013963D02*
X022323Y013963D01*
X022323Y013844D02*
X022443Y013844D01*
X022443Y013726D02*
X022323Y013726D01*
X022323Y013607D02*
X022443Y013607D01*
X022443Y013489D02*
X022323Y013489D01*
X022323Y013370D02*
X022443Y013370D01*
X022745Y013370D02*
X023432Y013370D01*
X023432Y013251D02*
X020738Y013251D01*
X020730Y013133D02*
X022134Y013133D01*
X021917Y013014D02*
X020947Y013014D01*
X020950Y013370D02*
X022021Y013370D01*
X021880Y013489D02*
X021069Y013489D01*
X021139Y013607D02*
X021796Y013607D01*
X021742Y013726D02*
X021188Y013726D01*
X021216Y013844D02*
X021715Y013844D01*
X021964Y014911D02*
X020991Y014911D01*
X021107Y015030D02*
X021848Y015030D01*
X021774Y015148D02*
X021156Y015148D01*
X020233Y013133D02*
X020211Y013133D01*
X022632Y013133D02*
X023432Y013133D01*
X023432Y013014D02*
X022848Y013014D01*
X022886Y013489D02*
X023432Y013489D01*
X023411Y013607D02*
X022970Y013607D01*
X023024Y013726D02*
X023409Y013726D01*
X023432Y013844D02*
X023051Y013844D01*
D24*
X020481Y013941D02*
X020481Y015441D01*
M02*
